G04 #@! TF.GenerationSoftware,KiCad,Pcbnew,6.0.10-86aedd382b~118~ubuntu22.04.1*
G04 #@! TF.CreationDate,2023-01-31T23:37:38-05:00*
G04 #@! TF.ProjectId,hackrf-one,6861636b-7266-42d6-9f6e-652e6b696361,r9*
G04 #@! TF.SameCoordinates,Original*
G04 #@! TF.FileFunction,Paste,Top*
G04 #@! TF.FilePolarity,Positive*
%FSLAX46Y46*%
G04 Gerber Fmt 4.6, Leading zero omitted, Abs format (unit mm)*
G04 Created by KiCad (PCBNEW 6.0.10-86aedd382b~118~ubuntu22.04.1) date 2023-01-31 23:37:38*
%MOMM*%
%LPD*%
G01*
G04 APERTURE LIST*
G04 Aperture macros list*
%AMRoundRect*
0 Rectangle with rounded corners*
0 $1 Rounding radius*
0 $2 $3 $4 $5 $6 $7 $8 $9 X,Y pos of 4 corners*
0 Add a 4 corners polygon primitive as box body*
4,1,4,$2,$3,$4,$5,$6,$7,$8,$9,$2,$3,0*
0 Add four circle primitives for the rounded corners*
1,1,$1+$1,$2,$3*
1,1,$1+$1,$4,$5*
1,1,$1+$1,$6,$7*
1,1,$1+$1,$8,$9*
0 Add four rect primitives between the rounded corners*
20,1,$1+$1,$2,$3,$4,$5,0*
20,1,$1+$1,$4,$5,$6,$7,0*
20,1,$1+$1,$6,$7,$8,$9,0*
20,1,$1+$1,$8,$9,$2,$3,0*%
%AMRotRect*
0 Rectangle, with rotation*
0 The origin of the aperture is its center*
0 $1 length*
0 $2 width*
0 $3 Rotation angle, in degrees counterclockwise*
0 Add horizontal line*
21,1,$1,$2,0,0,$3*%
G04 Aperture macros list end*
%ADD10R,0.760000X1.140000*%
%ADD11R,0.424688X0.386080*%
%ADD12R,0.386080X0.424688*%
%ADD13R,1.094536X0.874472*%
%ADD14R,0.874472X1.094536*%
%ADD15RotRect,0.386080X0.424688X135.000000*%
%ADD16RotRect,0.386080X0.424688X225.000000*%
%ADD17RotRect,0.386080X0.424688X315.000000*%
%ADD18RotRect,0.386080X0.424688X45.000000*%
%ADD19R,1.314000X1.926000*%
%ADD20R,1.890000X1.575000*%
%ADD21R,1.596000X1.045000*%
%ADD22R,1.330000X0.304000*%
%ADD23R,0.656336X0.656336*%
%ADD24R,2.812592X0.911148*%
%ADD25R,0.694944X0.694944*%
%ADD26R,0.250952X0.310794*%
%ADD27R,0.310794X0.250952*%
%ADD28R,0.418896X0.189180*%
%ADD29R,0.220800X0.619200*%
%ADD30R,0.780480X0.288000*%
%ADD31R,0.619200X0.220800*%
%ADD32R,0.288000X0.780480*%
%ADD33R,0.380288X0.303072*%
%ADD34R,0.836000X0.836000*%
%ADD35O,0.212800X1.026000*%
%ADD36O,1.026000X0.212800*%
%ADD37R,0.380288X0.532790*%
%ADD38R,0.455574X0.380288*%
%ADD39R,0.588000X1.078000*%
%ADD40R,0.608000X0.182400*%
%ADD41R,1.078000X0.588000*%
%ADD42R,0.182400X0.608000*%
%ADD43R,0.752856X0.347472*%
%ADD44R,0.380000X0.836000*%
%ADD45R,0.684000X0.228000*%
%ADD46RoundRect,0.250000X0.321265X-0.321265X0.321265X0.321265X-0.321265X0.321265X-0.321265X-0.321265X0*%
%ADD47RoundRect,0.000000X0.114000X-0.304000X0.114000X0.304000X-0.114000X0.304000X-0.114000X-0.304000X0*%
%ADD48RoundRect,0.039000X0.265000X-0.075000X0.265000X0.075000X-0.265000X0.075000X-0.265000X-0.075000X0*%
%ADD49R,1.254000X1.254000*%
%ADD50O,0.212800X0.684000*%
%ADD51O,0.684000X0.212800*%
%ADD52R,1.064000X0.228000*%
%ADD53R,1.447800X0.482600*%
%ADD54R,0.212800X0.532000*%
%ADD55R,0.627000X0.912000*%
%ADD56R,0.646000X0.212800*%
%ADD57RotRect,1.140866X0.223926X225.000000*%
%ADD58RotRect,1.140866X0.223926X315.000000*%
%ADD59R,0.223926X1.140866*%
%ADD60R,1.140866X0.223926*%
%ADD61R,0.911148X1.063650*%
%ADD62RotRect,1.063650X0.911148X45.000000*%
%ADD63R,1.824000X1.140000*%
%ADD64R,0.836000X0.456000*%
%ADD65R,0.456000X0.266000*%
%ADD66R,0.304000X0.494000*%
%ADD67RoundRect,0.000000X0.083600X-0.247000X0.083600X0.247000X-0.083600X0.247000X-0.083600X-0.247000X0*%
%ADD68RoundRect,0.000000X0.083600X-0.209000X0.083600X0.209000X-0.083600X0.209000X-0.083600X-0.209000X0*%
%ADD69RoundRect,0.000000X0.209000X0.083600X-0.209000X0.083600X-0.209000X-0.083600X0.209000X-0.083600X0*%
%ADD70RoundRect,0.000000X-0.083600X0.209000X-0.083600X-0.209000X0.083600X-0.209000X0.083600X0.209000X0*%
%ADD71RoundRect,0.000000X-0.209000X-0.083600X0.209000X-0.083600X0.209000X0.083600X-0.209000X0.083600X0*%
%ADD72RoundRect,0.000000X-0.083600X0.247000X-0.083600X-0.247000X0.083600X-0.247000X0.083600X0.247000X0*%
%ADD73RoundRect,0.000000X0.152000X0.114000X-0.152000X0.114000X-0.152000X-0.114000X0.152000X-0.114000X0*%
%ADD74RoundRect,0.000000X0.247000X0.083600X-0.247000X0.083600X-0.247000X-0.083600X0.247000X-0.083600X0*%
G04 APERTURE END LIST*
D10*
G04 #@! TO.C,D6*
X61270000Y-150088000D03*
X61270000Y-147588000D03*
G04 #@! TD*
G04 #@! TO.C,D4*
X61270000Y-140944000D03*
X61270000Y-138444000D03*
G04 #@! TD*
G04 #@! TO.C,D8*
X61270000Y-131800000D03*
X61270000Y-129300000D03*
G04 #@! TD*
G04 #@! TO.C,D5*
X61270000Y-145516000D03*
X61270000Y-143016000D03*
G04 #@! TD*
G04 #@! TO.C,D2*
X61270000Y-136372000D03*
X61270000Y-133872000D03*
G04 #@! TD*
G04 #@! TO.C,D7*
X61000000Y-119150000D03*
X61000000Y-116650000D03*
G04 #@! TD*
D11*
G04 #@! TO.C,C1*
X91096400Y-162513400D03*
X91096400Y-163580200D03*
G04 #@! TD*
G04 #@! TO.C,C2*
X90080400Y-162513400D03*
X90080400Y-163580200D03*
G04 #@! TD*
G04 #@! TO.C,C3*
X93128400Y-162513400D03*
X93128400Y-163580200D03*
G04 #@! TD*
G04 #@! TO.C,C4*
X92112400Y-162513400D03*
X92112400Y-163580200D03*
G04 #@! TD*
G04 #@! TO.C,C5*
X92341000Y-152861400D03*
X92341000Y-151794600D03*
G04 #@! TD*
G04 #@! TO.C,C6*
X93357000Y-152861400D03*
X93357000Y-151794600D03*
G04 #@! TD*
D12*
G04 #@! TO.C,C7*
X107617400Y-168576200D03*
X106550600Y-168576200D03*
G04 #@! TD*
D11*
G04 #@! TO.C,C8*
X113919000Y-154914600D03*
X113919000Y-155981400D03*
G04 #@! TD*
G04 #@! TO.C,C9*
X85400000Y-149701600D03*
X85400000Y-148634800D03*
G04 #@! TD*
D12*
G04 #@! TO.C,C10*
X87447400Y-143481600D03*
X88514200Y-143481600D03*
G04 #@! TD*
D11*
G04 #@! TO.C,C11*
X84713800Y-143995600D03*
X84713800Y-142928800D03*
G04 #@! TD*
G04 #@! TO.C,C12*
X87794400Y-153293200D03*
X87794400Y-154360000D03*
G04 #@! TD*
D12*
G04 #@! TO.C,C13*
X89089800Y-150905600D03*
X88023000Y-150905600D03*
G04 #@! TD*
D11*
G04 #@! TO.C,C14*
X90334400Y-153217000D03*
X90334400Y-152150200D03*
G04 #@! TD*
D12*
G04 #@! TO.C,C15*
X90309000Y-150905600D03*
X91375800Y-150905600D03*
G04 #@! TD*
D11*
G04 #@! TO.C,C16*
X106499800Y-164690000D03*
X106499800Y-163623200D03*
G04 #@! TD*
D12*
G04 #@! TO.C,C17*
X82402400Y-141938200D03*
X83469200Y-141938200D03*
G04 #@! TD*
G04 #@! TO.C,C18*
X78338400Y-141938200D03*
X79405200Y-141938200D03*
G04 #@! TD*
D11*
G04 #@! TO.C,C19*
X77093800Y-143868600D03*
X77093800Y-142801800D03*
G04 #@! TD*
D12*
G04 #@! TO.C,C20*
X87274400Y-141528800D03*
X88341200Y-141528800D03*
G04 #@! TD*
G04 #@! TO.C,C21*
X102971600Y-165379400D03*
X101904800Y-165379400D03*
G04 #@! TD*
G04 #@! TO.C,C22*
X95439800Y-166272600D03*
X96506600Y-166272600D03*
G04 #@! TD*
D11*
G04 #@! TO.C,C23*
X101269800Y-151714200D03*
X101269800Y-150647400D03*
G04 #@! TD*
G04 #@! TO.C,C24*
X92679800Y-142948200D03*
X92679800Y-144015000D03*
G04 #@! TD*
D12*
G04 #@! TO.C,C25*
X96659000Y-163732600D03*
X97725800Y-163732600D03*
G04 #@! TD*
G04 #@! TO.C,C26*
X79405200Y-138890200D03*
X78338400Y-138890200D03*
G04 #@! TD*
G04 #@! TO.C,C27*
X82402400Y-138890200D03*
X83469200Y-138890200D03*
G04 #@! TD*
G04 #@! TO.C,C28*
X96659000Y-164875600D03*
X97725800Y-164875600D03*
G04 #@! TD*
G04 #@! TO.C,C29*
X75950800Y-138712400D03*
X74884000Y-138712400D03*
G04 #@! TD*
G04 #@! TO.C,C30*
X85566600Y-138200000D03*
X86633400Y-138200000D03*
G04 #@! TD*
D11*
G04 #@! TO.C,C31*
X75595200Y-142979600D03*
X75595200Y-141912800D03*
G04 #@! TD*
D12*
G04 #@! TO.C,C32*
X102971600Y-168808400D03*
X101904800Y-168808400D03*
G04 #@! TD*
D11*
G04 #@! TO.C,C33*
X100113400Y-164672400D03*
X100113400Y-163605600D03*
G04 #@! TD*
G04 #@! TO.C,C34*
X98310000Y-152455000D03*
X98310000Y-151388200D03*
G04 #@! TD*
G04 #@! TO.C,C35*
X97167000Y-151693000D03*
X97167000Y-150626200D03*
G04 #@! TD*
G04 #@! TO.C,C36*
X96024000Y-151312000D03*
X96024000Y-150245200D03*
G04 #@! TD*
D12*
G04 #@! TO.C,C37*
X94271400Y-149915000D03*
X93204600Y-149915000D03*
G04 #@! TD*
G04 #@! TO.C,C38*
X71912200Y-142827200D03*
X72979000Y-142827200D03*
G04 #@! TD*
D11*
G04 #@! TO.C,C39*
X81305400Y-147878800D03*
X81305400Y-146812000D03*
G04 #@! TD*
D12*
G04 #@! TO.C,C40*
X71912200Y-144071800D03*
X72979000Y-144071800D03*
G04 #@! TD*
G04 #@! TO.C,C41*
X98792600Y-161827600D03*
X99859400Y-161827600D03*
G04 #@! TD*
G04 #@! TO.C,C42*
X98589400Y-154715600D03*
X97522600Y-154715600D03*
G04 #@! TD*
G04 #@! TO.C,C43*
X72542400Y-145415000D03*
X71475600Y-145415000D03*
G04 #@! TD*
D11*
G04 #@! TO.C,C44*
X79679800Y-149961600D03*
X79679800Y-148894800D03*
G04 #@! TD*
D12*
G04 #@! TO.C,C45*
X102057200Y-155651200D03*
X103124000Y-155651200D03*
G04 #@! TD*
G04 #@! TO.C,C46*
X103581200Y-156794200D03*
X102514400Y-156794200D03*
G04 #@! TD*
D11*
G04 #@! TO.C,C47*
X112166400Y-157099000D03*
X112166400Y-156032200D03*
G04 #@! TD*
G04 #@! TO.C,C48*
X108737400Y-154533600D03*
X108737400Y-153466800D03*
G04 #@! TD*
G04 #@! TO.C,C49*
X100850000Y-155706200D03*
X100850000Y-156773000D03*
G04 #@! TD*
D12*
G04 #@! TO.C,C50*
X75144600Y-152920000D03*
X76211400Y-152920000D03*
G04 #@! TD*
G04 #@! TO.C,C51*
X107274800Y-159434000D03*
X106208000Y-159434000D03*
G04 #@! TD*
G04 #@! TO.C,C52*
X71131400Y-152920000D03*
X70064600Y-152920000D03*
G04 #@! TD*
G04 #@! TO.C,C53*
X71480800Y-147999800D03*
X70414000Y-147999800D03*
G04 #@! TD*
G04 #@! TO.C,C54*
X103657400Y-159664400D03*
X102590600Y-159664400D03*
G04 #@! TD*
G04 #@! TO.C,C55*
X79843600Y-153428000D03*
X80910400Y-153428000D03*
G04 #@! TD*
D11*
G04 #@! TO.C,C56*
X107391200Y-155397200D03*
X107391200Y-154330400D03*
G04 #@! TD*
G04 #@! TO.C,C57*
X76835000Y-149961600D03*
X76835000Y-148894800D03*
G04 #@! TD*
G04 #@! TO.C,C58*
X71614000Y-157644400D03*
X71614000Y-156577600D03*
G04 #@! TD*
D12*
G04 #@! TO.C,C59*
X79208600Y-155714000D03*
X80275400Y-155714000D03*
G04 #@! TD*
G04 #@! TO.C,C60*
X74509600Y-151396000D03*
X75576400Y-151396000D03*
G04 #@! TD*
D11*
G04 #@! TO.C,C61*
X76363800Y-156857000D03*
X76363800Y-155790200D03*
G04 #@! TD*
D12*
G04 #@! TO.C,C62*
X75017600Y-160032000D03*
X76084400Y-160032000D03*
G04 #@! TD*
D11*
G04 #@! TO.C,C63*
X73087200Y-161708400D03*
X73087200Y-162775200D03*
G04 #@! TD*
D12*
G04 #@! TO.C,C64*
X71663400Y-160810000D03*
X70596600Y-160810000D03*
G04 #@! TD*
G04 #@! TO.C,C65*
X69302600Y-158000000D03*
X70369400Y-158000000D03*
G04 #@! TD*
G04 #@! TO.C,C66*
X69302600Y-155841000D03*
X70369400Y-155841000D03*
G04 #@! TD*
D11*
G04 #@! TO.C,C67*
X87700000Y-158533400D03*
X87700000Y-157466600D03*
G04 #@! TD*
G04 #@! TO.C,C68*
X126800000Y-164566600D03*
X126800000Y-165633400D03*
G04 #@! TD*
G04 #@! TO.C,C69*
X125700000Y-164566600D03*
X125700000Y-165633400D03*
G04 #@! TD*
G04 #@! TO.C,C70*
X87800000Y-156433400D03*
X87800000Y-155366600D03*
G04 #@! TD*
G04 #@! TO.C,C71*
X100482400Y-118024400D03*
X100482400Y-119091200D03*
G04 #@! TD*
G04 #@! TO.C,C72*
X99466400Y-118024400D03*
X99466400Y-119091200D03*
G04 #@! TD*
G04 #@! TO.C,C73*
X103403400Y-118024400D03*
X103403400Y-119091200D03*
G04 #@! TD*
G04 #@! TO.C,C74*
X102387400Y-118024400D03*
X102387400Y-119091200D03*
G04 #@! TD*
G04 #@! TO.C,C75*
X105435400Y-118024400D03*
X105435400Y-119091200D03*
G04 #@! TD*
G04 #@! TO.C,C76*
X106451400Y-118024400D03*
X106451400Y-119091200D03*
G04 #@! TD*
G04 #@! TO.C,C77*
X101625400Y-106899200D03*
X101625400Y-105832400D03*
G04 #@! TD*
G04 #@! TO.C,C78*
X100609400Y-106899200D03*
X100609400Y-105832400D03*
G04 #@! TD*
D12*
G04 #@! TO.C,C79*
X97269300Y-110493300D03*
X96202500Y-110493300D03*
G04 #@! TD*
D11*
G04 #@! TO.C,C80*
X97243900Y-109375700D03*
X97243900Y-108308900D03*
G04 #@! TD*
D12*
G04 #@! TO.C,C81*
X96634300Y-113160300D03*
X95567500Y-113160300D03*
G04 #@! TD*
G04 #@! TO.C,C82*
X96634300Y-112144300D03*
X95567500Y-112144300D03*
G04 #@! TD*
G04 #@! TO.C,C83*
X96888300Y-115319300D03*
X95821500Y-115319300D03*
G04 #@! TD*
D11*
G04 #@! TO.C,C84*
X106925000Y-147366600D03*
X106925000Y-148433400D03*
G04 #@! TD*
G04 #@! TO.C,C85*
X109975000Y-147366600D03*
X109975000Y-148433400D03*
G04 #@! TD*
D12*
G04 #@! TO.C,C86*
X114066600Y-144200000D03*
X115133400Y-144200000D03*
G04 #@! TD*
G04 #@! TO.C,C87*
X102933400Y-140000000D03*
X101866600Y-140000000D03*
G04 #@! TD*
G04 #@! TO.C,C88*
X114066600Y-141216000D03*
X115133400Y-141216000D03*
G04 #@! TD*
G04 #@! TO.C,C89*
X114066600Y-140216000D03*
X115133400Y-140216000D03*
G04 #@! TD*
D11*
G04 #@! TO.C,C90*
X111075000Y-136233400D03*
X111075000Y-135166600D03*
G04 #@! TD*
G04 #@! TO.C,C91*
X110075000Y-136233400D03*
X110075000Y-135166600D03*
G04 #@! TD*
D12*
G04 #@! TO.C,C92*
X102933400Y-141000000D03*
X101866600Y-141000000D03*
G04 #@! TD*
G04 #@! TO.C,C93*
X102933400Y-143616000D03*
X101866600Y-143616000D03*
G04 #@! TD*
D11*
G04 #@! TO.C,C94*
X105675000Y-147366600D03*
X105675000Y-148433400D03*
G04 #@! TD*
D12*
G04 #@! TO.C,C95*
X91922600Y-123460000D03*
X92989400Y-123460000D03*
G04 #@! TD*
G04 #@! TO.C,C96*
X95046800Y-123460000D03*
X96113600Y-123460000D03*
G04 #@! TD*
D11*
G04 #@! TO.C,C97*
X96418400Y-118024400D03*
X96418400Y-119091200D03*
G04 #@! TD*
G04 #@! TO.C,C98*
X97434400Y-118024400D03*
X97434400Y-119091200D03*
G04 #@! TD*
G04 #@! TO.C,C99*
X107925000Y-147350600D03*
X107925000Y-148417400D03*
G04 #@! TD*
G04 #@! TO.C,C100*
X98450400Y-118024400D03*
X98450400Y-119091200D03*
G04 #@! TD*
D12*
G04 #@! TO.C,C101*
X100114100Y-123701300D03*
X101180900Y-123701300D03*
G04 #@! TD*
D11*
G04 #@! TO.C,C102*
X108941000Y-147350600D03*
X108941000Y-148417400D03*
G04 #@! TD*
D12*
G04 #@! TO.C,C103*
X103238300Y-123701300D03*
X104305100Y-123701300D03*
G04 #@! TD*
D11*
G04 #@! TO.C,C104*
X111004500Y-147370500D03*
X111004500Y-148437300D03*
G04 #@! TD*
D13*
G04 #@! TO.C,C105*
X87152600Y-125368400D03*
X87152600Y-123336400D03*
G04 #@! TD*
D11*
G04 #@! TO.C,C106*
X112075000Y-136233400D03*
X112075000Y-135166600D03*
G04 #@! TD*
G04 #@! TO.C,C107*
X104470200Y-122698000D03*
X104470200Y-121631200D03*
G04 #@! TD*
G04 #@! TO.C,C108*
X103200200Y-122698000D03*
X103200200Y-121631200D03*
G04 #@! TD*
G04 #@! TO.C,C109*
X101346000Y-122698000D03*
X101346000Y-121631200D03*
G04 #@! TD*
G04 #@! TO.C,C110*
X100076000Y-122698000D03*
X100076000Y-121631200D03*
G04 #@! TD*
G04 #@! TO.C,C111*
X112020500Y-147370500D03*
X112020500Y-148437300D03*
G04 #@! TD*
G04 #@! TO.C,C112*
X114100000Y-136682600D03*
X114100000Y-137749400D03*
G04 #@! TD*
G04 #@! TO.C,C113*
X109400000Y-130166600D03*
X109400000Y-131233400D03*
G04 #@! TD*
G04 #@! TO.C,C114*
X115100000Y-136682600D03*
X115100000Y-137749400D03*
G04 #@! TD*
D12*
G04 #@! TO.C,C115*
X115733400Y-142200000D03*
X114666600Y-142200000D03*
G04 #@! TD*
G04 #@! TO.C,C116*
X114666600Y-143200000D03*
X115733400Y-143200000D03*
G04 #@! TD*
G04 #@! TO.C,C118*
X161433400Y-155100000D03*
X160366600Y-155100000D03*
G04 #@! TD*
D11*
G04 #@! TO.C,C119*
X121300000Y-160533400D03*
X121300000Y-159466600D03*
G04 #@! TD*
G04 #@! TO.C,C120*
X128600000Y-156833400D03*
X128600000Y-155766600D03*
G04 #@! TD*
D12*
G04 #@! TO.C,C121*
X112103400Y-123600000D03*
X111036600Y-123600000D03*
G04 #@! TD*
G04 #@! TO.C,C122*
X130643400Y-169600000D03*
X129576600Y-169600000D03*
G04 #@! TD*
G04 #@! TO.C,C123*
X108458000Y-113058700D03*
X109524800Y-113058700D03*
G04 #@! TD*
G04 #@! TO.C,C124*
X108458000Y-112042700D03*
X109524800Y-112042700D03*
G04 #@! TD*
G04 #@! TO.C,C125*
X174000400Y-117793200D03*
X172933600Y-117793200D03*
G04 #@! TD*
D14*
G04 #@! TO.C,C126*
X168514000Y-117412200D03*
X170546000Y-117412200D03*
G04 #@! TD*
G04 #@! TO.C,C127*
X168514000Y-115253200D03*
X170546000Y-115253200D03*
G04 #@! TD*
D15*
G04 #@! TO.C,C128*
X151223451Y-123656520D03*
X150469109Y-122902178D03*
G04 #@! TD*
G04 #@! TO.C,C129*
X144308653Y-125721979D03*
X143554311Y-124967637D03*
G04 #@! TD*
G04 #@! TO.C,C130*
X137932672Y-132097961D03*
X137178330Y-131343619D03*
G04 #@! TD*
D12*
G04 #@! TO.C,C131*
X133431400Y-137001600D03*
X132364600Y-137001600D03*
G04 #@! TD*
D16*
G04 #@! TO.C,C132*
X134875371Y-145336629D03*
X134121029Y-146090971D03*
G04 #@! TD*
G04 #@! TO.C,C133*
X140806354Y-151100182D03*
X140052012Y-151854524D03*
G04 #@! TD*
G04 #@! TO.C,C134*
X145386284Y-155680113D03*
X144631942Y-156434455D03*
G04 #@! TD*
D17*
G04 #@! TO.C,C135*
X153432593Y-155320903D03*
X154186935Y-156075245D03*
G04 #@! TD*
G04 #@! TO.C,C136*
X159090154Y-149663341D03*
X159844496Y-150417683D03*
G04 #@! TD*
G04 #@! TO.C,C137*
X160526995Y-148226500D03*
X161281337Y-148980842D03*
G04 #@! TD*
G04 #@! TO.C,C138*
X162592454Y-146161041D03*
X163346796Y-146915383D03*
G04 #@! TD*
G04 #@! TO.C,C139*
X164029295Y-144724200D03*
X164783637Y-145478542D03*
G04 #@! TD*
G04 #@! TO.C,C140*
X164568111Y-136103154D03*
X165322453Y-136857496D03*
G04 #@! TD*
D18*
G04 #@! TO.C,C141*
X156934893Y-127967043D03*
X157689235Y-127212701D03*
G04 #@! TD*
G04 #@! TO.C,C142*
X159718772Y-130930527D03*
X160473114Y-130176185D03*
G04 #@! TD*
D13*
G04 #@! TO.C,C143*
X174483000Y-111062200D03*
X174483000Y-113094200D03*
G04 #@! TD*
D12*
G04 #@! TO.C,C144*
X154152600Y-160578800D03*
X153085800Y-160578800D03*
G04 #@! TD*
D14*
G04 #@! TO.C,C145*
X170546000Y-108649200D03*
X168514000Y-108649200D03*
G04 #@! TD*
G04 #@! TO.C,C146*
X170546000Y-106490200D03*
X168514000Y-106490200D03*
G04 #@! TD*
D11*
G04 #@! TO.C,C147*
X172832000Y-111544800D03*
X172832000Y-112611600D03*
G04 #@! TD*
G04 #@! TO.C,C148*
X137668000Y-117627400D03*
X137668000Y-118694200D03*
G04 #@! TD*
D12*
G04 #@! TO.C,C149*
X138054200Y-111703200D03*
X139121000Y-111703200D03*
G04 #@! TD*
D11*
G04 #@! TO.C,C150*
X130810000Y-106121200D03*
X130810000Y-105054400D03*
G04 #@! TD*
D12*
G04 #@! TO.C,C152*
X123881000Y-128010000D03*
X124947800Y-128010000D03*
G04 #@! TD*
G04 #@! TO.C,C153*
X115087400Y-117017800D03*
X114020600Y-117017800D03*
G04 #@! TD*
D11*
G04 #@! TO.C,C154*
X121400000Y-126666600D03*
X121400000Y-127733400D03*
G04 #@! TD*
D14*
G04 #@! TO.C,C155*
X178316000Y-117800000D03*
X176284000Y-117800000D03*
G04 #@! TD*
D11*
G04 #@! TO.C,C156*
X127900000Y-165066600D03*
X127900000Y-166133400D03*
G04 #@! TD*
D18*
G04 #@! TO.C,C157*
X163939493Y-134612432D03*
X164693835Y-133858090D03*
G04 #@! TD*
D17*
G04 #@! TO.C,C158*
X164478308Y-130086383D03*
X165232650Y-130840725D03*
G04 #@! TD*
D12*
G04 #@! TO.C,C160*
X76084400Y-161810000D03*
X75017600Y-161810000D03*
G04 #@! TD*
D11*
G04 #@! TO.C,C161*
X78105700Y-167651400D03*
X78105700Y-168718200D03*
G04 #@! TD*
D12*
G04 #@! TO.C,C162*
X76160600Y-163080000D03*
X77227400Y-163080000D03*
G04 #@! TD*
D11*
G04 #@! TO.C,C163*
X69100000Y-150766600D03*
X69100000Y-151833400D03*
G04 #@! TD*
D12*
G04 #@! TO.C,C164*
X161466600Y-151900000D03*
X162533400Y-151900000D03*
G04 #@! TD*
D11*
G04 #@! TO.C,C166*
X120200000Y-166100000D03*
X120200000Y-167166800D03*
G04 #@! TD*
G04 #@! TO.C,C167*
X81793200Y-119577200D03*
X81793200Y-120644000D03*
G04 #@! TD*
D12*
G04 #@! TO.C,C169*
X130666700Y-165300000D03*
X131733500Y-165300000D03*
G04 #@! TD*
G04 #@! TO.C,C170*
X131733500Y-160400000D03*
X130666700Y-160400000D03*
G04 #@! TD*
D11*
G04 #@! TO.C,C171*
X72617400Y-167344400D03*
X72617400Y-168411200D03*
G04 #@! TD*
G04 #@! TO.C,D1*
X66200000Y-162033400D03*
X66200000Y-160966600D03*
G04 #@! TD*
G04 #@! TO.C,D3*
X173030000Y-165906800D03*
X173030000Y-164840000D03*
G04 #@! TD*
D12*
G04 #@! TO.C,D9*
X176211200Y-151000000D03*
X175144400Y-151000000D03*
G04 #@! TD*
D14*
G04 #@! TO.C,FB1*
X172016000Y-122050000D03*
X169984000Y-122050000D03*
G04 #@! TD*
G04 #@! TO.C,FB2*
X84937600Y-122529600D03*
X82905600Y-122529600D03*
G04 #@! TD*
G04 #@! TO.C,FB3*
X172016000Y-127800000D03*
X169984000Y-127800000D03*
G04 #@! TD*
D19*
G04 #@! TO.C,J1*
X175770000Y-126830000D03*
X175770000Y-121170000D03*
D20*
X178850000Y-128000000D03*
D21*
X178850000Y-123062500D03*
D20*
X178850000Y-120000000D03*
D21*
X178850000Y-124937500D03*
D22*
X175975000Y-122700000D03*
X175975000Y-123350000D03*
X175975000Y-124000000D03*
X175975000Y-124650000D03*
X175975000Y-125300000D03*
G04 #@! TD*
D12*
G04 #@! TO.C,L1*
X94627000Y-162335600D03*
X95693800Y-162335600D03*
G04 #@! TD*
D23*
G04 #@! TO.C,L2*
X98691000Y-159033600D03*
X98691000Y-160557600D03*
G04 #@! TD*
G04 #@! TO.C,L3*
X98691000Y-157509600D03*
X98691000Y-155985600D03*
G04 #@! TD*
D11*
G04 #@! TO.C,L4*
X97421000Y-157738200D03*
X97421000Y-158805000D03*
G04 #@! TD*
D23*
G04 #@! TO.C,L5*
X72376000Y-152920000D03*
X73900000Y-152920000D03*
G04 #@! TD*
D12*
G04 #@! TO.C,L6*
X107899600Y-149408000D03*
X108966400Y-149408000D03*
G04 #@! TD*
G04 #@! TO.C,L8*
X110979100Y-149427900D03*
X112045900Y-149427900D03*
G04 #@! TD*
D24*
G04 #@! TO.C,L10*
X165212000Y-114361660D03*
X165212000Y-117160740D03*
G04 #@! TD*
G04 #@! TO.C,L11*
X165212000Y-106741660D03*
X165212000Y-109540740D03*
G04 #@! TD*
D23*
G04 #@! TO.C,L12*
X77329000Y-161683000D03*
X77329000Y-160159000D03*
G04 #@! TD*
G04 #@! TO.C,L13*
X69400000Y-162562000D03*
X69400000Y-161038000D03*
G04 #@! TD*
D25*
G04 #@! TO.C,Q1*
X73265000Y-149364000D03*
X71487000Y-149364000D03*
X72376000Y-151396000D03*
G04 #@! TD*
G04 #@! TO.C,Q2*
X76327700Y-166406800D03*
X78105700Y-166406800D03*
X77216700Y-164374800D03*
G04 #@! TD*
G04 #@! TO.C,Q3*
X85933400Y-118662800D03*
X84155400Y-118662800D03*
X85044400Y-120694800D03*
G04 #@! TD*
G04 #@! TO.C,Q4*
X69728400Y-166293800D03*
X71506400Y-166293800D03*
X70617400Y-164261800D03*
G04 #@! TD*
G04 #@! TO.C,Q5*
X167315000Y-122447400D03*
X167315000Y-120669400D03*
X165283000Y-121558400D03*
G04 #@! TD*
D11*
G04 #@! TO.C,R1*
X89064400Y-152150200D03*
X89064400Y-153217000D03*
G04 #@! TD*
D12*
G04 #@! TO.C,R2*
X90232800Y-149635600D03*
X89166000Y-149635600D03*
G04 #@! TD*
D11*
G04 #@! TO.C,R3*
X91350400Y-153217000D03*
X91350400Y-152150200D03*
G04 #@! TD*
G04 #@! TO.C,R4*
X94373000Y-151794600D03*
X94373000Y-152861400D03*
G04 #@! TD*
D17*
G04 #@! TO.C,R5*
X137981829Y-130553829D03*
X138736171Y-131308171D03*
G04 #@! TD*
G04 #@! TO.C,R6*
X138743829Y-129791829D03*
X139498171Y-130546171D03*
G04 #@! TD*
D11*
G04 #@! TO.C,R7*
X67874000Y-124479400D03*
X67874000Y-123412600D03*
G04 #@! TD*
G04 #@! TO.C,R8*
X91821000Y-121402600D03*
X91821000Y-122469400D03*
G04 #@! TD*
G04 #@! TO.C,R9*
X93091000Y-121402600D03*
X93091000Y-122469400D03*
G04 #@! TD*
G04 #@! TO.C,R10*
X94945200Y-121402600D03*
X94945200Y-122469400D03*
G04 #@! TD*
G04 #@! TO.C,R11*
X87900000Y-117833400D03*
X87900000Y-116766600D03*
G04 #@! TD*
G04 #@! TO.C,R12*
X167162600Y-131515200D03*
X167162600Y-130448400D03*
G04 #@! TD*
G04 #@! TO.C,R13*
X96215200Y-121402600D03*
X96215200Y-122469400D03*
G04 #@! TD*
G04 #@! TO.C,R14*
X96215200Y-124450600D03*
X96215200Y-125517400D03*
G04 #@! TD*
G04 #@! TO.C,R15*
X94945200Y-124450600D03*
X94945200Y-125517400D03*
G04 #@! TD*
G04 #@! TO.C,R16*
X93091000Y-124450600D03*
X93091000Y-125517400D03*
G04 #@! TD*
G04 #@! TO.C,R17*
X91821000Y-124450600D03*
X91821000Y-125517400D03*
G04 #@! TD*
D12*
G04 #@! TO.C,R18*
X62768600Y-133344000D03*
X63835400Y-133344000D03*
G04 #@! TD*
D11*
G04 #@! TO.C,R19*
X68966200Y-112592200D03*
X68966200Y-111525400D03*
G04 #@! TD*
G04 #@! TO.C,R20*
X100012500Y-124691900D03*
X100012500Y-125758700D03*
G04 #@! TD*
G04 #@! TO.C,R21*
X101282500Y-124691900D03*
X101282500Y-125758700D03*
G04 #@! TD*
G04 #@! TO.C,R22*
X103136700Y-124691900D03*
X103136700Y-125758700D03*
G04 #@! TD*
G04 #@! TO.C,R23*
X104406700Y-124691900D03*
X104406700Y-125758700D03*
G04 #@! TD*
D12*
G04 #@! TO.C,R24*
X75966600Y-167700000D03*
X77033400Y-167700000D03*
G04 #@! TD*
G04 #@! TO.C,R25*
X114066600Y-138716000D03*
X115133400Y-138716000D03*
G04 #@! TD*
G04 #@! TO.C,R26*
X114066600Y-135716000D03*
X115133400Y-135716000D03*
G04 #@! TD*
G04 #@! TO.C,R27*
X135266600Y-153600000D03*
X136333400Y-153600000D03*
G04 #@! TD*
G04 #@! TO.C,R28*
X134666600Y-154600000D03*
X135733400Y-154600000D03*
G04 #@! TD*
G04 #@! TO.C,R29*
X72516600Y-148150000D03*
X73583400Y-148150000D03*
G04 #@! TD*
D11*
G04 #@! TO.C,R30*
X68966200Y-125546200D03*
X68966200Y-124479400D03*
G04 #@! TD*
D12*
G04 #@! TO.C,R31*
X116533400Y-124100000D03*
X115466600Y-124100000D03*
G04 #@! TD*
D11*
G04 #@! TO.C,R32*
X110900000Y-127366600D03*
X110900000Y-128433400D03*
G04 #@! TD*
D12*
G04 #@! TO.C,R33*
X133333400Y-158400000D03*
X132266600Y-158400000D03*
G04 #@! TD*
D11*
G04 #@! TO.C,R34*
X130000000Y-153866600D03*
X130000000Y-154933400D03*
G04 #@! TD*
D14*
G04 #@! TO.C,R35*
X178316000Y-115600000D03*
X176284000Y-115600000D03*
G04 #@! TD*
D12*
G04 #@! TO.C,R36*
X70084000Y-167677800D03*
X71150800Y-167677800D03*
G04 #@! TD*
G04 #@! TO.C,R37*
X160304600Y-124936600D03*
X161371400Y-124936600D03*
G04 #@! TD*
G04 #@! TO.C,R41*
X139222600Y-126232000D03*
X140289400Y-126232000D03*
G04 #@! TD*
G04 #@! TO.C,R46*
X174000400Y-115761200D03*
X172933600Y-115761200D03*
G04 #@! TD*
G04 #@! TO.C,R47*
X174000400Y-116777200D03*
X172933600Y-116777200D03*
G04 #@! TD*
G04 #@! TO.C,R48*
X165816400Y-150235000D03*
X164749600Y-150235000D03*
G04 #@! TD*
D11*
G04 #@! TO.C,R49*
X67874000Y-110458600D03*
X67874000Y-111525400D03*
G04 #@! TD*
D12*
G04 #@! TO.C,R51*
X160457000Y-119348600D03*
X159390200Y-119348600D03*
G04 #@! TD*
D11*
G04 #@! TO.C,R52*
X177150000Y-109309600D03*
X177150000Y-108242800D03*
G04 #@! TD*
D12*
G04 #@! TO.C,R54*
X162900600Y-111951200D03*
X163967400Y-111951200D03*
G04 #@! TD*
G04 #@! TO.C,R55*
X174000400Y-109411200D03*
X172933600Y-109411200D03*
G04 #@! TD*
G04 #@! TO.C,R56*
X174000400Y-108395200D03*
X172933600Y-108395200D03*
G04 #@! TD*
G04 #@! TO.C,R57*
X165141600Y-125275000D03*
X166208400Y-125275000D03*
G04 #@! TD*
G04 #@! TO.C,R58*
X165141600Y-124475000D03*
X166208400Y-124475000D03*
G04 #@! TD*
G04 #@! TO.C,R59*
X141559400Y-156381800D03*
X140492600Y-156381800D03*
G04 #@! TD*
G04 #@! TO.C,R62*
X159441000Y-121660000D03*
X160507800Y-121660000D03*
G04 #@! TD*
D11*
G04 #@! TO.C,R63*
X156189800Y-119501000D03*
X156189800Y-120567800D03*
G04 #@! TD*
G04 #@! TO.C,R64*
X155046800Y-121660000D03*
X155046800Y-120593200D03*
G04 #@! TD*
D12*
G04 #@! TO.C,R65*
X160533200Y-122828400D03*
X159466400Y-122828400D03*
G04 #@! TD*
G04 #@! TO.C,R66*
X157383600Y-116808600D03*
X156316800Y-116808600D03*
G04 #@! TD*
G04 #@! TO.C,R67*
X140289400Y-123692000D03*
X139222600Y-123692000D03*
G04 #@! TD*
G04 #@! TO.C,R68*
X140289400Y-124962000D03*
X139222600Y-124962000D03*
G04 #@! TD*
D18*
G04 #@! TO.C,R69*
X157743116Y-128775266D03*
X158497458Y-128020924D03*
G04 #@! TD*
D12*
G04 #@! TO.C,R72*
X62768600Y-137916000D03*
X63835400Y-137916000D03*
G04 #@! TD*
G04 #@! TO.C,R73*
X62768600Y-142488000D03*
X63835400Y-142488000D03*
G04 #@! TD*
G04 #@! TO.C,R74*
X62768600Y-147060000D03*
X63835400Y-147060000D03*
G04 #@! TD*
G04 #@! TO.C,R75*
X62514600Y-116707000D03*
X63581400Y-116707000D03*
G04 #@! TD*
G04 #@! TO.C,R76*
X62768600Y-129407000D03*
X63835400Y-129407000D03*
G04 #@! TD*
G04 #@! TO.C,R77*
X140868400Y-114731800D03*
X139801600Y-114731800D03*
G04 #@! TD*
G04 #@! TO.C,R78*
X140868400Y-115747800D03*
X139801600Y-115747800D03*
G04 #@! TD*
G04 #@! TO.C,R79*
X140868400Y-116763800D03*
X139801600Y-116763800D03*
G04 #@! TD*
G04 #@! TO.C,R80*
X140868400Y-117779800D03*
X139801600Y-117779800D03*
G04 #@! TD*
G04 #@! TO.C,R81*
X140868400Y-118795800D03*
X139801600Y-118795800D03*
G04 #@! TD*
G04 #@! TO.C,R85*
X133966600Y-168700000D03*
X135033400Y-168700000D03*
G04 #@! TD*
G04 #@! TO.C,R86*
X140868400Y-119811800D03*
X139801600Y-119811800D03*
G04 #@! TD*
G04 #@! TO.C,R87*
X140868400Y-120827800D03*
X139801600Y-120827800D03*
G04 #@! TD*
D11*
G04 #@! TO.C,R88*
X134345800Y-129000600D03*
X134345800Y-127933800D03*
G04 #@! TD*
G04 #@! TO.C,R89*
X132816600Y-129032000D03*
X132816600Y-127965200D03*
G04 #@! TD*
G04 #@! TO.C,R90*
X131800600Y-129032000D03*
X131800600Y-127965200D03*
G04 #@! TD*
G04 #@! TO.C,R91*
X130784600Y-129032000D03*
X130784600Y-127965200D03*
G04 #@! TD*
D12*
G04 #@! TO.C,R93*
X141559400Y-155188000D03*
X140492600Y-155188000D03*
G04 #@! TD*
G04 #@! TO.C,R94*
X120133400Y-129466600D03*
X119066600Y-129466600D03*
G04 #@! TD*
D11*
G04 #@! TO.C,R96*
X129768600Y-129032000D03*
X129768600Y-127965200D03*
G04 #@! TD*
G04 #@! TO.C,R98*
X128707000Y-129051400D03*
X128707000Y-127984600D03*
G04 #@! TD*
G04 #@! TO.C,R99*
X127691000Y-129051400D03*
X127691000Y-127984600D03*
G04 #@! TD*
G04 #@! TO.C,R100*
X126675000Y-129051400D03*
X126675000Y-127984600D03*
G04 #@! TD*
G04 #@! TO.C,R105*
X125440000Y-168266600D03*
X125440000Y-169333400D03*
G04 #@! TD*
D26*
G04 #@! TO.C,T1*
X95655700Y-164774000D03*
X95655700Y-164113600D03*
X95655700Y-163453200D03*
X94665100Y-163453200D03*
X94665100Y-164113600D03*
X94665100Y-164774000D03*
G04 #@! TD*
D27*
G04 #@! TO.C,T2*
X101383400Y-157776300D03*
X100723000Y-157776300D03*
X100062600Y-157776300D03*
X100062600Y-158766900D03*
X100723000Y-158766900D03*
X101383400Y-158766900D03*
G04 #@! TD*
D28*
G04 #@! TO.C,T3*
X108857180Y-151432380D03*
X108857180Y-150932000D03*
X108857180Y-150431620D03*
X108008820Y-150431620D03*
X108008820Y-150932000D03*
X108008820Y-151432380D03*
G04 #@! TD*
G04 #@! TO.C,T4*
X111936680Y-151452280D03*
X111936680Y-150951900D03*
X111936680Y-150451520D03*
X111088320Y-150451520D03*
X111088320Y-150951900D03*
X111088320Y-151452280D03*
G04 #@! TD*
D29*
G04 #@! TO.C,U1*
X105681920Y-166408700D03*
X105184080Y-166408700D03*
D30*
X104881000Y-167052200D03*
D29*
X105184080Y-167695700D03*
X105681920Y-167695700D03*
D30*
X105985000Y-167052200D03*
G04 #@! TD*
D31*
G04 #@! TO.C,U2*
X89242300Y-144629680D03*
X89242300Y-145127520D03*
D32*
X89885800Y-145430600D03*
D31*
X90529300Y-145127520D03*
X90529300Y-144629680D03*
D32*
X89885800Y-144326600D03*
G04 #@! TD*
D33*
G04 #@! TO.C,U3*
X80405960Y-142603680D03*
X80405960Y-143304720D03*
X81655640Y-143304720D03*
X81655640Y-142603680D03*
G04 #@! TD*
D34*
G04 #@! TO.C,U4*
X93720400Y-157763600D03*
X91520400Y-157763600D03*
X92620400Y-158863600D03*
X92620400Y-156663600D03*
X92620400Y-157763600D03*
X91520400Y-158863600D03*
X93720400Y-156663600D03*
X93720400Y-158863600D03*
X91520400Y-156663600D03*
D35*
X94370400Y-155088600D03*
X93870400Y-155088600D03*
X93370400Y-155088600D03*
X92870400Y-155088600D03*
X92370400Y-155088600D03*
X91870400Y-155088600D03*
X91370400Y-155088600D03*
X90870400Y-155088600D03*
D36*
X89945400Y-156013600D03*
X89945400Y-156513600D03*
X89945400Y-157013600D03*
X89945400Y-157513600D03*
X89945400Y-158013600D03*
X89945400Y-158513600D03*
X89945400Y-159013600D03*
X89945400Y-159513600D03*
D35*
X90870400Y-160438600D03*
X91370400Y-160438600D03*
X91870400Y-160438600D03*
X92370400Y-160438600D03*
X92870400Y-160438600D03*
X93370400Y-160438600D03*
X93870400Y-160438600D03*
X94370400Y-160438600D03*
D36*
X95295400Y-159513600D03*
X95295400Y-159013600D03*
X95295400Y-158513600D03*
X95295400Y-158013600D03*
X95295400Y-157513600D03*
X95295400Y-157013600D03*
X95295400Y-156513600D03*
X95295400Y-156013600D03*
G04 #@! TD*
D29*
G04 #@! TO.C,U5*
X77098880Y-141057700D03*
X77596720Y-141057700D03*
D30*
X77899800Y-140414200D03*
D29*
X77596720Y-139770700D03*
X77098880Y-139770700D03*
D30*
X76795800Y-140414200D03*
G04 #@! TD*
D29*
G04 #@! TO.C,U6*
X84708720Y-139770700D03*
X84210880Y-139770700D03*
D30*
X83907800Y-140414200D03*
D29*
X84210880Y-141057700D03*
X84708720Y-141057700D03*
D30*
X85011800Y-140414200D03*
G04 #@! TD*
D31*
G04 #@! TO.C,U7*
X98326900Y-166023680D03*
X98326900Y-166521520D03*
D32*
X98970400Y-166824600D03*
D31*
X99613900Y-166521520D03*
X99613900Y-166023680D03*
D32*
X98970400Y-165720600D03*
G04 #@! TD*
D37*
G04 #@! TO.C,U8*
X81500700Y-137874200D03*
D38*
X80649800Y-137424620D03*
D37*
X79798900Y-137874200D03*
D38*
X80649800Y-138323780D03*
G04 #@! TD*
D39*
G04 #@! TO.C,U9*
X77851000Y-146304000D03*
D40*
X78801000Y-146904000D03*
X78801000Y-146504000D03*
X78801000Y-146104000D03*
X78801000Y-145704000D03*
X76901000Y-145704000D03*
X76901000Y-146104000D03*
X76901000Y-146504000D03*
X76901000Y-146904000D03*
G04 #@! TD*
D29*
G04 #@! TO.C,U10*
X104714480Y-158807500D03*
X105212320Y-158807500D03*
D30*
X105515400Y-158164000D03*
D29*
X105212320Y-157520500D03*
X104714480Y-157520500D03*
D30*
X104411400Y-158164000D03*
G04 #@! TD*
D31*
G04 #@! TO.C,U11*
X108985000Y-156026380D03*
X108985000Y-156524220D03*
D32*
X109628500Y-156827300D03*
D31*
X110272000Y-156524220D03*
X110272000Y-156026380D03*
D32*
X109628500Y-155723300D03*
G04 #@! TD*
D41*
G04 #@! TO.C,U12*
X77710000Y-153809000D03*
D42*
X78310000Y-152859000D03*
X77910000Y-152859000D03*
X77510000Y-152859000D03*
X77110000Y-152859000D03*
X77110000Y-154759000D03*
X77510000Y-154759000D03*
X77910000Y-154759000D03*
X78310000Y-154759000D03*
G04 #@! TD*
D43*
G04 #@! TO.C,U13*
X71880700Y-154291600D03*
X71880700Y-154952000D03*
X71880700Y-155612400D03*
X73887300Y-155612400D03*
X73887300Y-154952000D03*
X73887300Y-154291600D03*
G04 #@! TD*
D41*
G04 #@! TO.C,U14*
X73112600Y-159117600D03*
D42*
X72512600Y-160067600D03*
X72912600Y-160067600D03*
X73312600Y-160067600D03*
X73712600Y-160067600D03*
X73712600Y-158167600D03*
X73312600Y-158167600D03*
X72912600Y-158167600D03*
X72512600Y-158167600D03*
G04 #@! TD*
D44*
G04 #@! TO.C,U15*
X170025000Y-124875000D03*
D45*
X170975000Y-125375000D03*
X170975000Y-124875000D03*
X170975000Y-124375000D03*
X169075000Y-124375000D03*
X169075000Y-124875000D03*
X169075000Y-125375000D03*
G04 #@! TD*
D46*
G04 #@! TO.C,U17*
X106450000Y-143841000D03*
X110500000Y-142491000D03*
X110500000Y-143841000D03*
X107800000Y-139791000D03*
X106450000Y-142491000D03*
X110500000Y-141141000D03*
X107800000Y-141141000D03*
X109150000Y-143841000D03*
X107800000Y-143841000D03*
X106450000Y-141141000D03*
X109150000Y-142491000D03*
X109150000Y-139791000D03*
X106450000Y-139791000D03*
X109150000Y-141141000D03*
X110500000Y-139791000D03*
X107800000Y-142491000D03*
D47*
X105225000Y-145706000D03*
X105725000Y-145706000D03*
X106225000Y-145706000D03*
X106725000Y-145706000D03*
X107225000Y-145706000D03*
X107725000Y-145706000D03*
X108225000Y-145706000D03*
X108725000Y-145706000D03*
X109225000Y-145706000D03*
X109725000Y-145706000D03*
X110225000Y-145706000D03*
X110725000Y-145706000D03*
X111225000Y-145706000D03*
X111725000Y-145706000D03*
D48*
X112365000Y-145066000D03*
X112365000Y-144566000D03*
X112365000Y-144066000D03*
X112365000Y-143566000D03*
X112365000Y-143066000D03*
X112365000Y-142566000D03*
X112365000Y-142066000D03*
X112365000Y-141566000D03*
X112365000Y-141066000D03*
X112365000Y-140566000D03*
X112365000Y-140066000D03*
X112365000Y-139566000D03*
X112365000Y-139066000D03*
X112365000Y-138566000D03*
D47*
X111725000Y-137926000D03*
X111225000Y-137926000D03*
X110725000Y-137926000D03*
X110225000Y-137926000D03*
X109725000Y-137926000D03*
X109225000Y-137926000D03*
X108725000Y-137926000D03*
X108225000Y-137926000D03*
X107725000Y-137926000D03*
X107225000Y-137926000D03*
X106725000Y-137926000D03*
X106225000Y-137926000D03*
X105725000Y-137926000D03*
X105225000Y-137926000D03*
D48*
X104585000Y-138566000D03*
X104585000Y-139066000D03*
X104585000Y-139566000D03*
X104585000Y-140066000D03*
X104585000Y-140566000D03*
X104585000Y-141066000D03*
X104585000Y-141566000D03*
X104585000Y-142066000D03*
X104585000Y-142566000D03*
X104585000Y-143066000D03*
X104585000Y-143566000D03*
X104585000Y-144066000D03*
X104585000Y-144566000D03*
X104585000Y-145066000D03*
G04 #@! TD*
D49*
G04 #@! TO.C,U18*
X101245400Y-114111800D03*
X102895400Y-112461800D03*
X104545400Y-114111800D03*
X102895400Y-114111800D03*
X104545400Y-112461800D03*
X102895400Y-110811800D03*
X104545400Y-110811800D03*
X101245400Y-112461800D03*
X101245400Y-110811800D03*
D50*
X100145400Y-115911800D03*
X100645400Y-115911800D03*
X101145400Y-115911800D03*
X101645400Y-115911800D03*
X102145400Y-115911800D03*
X102645400Y-115911800D03*
X103145400Y-115911800D03*
X103645400Y-115911800D03*
X104145400Y-115911800D03*
X104645400Y-115911800D03*
X105145400Y-115911800D03*
X105645400Y-115911800D03*
D51*
X106345400Y-115211800D03*
X106345400Y-114711800D03*
X106345400Y-114211800D03*
X106345400Y-113711800D03*
X106345400Y-113211800D03*
X106345400Y-112711800D03*
X106345400Y-112211800D03*
X106345400Y-111711800D03*
X106345400Y-111211800D03*
X106345400Y-110711800D03*
X106345400Y-110211800D03*
X106345400Y-109711800D03*
D50*
X105645400Y-109011800D03*
X105145400Y-109011800D03*
X104645400Y-109011800D03*
X104145400Y-109011800D03*
X103645400Y-109011800D03*
X103145400Y-109011800D03*
X102645400Y-109011800D03*
X102145400Y-109011800D03*
X101645400Y-109011800D03*
X101145400Y-109011800D03*
X100645400Y-109011800D03*
X100145400Y-109011800D03*
D51*
X99445400Y-109711800D03*
X99445400Y-110211800D03*
X99445400Y-110711800D03*
X99445400Y-111211800D03*
X99445400Y-111711800D03*
X99445400Y-112211800D03*
X99445400Y-112711800D03*
X99445400Y-113211800D03*
X99445400Y-113711800D03*
X99445400Y-114211800D03*
X99445400Y-114711800D03*
X99445400Y-115211800D03*
G04 #@! TD*
D52*
G04 #@! TO.C,U19*
X127100000Y-162900000D03*
X127100000Y-162400000D03*
X127100000Y-161900000D03*
X127100000Y-161400000D03*
X127100000Y-160900000D03*
X122700000Y-160900000D03*
X122700000Y-161400000D03*
X122700000Y-161900000D03*
X122700000Y-162400000D03*
X122700000Y-162900000D03*
G04 #@! TD*
D53*
G04 #@! TO.C,U20*
X164566600Y-160553400D03*
X164566600Y-159283400D03*
X164566600Y-158013400D03*
X164566600Y-156743400D03*
X156946600Y-156743400D03*
X156946600Y-158013400D03*
X156946600Y-159283400D03*
X156946600Y-160553400D03*
G04 #@! TD*
D54*
G04 #@! TO.C,U21*
X169280000Y-113501200D03*
D55*
X169940000Y-111351200D03*
D54*
X169780000Y-110401200D03*
D55*
X169120000Y-111351200D03*
D54*
X169780000Y-113501200D03*
D55*
X169120000Y-112551200D03*
D54*
X169280000Y-110401200D03*
D55*
X169940000Y-112551200D03*
D56*
X171030000Y-112951200D03*
X171030000Y-112451200D03*
X171030000Y-111951200D03*
X171030000Y-111451200D03*
X171030000Y-110951200D03*
X168030000Y-110951200D03*
X168030000Y-111451200D03*
X168030000Y-111951200D03*
X168030000Y-112451200D03*
X168030000Y-112951200D03*
G04 #@! TD*
D57*
G04 #@! TO.C,U23*
X163213888Y-138552969D03*
X162860066Y-138199147D03*
X162506244Y-137845324D03*
X162152422Y-137491502D03*
X161798600Y-137137680D03*
X161446574Y-136785654D03*
X161092752Y-136431832D03*
X160738930Y-136078010D03*
X160385108Y-135724188D03*
X160031286Y-135370366D03*
X159677463Y-135016544D03*
X159325437Y-134664518D03*
X158971615Y-134310696D03*
X158617793Y-133956874D03*
X158263971Y-133603051D03*
X157910149Y-133249229D03*
X157556327Y-132895407D03*
X157202505Y-132541585D03*
X156850479Y-132189559D03*
X156496657Y-131835737D03*
X156142835Y-131481915D03*
X155789013Y-131128093D03*
X155435190Y-130774271D03*
X155081368Y-130420449D03*
X154727546Y-130066627D03*
X154375520Y-129714601D03*
X154021698Y-129360778D03*
X153667876Y-129006956D03*
X153314054Y-128653134D03*
X152960232Y-128299312D03*
X152606410Y-127945490D03*
X152254384Y-127593464D03*
X151900562Y-127239642D03*
X151546740Y-126885820D03*
X151192917Y-126531998D03*
X150839095Y-126178176D03*
D58*
X147656493Y-126178176D03*
X147302671Y-126531998D03*
X146948848Y-126885820D03*
X146595026Y-127239642D03*
X146241204Y-127593464D03*
X145889178Y-127945490D03*
X145535356Y-128299312D03*
X145181534Y-128653134D03*
X144827712Y-129006956D03*
X144473890Y-129360778D03*
X144120068Y-129714601D03*
X143768042Y-130066627D03*
X143414220Y-130420449D03*
X143060398Y-130774271D03*
X142706575Y-131128093D03*
X142352753Y-131481915D03*
X141998931Y-131835737D03*
X141645109Y-132189559D03*
X141293083Y-132541585D03*
X140939261Y-132895407D03*
X140585439Y-133249229D03*
X140231617Y-133603051D03*
X139877795Y-133956874D03*
X139523973Y-134310696D03*
X139170151Y-134664518D03*
X138818125Y-135016544D03*
X138464302Y-135370366D03*
X138110480Y-135724188D03*
X137756658Y-136078010D03*
X137402836Y-136431832D03*
X137049014Y-136785654D03*
X136696988Y-137137680D03*
X136343166Y-137491502D03*
X135989344Y-137845324D03*
X135635522Y-138199147D03*
X135281700Y-138552969D03*
D57*
X135281700Y-141735571D03*
X135635522Y-142089393D03*
X135989344Y-142443216D03*
X136343166Y-142797038D03*
X136696988Y-143150860D03*
X137049014Y-143502886D03*
X137402836Y-143856708D03*
X137756658Y-144210530D03*
X138110480Y-144564352D03*
X138464302Y-144918174D03*
X138818125Y-145271996D03*
X139170151Y-145624022D03*
X139523973Y-145977844D03*
X139877795Y-146331666D03*
X140231617Y-146685489D03*
X140585439Y-147039311D03*
X140939261Y-147393133D03*
X141293083Y-147746955D03*
X141645109Y-148098981D03*
X141998931Y-148452803D03*
X142352753Y-148806625D03*
X142706575Y-149160447D03*
X143060398Y-149514269D03*
X143414220Y-149868091D03*
X143768042Y-150221913D03*
X144120068Y-150573939D03*
X144473890Y-150927762D03*
X144827712Y-151281584D03*
X145181534Y-151635406D03*
X145535356Y-151989228D03*
X145889178Y-152343050D03*
X146241204Y-152695076D03*
X146595026Y-153048898D03*
X146948848Y-153402720D03*
X147302671Y-153756542D03*
X147656493Y-154110364D03*
D58*
X150839095Y-154110364D03*
X151192917Y-153756542D03*
X151546740Y-153402720D03*
X151900562Y-153048898D03*
X152254384Y-152695076D03*
X152606410Y-152343050D03*
X152960232Y-151989228D03*
X153314054Y-151635406D03*
X153667876Y-151281584D03*
X154021698Y-150927762D03*
X154375520Y-150573939D03*
X154727546Y-150221913D03*
X155081368Y-149868091D03*
X155435190Y-149514269D03*
X155789013Y-149160447D03*
X156142835Y-148806625D03*
X156496657Y-148452803D03*
X156850479Y-148098981D03*
X157202505Y-147746955D03*
X157556327Y-147393133D03*
X157910149Y-147039311D03*
X158263971Y-146685489D03*
X158617793Y-146331666D03*
X158971615Y-145977844D03*
X159325437Y-145624022D03*
X159677463Y-145271996D03*
X160031286Y-144918174D03*
X160385108Y-144564352D03*
X160738930Y-144210530D03*
X161092752Y-143856708D03*
X161446574Y-143502886D03*
X161798600Y-143150860D03*
X162152422Y-142797038D03*
X162506244Y-142443216D03*
X162860066Y-142089393D03*
X163213888Y-141735571D03*
G04 #@! TD*
D59*
G04 #@! TO.C,U24*
X132745480Y-109016800D03*
X132245100Y-109016800D03*
X131747260Y-109016800D03*
X131246880Y-109016800D03*
X130746500Y-109016800D03*
X130246120Y-109016800D03*
X129745740Y-109016800D03*
X129245360Y-109016800D03*
X128744980Y-109016800D03*
X128247140Y-109016800D03*
X127746760Y-109016800D03*
X127246380Y-109016800D03*
X126746000Y-109016800D03*
X126245620Y-109016800D03*
X125745240Y-109016800D03*
X125244860Y-109016800D03*
X124747020Y-109016800D03*
X124246640Y-109016800D03*
X123746260Y-109016800D03*
X123245880Y-109016800D03*
X122745500Y-109016800D03*
X122245120Y-109016800D03*
X121744740Y-109016800D03*
X121246900Y-109016800D03*
X120746520Y-109016800D03*
D60*
X118745000Y-111018320D03*
X118745000Y-111518700D03*
X118745000Y-112016540D03*
X118745000Y-112516920D03*
X118745000Y-113017300D03*
X118745000Y-113517680D03*
X118745000Y-114018060D03*
X118745000Y-114518440D03*
X118745000Y-115018820D03*
X118745000Y-115516660D03*
X118745000Y-116017040D03*
X118745000Y-116517420D03*
X118745000Y-117017800D03*
X118745000Y-117518180D03*
X118745000Y-118018560D03*
X118745000Y-118518940D03*
X118745000Y-119016780D03*
X118745000Y-119517160D03*
X118745000Y-120017540D03*
X118745000Y-120517920D03*
X118745000Y-121018300D03*
X118745000Y-121518680D03*
X118745000Y-122019060D03*
X118745000Y-122516900D03*
X118745000Y-123017280D03*
D59*
X120746520Y-125018800D03*
X121246900Y-125018800D03*
X121744740Y-125018800D03*
X122245120Y-125018800D03*
X122745500Y-125018800D03*
X123245880Y-125018800D03*
X123746260Y-125018800D03*
X124246640Y-125018800D03*
X124747020Y-125018800D03*
X125244860Y-125018800D03*
X125745240Y-125018800D03*
X126245620Y-125018800D03*
X126746000Y-125018800D03*
X127246380Y-125018800D03*
X127746760Y-125018800D03*
X128247140Y-125018800D03*
X128744980Y-125018800D03*
X129245360Y-125018800D03*
X129745740Y-125018800D03*
X130246120Y-125018800D03*
X130746500Y-125018800D03*
X131246880Y-125018800D03*
X131747260Y-125018800D03*
X132245100Y-125018800D03*
X132745480Y-125018800D03*
D60*
X134747000Y-123017280D03*
X134747000Y-122516900D03*
X134747000Y-122019060D03*
X134747000Y-121518680D03*
X134747000Y-121018300D03*
X134747000Y-120517920D03*
X134747000Y-120017540D03*
X134747000Y-119517160D03*
X134747000Y-119016780D03*
X134747000Y-118518940D03*
X134747000Y-118018560D03*
X134747000Y-117518180D03*
X134747000Y-117017800D03*
X134747000Y-116517420D03*
X134747000Y-116017040D03*
X134747000Y-115516660D03*
X134747000Y-115018820D03*
X134747000Y-114518440D03*
X134747000Y-114018060D03*
X134747000Y-113517680D03*
X134747000Y-113017300D03*
X134747000Y-112516920D03*
X134747000Y-112016540D03*
X134747000Y-111518700D03*
X134747000Y-111018320D03*
G04 #@! TD*
D43*
G04 #@! TO.C,U25*
X80745300Y-158660400D03*
X80745300Y-158000000D03*
X80745300Y-157339600D03*
X78738700Y-157339600D03*
X78738700Y-158000000D03*
X78738700Y-158660400D03*
G04 #@! TD*
D61*
G04 #@! TO.C,X1*
X132000200Y-163949820D03*
X132000200Y-161750180D03*
X130400000Y-161750180D03*
X130400000Y-163949820D03*
G04 #@! TD*
D62*
G04 #@! TO.C,X2*
X162937297Y-133692854D03*
X164492677Y-132137474D03*
X163361165Y-131005962D03*
X161805785Y-132561342D03*
G04 #@! TD*
D63*
G04 #@! TO.C,X3*
X167050000Y-153500000D03*
D64*
X161500000Y-153050000D03*
X161500000Y-153950000D03*
G04 #@! TD*
D11*
G04 #@! TO.C,C151*
X117094000Y-108915200D03*
X117094000Y-107848400D03*
G04 #@! TD*
D12*
G04 #@! TO.C,R50*
X120266600Y-163700000D03*
X121333400Y-163700000D03*
G04 #@! TD*
G04 #@! TO.C,R106*
X107666600Y-125000000D03*
X108733400Y-125000000D03*
G04 #@! TD*
D65*
G04 #@! TO.C,D10*
X70650000Y-162568800D03*
X70650000Y-163218800D03*
G04 #@! TD*
D12*
G04 #@! TO.C,C159*
X136133400Y-169800000D03*
X135066600Y-169800000D03*
G04 #@! TD*
D11*
G04 #@! TO.C,R71*
X112400000Y-128433400D03*
X112400000Y-127366600D03*
G04 #@! TD*
D12*
G04 #@! TO.C,R107*
X120133400Y-128466600D03*
X119066600Y-128466600D03*
G04 #@! TD*
D11*
G04 #@! TO.C,R97*
X117800000Y-131600000D03*
X117800000Y-130533200D03*
G04 #@! TD*
G04 #@! TO.C,R101*
X115800000Y-131600000D03*
X115800000Y-130533200D03*
G04 #@! TD*
D12*
G04 #@! TO.C,R61*
X132866600Y-169800000D03*
X133933400Y-169800000D03*
G04 #@! TD*
D11*
G04 #@! TO.C,R83*
X113700000Y-131133400D03*
X113700000Y-130066600D03*
G04 #@! TD*
D66*
G04 #@! TO.C,U22*
X112920000Y-126270000D03*
X113570000Y-126270000D03*
X114220000Y-126270000D03*
X114220000Y-124370000D03*
X112920000Y-124370000D03*
G04 #@! TD*
D67*
G04 #@! TO.C,U27*
X111200000Y-130725000D03*
D68*
X111600000Y-130775000D03*
D69*
X112175000Y-130600000D03*
X112175000Y-130200000D03*
X112175000Y-129800000D03*
D70*
X111600000Y-129625000D03*
X111200000Y-129625000D03*
D71*
X110625000Y-129800000D03*
X110625000Y-130200000D03*
X110625000Y-130600000D03*
G04 #@! TD*
D11*
G04 #@! TO.C,R84*
X114700000Y-131133400D03*
X114700000Y-130066600D03*
G04 #@! TD*
G04 #@! TO.C,C117*
X129000000Y-166133400D03*
X129000000Y-165066600D03*
G04 #@! TD*
D72*
G04 #@! TO.C,U29*
X116930000Y-127775000D03*
D70*
X116530000Y-127725000D03*
D71*
X115955000Y-127900000D03*
X115955000Y-128300000D03*
X115955000Y-128700000D03*
D68*
X116530000Y-128875000D03*
X116930000Y-128875000D03*
D69*
X117505000Y-128700000D03*
X117505000Y-128300000D03*
X117505000Y-127900000D03*
G04 #@! TD*
D11*
G04 #@! TO.C,R43*
X78400000Y-164233400D03*
X78400000Y-163166600D03*
G04 #@! TD*
D12*
G04 #@! TO.C,R60*
X116533400Y-123100000D03*
X115466600Y-123100000D03*
G04 #@! TD*
G04 #@! TO.C,R104*
X108733400Y-123000000D03*
X107666600Y-123000000D03*
G04 #@! TD*
G04 #@! TO.C,R102*
X108733400Y-124000000D03*
X107666600Y-124000000D03*
G04 #@! TD*
D11*
G04 #@! TO.C,C168*
X118600000Y-127433400D03*
X118600000Y-126366600D03*
G04 #@! TD*
G04 #@! TO.C,R53*
X121300000Y-165833400D03*
X121300000Y-164766600D03*
G04 #@! TD*
D73*
G04 #@! TO.C,U16*
X129052600Y-163900000D03*
X129052600Y-163400000D03*
X129052600Y-162900000D03*
X128452600Y-162900000D03*
X128452600Y-163400000D03*
X128452600Y-163900000D03*
G04 #@! TD*
D12*
G04 #@! TO.C,C165*
X133166600Y-167600000D03*
X134233400Y-167600000D03*
G04 #@! TD*
D11*
G04 #@! TO.C,R42*
X70200000Y-151833400D03*
X70200000Y-150766600D03*
G04 #@! TD*
D12*
G04 #@! TO.C,R39*
X127966600Y-168300000D03*
X129033400Y-168300000D03*
G04 #@! TD*
D11*
G04 #@! TO.C,R70*
X113400000Y-128433400D03*
X113400000Y-127366600D03*
G04 #@! TD*
G04 #@! TO.C,R92*
X116800000Y-131600000D03*
X116800000Y-130533200D03*
G04 #@! TD*
D12*
G04 #@! TO.C,R44*
X123266600Y-159500000D03*
X124333400Y-159500000D03*
G04 #@! TD*
G04 #@! TO.C,R38*
X132466600Y-166500000D03*
X133533400Y-166500000D03*
G04 #@! TD*
D74*
G04 #@! TO.C,U26*
X131425000Y-167900000D03*
D69*
X131475000Y-167500000D03*
D70*
X131300000Y-166925000D03*
X130900000Y-166925000D03*
X130500000Y-166925000D03*
D71*
X130325000Y-167500000D03*
X130325000Y-167900000D03*
D68*
X130500000Y-168475000D03*
X130900000Y-168475000D03*
X131300000Y-168475000D03*
G04 #@! TD*
D67*
G04 #@! TO.C,U28*
X130500000Y-157325000D03*
D68*
X130900000Y-157375000D03*
D69*
X131475000Y-157200000D03*
X131475000Y-156800000D03*
X131475000Y-156400000D03*
D70*
X130900000Y-156225000D03*
X130500000Y-156225000D03*
D71*
X129925000Y-156400000D03*
X129925000Y-156800000D03*
X129925000Y-157200000D03*
G04 #@! TD*
D12*
G04 #@! TO.C,R40*
X127966600Y-167200000D03*
X129033400Y-167200000D03*
G04 #@! TD*
D11*
G04 #@! TO.C,C172*
X114400000Y-127366600D03*
X114400000Y-128433400D03*
G04 #@! TD*
D12*
G04 #@! TO.C,R103*
X108733400Y-122000000D03*
X107666600Y-122000000D03*
G04 #@! TD*
D11*
G04 #@! TO.C,R95*
X118800000Y-131600000D03*
X118800000Y-130533200D03*
G04 #@! TD*
D12*
G04 #@! TO.C,R45*
X120266600Y-162400000D03*
X121333400Y-162400000D03*
G04 #@! TD*
M02*
