G04 #@! TF.GenerationSoftware,KiCad,Pcbnew,6.0.10-86aedd382b~118~ubuntu22.04.1*
G04 #@! TF.CreationDate,2023-01-31T23:44:10-05:00*
G04 #@! TF.ProjectId,operacake,6f706572-6163-4616-9b65-2e6b69636164,rev?*
G04 #@! TF.SameCoordinates,Original*
G04 #@! TF.FileFunction,Soldermask,Bot*
G04 #@! TF.FilePolarity,Negative*
%FSLAX46Y46*%
G04 Gerber Fmt 4.6, Leading zero omitted, Abs format (unit mm)*
G04 Created by KiCad (PCBNEW 6.0.10-86aedd382b~118~ubuntu22.04.1) date 2023-01-31 23:44:10*
%MOMM*%
%LPD*%
G01*
G04 APERTURE LIST*
G04 Aperture macros list*
%AMRoundRect*
0 Rectangle with rounded corners*
0 $1 Rounding radius*
0 $2 $3 $4 $5 $6 $7 $8 $9 X,Y pos of 4 corners*
0 Add a 4 corners polygon primitive as box body*
4,1,4,$2,$3,$4,$5,$6,$7,$8,$9,$2,$3,0*
0 Add four circle primitives for the rounded corners*
1,1,$1+$1,$2,$3*
1,1,$1+$1,$4,$5*
1,1,$1+$1,$6,$7*
1,1,$1+$1,$8,$9*
0 Add four rect primitives between the rounded corners*
20,1,$1+$1,$2,$3,$4,$5,0*
20,1,$1+$1,$4,$5,$6,$7,0*
20,1,$1+$1,$6,$7,$8,$9,0*
20,1,$1+$1,$8,$9,$2,$3,0*%
G04 Aperture macros list end*
%ADD10C,5.752400*%
%ADD11C,0.752400*%
%ADD12RoundRect,0.076200X-0.762000X-0.762000X0.762000X-0.762000X0.762000X0.762000X-0.762000X0.762000X0*%
%ADD13C,1.676400*%
%ADD14RoundRect,0.076200X0.762000X0.762000X-0.762000X0.762000X-0.762000X-0.762000X0.762000X-0.762000X0*%
%ADD15RoundRect,0.076200X0.762000X-0.762000X0.762000X0.762000X-0.762000X0.762000X-0.762000X-0.762000X0*%
%ADD16RoundRect,0.076200X-2.095000X-1.332500X2.095000X-1.332500X2.095000X1.332500X-2.095000X1.332500X0*%
%ADD17RoundRect,0.076200X2.095000X1.332500X-2.095000X1.332500X-2.095000X-1.332500X2.095000X-1.332500X0*%
%ADD18C,1.422400*%
%ADD19C,0.599440*%
%ADD20C,0.609600*%
G04 APERTURE END LIST*
D10*
G04 #@! TO.C,MH1*
X64000000Y-104000000D03*
D11*
X64000000Y-101800000D03*
X61800000Y-104000000D03*
X64000000Y-106200000D03*
X66200000Y-104000000D03*
X65550000Y-102450000D03*
X62450000Y-102450000D03*
X62450000Y-105550000D03*
X65550000Y-105550000D03*
G04 #@! TD*
D10*
G04 #@! TO.C,MH2*
X64000000Y-171000000D03*
D11*
X64000000Y-168800000D03*
X61800000Y-171000000D03*
X64000000Y-173200000D03*
X66200000Y-171000000D03*
X65550000Y-169450000D03*
X62450000Y-169450000D03*
X62450000Y-172550000D03*
X65550000Y-172550000D03*
G04 #@! TD*
D10*
G04 #@! TO.C,MH3*
X176000000Y-171000000D03*
D11*
X176000000Y-168800000D03*
X173800000Y-171000000D03*
X176000000Y-173200000D03*
X178200000Y-171000000D03*
X177550000Y-169450000D03*
X174450000Y-169450000D03*
X174450000Y-172550000D03*
X177550000Y-172550000D03*
G04 #@! TD*
D10*
G04 #@! TO.C,MH4*
X176000000Y-104000000D03*
D11*
X176000000Y-101800000D03*
X173800000Y-104000000D03*
X176000000Y-106200000D03*
X178200000Y-104000000D03*
X177550000Y-102450000D03*
X174450000Y-102450000D03*
X174450000Y-105550000D03*
X177550000Y-105550000D03*
G04 #@! TD*
D10*
G04 #@! TO.C,MH5*
X126000000Y-104000000D03*
D11*
X126000000Y-101800000D03*
X123800000Y-104000000D03*
X126000000Y-106200000D03*
X128200000Y-104000000D03*
X127550000Y-102450000D03*
X124450000Y-102450000D03*
X124450000Y-105550000D03*
X127550000Y-105550000D03*
G04 #@! TD*
D10*
G04 #@! TO.C,MH6*
X131000000Y-144000000D03*
D11*
X131000000Y-141800000D03*
X128800000Y-144000000D03*
X131000000Y-146200000D03*
X133200000Y-144000000D03*
X132550000Y-142450000D03*
X129450000Y-142450000D03*
X129450000Y-145550000D03*
X132550000Y-145550000D03*
G04 #@! TD*
D12*
G04 #@! TO.C,P1*
X150170000Y-155950000D03*
D13*
X150170000Y-153410000D03*
X152710000Y-155950000D03*
X152710000Y-153410000D03*
X155250000Y-155950000D03*
X155250000Y-153410000D03*
G04 #@! TD*
D14*
G04 #@! TO.C,P9*
X106990000Y-128010000D03*
D13*
X106990000Y-130550000D03*
X104450000Y-128010000D03*
X104450000Y-130550000D03*
X101910000Y-128010000D03*
X101910000Y-130550000D03*
X99370000Y-128010000D03*
X99370000Y-130550000D03*
X96830000Y-128010000D03*
X96830000Y-130550000D03*
X94290000Y-128010000D03*
X94290000Y-130550000D03*
X91750000Y-128010000D03*
X91750000Y-130550000D03*
X89210000Y-128010000D03*
X89210000Y-130550000D03*
G04 #@! TD*
D15*
G04 #@! TO.C,P20*
X173030000Y-155950000D03*
D13*
X170490000Y-155950000D03*
X173030000Y-153410000D03*
X170490000Y-153410000D03*
X173030000Y-150870000D03*
X170490000Y-150870000D03*
X173030000Y-148330000D03*
X170490000Y-148330000D03*
X173030000Y-145790000D03*
X170490000Y-145790000D03*
X173030000Y-143250000D03*
X170490000Y-143250000D03*
X173030000Y-140710000D03*
X170490000Y-140710000D03*
X173030000Y-138170000D03*
X170490000Y-138170000D03*
X173030000Y-135630000D03*
X170490000Y-135630000D03*
X173030000Y-133090000D03*
X170490000Y-133090000D03*
X173030000Y-130550000D03*
X170490000Y-130550000D03*
G04 #@! TD*
D14*
G04 #@! TO.C,P22*
X167950000Y-163570000D03*
D13*
X167950000Y-166110000D03*
X165410000Y-163570000D03*
X165410000Y-166110000D03*
X162870000Y-163570000D03*
X162870000Y-166110000D03*
X160330000Y-163570000D03*
X160330000Y-166110000D03*
X157790000Y-163570000D03*
X157790000Y-166110000D03*
X155250000Y-163570000D03*
X155250000Y-166110000D03*
X152710000Y-163570000D03*
X152710000Y-166110000D03*
X150170000Y-163570000D03*
X150170000Y-166110000D03*
X147630000Y-163570000D03*
X147630000Y-166110000D03*
X145090000Y-163570000D03*
X145090000Y-166110000D03*
X142550000Y-163570000D03*
X142550000Y-166110000D03*
X140010000Y-163570000D03*
X140010000Y-166110000D03*
X137470000Y-163570000D03*
X137470000Y-166110000D03*
G04 #@! TD*
D15*
G04 #@! TO.C,P28*
X124770000Y-155950000D03*
D13*
X122230000Y-155950000D03*
X124770000Y-153410000D03*
X122230000Y-153410000D03*
X124770000Y-150870000D03*
X122230000Y-150870000D03*
X124770000Y-148330000D03*
X122230000Y-148330000D03*
X124770000Y-145790000D03*
X122230000Y-145790000D03*
X124770000Y-143250000D03*
X122230000Y-143250000D03*
X124770000Y-140710000D03*
X122230000Y-140710000D03*
X124770000Y-138170000D03*
X122230000Y-138170000D03*
X124770000Y-135630000D03*
X122230000Y-135630000D03*
X124770000Y-133090000D03*
X122230000Y-133090000D03*
X124770000Y-130550000D03*
X122230000Y-130550000D03*
G04 #@! TD*
D16*
G04 #@! TO.C,PA0*
X63115000Y-158007500D03*
X63115000Y-164992500D03*
G04 #@! TD*
G04 #@! TO.C,PA1*
X63115000Y-145632500D03*
X63115000Y-152617500D03*
G04 #@! TD*
G04 #@! TO.C,PA2*
X63115000Y-133257500D03*
X63115000Y-140242500D03*
G04 #@! TD*
G04 #@! TO.C,PA3*
X63115000Y-120882500D03*
X63115000Y-127867500D03*
G04 #@! TD*
G04 #@! TO.C,PA4*
X63115000Y-108507500D03*
X63115000Y-115492500D03*
G04 #@! TD*
D17*
G04 #@! TO.C,PB0*
X176885000Y-164992500D03*
X176885000Y-158007500D03*
G04 #@! TD*
G04 #@! TO.C,PB1*
X176885000Y-152617500D03*
X176885000Y-145632500D03*
G04 #@! TD*
G04 #@! TO.C,PB2*
X176885000Y-140242500D03*
X176885000Y-133257500D03*
G04 #@! TD*
G04 #@! TO.C,PB3*
X176885000Y-127867500D03*
X176885000Y-120882500D03*
G04 #@! TD*
G04 #@! TO.C,PB4*
X176885000Y-115492500D03*
X176885000Y-108507500D03*
G04 #@! TD*
D18*
G04 #@! TO.C,TP1*
X149000000Y-129800000D03*
G04 #@! TD*
G04 #@! TO.C,TP2*
X163113720Y-144198340D03*
G04 #@! TD*
G04 #@! TO.C,TP3*
X151200000Y-128300000D03*
G04 #@! TD*
G04 #@! TO.C,TP4*
X153500000Y-127000000D03*
G04 #@! TD*
G04 #@! TO.C,TP5*
X163500000Y-148000000D03*
G04 #@! TD*
G04 #@! TO.C,TP6*
X139400000Y-141100000D03*
G04 #@! TD*
G04 #@! TO.C,TP7*
X134400000Y-131300000D03*
G04 #@! TD*
G04 #@! TO.C,TP8*
X140500000Y-130500000D03*
G04 #@! TD*
G04 #@! TO.C,TP9*
X118200000Y-136500000D03*
G04 #@! TD*
G04 #@! TO.C,TP10*
X129600000Y-131900000D03*
G04 #@! TD*
G04 #@! TO.C,TP11*
X138600000Y-124100000D03*
G04 #@! TD*
G04 #@! TO.C,TP12*
X138200000Y-120500000D03*
G04 #@! TD*
G04 #@! TO.C,TP13*
X133770000Y-104323600D03*
G04 #@! TD*
G04 #@! TO.C,TP14*
X111000000Y-128000000D03*
G04 #@! TD*
G04 #@! TO.C,TP15*
X122300000Y-125200000D03*
G04 #@! TD*
G04 #@! TO.C,TP16*
X115800000Y-151000000D03*
G04 #@! TD*
G04 #@! TO.C,TP17*
X113106200Y-156286200D03*
G04 #@! TD*
G04 #@! TO.C,TP18*
X67900000Y-142900000D03*
G04 #@! TD*
G04 #@! TO.C,TP19*
X73500000Y-130500000D03*
G04 #@! TD*
G04 #@! TO.C,TP20*
X85300000Y-140700000D03*
G04 #@! TD*
G04 #@! TO.C,TP21*
X82400000Y-124000000D03*
G04 #@! TD*
G04 #@! TO.C,TP22*
X168200000Y-129600000D03*
G04 #@! TD*
G04 #@! TO.C,TP23*
X162031680Y-133725920D03*
G04 #@! TD*
G04 #@! TO.C,TP24*
X162000000Y-118200000D03*
G04 #@! TD*
G04 #@! TO.C,TP25*
X153000000Y-140667998D03*
G04 #@! TD*
G04 #@! TO.C,TP26*
X133500000Y-162000000D03*
G04 #@! TD*
G04 #@! TO.C,TP27*
X131000000Y-164000000D03*
G04 #@! TD*
G04 #@! TO.C,TP28*
X146700000Y-155100000D03*
G04 #@! TD*
G04 #@! TO.C,TP29*
X140600000Y-135700000D03*
G04 #@! TD*
G04 #@! TO.C,TP30*
X140440000Y-138600000D03*
G04 #@! TD*
D19*
G04 #@! TO.C,U1*
X120250000Y-169250000D03*
X119750000Y-169250000D03*
X119750000Y-168750000D03*
X120250000Y-168750000D03*
G04 #@! TD*
D20*
G04 #@! TO.C,U2*
X83000000Y-130262500D03*
X83000000Y-129662500D03*
X83000000Y-130862500D03*
X83000000Y-131462500D03*
G04 #@! TD*
G04 #@! TO.C,U3*
X157000000Y-130862500D03*
X157000000Y-131462500D03*
X157000000Y-130262500D03*
X157000000Y-129662500D03*
G04 #@! TD*
D12*
G04 #@! TO.C,J1*
X72192000Y-115310000D03*
D13*
X72192000Y-117850000D03*
X74732000Y-115310000D03*
X74732000Y-117850000D03*
X77272000Y-115310000D03*
X77272000Y-117850000D03*
X79812000Y-115310000D03*
X79812000Y-117850000D03*
X82352000Y-115310000D03*
X82352000Y-117850000D03*
X84892000Y-115310000D03*
X84892000Y-117850000D03*
X87432000Y-115310000D03*
X87432000Y-117850000D03*
X89972000Y-115310000D03*
X89972000Y-117850000D03*
X92512000Y-115310000D03*
X92512000Y-117850000D03*
X95052000Y-115310000D03*
X95052000Y-117850000D03*
X97592000Y-115310000D03*
X97592000Y-117850000D03*
X100132000Y-115310000D03*
X100132000Y-117850000D03*
X102672000Y-115310000D03*
X102672000Y-117850000D03*
X105212000Y-115310000D03*
X105212000Y-117850000D03*
X107752000Y-115310000D03*
X107752000Y-117850000D03*
X110292000Y-115310000D03*
X110292000Y-117850000D03*
X112832000Y-115310000D03*
X112832000Y-117850000D03*
X115372000Y-115310000D03*
X115372000Y-117850000D03*
X117912000Y-115310000D03*
X117912000Y-117850000D03*
X120452000Y-115310000D03*
X120452000Y-117850000D03*
G04 #@! TD*
D12*
G04 #@! TO.C,J2*
X72192000Y-161030000D03*
D13*
X72192000Y-163570000D03*
X74732000Y-161030000D03*
X74732000Y-163570000D03*
X77272000Y-161030000D03*
X77272000Y-163570000D03*
X79812000Y-161030000D03*
X79812000Y-163570000D03*
X82352000Y-161030000D03*
X82352000Y-163570000D03*
X84892000Y-161030000D03*
X84892000Y-163570000D03*
X87432000Y-161030000D03*
X87432000Y-163570000D03*
X89972000Y-161030000D03*
X89972000Y-163570000D03*
X92512000Y-161030000D03*
X92512000Y-163570000D03*
X95052000Y-161030000D03*
X95052000Y-163570000D03*
X97592000Y-161030000D03*
X97592000Y-163570000D03*
X100132000Y-161030000D03*
X100132000Y-163570000D03*
X102672000Y-161030000D03*
X102672000Y-163570000D03*
X105212000Y-161030000D03*
X105212000Y-163570000D03*
X107752000Y-161030000D03*
X107752000Y-163570000D03*
X110292000Y-161030000D03*
X110292000Y-163570000D03*
X112832000Y-161030000D03*
X112832000Y-163570000D03*
X115372000Y-161030000D03*
X115372000Y-163570000D03*
X117912000Y-161030000D03*
X117912000Y-163570000D03*
X120452000Y-161030000D03*
X120452000Y-163570000D03*
G04 #@! TD*
M02*
