G04 #@! TF.GenerationSoftware,KiCad,Pcbnew,6.0.10-86aedd382b~118~ubuntu22.04.1*
G04 #@! TF.CreationDate,2023-01-31T23:44:09-05:00*
G04 #@! TF.ProjectId,operacake,6f706572-6163-4616-9b65-2e6b69636164,rev?*
G04 #@! TF.SameCoordinates,Original*
G04 #@! TF.FileFunction,Copper,L1,Top*
G04 #@! TF.FilePolarity,Positive*
%FSLAX46Y46*%
G04 Gerber Fmt 4.6, Leading zero omitted, Abs format (unit mm)*
G04 Created by KiCad (PCBNEW 6.0.10-86aedd382b~118~ubuntu22.04.1) date 2023-01-31 23:44:09*
%MOMM*%
%LPD*%
G01*
G04 APERTURE LIST*
%ADD10C,0.177800*%
G04 #@! TA.AperFunction,NonConductor*
%ADD11C,0.177800*%
G04 #@! TD*
G04 #@! TA.AperFunction,SMDPad,CuDef*
%ADD12R,0.863600X0.863600*%
G04 #@! TD*
G04 #@! TA.AperFunction,SMDPad,CuDef*
%ADD13R,0.508000X0.558800*%
G04 #@! TD*
G04 #@! TA.AperFunction,SMDPad,CuDef*
%ADD14R,0.558800X0.508000*%
G04 #@! TD*
G04 #@! TA.AperFunction,ComponentPad*
%ADD15C,5.600000*%
G04 #@! TD*
G04 #@! TA.AperFunction,ComponentPad*
%ADD16C,0.600000*%
G04 #@! TD*
G04 #@! TA.AperFunction,ComponentPad*
%ADD17R,1.524000X1.524000*%
G04 #@! TD*
G04 #@! TA.AperFunction,ComponentPad*
%ADD18C,1.524000*%
G04 #@! TD*
G04 #@! TA.AperFunction,SMDPad,CuDef*
%ADD19R,4.190000X1.780000*%
G04 #@! TD*
G04 #@! TA.AperFunction,SMDPad,CuDef*
%ADD20R,4.190000X2.665000*%
G04 #@! TD*
G04 #@! TA.AperFunction,SMDPad,CuDef*
%ADD21O,1.200000X0.320000*%
G04 #@! TD*
G04 #@! TA.AperFunction,SMDPad,CuDef*
%ADD22O,0.320000X1.200000*%
G04 #@! TD*
G04 #@! TA.AperFunction,SMDPad,CuDef*
%ADD23R,1.000000X1.000000*%
G04 #@! TD*
G04 #@! TA.AperFunction,ComponentPad*
%ADD24C,0.457200*%
G04 #@! TD*
G04 #@! TA.AperFunction,SMDPad,CuDef*
%ADD25R,0.500000X0.500000*%
G04 #@! TD*
G04 #@! TA.AperFunction,SMDPad,CuDef*
%ADD26R,0.760000X2.400000*%
G04 #@! TD*
G04 #@! TA.AperFunction,SMDPad,CuDef*
%ADD27R,0.800000X0.250000*%
G04 #@! TD*
G04 #@! TA.AperFunction,SMDPad,CuDef*
%ADD28R,0.320000X1.050000*%
G04 #@! TD*
G04 #@! TA.AperFunction,SMDPad,CuDef*
%ADD29R,1.050000X0.320000*%
G04 #@! TD*
G04 #@! TA.AperFunction,SMDPad,CuDef*
%ADD30R,1.000000X0.450000*%
G04 #@! TD*
G04 #@! TA.AperFunction,SMDPad,CuDef*
%ADD31R,0.600000X0.420000*%
G04 #@! TD*
G04 #@! TA.AperFunction,SMDPad,CuDef*
%ADD32R,0.450000X1.000000*%
G04 #@! TD*
G04 #@! TA.AperFunction,SMDPad,CuDef*
%ADD33R,0.420000X0.600000*%
G04 #@! TD*
G04 #@! TA.AperFunction,ViaPad*
%ADD34C,1.066800*%
G04 #@! TD*
G04 #@! TA.AperFunction,ViaPad*
%ADD35C,0.685800*%
G04 #@! TD*
G04 #@! TA.AperFunction,ViaPad*
%ADD36C,0.787400*%
G04 #@! TD*
G04 #@! TA.AperFunction,Conductor*
%ADD37C,0.279400*%
G04 #@! TD*
G04 #@! TA.AperFunction,Conductor*
%ADD38C,0.304800*%
G04 #@! TD*
G04 #@! TA.AperFunction,Conductor*
%ADD39C,0.203200*%
G04 #@! TD*
G04 #@! TA.AperFunction,Conductor*
%ADD40C,0.508000*%
G04 #@! TD*
G04 APERTURE END LIST*
D10*
D11*
X165190285Y-101759619D02*
X164609714Y-101759619D01*
X164900000Y-101759619D02*
X164900000Y-100743619D01*
X164803238Y-100888761D01*
X164706476Y-100985523D01*
X164609714Y-101033904D01*
D12*
G04 #@! TO.P,DBG1,2*
G04 #@! TO.N,/U3V4*
X177537000Y-154675000D03*
G04 #@! TO.P,DBG1,1*
G04 #@! TO.N,Net-(DBG1-Pad1)*
X176013000Y-154675000D03*
G04 #@! TD*
G04 #@! TO.P,DBY1,2*
G04 #@! TO.N,/U3V4*
X177537000Y-155900000D03*
G04 #@! TO.P,DBY1,1*
G04 #@! TO.N,Net-(DBY1-Pad1)*
X176013000Y-155900000D03*
G04 #@! TD*
G04 #@! TO.P,DBG4,2*
G04 #@! TO.N,/U3V3*
X177537000Y-117550000D03*
G04 #@! TO.P,DBG4,1*
G04 #@! TO.N,Net-(DBG1-Pad1)*
X176013000Y-117550000D03*
G04 #@! TD*
G04 #@! TO.P,DBY4,2*
G04 #@! TO.N,/U3V3*
X177537000Y-118775000D03*
G04 #@! TO.P,DBY4,1*
G04 #@! TO.N,Net-(DBY1-Pad1)*
X176013000Y-118775000D03*
G04 #@! TD*
G04 #@! TO.P,DBG3,2*
G04 #@! TO.N,/U3V1*
X177537000Y-129925000D03*
G04 #@! TO.P,DBG3,1*
G04 #@! TO.N,Net-(DBG1-Pad1)*
X176013000Y-129925000D03*
G04 #@! TD*
G04 #@! TO.P,DBY3,2*
G04 #@! TO.N,/U3V1*
X177537000Y-131150000D03*
G04 #@! TO.P,DBY3,1*
G04 #@! TO.N,Net-(DBY1-Pad1)*
X176013000Y-131150000D03*
G04 #@! TD*
G04 #@! TO.P,DAY4,2*
G04 #@! TO.N,/U2V4*
X62463000Y-118775000D03*
G04 #@! TO.P,DAY4,1*
G04 #@! TO.N,Net-(DAY1-Pad1)*
X63987000Y-118775000D03*
G04 #@! TD*
G04 #@! TO.P,DAG4,2*
G04 #@! TO.N,/U2V4*
X62463000Y-117550000D03*
G04 #@! TO.P,DAG4,1*
G04 #@! TO.N,Net-(DAG1-Pad1)*
X63987000Y-117550000D03*
G04 #@! TD*
D13*
G04 #@! TO.P,C1,2*
G04 #@! TO.N,Net-(C1-Pad2)*
X66966600Y-136750000D03*
G04 #@! TO.P,C1,1*
G04 #@! TO.N,Net-(C1-Pad1)*
X68033400Y-136750000D03*
G04 #@! TD*
G04 #@! TO.P,C2,2*
G04 #@! TO.N,Net-(C2-Pad2)*
X66966600Y-112000000D03*
G04 #@! TO.P,C2,1*
G04 #@! TO.N,Net-(C2-Pad1)*
X68033400Y-112000000D03*
G04 #@! TD*
G04 #@! TO.P,C3,2*
G04 #@! TO.N,Net-(C3-Pad2)*
X168033400Y-136750000D03*
G04 #@! TO.P,C3,1*
G04 #@! TO.N,Net-(C3-Pad1)*
X166966600Y-136750000D03*
G04 #@! TD*
G04 #@! TO.P,C4,2*
G04 #@! TO.N,Net-(C4-Pad2)*
X173033400Y-112000000D03*
G04 #@! TO.P,C4,1*
G04 #@! TO.N,Net-(C4-Pad1)*
X171966600Y-112000000D03*
G04 #@! TD*
G04 #@! TO.P,C5,2*
G04 #@! TO.N,Net-(C5-Pad2)*
X66966600Y-149125000D03*
G04 #@! TO.P,C5,1*
G04 #@! TO.N,Net-(C5-Pad1)*
X68033400Y-149125000D03*
G04 #@! TD*
G04 #@! TO.P,C6,2*
G04 #@! TO.N,Net-(C6-Pad2)*
X66966600Y-124375000D03*
G04 #@! TO.P,C6,1*
G04 #@! TO.N,Net-(C6-Pad1)*
X68033400Y-124375000D03*
G04 #@! TD*
G04 #@! TO.P,C7,2*
G04 #@! TO.N,Net-(C7-Pad2)*
X168033400Y-149525000D03*
G04 #@! TO.P,C7,1*
G04 #@! TO.N,Net-(C7-Pad1)*
X166966600Y-149525000D03*
G04 #@! TD*
G04 #@! TO.P,C8,2*
G04 #@! TO.N,Net-(C8-Pad2)*
X173033400Y-124375000D03*
G04 #@! TO.P,C8,1*
G04 #@! TO.N,Net-(C8-Pad1)*
X171966600Y-124375000D03*
G04 #@! TD*
G04 #@! TO.P,C9,2*
G04 #@! TO.N,Net-(C9-Pad2)*
X114559080Y-165887400D03*
G04 #@! TO.P,C9,1*
G04 #@! TO.N,Net-(C9-Pad1)*
X115625880Y-165887400D03*
G04 #@! TD*
G04 #@! TO.P,C10,2*
G04 #@! TO.N,Net-(C10-Pad2)*
X123337320Y-165364160D03*
G04 #@! TO.P,C10,1*
G04 #@! TO.N,Net-(C10-Pad1)*
X124404120Y-165364160D03*
G04 #@! TD*
G04 #@! TO.P,C11,2*
G04 #@! TO.N,Net-(C11-Pad2)*
X66966600Y-161500000D03*
G04 #@! TO.P,C11,1*
G04 #@! TO.N,Net-(C11-Pad1)*
X68033400Y-161500000D03*
G04 #@! TD*
G04 #@! TO.P,C12,2*
G04 #@! TO.N,Net-(C12-Pad2)*
X173008400Y-161500000D03*
G04 #@! TO.P,C12,1*
G04 #@! TO.N,Net-(C12-Pad1)*
X171941600Y-161500000D03*
G04 #@! TD*
D14*
G04 #@! TO.P,D1,2*
G04 #@! TO.N,GND*
X69100000Y-135666600D03*
G04 #@! TO.P,D1,1*
G04 #@! TO.N,Net-(C1-Pad1)*
X69100000Y-136733400D03*
G04 #@! TD*
G04 #@! TO.P,D2,2*
G04 #@! TO.N,GND*
X69100000Y-110966600D03*
G04 #@! TO.P,D2,1*
G04 #@! TO.N,Net-(C2-Pad1)*
X69100000Y-112033400D03*
G04 #@! TD*
G04 #@! TO.P,D3,2*
G04 #@! TO.N,GND*
X165900000Y-135766600D03*
G04 #@! TO.P,D3,1*
G04 #@! TO.N,Net-(C3-Pad1)*
X165900000Y-136833400D03*
G04 #@! TD*
G04 #@! TO.P,D4,2*
G04 #@! TO.N,GND*
X170900000Y-110966600D03*
G04 #@! TO.P,D4,1*
G04 #@! TO.N,Net-(C4-Pad1)*
X170900000Y-112033400D03*
G04 #@! TD*
G04 #@! TO.P,D5,2*
G04 #@! TO.N,GND*
X69100000Y-148066600D03*
G04 #@! TO.P,D5,1*
G04 #@! TO.N,Net-(C5-Pad1)*
X69100000Y-149133400D03*
G04 #@! TD*
G04 #@! TO.P,D6,2*
G04 #@! TO.N,GND*
X69100000Y-123366600D03*
G04 #@! TO.P,D6,1*
G04 #@! TO.N,Net-(C6-Pad1)*
X69100000Y-124433400D03*
G04 #@! TD*
G04 #@! TO.P,D7,2*
G04 #@! TO.N,GND*
X165900000Y-148466600D03*
G04 #@! TO.P,D7,1*
G04 #@! TO.N,Net-(C7-Pad1)*
X165900000Y-149533400D03*
G04 #@! TD*
G04 #@! TO.P,D8,2*
G04 #@! TO.N,GND*
X170900000Y-123366600D03*
G04 #@! TO.P,D8,1*
G04 #@! TO.N,Net-(C8-Pad1)*
X170900000Y-124433400D03*
G04 #@! TD*
G04 #@! TO.P,D9,2*
G04 #@! TO.N,GND*
X69100000Y-160466600D03*
G04 #@! TO.P,D9,1*
G04 #@! TO.N,Net-(C11-Pad1)*
X69100000Y-161533400D03*
G04 #@! TD*
G04 #@! TO.P,D10,2*
G04 #@! TO.N,GND*
X170900000Y-160466600D03*
G04 #@! TO.P,D10,1*
G04 #@! TO.N,Net-(C12-Pad1)*
X170900000Y-161533400D03*
G04 #@! TD*
D12*
G04 #@! TO.P,DA0,2*
G04 #@! TO.N,VCC*
X62463000Y-167050000D03*
G04 #@! TO.P,DA0,1*
G04 #@! TO.N,Net-(DA0-Pad1)*
X63987000Y-167050000D03*
G04 #@! TD*
G04 #@! TO.P,DAG1,2*
G04 #@! TO.N,/U2V3*
X62463000Y-154675000D03*
G04 #@! TO.P,DAG1,1*
G04 #@! TO.N,Net-(DAG1-Pad1)*
X63987000Y-154675000D03*
G04 #@! TD*
G04 #@! TO.P,DAG2,2*
G04 #@! TO.N,/U2V1*
X62463000Y-142300000D03*
G04 #@! TO.P,DAG2,1*
G04 #@! TO.N,Net-(DAG1-Pad1)*
X63987000Y-142300000D03*
G04 #@! TD*
G04 #@! TO.P,DAG3,2*
G04 #@! TO.N,/U2V2*
X62463000Y-129925000D03*
G04 #@! TO.P,DAG3,1*
G04 #@! TO.N,Net-(DAG1-Pad1)*
X63987000Y-129925000D03*
G04 #@! TD*
G04 #@! TO.P,DAY1,2*
G04 #@! TO.N,/U2V3*
X62463000Y-155900000D03*
G04 #@! TO.P,DAY1,1*
G04 #@! TO.N,Net-(DAY1-Pad1)*
X63987000Y-155900000D03*
G04 #@! TD*
G04 #@! TO.P,DAY2,2*
G04 #@! TO.N,/U2V1*
X62463000Y-143525000D03*
G04 #@! TO.P,DAY2,1*
G04 #@! TO.N,Net-(DAY1-Pad1)*
X63987000Y-143525000D03*
G04 #@! TD*
G04 #@! TO.P,DAY3,2*
G04 #@! TO.N,/U2V2*
X62463000Y-131150000D03*
G04 #@! TO.P,DAY3,1*
G04 #@! TO.N,Net-(DAY1-Pad1)*
X63987000Y-131150000D03*
G04 #@! TD*
G04 #@! TO.P,DB0,2*
G04 #@! TO.N,VCC*
X177537000Y-167050000D03*
G04 #@! TO.P,DB0,1*
G04 #@! TO.N,Net-(DB0-Pad1)*
X176013000Y-167050000D03*
G04 #@! TD*
G04 #@! TO.P,DBG2,2*
G04 #@! TO.N,/U3V2*
X177537000Y-142300000D03*
G04 #@! TO.P,DBG2,1*
G04 #@! TO.N,Net-(DBG1-Pad1)*
X176013000Y-142300000D03*
G04 #@! TD*
G04 #@! TO.P,DBY2,2*
G04 #@! TO.N,/U3V2*
X177537000Y-143525000D03*
G04 #@! TO.P,DBY2,1*
G04 #@! TO.N,Net-(DBY1-Pad1)*
X176013000Y-143525000D03*
G04 #@! TD*
D15*
G04 #@! TO.P,MH1,1*
G04 #@! TO.N,GND*
X64000000Y-104000000D03*
D16*
X64000000Y-101800000D03*
X61800000Y-104000000D03*
X64000000Y-106200000D03*
X66200000Y-104000000D03*
X65550000Y-102450000D03*
X62450000Y-102450000D03*
X62450000Y-105550000D03*
X65550000Y-105550000D03*
G04 #@! TD*
D15*
G04 #@! TO.P,MH2,1*
G04 #@! TO.N,GND*
X64000000Y-171000000D03*
D16*
X64000000Y-168800000D03*
X61800000Y-171000000D03*
X64000000Y-173200000D03*
X66200000Y-171000000D03*
X65550000Y-169450000D03*
X62450000Y-169450000D03*
X62450000Y-172550000D03*
X65550000Y-172550000D03*
G04 #@! TD*
D15*
G04 #@! TO.P,MH3,1*
G04 #@! TO.N,GND*
X176000000Y-171000000D03*
D16*
X176000000Y-168800000D03*
X173800000Y-171000000D03*
X176000000Y-173200000D03*
X178200000Y-171000000D03*
X177550000Y-169450000D03*
X174450000Y-169450000D03*
X174450000Y-172550000D03*
X177550000Y-172550000D03*
G04 #@! TD*
D15*
G04 #@! TO.P,MH4,1*
G04 #@! TO.N,GND*
X176000000Y-104000000D03*
D16*
X176000000Y-101800000D03*
X173800000Y-104000000D03*
X176000000Y-106200000D03*
X178200000Y-104000000D03*
X177550000Y-102450000D03*
X174450000Y-102450000D03*
X174450000Y-105550000D03*
X177550000Y-105550000D03*
G04 #@! TD*
D15*
G04 #@! TO.P,MH5,1*
G04 #@! TO.N,GND*
X126000000Y-104000000D03*
D16*
X126000000Y-101800000D03*
X123800000Y-104000000D03*
X126000000Y-106200000D03*
X128200000Y-104000000D03*
X127550000Y-102450000D03*
X124450000Y-102450000D03*
X124450000Y-105550000D03*
X127550000Y-105550000D03*
G04 #@! TD*
D15*
G04 #@! TO.P,MH6,1*
G04 #@! TO.N,GND*
X131000000Y-144000000D03*
D16*
X131000000Y-141800000D03*
X128800000Y-144000000D03*
X131000000Y-146200000D03*
X133200000Y-144000000D03*
X132550000Y-142450000D03*
X129450000Y-142450000D03*
X129450000Y-145550000D03*
X132550000Y-145550000D03*
G04 #@! TD*
D17*
G04 #@! TO.P,P1,1*
G04 #@! TO.N,VCC*
X150170000Y-155950000D03*
D18*
G04 #@! TO.P,P1,2*
G04 #@! TO.N,/A0*
X150170000Y-153410000D03*
G04 #@! TO.P,P1,3*
G04 #@! TO.N,VCC*
X152710000Y-155950000D03*
G04 #@! TO.P,P1,4*
G04 #@! TO.N,/A1*
X152710000Y-153410000D03*
G04 #@! TO.P,P1,5*
G04 #@! TO.N,VCC*
X155250000Y-155950000D03*
G04 #@! TO.P,P1,6*
G04 #@! TO.N,/A2*
X155250000Y-153410000D03*
G04 #@! TD*
D17*
G04 #@! TO.P,P9,1*
G04 #@! TO.N,GND*
X106990000Y-128010000D03*
D18*
G04 #@! TO.P,P9,2*
X106990000Y-130550000D03*
G04 #@! TO.P,P9,3*
X104450000Y-128010000D03*
G04 #@! TO.P,P9,4*
G04 #@! TO.N,Net-(P9-Pad4)*
X104450000Y-130550000D03*
G04 #@! TO.P,P9,5*
G04 #@! TO.N,Net-(P9-Pad5)*
X101910000Y-128010000D03*
G04 #@! TO.P,P9,6*
G04 #@! TO.N,Net-(P9-Pad6)*
X101910000Y-130550000D03*
G04 #@! TO.P,P9,7*
G04 #@! TO.N,Net-(P9-Pad7)*
X99370000Y-128010000D03*
G04 #@! TO.P,P9,8*
G04 #@! TO.N,GND*
X99370000Y-130550000D03*
G04 #@! TO.P,P9,9*
X96830000Y-128010000D03*
G04 #@! TO.P,P9,10*
G04 #@! TO.N,Net-(P9-Pad10)*
X96830000Y-130550000D03*
G04 #@! TO.P,P9,11*
G04 #@! TO.N,Net-(P9-Pad11)*
X94290000Y-128010000D03*
G04 #@! TO.P,P9,12*
G04 #@! TO.N,Net-(P9-Pad12)*
X94290000Y-130550000D03*
G04 #@! TO.P,P9,13*
G04 #@! TO.N,Net-(P9-Pad13)*
X91750000Y-128010000D03*
G04 #@! TO.P,P9,14*
G04 #@! TO.N,GND*
X91750000Y-130550000D03*
G04 #@! TO.P,P9,15*
X89210000Y-128010000D03*
G04 #@! TO.P,P9,16*
X89210000Y-130550000D03*
G04 #@! TD*
D17*
G04 #@! TO.P,P20,1*
G04 #@! TO.N,Net-(P20-Pad1)*
X173030000Y-155950000D03*
D18*
G04 #@! TO.P,P20,2*
G04 #@! TO.N,Net-(P20-Pad2)*
X170490000Y-155950000D03*
G04 #@! TO.P,P20,3*
G04 #@! TO.N,VCC*
X173030000Y-153410000D03*
G04 #@! TO.P,P20,4*
G04 #@! TO.N,Net-(P20-Pad4)*
X170490000Y-153410000D03*
G04 #@! TO.P,P20,5*
G04 #@! TO.N,/EXT_U1CTRL*
X173030000Y-150870000D03*
G04 #@! TO.P,P20,6*
G04 #@! TO.N,Net-(P20-Pad6)*
X170490000Y-150870000D03*
G04 #@! TO.P,P20,7*
G04 #@! TO.N,Net-(P20-Pad7)*
X173030000Y-148330000D03*
G04 #@! TO.P,P20,8*
G04 #@! TO.N,Net-(P20-Pad8)*
X170490000Y-148330000D03*
G04 #@! TO.P,P20,9*
G04 #@! TO.N,/EXT_U2CTRL0*
X173030000Y-145790000D03*
G04 #@! TO.P,P20,10*
G04 #@! TO.N,/EXT_U2CTRL1*
X170490000Y-145790000D03*
G04 #@! TO.P,P20,11*
G04 #@! TO.N,/EXT_U3CTRL0*
X173030000Y-143250000D03*
G04 #@! TO.P,P20,12*
G04 #@! TO.N,/EXT_U3CTRL1*
X170490000Y-143250000D03*
G04 #@! TO.P,P20,13*
G04 #@! TO.N,Net-(P20-Pad13)*
X173030000Y-140710000D03*
G04 #@! TO.P,P20,14*
G04 #@! TO.N,Net-(P20-Pad14)*
X170490000Y-140710000D03*
G04 #@! TO.P,P20,15*
G04 #@! TO.N,GND*
X173030000Y-138170000D03*
G04 #@! TO.P,P20,16*
G04 #@! TO.N,Net-(P20-Pad16)*
X170490000Y-138170000D03*
G04 #@! TO.P,P20,17*
G04 #@! TO.N,Net-(P20-Pad17)*
X173030000Y-135630000D03*
G04 #@! TO.P,P20,18*
G04 #@! TO.N,Net-(P20-Pad18)*
X170490000Y-135630000D03*
G04 #@! TO.P,P20,19*
G04 #@! TO.N,GND*
X173030000Y-133090000D03*
G04 #@! TO.P,P20,20*
G04 #@! TO.N,Net-(P20-Pad20)*
X170490000Y-133090000D03*
G04 #@! TO.P,P20,21*
G04 #@! TO.N,Net-(P20-Pad21)*
X173030000Y-130550000D03*
G04 #@! TO.P,P20,22*
G04 #@! TO.N,Net-(P20-Pad22)*
X170490000Y-130550000D03*
G04 #@! TD*
D17*
G04 #@! TO.P,P22,1*
G04 #@! TO.N,Net-(P22-Pad1)*
X167950000Y-163570000D03*
D18*
G04 #@! TO.P,P22,2*
G04 #@! TO.N,Net-(P22-Pad2)*
X167950000Y-166110000D03*
G04 #@! TO.P,P22,3*
G04 #@! TO.N,Net-(P22-Pad3)*
X165410000Y-163570000D03*
G04 #@! TO.P,P22,4*
G04 #@! TO.N,GND*
X165410000Y-166110000D03*
G04 #@! TO.P,P22,5*
G04 #@! TO.N,Net-(P22-Pad5)*
X162870000Y-163570000D03*
G04 #@! TO.P,P22,6*
G04 #@! TO.N,Net-(P22-Pad6)*
X162870000Y-166110000D03*
G04 #@! TO.P,P22,7*
G04 #@! TO.N,Net-(P22-Pad7)*
X160330000Y-163570000D03*
G04 #@! TO.P,P22,8*
G04 #@! TO.N,Net-(P22-Pad8)*
X160330000Y-166110000D03*
G04 #@! TO.P,P22,9*
G04 #@! TO.N,Net-(P22-Pad9)*
X157790000Y-163570000D03*
G04 #@! TO.P,P22,10*
G04 #@! TO.N,GND*
X157790000Y-166110000D03*
G04 #@! TO.P,P22,11*
G04 #@! TO.N,VCC*
X155250000Y-163570000D03*
G04 #@! TO.P,P22,12*
G04 #@! TO.N,Net-(P22-Pad12)*
X155250000Y-166110000D03*
G04 #@! TO.P,P22,13*
G04 #@! TO.N,Net-(P22-Pad13)*
X152710000Y-163570000D03*
G04 #@! TO.P,P22,14*
G04 #@! TO.N,Net-(P22-Pad14)*
X152710000Y-166110000D03*
G04 #@! TO.P,P22,15*
G04 #@! TO.N,Net-(P22-Pad15)*
X150170000Y-163570000D03*
G04 #@! TO.P,P22,16*
G04 #@! TO.N,Net-(P22-Pad16)*
X150170000Y-166110000D03*
G04 #@! TO.P,P22,17*
G04 #@! TO.N,Net-(P22-Pad17)*
X147630000Y-163570000D03*
G04 #@! TO.P,P22,18*
G04 #@! TO.N,GND*
X147630000Y-166110000D03*
G04 #@! TO.P,P22,19*
G04 #@! TO.N,Net-(P22-Pad19)*
X145090000Y-163570000D03*
G04 #@! TO.P,P22,20*
G04 #@! TO.N,Net-(P22-Pad20)*
X145090000Y-166110000D03*
G04 #@! TO.P,P22,21*
G04 #@! TO.N,Net-(P22-Pad21)*
X142550000Y-163570000D03*
G04 #@! TO.P,P22,22*
G04 #@! TO.N,Net-(P22-Pad22)*
X142550000Y-166110000D03*
G04 #@! TO.P,P22,23*
G04 #@! TO.N,Net-(P22-Pad23)*
X140010000Y-163570000D03*
G04 #@! TO.P,P22,24*
G04 #@! TO.N,/SDA*
X140010000Y-166110000D03*
G04 #@! TO.P,P22,25*
G04 #@! TO.N,Net-(P22-Pad25)*
X137470000Y-163570000D03*
G04 #@! TO.P,P22,26*
G04 #@! TO.N,/SCL*
X137470000Y-166110000D03*
G04 #@! TD*
D17*
G04 #@! TO.P,P28,1*
G04 #@! TO.N,VCC*
X124770000Y-155950000D03*
D18*
G04 #@! TO.P,P28,2*
G04 #@! TO.N,GND*
X122230000Y-155950000D03*
G04 #@! TO.P,P28,3*
G04 #@! TO.N,Net-(P28-Pad3)*
X124770000Y-153410000D03*
G04 #@! TO.P,P28,4*
G04 #@! TO.N,Net-(P28-Pad4)*
X122230000Y-153410000D03*
G04 #@! TO.P,P28,5*
G04 #@! TO.N,Net-(P28-Pad5)*
X124770000Y-150870000D03*
G04 #@! TO.P,P28,6*
G04 #@! TO.N,Net-(P28-Pad6)*
X122230000Y-150870000D03*
G04 #@! TO.P,P28,7*
G04 #@! TO.N,Net-(P28-Pad7)*
X124770000Y-148330000D03*
G04 #@! TO.P,P28,8*
G04 #@! TO.N,Net-(P28-Pad8)*
X122230000Y-148330000D03*
G04 #@! TO.P,P28,9*
G04 #@! TO.N,Net-(P28-Pad9)*
X124770000Y-145790000D03*
G04 #@! TO.P,P28,10*
G04 #@! TO.N,Net-(P28-Pad10)*
X122230000Y-145790000D03*
G04 #@! TO.P,P28,11*
G04 #@! TO.N,Net-(P28-Pad11)*
X124770000Y-143250000D03*
G04 #@! TO.P,P28,12*
G04 #@! TO.N,GND*
X122230000Y-143250000D03*
G04 #@! TO.P,P28,13*
G04 #@! TO.N,Net-(P28-Pad13)*
X124770000Y-140710000D03*
G04 #@! TO.P,P28,14*
G04 #@! TO.N,Net-(P28-Pad14)*
X122230000Y-140710000D03*
G04 #@! TO.P,P28,15*
G04 #@! TO.N,Net-(P28-Pad15)*
X124770000Y-138170000D03*
G04 #@! TO.P,P28,16*
G04 #@! TO.N,Net-(P28-Pad16)*
X122230000Y-138170000D03*
G04 #@! TO.P,P28,17*
G04 #@! TO.N,Net-(P28-Pad17)*
X124770000Y-135630000D03*
G04 #@! TO.P,P28,18*
G04 #@! TO.N,Net-(P28-Pad18)*
X122230000Y-135630000D03*
G04 #@! TO.P,P28,19*
G04 #@! TO.N,Net-(P28-Pad19)*
X124770000Y-133090000D03*
G04 #@! TO.P,P28,20*
G04 #@! TO.N,Net-(P28-Pad20)*
X122230000Y-133090000D03*
G04 #@! TO.P,P28,21*
G04 #@! TO.N,Net-(P28-Pad21)*
X124770000Y-130550000D03*
G04 #@! TO.P,P28,22*
G04 #@! TO.N,Net-(P28-Pad22)*
X122230000Y-130550000D03*
G04 #@! TD*
D19*
G04 #@! TO.P,PA0,1*
G04 #@! TO.N,Net-(C11-Pad2)*
X63115000Y-161500000D03*
D20*
G04 #@! TO.P,PA0,2*
G04 #@! TO.N,GND*
X63115000Y-158007500D03*
X63115000Y-164992500D03*
D16*
X64520000Y-164000000D03*
X64520000Y-165000000D03*
X64520000Y-166000000D03*
X63520000Y-164000000D03*
X63520000Y-165000000D03*
X63520000Y-166000000D03*
X62520000Y-164000000D03*
X62520000Y-165000000D03*
X62520000Y-166000000D03*
X64520000Y-159000000D03*
X64520000Y-158000000D03*
X64520000Y-157000000D03*
X63520000Y-159000000D03*
X63520000Y-158000000D03*
X63520000Y-157000000D03*
X62520000Y-159000000D03*
X62520000Y-158000000D03*
X62520000Y-157000000D03*
G04 #@! TD*
D19*
G04 #@! TO.P,PA1,1*
G04 #@! TO.N,Net-(C5-Pad2)*
X63115000Y-149125000D03*
D20*
G04 #@! TO.P,PA1,2*
G04 #@! TO.N,GND*
X63115000Y-145632500D03*
X63115000Y-152617500D03*
D16*
X64520000Y-151625000D03*
X64520000Y-152625000D03*
X64520000Y-153625000D03*
X63520000Y-151625000D03*
X63520000Y-152625000D03*
X63520000Y-153625000D03*
X62520000Y-151625000D03*
X62520000Y-152625000D03*
X62520000Y-153625000D03*
X64520000Y-146625000D03*
X64520000Y-145625000D03*
X64520000Y-144625000D03*
X63520000Y-146625000D03*
X63520000Y-145625000D03*
X63520000Y-144625000D03*
X62520000Y-146625000D03*
X62520000Y-145625000D03*
X62520000Y-144625000D03*
G04 #@! TD*
D19*
G04 #@! TO.P,PA2,1*
G04 #@! TO.N,Net-(C1-Pad2)*
X63115000Y-136750000D03*
D20*
G04 #@! TO.P,PA2,2*
G04 #@! TO.N,GND*
X63115000Y-133257500D03*
X63115000Y-140242500D03*
D16*
X64520000Y-139250000D03*
X64520000Y-140250000D03*
X64520000Y-141250000D03*
X63520000Y-139250000D03*
X63520000Y-140250000D03*
X63520000Y-141250000D03*
X62520000Y-139250000D03*
X62520000Y-140250000D03*
X62520000Y-141250000D03*
X64520000Y-134250000D03*
X64520000Y-133250000D03*
X64520000Y-132250000D03*
X63520000Y-134250000D03*
X63520000Y-133250000D03*
X63520000Y-132250000D03*
X62520000Y-134250000D03*
X62520000Y-133250000D03*
X62520000Y-132250000D03*
G04 #@! TD*
D19*
G04 #@! TO.P,PA3,1*
G04 #@! TO.N,Net-(C6-Pad2)*
X63115000Y-124375000D03*
D20*
G04 #@! TO.P,PA3,2*
G04 #@! TO.N,GND*
X63115000Y-120882500D03*
X63115000Y-127867500D03*
D16*
X64520000Y-126875000D03*
X64520000Y-127875000D03*
X64520000Y-128875000D03*
X63520000Y-126875000D03*
X63520000Y-127875000D03*
X63520000Y-128875000D03*
X62520000Y-126875000D03*
X62520000Y-127875000D03*
X62520000Y-128875000D03*
X64520000Y-121875000D03*
X64520000Y-120875000D03*
X64520000Y-119875000D03*
X63520000Y-121875000D03*
X63520000Y-120875000D03*
X63520000Y-119875000D03*
X62520000Y-121875000D03*
X62520000Y-120875000D03*
X62520000Y-119875000D03*
G04 #@! TD*
D19*
G04 #@! TO.P,PA4,1*
G04 #@! TO.N,Net-(C2-Pad2)*
X63115000Y-112000000D03*
D20*
G04 #@! TO.P,PA4,2*
G04 #@! TO.N,GND*
X63115000Y-108507500D03*
X63115000Y-115492500D03*
D16*
X64520000Y-114500000D03*
X64520000Y-115500000D03*
X64520000Y-116500000D03*
X63520000Y-114500000D03*
X63520000Y-115500000D03*
X63520000Y-116500000D03*
X62520000Y-114500000D03*
X62520000Y-115500000D03*
X62520000Y-116500000D03*
X64520000Y-109500000D03*
X64520000Y-108500000D03*
X64520000Y-107500000D03*
X63520000Y-109500000D03*
X63520000Y-108500000D03*
X63520000Y-107500000D03*
X62520000Y-109500000D03*
X62520000Y-108500000D03*
X62520000Y-107500000D03*
G04 #@! TD*
D19*
G04 #@! TO.P,PB0,1*
G04 #@! TO.N,Net-(C12-Pad2)*
X176885000Y-161500000D03*
D20*
G04 #@! TO.P,PB0,2*
G04 #@! TO.N,GND*
X176885000Y-164992500D03*
X176885000Y-158007500D03*
D16*
X175480000Y-159000000D03*
X175480000Y-158000000D03*
X175480000Y-157000000D03*
X176480000Y-159000000D03*
X176480000Y-158000000D03*
X176480000Y-157000000D03*
X177480000Y-159000000D03*
X177480000Y-158000000D03*
X177480000Y-157000000D03*
X175480000Y-164000000D03*
X175480000Y-165000000D03*
X175480000Y-166000000D03*
X176480000Y-164000000D03*
X176480000Y-165000000D03*
X176480000Y-166000000D03*
X177480000Y-164000000D03*
X177480000Y-165000000D03*
X177480000Y-166000000D03*
G04 #@! TD*
D19*
G04 #@! TO.P,PB1,1*
G04 #@! TO.N,Net-(C7-Pad2)*
X176885000Y-149125000D03*
D20*
G04 #@! TO.P,PB1,2*
G04 #@! TO.N,GND*
X176885000Y-152617500D03*
X176885000Y-145632500D03*
D16*
X175480000Y-146625000D03*
X175480000Y-145625000D03*
X175480000Y-144625000D03*
X176480000Y-146625000D03*
X176480000Y-145625000D03*
X176480000Y-144625000D03*
X177480000Y-146625000D03*
X177480000Y-145625000D03*
X177480000Y-144625000D03*
X175480000Y-151625000D03*
X175480000Y-152625000D03*
X175480000Y-153625000D03*
X176480000Y-151625000D03*
X176480000Y-152625000D03*
X176480000Y-153625000D03*
X177480000Y-151625000D03*
X177480000Y-152625000D03*
X177480000Y-153625000D03*
G04 #@! TD*
D19*
G04 #@! TO.P,PB2,1*
G04 #@! TO.N,Net-(C3-Pad2)*
X176885000Y-136750000D03*
D20*
G04 #@! TO.P,PB2,2*
G04 #@! TO.N,GND*
X176885000Y-140242500D03*
X176885000Y-133257500D03*
D16*
X175480000Y-134250000D03*
X175480000Y-133250000D03*
X175480000Y-132250000D03*
X176480000Y-134250000D03*
X176480000Y-133250000D03*
X176480000Y-132250000D03*
X177480000Y-134250000D03*
X177480000Y-133250000D03*
X177480000Y-132250000D03*
X175480000Y-139250000D03*
X175480000Y-140250000D03*
X175480000Y-141250000D03*
X176480000Y-139250000D03*
X176480000Y-140250000D03*
X176480000Y-141250000D03*
X177480000Y-139250000D03*
X177480000Y-140250000D03*
X177480000Y-141250000D03*
G04 #@! TD*
D19*
G04 #@! TO.P,PB3,1*
G04 #@! TO.N,Net-(C8-Pad2)*
X176885000Y-124375000D03*
D20*
G04 #@! TO.P,PB3,2*
G04 #@! TO.N,GND*
X176885000Y-127867500D03*
X176885000Y-120882500D03*
D16*
X175480000Y-121875000D03*
X175480000Y-120875000D03*
X175480000Y-119875000D03*
X176480000Y-121875000D03*
X176480000Y-120875000D03*
X176480000Y-119875000D03*
X177480000Y-121875000D03*
X177480000Y-120875000D03*
X177480000Y-119875000D03*
X175480000Y-126875000D03*
X175480000Y-127875000D03*
X175480000Y-128875000D03*
X176480000Y-126875000D03*
X176480000Y-127875000D03*
X176480000Y-128875000D03*
X177480000Y-126875000D03*
X177480000Y-127875000D03*
X177480000Y-128875000D03*
G04 #@! TD*
D19*
G04 #@! TO.P,PB4,1*
G04 #@! TO.N,Net-(C4-Pad2)*
X176885000Y-112000000D03*
D20*
G04 #@! TO.P,PB4,2*
G04 #@! TO.N,GND*
X176885000Y-115492500D03*
X176885000Y-108507500D03*
D16*
X175480000Y-109500000D03*
X175480000Y-108500000D03*
X175480000Y-107500000D03*
X176480000Y-109500000D03*
X176480000Y-108500000D03*
X176480000Y-107500000D03*
X177480000Y-109500000D03*
X177480000Y-108500000D03*
X177480000Y-107500000D03*
X175480000Y-114500000D03*
X175480000Y-115500000D03*
X175480000Y-116500000D03*
X176480000Y-114500000D03*
X176480000Y-115500000D03*
X176480000Y-116500000D03*
X177480000Y-114500000D03*
X177480000Y-115500000D03*
X177480000Y-116500000D03*
G04 #@! TD*
D12*
G04 #@! TO.P,R1,2*
G04 #@! TO.N,Net-(R1-Pad2)*
X112318800Y-129286000D03*
G04 #@! TO.P,R1,1*
G04 #@! TO.N,Net-(DAG1-Pad1)*
X112318800Y-130810000D03*
G04 #@! TD*
G04 #@! TO.P,R2,2*
G04 #@! TO.N,Net-(R2-Pad2)*
X112496600Y-124206000D03*
G04 #@! TO.P,R2,1*
G04 #@! TO.N,Net-(DAY1-Pad1)*
X112496600Y-125730000D03*
G04 #@! TD*
G04 #@! TO.P,R3,2*
G04 #@! TO.N,Net-(R2-Pad2)*
X110490000Y-124231400D03*
G04 #@! TO.P,R3,1*
G04 #@! TO.N,Net-(DBG1-Pad1)*
X110490000Y-122707400D03*
G04 #@! TD*
G04 #@! TO.P,R4,2*
G04 #@! TO.N,Net-(R1-Pad2)*
X110464600Y-129336800D03*
G04 #@! TO.P,R4,1*
G04 #@! TO.N,Net-(DBY1-Pad1)*
X110464600Y-127812800D03*
G04 #@! TD*
G04 #@! TO.P,R5,2*
G04 #@! TO.N,/!LED_EN*
X134500000Y-139738000D03*
G04 #@! TO.P,R5,1*
G04 #@! TO.N,Net-(DA0-Pad1)*
X134500000Y-141262000D03*
G04 #@! TD*
G04 #@! TO.P,R6,2*
G04 #@! TO.N,/!LED_EN*
X136500000Y-139738000D03*
G04 #@! TO.P,R6,1*
G04 #@! TO.N,Net-(DB0-Pad1)*
X136500000Y-141262000D03*
G04 #@! TD*
G04 #@! TO.P,R7,2*
G04 #@! TO.N,/SCL*
X134762000Y-166100000D03*
G04 #@! TO.P,R7,1*
G04 #@! TO.N,VCC*
X133238000Y-166100000D03*
G04 #@! TD*
G04 #@! TO.P,R8,2*
G04 #@! TO.N,/SDA*
X140038000Y-168600000D03*
G04 #@! TO.P,R8,1*
G04 #@! TO.N,VCC*
X141562000Y-168600000D03*
G04 #@! TD*
G04 #@! TO.P,R9,2*
G04 #@! TO.N,/!LED_EN*
X132262000Y-139500000D03*
G04 #@! TO.P,R9,1*
G04 #@! TO.N,VCC*
X130738000Y-139500000D03*
G04 #@! TD*
G04 #@! TO.P,R10,2*
G04 #@! TO.N,VCC*
X131505960Y-133913880D03*
G04 #@! TO.P,R10,1*
G04 #@! TO.N,/!RESET*
X129981960Y-133913880D03*
G04 #@! TD*
G04 #@! TO.P,R11,2*
G04 #@! TO.N,VCC*
X141351000Y-128793240D03*
G04 #@! TO.P,R11,1*
G04 #@! TO.N,/!OE*
X139827000Y-128793240D03*
G04 #@! TD*
G04 #@! TO.P,R12,2*
G04 #@! TO.N,VCC*
X131532000Y-106823600D03*
G04 #@! TO.P,R12,1*
G04 #@! TO.N,/U2CTRL1*
X130008000Y-106823600D03*
G04 #@! TD*
G04 #@! TO.P,R13,2*
G04 #@! TO.N,VCC*
X125500000Y-125238000D03*
G04 #@! TO.P,R13,1*
G04 #@! TO.N,/U2CTRL0*
X125500000Y-126762000D03*
G04 #@! TD*
G04 #@! TO.P,R14,2*
G04 #@! TO.N,VCC*
X135532000Y-106823600D03*
G04 #@! TO.P,R14,1*
G04 #@! TO.N,/U3CTRL1*
X134008000Y-106823600D03*
G04 #@! TD*
G04 #@! TO.P,R15,2*
G04 #@! TO.N,VCC*
X137938000Y-121700000D03*
G04 #@! TO.P,R15,1*
G04 #@! TO.N,/U3CTRL0*
X139462000Y-121700000D03*
G04 #@! TD*
G04 #@! TO.P,R16,2*
G04 #@! TO.N,VCC*
X116574777Y-136475619D03*
G04 #@! TO.P,R16,1*
G04 #@! TO.N,/U1CTRL*
X118098777Y-136475619D03*
G04 #@! TD*
G04 #@! TO.P,R17,2*
G04 #@! TO.N,GND*
X150200000Y-148838000D03*
G04 #@! TO.P,R17,1*
G04 #@! TO.N,/A0*
X150200000Y-150362000D03*
G04 #@! TD*
G04 #@! TO.P,R18,2*
G04 #@! TO.N,GND*
X152700000Y-148838000D03*
G04 #@! TO.P,R18,1*
G04 #@! TO.N,/A1*
X152700000Y-150362000D03*
G04 #@! TD*
G04 #@! TO.P,R19,2*
G04 #@! TO.N,GND*
X155200000Y-148838000D03*
G04 #@! TO.P,R19,1*
G04 #@! TO.N,/A2*
X155200000Y-150362000D03*
G04 #@! TD*
G04 #@! TO.P,R20,2*
G04 #@! TO.N,GND*
X128100000Y-136562000D03*
G04 #@! TO.P,R20,1*
G04 #@! TO.N,/LED_EN2*
X128100000Y-135038000D03*
G04 #@! TD*
D21*
G04 #@! TO.P,U1,1*
G04 #@! TO.N,GND*
X121700000Y-169500000D03*
G04 #@! TO.P,U1,2*
X121700000Y-169000000D03*
G04 #@! TO.P,U1,3*
G04 #@! TO.N,/U1VC1*
X121700000Y-168500000D03*
D22*
G04 #@! TO.P,U1,4*
G04 #@! TO.N,Net-(C10-Pad2)*
X120500000Y-167300000D03*
G04 #@! TO.P,U1,5*
G04 #@! TO.N,GND*
X120000000Y-167300000D03*
G04 #@! TO.P,U1,6*
G04 #@! TO.N,Net-(C9-Pad1)*
X119500000Y-167300000D03*
D21*
G04 #@! TO.P,U1,7*
G04 #@! TO.N,/U1VC2*
X118300000Y-168500000D03*
G04 #@! TO.P,U1,8*
G04 #@! TO.N,GND*
X118300000Y-169000000D03*
G04 #@! TO.P,U1,9*
X118300000Y-169500000D03*
D22*
G04 #@! TO.P,U1,10*
G04 #@! TO.N,Net-(C11-Pad1)*
X119500000Y-170700000D03*
G04 #@! TO.P,U1,11*
G04 #@! TO.N,GND*
X120000000Y-170700000D03*
G04 #@! TO.P,U1,12*
G04 #@! TO.N,Net-(C12-Pad1)*
X120500000Y-170700000D03*
D23*
G04 #@! TO.P,U1,0*
G04 #@! TO.N,GND*
X120000000Y-169000000D03*
D24*
X120250000Y-169250000D03*
X119750000Y-169250000D03*
X119750000Y-168750000D03*
X120250000Y-168750000D03*
D25*
X120250000Y-169250000D03*
X119750000Y-169250000D03*
X120250000Y-168750000D03*
X119750000Y-168750000D03*
G04 #@! TD*
D26*
G04 #@! TO.P,U2,0*
G04 #@! TO.N,GND*
X83000000Y-130562500D03*
D27*
G04 #@! TO.P,U2,1*
G04 #@! TO.N,Net-(C6-Pad1)*
X82000000Y-129562500D03*
G04 #@! TO.P,U2,2*
G04 #@! TO.N,/U2V2*
X82000000Y-130062500D03*
G04 #@! TO.P,U2,3*
G04 #@! TO.N,Net-(U2-Pad3)*
X82000000Y-130562500D03*
G04 #@! TO.P,U2,4*
G04 #@! TO.N,/U2V1*
X82000000Y-131062500D03*
G04 #@! TO.P,U2,5*
G04 #@! TO.N,Net-(C1-Pad1)*
X82000000Y-131562500D03*
G04 #@! TO.P,U2,6*
G04 #@! TO.N,Net-(C5-Pad1)*
X84000000Y-131562500D03*
G04 #@! TO.P,U2,7*
G04 #@! TO.N,/U2V3*
X84000000Y-131062500D03*
G04 #@! TO.P,U2,8*
G04 #@! TO.N,Net-(C9-Pad2)*
X84000000Y-130562500D03*
G04 #@! TO.P,U2,9*
G04 #@! TO.N,/U2V4*
X84000000Y-130062500D03*
G04 #@! TO.P,U2,10*
G04 #@! TO.N,Net-(C2-Pad1)*
X84000000Y-129562500D03*
D24*
G04 #@! TO.P,U2,0*
G04 #@! TO.N,GND*
X83000000Y-130262500D03*
X83000000Y-129662500D03*
X83000000Y-130862500D03*
X83000000Y-131462500D03*
G04 #@! TD*
D26*
G04 #@! TO.P,U3,0*
G04 #@! TO.N,GND*
X157000000Y-130562500D03*
D27*
G04 #@! TO.P,U3,1*
G04 #@! TO.N,Net-(C3-Pad1)*
X158000000Y-131562500D03*
G04 #@! TO.P,U3,2*
G04 #@! TO.N,/U3V2*
X158000000Y-131062500D03*
G04 #@! TO.P,U3,3*
G04 #@! TO.N,Net-(U3-Pad3)*
X158000000Y-130562500D03*
G04 #@! TO.P,U3,4*
G04 #@! TO.N,/U3V1*
X158000000Y-130062500D03*
G04 #@! TO.P,U3,5*
G04 #@! TO.N,Net-(C8-Pad1)*
X158000000Y-129562500D03*
G04 #@! TO.P,U3,6*
G04 #@! TO.N,Net-(C4-Pad1)*
X156000000Y-129562500D03*
G04 #@! TO.P,U3,7*
G04 #@! TO.N,/U3V3*
X156000000Y-130062500D03*
G04 #@! TO.P,U3,8*
G04 #@! TO.N,Net-(C10-Pad1)*
X156000000Y-130562500D03*
G04 #@! TO.P,U3,9*
G04 #@! TO.N,/U3V4*
X156000000Y-131062500D03*
G04 #@! TO.P,U3,10*
G04 #@! TO.N,Net-(C7-Pad1)*
X156000000Y-131562500D03*
D24*
G04 #@! TO.P,U3,0*
G04 #@! TO.N,GND*
X157000000Y-130862500D03*
X157000000Y-131462500D03*
X157000000Y-130262500D03*
X157000000Y-129662500D03*
G04 #@! TD*
D28*
G04 #@! TO.P,U4,1*
G04 #@! TO.N,/SCL*
X133725000Y-136925000D03*
G04 #@! TO.P,U4,2*
G04 #@! TO.N,/SDA*
X134375000Y-136925000D03*
G04 #@! TO.P,U4,3*
G04 #@! TO.N,/A0*
X135025000Y-136925000D03*
G04 #@! TO.P,U4,4*
G04 #@! TO.N,/A1*
X135675000Y-136925000D03*
G04 #@! TO.P,U4,5*
G04 #@! TO.N,/A2*
X136325000Y-136925000D03*
G04 #@! TO.P,U4,6*
G04 #@! TO.N,/!LED_EN*
X136975000Y-136925000D03*
G04 #@! TO.P,U4,7*
G04 #@! TO.N,/LED_EN2*
X137625000Y-136925000D03*
G04 #@! TO.P,U4,8*
G04 #@! TO.N,GND*
X138275000Y-136925000D03*
G04 #@! TO.P,U4,9*
G04 #@! TO.N,/U1CTRL*
X138275000Y-131075000D03*
G04 #@! TO.P,U4,10*
G04 #@! TO.N,/U3CTRL0*
X137625000Y-131075000D03*
G04 #@! TO.P,U4,11*
G04 #@! TO.N,/U3CTRL1*
X136975000Y-131075000D03*
G04 #@! TO.P,U4,12*
G04 #@! TO.N,/U2CTRL0*
X136325000Y-131075000D03*
G04 #@! TO.P,U4,13*
G04 #@! TO.N,/U2CTRL1*
X135675000Y-131075000D03*
G04 #@! TO.P,U4,14*
G04 #@! TO.N,/!OE*
X135025000Y-131075000D03*
G04 #@! TO.P,U4,15*
G04 #@! TO.N,/!RESET*
X134375000Y-131075000D03*
G04 #@! TO.P,U4,16*
G04 #@! TO.N,VCC*
X133725000Y-131075000D03*
G04 #@! TD*
D29*
G04 #@! TO.P,U5,1*
G04 #@! TO.N,Net-(U5-Pad1)*
X147925000Y-124925000D03*
G04 #@! TO.P,U5,2*
G04 #@! TO.N,/EXT_U2CTRL1*
X147925000Y-124275000D03*
G04 #@! TO.P,U5,3*
G04 #@! TO.N,/EXT_U2CTRL0*
X147925000Y-123625000D03*
G04 #@! TO.P,U5,4*
G04 #@! TO.N,/EXT_U3CTRL1*
X147925000Y-122975000D03*
G04 #@! TO.P,U5,5*
G04 #@! TO.N,/EXT_U3CTRL0*
X147925000Y-122325000D03*
G04 #@! TO.P,U5,6*
G04 #@! TO.N,/EXT_U1CTRL*
X147925000Y-121675000D03*
G04 #@! TO.P,U5,7*
G04 #@! TO.N,Net-(U5-Pad7)*
X147925000Y-121025000D03*
G04 #@! TO.P,U5,8*
G04 #@! TO.N,Net-(U5-Pad8)*
X147925000Y-120375000D03*
G04 #@! TO.P,U5,9*
G04 #@! TO.N,Net-(U5-Pad9)*
X147925000Y-119725000D03*
G04 #@! TO.P,U5,10*
G04 #@! TO.N,GND*
X147925000Y-119075000D03*
G04 #@! TO.P,U5,11*
G04 #@! TO.N,Net-(U5-Pad11)*
X142075000Y-119075000D03*
G04 #@! TO.P,U5,12*
G04 #@! TO.N,Net-(U5-Pad12)*
X142075000Y-119725000D03*
G04 #@! TO.P,U5,13*
G04 #@! TO.N,Net-(U5-Pad13)*
X142075000Y-120375000D03*
G04 #@! TO.P,U5,14*
G04 #@! TO.N,/U1CTRL*
X142075000Y-121025000D03*
G04 #@! TO.P,U5,15*
G04 #@! TO.N,/U3CTRL0*
X142075000Y-121675000D03*
G04 #@! TO.P,U5,16*
G04 #@! TO.N,/U3CTRL1*
X142075000Y-122325000D03*
G04 #@! TO.P,U5,17*
G04 #@! TO.N,/U2CTRL0*
X142075000Y-122975000D03*
G04 #@! TO.P,U5,18*
G04 #@! TO.N,/U2CTRL1*
X142075000Y-123625000D03*
G04 #@! TO.P,U5,19*
G04 #@! TO.N,/!OE*
X142075000Y-124275000D03*
G04 #@! TO.P,U5,20*
G04 #@! TO.N,VCC*
X142075000Y-124925000D03*
G04 #@! TD*
D30*
G04 #@! TO.P,U6,1*
G04 #@! TO.N,/LED_EN2*
X118336777Y-129625619D03*
G04 #@! TO.P,U6,2*
G04 #@! TO.N,GND*
X118336777Y-128975619D03*
G04 #@! TO.P,U6,3*
G04 #@! TO.N,VCC*
X118336777Y-128325619D03*
G04 #@! TO.P,U6,4*
G04 #@! TO.N,Net-(R1-Pad2)*
X116336777Y-128325619D03*
G04 #@! TO.P,U6,5*
G04 #@! TO.N,VCC*
X116336777Y-128975619D03*
G04 #@! TO.P,U6,6*
G04 #@! TO.N,/U1VC2*
X116336777Y-129625619D03*
G04 #@! TD*
G04 #@! TO.P,U7,1*
G04 #@! TO.N,/LED_EN2*
X118336777Y-124625619D03*
G04 #@! TO.P,U7,2*
G04 #@! TO.N,GND*
X118336777Y-123975619D03*
G04 #@! TO.P,U7,3*
G04 #@! TO.N,VCC*
X118336777Y-123325619D03*
G04 #@! TO.P,U7,4*
G04 #@! TO.N,Net-(R2-Pad2)*
X116336777Y-123325619D03*
G04 #@! TO.P,U7,5*
G04 #@! TO.N,VCC*
X116336777Y-123975619D03*
G04 #@! TO.P,U7,6*
G04 #@! TO.N,/U1VC1*
X116336777Y-124625619D03*
G04 #@! TD*
D31*
G04 #@! TO.P,U8,1*
G04 #@! TO.N,/U2CTRL1*
X128700600Y-110209600D03*
G04 #@! TO.P,U8,2*
G04 #@! TO.N,/U2CTRL0*
X128700600Y-109559600D03*
G04 #@! TO.P,U8,3*
G04 #@! TO.N,GND*
X128700600Y-108909600D03*
G04 #@! TO.P,U8,4*
G04 #@! TO.N,/U2V4*
X126800600Y-108909600D03*
G04 #@! TO.P,U8,5*
G04 #@! TO.N,VCC*
X126800600Y-110209600D03*
G04 #@! TD*
G04 #@! TO.P,U9,1*
G04 #@! TO.N,/U3CTRL1*
X133579800Y-108827800D03*
G04 #@! TO.P,U9,2*
G04 #@! TO.N,/U3CTRL0*
X133579800Y-109477800D03*
G04 #@! TO.P,U9,3*
G04 #@! TO.N,GND*
X133579800Y-110127800D03*
G04 #@! TO.P,U9,4*
G04 #@! TO.N,/U3V3*
X135479800Y-110127800D03*
G04 #@! TO.P,U9,5*
G04 #@! TO.N,VCC*
X135479800Y-108827800D03*
G04 #@! TD*
D32*
G04 #@! TO.P,U10,1*
G04 #@! TO.N,/U2CTRL0*
X128605040Y-112324640D03*
G04 #@! TO.P,U10,2*
G04 #@! TO.N,GND*
X127955040Y-112324640D03*
G04 #@! TO.P,U10,3*
X127305040Y-112324640D03*
G04 #@! TO.P,U10,4*
G04 #@! TO.N,/U2V2*
X127305040Y-114324640D03*
G04 #@! TO.P,U10,5*
G04 #@! TO.N,VCC*
X127955040Y-114324640D03*
G04 #@! TO.P,U10,6*
G04 #@! TO.N,/U2CTRL1*
X128605040Y-114324640D03*
G04 #@! TD*
G04 #@! TO.P,U11,1*
G04 #@! TO.N,/U3CTRL0*
X132709680Y-112385600D03*
G04 #@! TO.P,U11,2*
G04 #@! TO.N,GND*
X132059680Y-112385600D03*
G04 #@! TO.P,U11,3*
X131409680Y-112385600D03*
G04 #@! TO.P,U11,4*
G04 #@! TO.N,/U3V1*
X131409680Y-114385600D03*
G04 #@! TO.P,U11,5*
G04 #@! TO.N,VCC*
X132059680Y-114385600D03*
G04 #@! TO.P,U11,6*
G04 #@! TO.N,/U3CTRL1*
X132709680Y-114385600D03*
G04 #@! TD*
G04 #@! TO.P,U12,1*
G04 #@! TO.N,/U2CTRL1*
X128483120Y-118603520D03*
G04 #@! TO.P,U12,2*
G04 #@! TO.N,GND*
X127833120Y-118603520D03*
G04 #@! TO.P,U12,3*
X127183120Y-118603520D03*
G04 #@! TO.P,U12,4*
G04 #@! TO.N,/U2V1*
X127183120Y-120603520D03*
G04 #@! TO.P,U12,5*
G04 #@! TO.N,VCC*
X127833120Y-120603520D03*
G04 #@! TO.P,U12,6*
G04 #@! TO.N,/U2CTRL0*
X128483120Y-120603520D03*
G04 #@! TD*
G04 #@! TO.P,U13,1*
G04 #@! TO.N,/U3CTRL1*
X132704600Y-118618760D03*
G04 #@! TO.P,U13,2*
G04 #@! TO.N,GND*
X132054600Y-118618760D03*
G04 #@! TO.P,U13,3*
X131404600Y-118618760D03*
G04 #@! TO.P,U13,4*
G04 #@! TO.N,/U3V2*
X131404600Y-120618760D03*
G04 #@! TO.P,U13,5*
G04 #@! TO.N,VCC*
X132054600Y-120618760D03*
G04 #@! TO.P,U13,6*
G04 #@! TO.N,/U3CTRL0*
X132704600Y-120618760D03*
G04 #@! TD*
D33*
G04 #@! TO.P,U14,1*
G04 #@! TO.N,/U2CTRL1*
X128650000Y-126050000D03*
G04 #@! TO.P,U14,2*
G04 #@! TO.N,/U2CTRL0*
X128000000Y-126050000D03*
G04 #@! TO.P,U14,3*
G04 #@! TO.N,GND*
X127350000Y-126050000D03*
G04 #@! TO.P,U14,4*
G04 #@! TO.N,/U2V3*
X127350000Y-127950000D03*
G04 #@! TO.P,U14,5*
G04 #@! TO.N,VCC*
X128650000Y-127950000D03*
G04 #@! TD*
G04 #@! TO.P,U15,1*
G04 #@! TO.N,/U3CTRL1*
X132650000Y-126050000D03*
G04 #@! TO.P,U15,2*
G04 #@! TO.N,/U3CTRL0*
X132000000Y-126050000D03*
G04 #@! TO.P,U15,3*
G04 #@! TO.N,GND*
X131350000Y-126050000D03*
G04 #@! TO.P,U15,4*
G04 #@! TO.N,/U3V4*
X131350000Y-127950000D03*
G04 #@! TO.P,U15,5*
G04 #@! TO.N,VCC*
X132650000Y-127950000D03*
G04 #@! TD*
D30*
G04 #@! TO.P,U16,1*
G04 #@! TO.N,/U1CTRL*
X118336777Y-134625619D03*
G04 #@! TO.P,U16,2*
G04 #@! TO.N,GND*
X118336777Y-133975619D03*
G04 #@! TO.P,U16,3*
X118336777Y-133325619D03*
G04 #@! TO.P,U16,4*
G04 #@! TO.N,/U1VC1*
X116336777Y-133325619D03*
G04 #@! TO.P,U16,5*
G04 #@! TO.N,VCC*
X116336777Y-133975619D03*
G04 #@! TO.P,U16,6*
G04 #@! TO.N,/U1VC2*
X116336777Y-134625619D03*
G04 #@! TD*
D17*
G04 #@! TO.P,J1,1*
G04 #@! TO.N,GND*
X72192000Y-115310000D03*
D18*
G04 #@! TO.P,J1,2*
G04 #@! TO.N,VCC*
X72192000Y-117850000D03*
G04 #@! TO.P,J1,3*
G04 #@! TO.N,Net-(J1-Pad3)*
X74732000Y-115310000D03*
G04 #@! TO.P,J1,4*
G04 #@! TO.N,Net-(J1-Pad4)*
X74732000Y-117850000D03*
G04 #@! TO.P,J1,5*
G04 #@! TO.N,Net-(J1-Pad5)*
X77272000Y-115310000D03*
G04 #@! TO.P,J1,6*
G04 #@! TO.N,Net-(J1-Pad6)*
X77272000Y-117850000D03*
G04 #@! TO.P,J1,7*
G04 #@! TO.N,Net-(J1-Pad7)*
X79812000Y-115310000D03*
G04 #@! TO.P,J1,8*
G04 #@! TO.N,Net-(J1-Pad8)*
X79812000Y-117850000D03*
G04 #@! TO.P,J1,9*
G04 #@! TO.N,Net-(J1-Pad9)*
X82352000Y-115310000D03*
G04 #@! TO.P,J1,10*
G04 #@! TO.N,Net-(J1-Pad10)*
X82352000Y-117850000D03*
G04 #@! TO.P,J1,11*
G04 #@! TO.N,Net-(J1-Pad11)*
X84892000Y-115310000D03*
G04 #@! TO.P,J1,12*
G04 #@! TO.N,Net-(J1-Pad12)*
X84892000Y-117850000D03*
G04 #@! TO.P,J1,13*
G04 #@! TO.N,Net-(J1-Pad13)*
X87432000Y-115310000D03*
G04 #@! TO.P,J1,14*
G04 #@! TO.N,Net-(J1-Pad14)*
X87432000Y-117850000D03*
G04 #@! TO.P,J1,15*
G04 #@! TO.N,Net-(J1-Pad15)*
X89972000Y-115310000D03*
G04 #@! TO.P,J1,16*
G04 #@! TO.N,Net-(J1-Pad16)*
X89972000Y-117850000D03*
G04 #@! TO.P,J1,17*
G04 #@! TO.N,Net-(J1-Pad17)*
X92512000Y-115310000D03*
G04 #@! TO.P,J1,18*
G04 #@! TO.N,Net-(J1-Pad18)*
X92512000Y-117850000D03*
G04 #@! TO.P,J1,19*
G04 #@! TO.N,Net-(J1-Pad19)*
X95052000Y-115310000D03*
G04 #@! TO.P,J1,20*
G04 #@! TO.N,Net-(J1-Pad20)*
X95052000Y-117850000D03*
G04 #@! TO.P,J1,21*
G04 #@! TO.N,Net-(J1-Pad21)*
X97592000Y-115310000D03*
G04 #@! TO.P,J1,22*
G04 #@! TO.N,Net-(J1-Pad22)*
X97592000Y-117850000D03*
G04 #@! TO.P,J1,23*
G04 #@! TO.N,Net-(J1-Pad23)*
X100132000Y-115310000D03*
G04 #@! TO.P,J1,24*
G04 #@! TO.N,Net-(J1-Pad24)*
X100132000Y-117850000D03*
G04 #@! TO.P,J1,25*
G04 #@! TO.N,Net-(J1-Pad25)*
X102672000Y-115310000D03*
G04 #@! TO.P,J1,26*
G04 #@! TO.N,Net-(J1-Pad26)*
X102672000Y-117850000D03*
G04 #@! TO.P,J1,27*
G04 #@! TO.N,Net-(J1-Pad27)*
X105212000Y-115310000D03*
G04 #@! TO.P,J1,28*
G04 #@! TO.N,Net-(J1-Pad28)*
X105212000Y-117850000D03*
G04 #@! TO.P,J1,29*
G04 #@! TO.N,Net-(J1-Pad29)*
X107752000Y-115310000D03*
G04 #@! TO.P,J1,30*
G04 #@! TO.N,Net-(J1-Pad30)*
X107752000Y-117850000D03*
G04 #@! TO.P,J1,31*
G04 #@! TO.N,Net-(J1-Pad31)*
X110292000Y-115310000D03*
G04 #@! TO.P,J1,32*
G04 #@! TO.N,Net-(J1-Pad32)*
X110292000Y-117850000D03*
G04 #@! TO.P,J1,33*
G04 #@! TO.N,Net-(J1-Pad33)*
X112832000Y-115310000D03*
G04 #@! TO.P,J1,34*
G04 #@! TO.N,Net-(J1-Pad34)*
X112832000Y-117850000D03*
G04 #@! TO.P,J1,35*
G04 #@! TO.N,Net-(J1-Pad35)*
X115372000Y-115310000D03*
G04 #@! TO.P,J1,36*
G04 #@! TO.N,Net-(J1-Pad36)*
X115372000Y-117850000D03*
G04 #@! TO.P,J1,37*
G04 #@! TO.N,Net-(J1-Pad37)*
X117912000Y-115310000D03*
G04 #@! TO.P,J1,38*
G04 #@! TO.N,Net-(J1-Pad38)*
X117912000Y-117850000D03*
G04 #@! TO.P,J1,39*
G04 #@! TO.N,Net-(J1-Pad39)*
X120452000Y-115310000D03*
G04 #@! TO.P,J1,40*
G04 #@! TO.N,Net-(J1-Pad40)*
X120452000Y-117850000D03*
G04 #@! TD*
D17*
G04 #@! TO.P,J2,1*
G04 #@! TO.N,GND*
X72192000Y-161030000D03*
D18*
G04 #@! TO.P,J2,2*
G04 #@! TO.N,Net-(J2-Pad2)*
X72192000Y-163570000D03*
G04 #@! TO.P,J2,3*
G04 #@! TO.N,Net-(J2-Pad3)*
X74732000Y-161030000D03*
G04 #@! TO.P,J2,4*
G04 #@! TO.N,Net-(J2-Pad4)*
X74732000Y-163570000D03*
G04 #@! TO.P,J2,5*
G04 #@! TO.N,Net-(J2-Pad5)*
X77272000Y-161030000D03*
G04 #@! TO.P,J2,6*
G04 #@! TO.N,/EXT_U1CTRL*
X77272000Y-163570000D03*
G04 #@! TO.P,J2,7*
G04 #@! TO.N,/EXT_U3CTRL0*
X79812000Y-161030000D03*
G04 #@! TO.P,J2,8*
G04 #@! TO.N,/EXT_U3CTRL1*
X79812000Y-163570000D03*
G04 #@! TO.P,J2,9*
G04 #@! TO.N,/EXT_U2CTRL0*
X82352000Y-161030000D03*
G04 #@! TO.P,J2,10*
G04 #@! TO.N,/EXT_U2CTRL1*
X82352000Y-163570000D03*
G04 #@! TO.P,J2,11*
G04 #@! TO.N,Net-(J2-Pad11)*
X84892000Y-161030000D03*
G04 #@! TO.P,J2,12*
G04 #@! TO.N,Net-(J2-Pad12)*
X84892000Y-163570000D03*
G04 #@! TO.P,J2,13*
G04 #@! TO.N,Net-(J2-Pad13)*
X87432000Y-161030000D03*
G04 #@! TO.P,J2,14*
G04 #@! TO.N,Net-(J2-Pad14)*
X87432000Y-163570000D03*
G04 #@! TO.P,J2,15*
G04 #@! TO.N,Net-(J2-Pad15)*
X89972000Y-161030000D03*
G04 #@! TO.P,J2,16*
G04 #@! TO.N,Net-(J2-Pad16)*
X89972000Y-163570000D03*
G04 #@! TO.P,J2,17*
G04 #@! TO.N,Net-(J2-Pad17)*
X92512000Y-161030000D03*
G04 #@! TO.P,J2,18*
G04 #@! TO.N,Net-(J2-Pad18)*
X92512000Y-163570000D03*
G04 #@! TO.P,J2,19*
G04 #@! TO.N,Net-(J2-Pad19)*
X95052000Y-161030000D03*
G04 #@! TO.P,J2,20*
G04 #@! TO.N,Net-(J2-Pad20)*
X95052000Y-163570000D03*
G04 #@! TO.P,J2,21*
G04 #@! TO.N,Net-(J2-Pad21)*
X97592000Y-161030000D03*
G04 #@! TO.P,J2,22*
G04 #@! TO.N,Net-(J2-Pad22)*
X97592000Y-163570000D03*
G04 #@! TO.P,J2,23*
G04 #@! TO.N,Net-(J2-Pad23)*
X100132000Y-161030000D03*
G04 #@! TO.P,J2,24*
G04 #@! TO.N,Net-(J2-Pad24)*
X100132000Y-163570000D03*
G04 #@! TO.P,J2,25*
G04 #@! TO.N,Net-(J2-Pad25)*
X102672000Y-161030000D03*
G04 #@! TO.P,J2,26*
G04 #@! TO.N,Net-(J2-Pad26)*
X102672000Y-163570000D03*
G04 #@! TO.P,J2,27*
G04 #@! TO.N,Net-(J2-Pad27)*
X105212000Y-161030000D03*
G04 #@! TO.P,J2,28*
G04 #@! TO.N,Net-(J2-Pad28)*
X105212000Y-163570000D03*
G04 #@! TO.P,J2,29*
G04 #@! TO.N,Net-(J2-Pad29)*
X107752000Y-161030000D03*
G04 #@! TO.P,J2,30*
G04 #@! TO.N,Net-(J2-Pad30)*
X107752000Y-163570000D03*
G04 #@! TO.P,J2,31*
G04 #@! TO.N,Net-(J2-Pad31)*
X110292000Y-161030000D03*
G04 #@! TO.P,J2,32*
G04 #@! TO.N,Net-(J2-Pad32)*
X110292000Y-163570000D03*
G04 #@! TO.P,J2,33*
G04 #@! TO.N,Net-(J2-Pad33)*
X112832000Y-161030000D03*
G04 #@! TO.P,J2,34*
G04 #@! TO.N,Net-(J2-Pad34)*
X112832000Y-163570000D03*
G04 #@! TO.P,J2,35*
G04 #@! TO.N,Net-(J2-Pad35)*
X115372000Y-161030000D03*
G04 #@! TO.P,J2,36*
G04 #@! TO.N,Net-(J2-Pad36)*
X115372000Y-163570000D03*
G04 #@! TO.P,J2,37*
G04 #@! TO.N,Net-(J2-Pad37)*
X117912000Y-161030000D03*
G04 #@! TO.P,J2,38*
G04 #@! TO.N,Net-(J2-Pad38)*
X117912000Y-163570000D03*
G04 #@! TO.P,J2,39*
G04 #@! TO.N,/SDA*
X120452000Y-161030000D03*
G04 #@! TO.P,J2,40*
G04 #@! TO.N,/SCL*
X120452000Y-163570000D03*
G04 #@! TD*
D14*
G04 #@! TO.P,C13,2*
G04 #@! TO.N,GND*
X85344000Y-133121400D03*
G04 #@! TO.P,C13,1*
G04 #@! TO.N,/U2V3*
X85344000Y-132054600D03*
G04 #@! TD*
G04 #@! TO.P,C14,2*
G04 #@! TO.N,GND*
X80111600Y-132257800D03*
G04 #@! TO.P,C14,1*
G04 #@! TO.N,/U2V1*
X80111600Y-131191000D03*
G04 #@! TD*
G04 #@! TO.P,C15,2*
G04 #@! TO.N,/U2V2*
X80086200Y-129997200D03*
G04 #@! TO.P,C15,1*
G04 #@! TO.N,GND*
X80086200Y-128930400D03*
G04 #@! TD*
D13*
G04 #@! TO.P,C16,2*
G04 #@! TO.N,/U2V4*
X85064600Y-128955800D03*
G04 #@! TO.P,C16,1*
G04 #@! TO.N,GND*
X86131400Y-128955800D03*
G04 #@! TD*
D14*
G04 #@! TO.P,C17,2*
G04 #@! TO.N,/U1VC2*
X116408200Y-168275000D03*
G04 #@! TO.P,C17,1*
G04 #@! TO.N,GND*
X116408200Y-167208200D03*
G04 #@! TD*
G04 #@! TO.P,C18,2*
G04 #@! TO.N,/U1VC1*
X123596400Y-168224200D03*
G04 #@! TO.P,C18,1*
G04 #@! TO.N,GND*
X123596400Y-167157400D03*
G04 #@! TD*
G04 #@! TO.P,C19,2*
G04 #@! TO.N,GND*
X154137360Y-128778000D03*
G04 #@! TO.P,C19,1*
G04 #@! TO.N,/U3V3*
X154137360Y-129844800D03*
G04 #@! TD*
G04 #@! TO.P,C20,2*
G04 #@! TO.N,GND*
X159613600Y-128930400D03*
G04 #@! TO.P,C20,1*
G04 #@! TO.N,/U3V1*
X159613600Y-129997200D03*
G04 #@! TD*
G04 #@! TO.P,C21,2*
G04 #@! TO.N,/U3V2*
X159613600Y-131191000D03*
G04 #@! TO.P,C21,1*
G04 #@! TO.N,GND*
X159613600Y-132257800D03*
G04 #@! TD*
G04 #@! TO.P,C22,2*
G04 #@! TO.N,/U3V4*
X154152600Y-131262120D03*
G04 #@! TO.P,C22,1*
G04 #@! TO.N,GND*
X154152600Y-132328920D03*
G04 #@! TD*
G04 #@! TO.P,C23,2*
G04 #@! TO.N,VCC*
X113873280Y-128793240D03*
G04 #@! TO.P,C23,1*
G04 #@! TO.N,GND*
X113873280Y-129860040D03*
G04 #@! TD*
G04 #@! TO.P,C24,2*
G04 #@! TO.N,VCC*
X124411740Y-110208060D03*
G04 #@! TO.P,C24,1*
G04 #@! TO.N,GND*
X124411740Y-111274860D03*
G04 #@! TD*
D13*
G04 #@! TO.P,C25,2*
G04 #@! TO.N,VCC*
X127889000Y-116852700D03*
G04 #@! TO.P,C25,1*
G04 #@! TO.N,GND*
X126822200Y-116852700D03*
G04 #@! TD*
G04 #@! TO.P,C26,2*
G04 #@! TO.N,VCC*
X127833120Y-123184920D03*
G04 #@! TO.P,C26,1*
G04 #@! TO.N,GND*
X126766320Y-123184920D03*
G04 #@! TD*
G04 #@! TO.P,C27,2*
G04 #@! TO.N,VCC*
X128701800Y-130302000D03*
G04 #@! TO.P,C27,1*
G04 #@! TO.N,GND*
X127635000Y-130302000D03*
G04 #@! TD*
D14*
G04 #@! TO.P,C28,2*
G04 #@! TO.N,VCC*
X113957100Y-124259340D03*
G04 #@! TO.P,C28,1*
G04 #@! TO.N,GND*
X113957100Y-123192540D03*
G04 #@! TD*
G04 #@! TO.P,C29,2*
G04 #@! TO.N,VCC*
X137807700Y-108821220D03*
G04 #@! TO.P,C29,1*
G04 #@! TO.N,GND*
X137807700Y-107754420D03*
G04 #@! TD*
D13*
G04 #@! TO.P,C30,2*
G04 #@! TO.N,VCC*
X132298440Y-117302280D03*
G04 #@! TO.P,C30,1*
G04 #@! TO.N,GND*
X131231640Y-117302280D03*
G04 #@! TD*
G04 #@! TO.P,C31,2*
G04 #@! TO.N,VCC*
X131993640Y-123144280D03*
G04 #@! TO.P,C31,1*
G04 #@! TO.N,GND*
X133060440Y-123144280D03*
G04 #@! TD*
G04 #@! TO.P,C32,2*
G04 #@! TO.N,VCC*
X132557520Y-129981960D03*
G04 #@! TO.P,C32,1*
G04 #@! TO.N,GND*
X131490720Y-129981960D03*
G04 #@! TD*
D14*
G04 #@! TO.P,C33,2*
G04 #@! TO.N,VCC*
X113672620Y-134157720D03*
G04 #@! TO.P,C33,1*
G04 #@! TO.N,GND*
X113672620Y-135224520D03*
G04 #@! TD*
D13*
G04 #@! TO.P,C34,2*
G04 #@! TO.N,VCC*
X132572760Y-131389120D03*
G04 #@! TO.P,C34,1*
G04 #@! TO.N,GND*
X131505960Y-131389120D03*
G04 #@! TD*
G04 #@! TO.P,C35,2*
G04 #@! TO.N,VCC*
X141000480Y-126499620D03*
G04 #@! TO.P,C35,1*
G04 #@! TO.N,GND*
X142067280Y-126499620D03*
G04 #@! TD*
D34*
G04 #@! TO.N,GND*
X130652520Y-129113280D03*
X159623760Y-133380480D03*
X155006040Y-127863600D03*
X154183080Y-133426200D03*
X122428000Y-167050720D03*
X117546120Y-166938960D03*
X112768380Y-136154160D03*
X113878360Y-130962400D03*
X115046760Y-122392440D03*
X127342900Y-129204720D03*
X125674120Y-122915680D03*
X133741160Y-122128280D03*
X130286760Y-116593620D03*
X130276600Y-119171720D03*
X125547120Y-111579660D03*
X137822940Y-106649520D03*
X125925580Y-115968780D03*
X126100840Y-119141240D03*
X160680400Y-129082800D03*
X142234920Y-127662940D03*
X130540760Y-111693960D03*
X127086360Y-111328200D03*
X132918200Y-110769400D03*
X128549400Y-108026200D03*
X86817200Y-128041400D03*
X79603600Y-127914400D03*
X79298800Y-133070600D03*
X85293200Y-134188200D03*
X123002359Y-169523597D03*
X120000000Y-166000000D03*
X120000000Y-172000000D03*
X117000000Y-169528703D03*
X149200000Y-119100000D03*
D35*
X128100000Y-137700000D03*
D34*
X119536777Y-123975619D03*
X127300000Y-125100000D03*
X119536777Y-128975619D03*
X119536777Y-133275619D03*
X131300000Y-125100000D03*
X139200000Y-136900000D03*
D36*
X149000000Y-148800000D03*
D34*
X69100000Y-109900000D03*
X69100000Y-122300000D03*
X69100000Y-134600000D03*
X69100000Y-147000000D03*
X69100000Y-159400000D03*
X170900000Y-159400000D03*
X165900000Y-147400000D03*
X165900000Y-134700000D03*
X170900000Y-122300000D03*
X170900000Y-109900000D03*
X131046220Y-132532120D03*
G04 #@! TO.N,VCC*
X114929920Y-134223760D03*
X114993420Y-128945640D03*
X115023900Y-124228860D03*
X128671320Y-129128520D03*
X127833120Y-122011440D03*
X132227320Y-121970800D03*
X132184140Y-116166900D03*
X125592840Y-110215680D03*
X136634220Y-108821220D03*
X127947420Y-115648740D03*
X132648960Y-128976120D03*
X132702300Y-132623560D03*
X141000480Y-127502920D03*
D36*
X61500000Y-168000000D03*
X178500000Y-168000000D03*
D35*
X116600000Y-137600000D03*
D36*
X136700000Y-121700000D03*
X124300000Y-125200000D03*
X131570000Y-105623600D03*
X135570000Y-105623600D03*
D34*
X118336777Y-122375619D03*
X118336777Y-127375619D03*
D36*
X129500000Y-139500000D03*
X132000000Y-166100000D03*
X142700000Y-168600000D03*
D35*
G04 #@! TO.N,Net-(DA0-Pad1)*
X108458000Y-154686000D03*
D36*
X65150000Y-167100000D03*
G04 #@! TO.N,/U2V3*
X86100004Y-139200000D03*
D35*
X61550000Y-155300000D03*
D36*
X124200000Y-128000000D03*
G04 #@! TO.N,Net-(DAG1-Pad1)*
X66100000Y-141900000D03*
X109200000Y-136800000D03*
X66850000Y-117100000D03*
X112836777Y-132552290D03*
X66850000Y-129500000D03*
X106800000Y-138200000D03*
X66100000Y-154200000D03*
G04 #@! TO.N,/U2V1*
X125902720Y-121033540D03*
X76200000Y-134599996D03*
D35*
X61550000Y-142900000D03*
D36*
G04 #@! TO.N,/U2V2*
X126227840Y-114259360D03*
X123520200Y-121513600D03*
X123520200Y-118084600D03*
X79100000Y-130000000D03*
D35*
X61550000Y-130550000D03*
G04 #@! TO.N,/U2V4*
X61550000Y-118150000D03*
D36*
X85000000Y-126599986D03*
G04 #@! TO.N,Net-(DAY1-Pad1)*
X66850000Y-132000000D03*
X108158000Y-134842000D03*
X66850000Y-119300000D03*
X109200000Y-131893440D03*
X106000000Y-137000000D03*
X66100000Y-144000000D03*
X106000000Y-140000000D03*
X66100000Y-156400000D03*
G04 #@! TO.N,Net-(DB0-Pad1)*
X136500000Y-142500000D03*
X174850000Y-167100000D03*
D35*
G04 #@! TO.N,/U3V3*
X178450000Y-118200000D03*
D36*
X156100000Y-118200000D03*
G04 #@! TO.N,Net-(DBG1-Pad1)*
X168000000Y-154000000D03*
X171700000Y-139500000D03*
X173700000Y-128600000D03*
X112300000Y-122700000D03*
X173900000Y-117000000D03*
G04 #@! TO.N,/U3V1*
X151600000Y-115400000D03*
X136200000Y-115400000D03*
X130425400Y-115382200D03*
D35*
X178450000Y-130500000D03*
D36*
X166800000Y-129600000D03*
G04 #@! TO.N,/U3V2*
X151900000Y-120200000D03*
X141000000Y-118000000D03*
X130547710Y-123100000D03*
D35*
X161096960Y-131084320D03*
X178450000Y-142900000D03*
G04 #@! TO.N,/U3V4*
X152127904Y-137872076D03*
D36*
X130000000Y-128000000D03*
D35*
X178450000Y-155300000D03*
D36*
G04 #@! TO.N,Net-(DBY1-Pad1)*
X134500000Y-116800000D03*
X114198400Y-125603000D03*
X169875002Y-139425000D03*
X146300000Y-116700000D03*
X168000000Y-157000000D03*
X149596497Y-116800000D03*
X151157496Y-116800000D03*
X168000000Y-131800000D03*
X153700000Y-116800000D03*
X173900000Y-119300000D03*
G04 #@! TO.N,/EXT_U3CTRL1*
X143704580Y-131348520D03*
D35*
X150200000Y-126600000D03*
D36*
G04 #@! TO.N,/EXT_U2CTRL1*
X145000000Y-133000000D03*
D35*
X149000000Y-128000000D03*
D36*
G04 #@! TO.N,/EXT_U3CTRL0*
X143056870Y-130526887D03*
D35*
X150800000Y-125900000D03*
G04 #@! TO.N,/EXT_U2CTRL0*
X149600000Y-127300000D03*
D36*
X144352290Y-132184023D03*
G04 #@! TO.N,/EXT_U1CTRL*
X143600000Y-124700000D03*
D35*
X151400000Y-125200000D03*
D36*
G04 #@! TO.N,/SDA*
X125700000Y-159700000D03*
X134400000Y-138500000D03*
G04 #@! TO.N,/SCL*
X133300000Y-138400000D03*
G04 #@! TO.N,/A0*
X135500000Y-138100000D03*
G04 #@! TO.N,/A1*
X135700000Y-135700000D03*
G04 #@! TO.N,/A2*
X136300000Y-138600000D03*
G04 #@! TO.N,Net-(R1-Pad2)*
X113000000Y-127800000D03*
X115100000Y-127800000D03*
G04 #@! TO.N,/!LED_EN*
X137800000Y-139247710D03*
G04 #@! TO.N,/!RESET*
X134375000Y-132559674D03*
G04 #@! TO.N,/!OE*
X139491720Y-129783840D03*
X134600000Y-129800000D03*
G04 #@! TO.N,/U2CTRL1*
X133700000Y-127600000D03*
X140600000Y-124100000D03*
G04 #@! TO.N,/U2CTRL0*
X126034800Y-129936240D03*
X128031240Y-127254000D03*
X127814001Y-131942523D03*
G04 #@! TO.N,/U3CTRL1*
X134010400Y-111810800D03*
X130743960Y-109773720D03*
X133970000Y-105623600D03*
G04 #@! TO.N,/U3CTRL0*
X133715760Y-121013220D03*
X139500000Y-120500000D03*
X134400000Y-124900000D03*
X130360309Y-121933122D03*
D35*
G04 #@! TO.N,/U1CTRL*
X119400000Y-135400000D03*
D36*
X143600000Y-121000000D03*
X137700000Y-126600000D03*
G04 #@! TO.N,/U1VC1*
X124404120Y-167830500D03*
D35*
X110871000Y-150749000D03*
D36*
X116128800Y-126517400D03*
X115392200Y-131470400D03*
G04 #@! TO.N,/U1VC2*
X112974120Y-152643840D03*
D35*
X115427760Y-168325800D03*
G04 #@! TD*
D37*
G04 #@! TO.N,GND*
X142067280Y-126499620D02*
X142067280Y-127495300D01*
D38*
X131490720Y-129981960D02*
X131490720Y-129951480D01*
X131490720Y-129951480D02*
X130652520Y-129113280D01*
X159613600Y-132257800D02*
X159613600Y-133370320D01*
X154137360Y-128778000D02*
X154137360Y-128732280D01*
X154137360Y-128732280D02*
X155006040Y-127863600D01*
X154152600Y-132328920D02*
X154152600Y-133395720D01*
X123596400Y-167157400D02*
X123489720Y-167050720D01*
X123489720Y-167050720D02*
X122428000Y-167050720D01*
X116408200Y-167208200D02*
X116677440Y-166938960D01*
X116677440Y-166938960D02*
X117546120Y-166938960D01*
X113672620Y-135224520D02*
X113672620Y-135249920D01*
X113672620Y-135249920D02*
X112768380Y-136154160D01*
X113873280Y-129860040D02*
X113878360Y-129865120D01*
X113878360Y-129865120D02*
X113878360Y-130962400D01*
X113957100Y-123192540D02*
X114757200Y-122392440D01*
X114757200Y-122392440D02*
X115046760Y-122392440D01*
X127342900Y-130009900D02*
X127342900Y-129204720D01*
X127635000Y-130302000D02*
X127342900Y-130009900D01*
X126766320Y-123184920D02*
X125943360Y-123184920D01*
X125943360Y-123184920D02*
X125674120Y-122915680D01*
X133060440Y-122809000D02*
X133741160Y-122128280D01*
X133060440Y-123144280D02*
X133060440Y-122809000D01*
X131231640Y-117302280D02*
X130995420Y-117302280D01*
X130995420Y-117302280D02*
X130286760Y-116593620D01*
X131404600Y-118618760D02*
X130829560Y-118618760D01*
X130829560Y-118618760D02*
X130276600Y-119171720D01*
X124411740Y-111274860D02*
X125242320Y-111274860D01*
X125242320Y-111274860D02*
X125547120Y-111579660D01*
X137807700Y-107754420D02*
X137807700Y-106664760D01*
X126822200Y-116852700D02*
X126809500Y-116852700D01*
X126809500Y-116852700D02*
X125925580Y-115968780D01*
X127183120Y-118603520D02*
X126638560Y-118603520D01*
X126638560Y-118603520D02*
X126100840Y-119141240D01*
X160528000Y-128930400D02*
X160680400Y-129082800D01*
X159613600Y-128930400D02*
X160528000Y-128930400D01*
X132054600Y-118618760D02*
X131404600Y-118618760D01*
X127833120Y-118603520D02*
X127183120Y-118603520D01*
X132059680Y-112385600D02*
X131409680Y-112385600D01*
X131409680Y-112385600D02*
X130718040Y-111693960D01*
X130718040Y-111693960D02*
X130540760Y-111693960D01*
X127955040Y-112324640D02*
X127305040Y-112324640D01*
X127305040Y-112324640D02*
X127086360Y-112105960D01*
X127086360Y-112105960D02*
X127086360Y-111328200D01*
X133579800Y-110127800D02*
X133559800Y-110127800D01*
X133559800Y-110127800D02*
X132918200Y-110769400D01*
X128700600Y-108909600D02*
X128700600Y-108177400D01*
X86131400Y-128955800D02*
X86131400Y-128727200D01*
X86131400Y-128727200D02*
X86817200Y-128041400D01*
X80086200Y-128930400D02*
X80086200Y-128397000D01*
X80086200Y-128397000D02*
X79603600Y-127914400D01*
D37*
X80111600Y-132257800D02*
X79298800Y-133070600D01*
D38*
X85344000Y-133121400D02*
X85344000Y-134137400D01*
D39*
X120000000Y-170700000D02*
X120000000Y-169000000D01*
X120000000Y-169000000D02*
X120250000Y-168750000D01*
X121700000Y-169000000D02*
X120000000Y-169000000D01*
X120000000Y-169000000D02*
X119750000Y-168750000D01*
X118300000Y-169000000D02*
X120000000Y-169000000D01*
X120000000Y-169000000D02*
X120250000Y-169250000D01*
X120000000Y-167300000D02*
X120000000Y-169000000D01*
X120000000Y-169000000D02*
X119750000Y-169250000D01*
D38*
X121700000Y-169000000D02*
X122478762Y-169000000D01*
X122478762Y-169000000D02*
X123002359Y-169523597D01*
X121700000Y-169500000D02*
X122978762Y-169500000D01*
X122978762Y-169500000D02*
X123002359Y-169523597D01*
X120000000Y-167300000D02*
X120000000Y-166000000D01*
X120000000Y-170700000D02*
X120000000Y-172000000D01*
X118300000Y-169000000D02*
X117528703Y-169000000D01*
X117528703Y-169000000D02*
X117000000Y-169528703D01*
X118300000Y-169500000D02*
X117028703Y-169500000D01*
X117028703Y-169500000D02*
X117000000Y-169528703D01*
X147925000Y-119075000D02*
X149175000Y-119075000D01*
X149175000Y-119075000D02*
X149200000Y-119100000D01*
D39*
X128100000Y-136562000D02*
X128100000Y-137700000D01*
D38*
X127350000Y-126050000D02*
X127350000Y-125150000D01*
X127350000Y-125150000D02*
X127300000Y-125100000D01*
X118336777Y-123975619D02*
X119536777Y-123975619D01*
X118336777Y-128975619D02*
X119536777Y-128975619D01*
X118336777Y-133325619D02*
X119486777Y-133325619D01*
X119486777Y-133325619D02*
X119536777Y-133275619D01*
X118336777Y-133975619D02*
X118336777Y-133325619D01*
X131350000Y-126050000D02*
X131350000Y-125150000D01*
X131350000Y-125150000D02*
X131300000Y-125100000D01*
X138275000Y-136925000D02*
X139175000Y-136925000D01*
X139175000Y-136925000D02*
X139200000Y-136900000D01*
D39*
X150200000Y-148838000D02*
X149038000Y-148838000D01*
X149038000Y-148838000D02*
X149000000Y-148800000D01*
X152700000Y-148838000D02*
X150200000Y-148838000D01*
X155200000Y-148838000D02*
X152700000Y-148838000D01*
D37*
X69100000Y-110966600D02*
X69100000Y-109900000D01*
X69100000Y-123366600D02*
X69100000Y-122300000D01*
X69100000Y-135666600D02*
X69100000Y-134600000D01*
X69100000Y-148066600D02*
X69100000Y-147000000D01*
X69100000Y-160466600D02*
X69100000Y-159400000D01*
X170900000Y-160466600D02*
X170900000Y-159400000D01*
X165900000Y-148466600D02*
X165900000Y-147400000D01*
X165900000Y-135766600D02*
X165900000Y-134700000D01*
X170900000Y-123366600D02*
X170900000Y-122300000D01*
X170900000Y-110966600D02*
X170900000Y-109900000D01*
X131505960Y-131389120D02*
X131505960Y-132072380D01*
X131505960Y-132072380D02*
X131046220Y-132532120D01*
X142075000Y-126491900D02*
X142067280Y-126499620D01*
D38*
G04 #@! TO.N,VCC*
X113672620Y-134157720D02*
X114863880Y-134157720D01*
X115178061Y-133975619D02*
X114929920Y-134223760D01*
X115178061Y-133975619D02*
X116336777Y-133975619D01*
X113873280Y-128793240D02*
X114025680Y-128945640D01*
X114025680Y-128945640D02*
X114993420Y-128945640D01*
X116336777Y-128975619D02*
X116306798Y-128945640D01*
X116306798Y-128945640D02*
X114993420Y-128945640D01*
X113957100Y-124259340D02*
X114993420Y-124259340D01*
X115277141Y-123975619D02*
X115023900Y-124228860D01*
X115277141Y-123975619D02*
X116336777Y-123975619D01*
X128701800Y-130302000D02*
X128701800Y-129159000D01*
X128650000Y-129107200D02*
X128650000Y-127950000D01*
X127833120Y-123184920D02*
X127833120Y-122011440D01*
X127833120Y-122011440D02*
X127833120Y-120603520D01*
X131993640Y-123144280D02*
X131993640Y-122204480D01*
X132054600Y-120618760D02*
X132054600Y-121798080D01*
X132298440Y-117302280D02*
X132298440Y-116281200D01*
X132059680Y-116042440D02*
X132059680Y-114385600D01*
X124411740Y-110208060D02*
X125585220Y-110208060D01*
X125598920Y-110209600D02*
X126800600Y-110209600D01*
X137807700Y-108821220D02*
X136634220Y-108821220D01*
X136627640Y-108827800D02*
X135479800Y-108827800D01*
X127889000Y-116852700D02*
X127889000Y-115707160D01*
X127955040Y-115641120D02*
X127955040Y-114324640D01*
X132557520Y-129981960D02*
X132557520Y-129067560D01*
X132650000Y-128975080D02*
X132650000Y-127950000D01*
D37*
X127965200Y-116776500D02*
X127889000Y-116852700D01*
X142075000Y-124925000D02*
X141612440Y-124925000D01*
X141612440Y-124925000D02*
X141000480Y-125536960D01*
X141000480Y-125536960D02*
X141000480Y-126499620D01*
X132572760Y-132494020D02*
X132702300Y-132623560D01*
X132572760Y-131389120D02*
X132572760Y-132494020D01*
X132702300Y-132717540D02*
X131505960Y-133913880D01*
X141000480Y-128442720D02*
X141000480Y-127502920D01*
X141000480Y-127502920D02*
X141000480Y-126499620D01*
X141000480Y-128442720D02*
X141351000Y-128793240D01*
D38*
X116336777Y-128975619D02*
X116280396Y-129032000D01*
X127955040Y-114324640D02*
X127878840Y-114400840D01*
D39*
X62463000Y-167050000D02*
X62450000Y-167050000D01*
X62450000Y-167050000D02*
X61500000Y-168000000D01*
X177537000Y-167050000D02*
X177550000Y-167050000D01*
X177550000Y-167050000D02*
X178500000Y-168000000D01*
X116574777Y-136475619D02*
X116574777Y-137574777D01*
X116574777Y-137574777D02*
X116600000Y-137600000D01*
X137938000Y-121700000D02*
X136700000Y-121700000D01*
X125500000Y-125238000D02*
X124338000Y-125238000D01*
X124338000Y-125238000D02*
X124300000Y-125200000D01*
X131532000Y-106823600D02*
X131532000Y-105661600D01*
X131532000Y-105661600D02*
X131570000Y-105623600D01*
X135532000Y-106823600D02*
X135532000Y-105661600D01*
X135532000Y-105661600D02*
X135570000Y-105623600D01*
D38*
X118336777Y-123325619D02*
X118336777Y-122375619D01*
X118336777Y-128325619D02*
X118336777Y-127375619D01*
D39*
X130738000Y-139500000D02*
X129500000Y-139500000D01*
X133238000Y-166100000D02*
X132000000Y-166100000D01*
X141562000Y-168600000D02*
X142700000Y-168600000D01*
D37*
X132886880Y-131075000D02*
X132572760Y-131389120D01*
X133725000Y-131075000D02*
X132886880Y-131075000D01*
G04 #@! TO.N,Net-(C1-Pad2)*
X63115000Y-136750000D02*
X66966600Y-136750000D01*
G04 #@! TO.N,Net-(C1-Pad1)*
X82000000Y-131562500D02*
X81645100Y-131562500D01*
X81645100Y-131562500D02*
X81203800Y-132003800D01*
X81203800Y-132003800D02*
X81203800Y-135296200D01*
X81203800Y-135296200D02*
X76593600Y-139906400D01*
X68033400Y-136750000D02*
X69083400Y-136750000D01*
X69083400Y-136750000D02*
X69100000Y-136733400D01*
X76000000Y-139906400D02*
X76593600Y-139906400D01*
X75000000Y-138906400D02*
X76000000Y-139906400D01*
X75000000Y-136500000D02*
X75000000Y-138906400D01*
X69100000Y-139100000D02*
X70279400Y-140279400D01*
X70279400Y-140279400D02*
X70720600Y-140279400D01*
X70720600Y-140279400D02*
X72000000Y-139000000D01*
X72000000Y-139000000D02*
X72000000Y-136500000D01*
X72000000Y-136500000D02*
X73203200Y-135296800D01*
X73203200Y-135296800D02*
X73796800Y-135296800D01*
X73796800Y-135296800D02*
X75000000Y-136500000D01*
X69100000Y-136733400D02*
X69100000Y-139100000D01*
G04 #@! TO.N,Net-(C2-Pad2)*
X63115000Y-112000000D02*
X66966600Y-112000000D01*
G04 #@! TO.N,Net-(C2-Pad1)*
X68033400Y-112000000D02*
X69066600Y-112000000D01*
X69066600Y-112000000D02*
X69100000Y-112033400D01*
X69100000Y-112033400D02*
X69100000Y-119600000D01*
X84000000Y-127800000D02*
X84000000Y-129562500D01*
X78200000Y-122000000D02*
X84000000Y-127800000D01*
X71500000Y-122000000D02*
X78200000Y-122000000D01*
X69100000Y-119600000D02*
X71500000Y-122000000D01*
G04 #@! TO.N,Net-(C3-Pad2)*
X168033400Y-136750000D02*
X168173400Y-136890000D01*
X168173400Y-136890000D02*
X176745000Y-136890000D01*
X176745000Y-136890000D02*
X176885000Y-136750000D01*
G04 #@! TO.N,Net-(C3-Pad1)*
X158000000Y-131562500D02*
X158000000Y-137781600D01*
X165900000Y-138696800D02*
X165900000Y-136833400D01*
X165445440Y-139151360D02*
X165900000Y-138696800D01*
X164470080Y-139151360D02*
X165445440Y-139151360D01*
X163799520Y-138480800D02*
X164470080Y-139151360D01*
X163799520Y-135879840D02*
X163799520Y-138480800D01*
X163128960Y-135209280D02*
X163799520Y-135879840D01*
X161930080Y-135209280D02*
X163128960Y-135209280D01*
X161279840Y-135859520D02*
X161930080Y-135209280D01*
X161279840Y-138054080D02*
X161279840Y-135859520D01*
X160406080Y-138927840D02*
X161279840Y-138054080D01*
X159146240Y-138927840D02*
X160406080Y-138927840D01*
X158000000Y-137781600D02*
X159146240Y-138927840D01*
X166966600Y-136750000D02*
X165983400Y-136750000D01*
X165983400Y-136750000D02*
X165900000Y-136833400D01*
G04 #@! TO.N,Net-(C4-Pad2)*
X173033400Y-112000000D02*
X176885000Y-112000000D01*
G04 #@! TO.N,Net-(C4-Pad1)*
X171966600Y-112000000D02*
X170933400Y-112000000D01*
X170933400Y-112000000D02*
X170900000Y-112033400D01*
X170900000Y-112033400D02*
X165906600Y-112033400D01*
X156000000Y-121940000D02*
X156000000Y-129562500D01*
X165906600Y-112033400D02*
X156000000Y-121940000D01*
G04 #@! TO.N,Net-(C5-Pad2)*
X63115000Y-149125000D02*
X66966600Y-149125000D01*
G04 #@! TO.N,Net-(C5-Pad1)*
X68033400Y-149125000D02*
X69091600Y-149125000D01*
X69091600Y-149125000D02*
X69100000Y-149133400D01*
X69100000Y-149133400D02*
X75726600Y-149133400D01*
X84000000Y-140860000D02*
X84000000Y-131562500D01*
X75726600Y-149133400D02*
X84000000Y-140860000D01*
G04 #@! TO.N,Net-(C6-Pad2)*
X63115000Y-124375000D02*
X66966600Y-124375000D01*
G04 #@! TO.N,Net-(C6-Pad1)*
X78079600Y-128294800D02*
X78079600Y-126695200D01*
X72000000Y-127500000D02*
X73000000Y-126500000D01*
X73000000Y-126500000D02*
X74000000Y-126500000D01*
X74000000Y-126500000D02*
X75000000Y-127500000D01*
X75000000Y-127500000D02*
X75000000Y-128425200D01*
X69100000Y-124433400D02*
X69100000Y-129819800D01*
X77152400Y-129222000D02*
X78079600Y-128294800D01*
X75796800Y-129222000D02*
X77152400Y-129222000D01*
X71203200Y-130695200D02*
X72000000Y-129898400D01*
X69975400Y-130695200D02*
X71203200Y-130695200D01*
X69100000Y-129819800D02*
X69975400Y-130695200D01*
X72000000Y-129898400D02*
X72000000Y-127500000D01*
X75000000Y-128425200D02*
X75796800Y-129222000D01*
X81178400Y-127736600D02*
X79451200Y-126009400D01*
X81178400Y-129133600D02*
X81178400Y-127736600D01*
X81178400Y-129133600D02*
X81607300Y-129562500D01*
X78765400Y-126009400D02*
X79451200Y-126009400D01*
X78079600Y-126695200D02*
X78765400Y-126009400D01*
X82000000Y-129562500D02*
X81607300Y-129562500D01*
X68033400Y-124375000D02*
X69041600Y-124375000D01*
X69041600Y-124375000D02*
X69100000Y-124433400D01*
G04 #@! TO.N,Net-(C7-Pad2)*
X176410000Y-149600000D02*
X176885000Y-149125000D01*
X168033400Y-149525000D02*
X168108400Y-149600000D01*
X168108400Y-149600000D02*
X176410000Y-149600000D01*
G04 #@! TO.N,Net-(C7-Pad1)*
X166966600Y-149525000D02*
X165908400Y-149525000D01*
X165908400Y-149525000D02*
X165900000Y-149533400D01*
X156000000Y-131562500D02*
X156000000Y-140580000D01*
X164953400Y-149533400D02*
X165900000Y-149533400D01*
X156000000Y-140580000D02*
X164953400Y-149533400D01*
G04 #@! TO.N,Net-(C8-Pad2)*
X176885000Y-124375000D02*
X173033400Y-124375000D01*
G04 #@! TO.N,Net-(C8-Pad1)*
X158000000Y-129562500D02*
X158000000Y-128009080D01*
X168000000Y-121152400D02*
X166984760Y-120137160D01*
X166984760Y-120137160D02*
X165984760Y-120137160D01*
X165984760Y-120137160D02*
X165000000Y-121121920D01*
X165000000Y-121121920D02*
X165000000Y-123311280D01*
X170900000Y-126530000D02*
X170900000Y-124433400D01*
X168940000Y-127440000D02*
X168000000Y-126500000D01*
X169990000Y-127440000D02*
X168940000Y-127440000D01*
X170900000Y-126530000D02*
X169990000Y-127440000D01*
X168000000Y-126500000D02*
X168000000Y-121152400D01*
X162215520Y-126095760D02*
X165000000Y-123311280D01*
X159913320Y-126095760D02*
X162215520Y-126095760D01*
X158000000Y-128009080D02*
X159913320Y-126095760D01*
X171966600Y-124375000D02*
X170958400Y-124375000D01*
X170958400Y-124375000D02*
X170900000Y-124433400D01*
D38*
G04 #@! TO.N,Net-(C9-Pad2)*
X106500000Y-164400000D02*
X107987400Y-165887400D01*
X100000000Y-152800000D02*
X106500000Y-159300000D01*
X106500000Y-159300000D02*
X106500000Y-164400000D01*
X84000000Y-130562500D02*
X85962500Y-130562500D01*
X85962500Y-130562500D02*
X100000000Y-144600000D01*
X100000000Y-144600000D02*
X100000000Y-152800000D01*
X107987400Y-165887400D02*
X114559080Y-165887400D01*
G04 #@! TO.N,Net-(C9-Pad1)*
X119500000Y-167300000D02*
X119500000Y-166693200D01*
X118694200Y-165887400D02*
X115625880Y-165887400D01*
X119500000Y-166693200D02*
X118694200Y-165887400D01*
X119500000Y-167300000D02*
X119500000Y-166972600D01*
G04 #@! TO.N,Net-(C10-Pad2)*
X120500000Y-167300000D02*
X120500000Y-166774000D01*
X120500000Y-166774000D02*
X121909840Y-165364160D01*
X121909840Y-165364160D02*
X123337320Y-165364160D01*
G04 #@! TO.N,Net-(C10-Pad1)*
X124404120Y-165364160D02*
X124404120Y-165290500D01*
X124404120Y-165290500D02*
X129894620Y-159800000D01*
X129894620Y-159800000D02*
X136700000Y-159800000D01*
X140000000Y-156500000D02*
X136700000Y-159800000D01*
X140000000Y-143200000D02*
X140000000Y-156500000D01*
X152637500Y-130562500D02*
X156000000Y-130562500D01*
X140000000Y-143200000D02*
X152637500Y-130562500D01*
G04 #@! TO.N,Net-(C11-Pad2)*
X66966600Y-161500000D02*
X63115000Y-161500000D01*
G04 #@! TO.N,Net-(C11-Pad1)*
X68033400Y-161500000D02*
X69066600Y-161500000D01*
X69066600Y-161500000D02*
X69100000Y-161533400D01*
X69100000Y-161533400D02*
X69100000Y-166300000D01*
X69100000Y-166300000D02*
X73500000Y-170700000D01*
X73500000Y-170700000D02*
X119500000Y-170700000D01*
G04 #@! TO.N,Net-(C12-Pad2)*
X176885000Y-161500000D02*
X173008400Y-161500000D01*
G04 #@! TO.N,Net-(C12-Pad1)*
X171941600Y-161500000D02*
X170933400Y-161500000D01*
X170933400Y-161500000D02*
X170900000Y-161533400D01*
X170900000Y-161533400D02*
X170900000Y-166300000D01*
X166500000Y-170700000D02*
X120500000Y-170700000D01*
X170900000Y-166300000D02*
X166500000Y-170700000D01*
D39*
G04 #@! TO.N,Net-(DA0-Pad1)*
X134500000Y-141262000D02*
X134366000Y-141396000D01*
X134366000Y-141396000D02*
X134366000Y-149733000D01*
X134366000Y-149733000D02*
X129413000Y-154686000D01*
X129413000Y-154686000D02*
X108458000Y-154686000D01*
D40*
X63987000Y-167050000D02*
X65100000Y-167050000D01*
X65100000Y-167050000D02*
X65150000Y-167100000D01*
D39*
G04 #@! TO.N,/U2V3*
X85344000Y-132054600D02*
X86100004Y-132810604D01*
X86100004Y-132810604D02*
X86100004Y-139200000D01*
X84000000Y-131062500D02*
X84402700Y-131062500D01*
X84402700Y-131062500D02*
X85344000Y-132003800D01*
X85344000Y-132003800D02*
X85344000Y-132054600D01*
X124200000Y-128000000D02*
X127300000Y-128000000D01*
X127300000Y-128000000D02*
X127350000Y-127950000D01*
D40*
X62175000Y-154675000D02*
X61550000Y-155300000D01*
X62463000Y-154675000D02*
X62175000Y-154675000D01*
X62150000Y-155900000D02*
X61550000Y-155300000D01*
X62463000Y-155900000D02*
X62150000Y-155900000D01*
D39*
G04 #@! TO.N,Net-(DAG1-Pad1)*
X112836777Y-132552290D02*
X112318800Y-132034313D01*
X112318800Y-132034313D02*
X112318800Y-130810000D01*
X65700000Y-142300000D02*
X66100000Y-141900000D01*
X65700000Y-142300000D02*
X63987000Y-142300000D01*
X63987000Y-154675000D02*
X65625000Y-154675000D01*
X65625000Y-154675000D02*
X66100000Y-154200000D01*
X63987000Y-117550000D02*
X66400000Y-117550000D01*
X66400000Y-117550000D02*
X66850000Y-117100000D01*
X112836777Y-132552290D02*
X112836777Y-133163223D01*
X112836777Y-133163223D02*
X109200000Y-136800000D01*
X106800000Y-138200000D02*
X107800000Y-138200000D01*
X107800000Y-138200000D02*
X109200000Y-136800000D01*
X63987000Y-129925000D02*
X66425000Y-129925000D01*
X66425000Y-129925000D02*
X66850000Y-129500000D01*
G04 #@! TO.N,/U2V1*
X127183120Y-120603520D02*
X126332740Y-120603520D01*
X126332740Y-120603520D02*
X125902720Y-121033540D01*
X80111600Y-131191000D02*
X79375000Y-131191000D01*
X76200000Y-134366000D02*
X76200000Y-134599996D01*
X79375000Y-131191000D02*
X76200000Y-134366000D01*
X82000000Y-131062500D02*
X80240100Y-131062500D01*
X80240100Y-131062500D02*
X80111600Y-131191000D01*
D40*
X62463000Y-143525000D02*
X62175000Y-143525000D01*
X62175000Y-143525000D02*
X61550000Y-142900000D01*
X62463000Y-142300000D02*
X62150000Y-142300000D01*
X62150000Y-142300000D02*
X61550000Y-142900000D01*
D39*
G04 #@! TO.N,/U2V2*
X127305040Y-114324640D02*
X127239760Y-114259360D01*
X127239760Y-114259360D02*
X126227840Y-114259360D01*
X123520200Y-118084600D02*
X123520200Y-121513600D01*
X82000000Y-130062500D02*
X80151500Y-130062500D01*
X80151500Y-130062500D02*
X80089000Y-130000000D01*
X80089000Y-130000000D02*
X79100000Y-130000000D01*
X79162500Y-130062500D02*
X79100000Y-130000000D01*
D40*
X62463000Y-131150000D02*
X62150000Y-131150000D01*
X62150000Y-131150000D02*
X61550000Y-130550000D01*
X62463000Y-129925000D02*
X62175000Y-129925000D01*
X62175000Y-129925000D02*
X61550000Y-130550000D01*
D39*
G04 #@! TO.N,/U2V4*
X85064600Y-128955800D02*
X85000000Y-128891200D01*
X85000000Y-128891200D02*
X85000000Y-126599986D01*
X85064600Y-128955800D02*
X85064600Y-129692400D01*
X84694500Y-130062500D02*
X85064600Y-129692400D01*
X84694500Y-130062500D02*
X84000000Y-130062500D01*
X85000000Y-126599986D02*
X85000000Y-126556600D01*
X124414800Y-108909600D02*
X126800600Y-108909600D01*
X122656600Y-110667800D02*
X124414800Y-108909600D01*
X122656600Y-117856000D02*
X122656600Y-110667800D01*
X120421400Y-120091200D02*
X122656600Y-117856000D01*
X91465400Y-120091200D02*
X120421400Y-120091200D01*
X85000000Y-126556600D02*
X91465400Y-120091200D01*
X85083614Y-126599986D02*
X85000000Y-126599986D01*
X85064600Y-126664586D02*
X85000000Y-126599986D01*
D40*
X62463000Y-117550000D02*
X62150000Y-117550000D01*
X62150000Y-117550000D02*
X61550000Y-118150000D01*
X62463000Y-118775000D02*
X62175000Y-118775000D01*
X62175000Y-118775000D02*
X61550000Y-118150000D01*
D39*
X126750600Y-108859600D02*
X126800600Y-108909600D01*
X84993699Y-126493699D02*
X85000000Y-126500000D01*
X85000000Y-126500000D02*
X85000000Y-126599986D01*
G04 #@! TO.N,Net-(DAY1-Pad1)*
X66000000Y-131150000D02*
X66850000Y-132000000D01*
X66000000Y-131150000D02*
X63987000Y-131150000D01*
X63987000Y-155900000D02*
X65600000Y-155900000D01*
X65600000Y-155900000D02*
X66100000Y-156400000D01*
X63987000Y-143525000D02*
X65625000Y-143525000D01*
X65625000Y-143525000D02*
X66100000Y-144000000D01*
X66325000Y-118775000D02*
X66850000Y-119300000D01*
X63987000Y-118775000D02*
X66325000Y-118775000D01*
X109200000Y-133800000D02*
X109200000Y-131893440D01*
X109200000Y-131893440D02*
X109200000Y-127300000D01*
X106000000Y-137000000D02*
X108158000Y-134842000D01*
X108158000Y-134842000D02*
X109200000Y-133800000D01*
X109200000Y-127300000D02*
X110762381Y-125737619D01*
X110762381Y-125737619D02*
X112836777Y-125737619D01*
X106000000Y-140000000D02*
X106000000Y-137000000D01*
G04 #@! TO.N,Net-(DB0-Pad1)*
X136500000Y-142500000D02*
X136500000Y-141262000D01*
D40*
X176013000Y-167050000D02*
X174900000Y-167050000D01*
X174900000Y-167050000D02*
X174850000Y-167100000D01*
D39*
G04 #@! TO.N,/U3V3*
X154137360Y-129844800D02*
X152460960Y-128168400D01*
X152460960Y-121839040D02*
X156100000Y-118200000D01*
X152460960Y-128168400D02*
X152460960Y-121839040D01*
X156000000Y-130062500D02*
X155943380Y-130119120D01*
X155943380Y-130119120D02*
X154411680Y-130119120D01*
X154411680Y-130119120D02*
X154137360Y-129844800D01*
X156100000Y-118200000D02*
X156100000Y-116704600D01*
X156100000Y-116704600D02*
X149523200Y-110127800D01*
X149523200Y-110127800D02*
X135479800Y-110127800D01*
D40*
X177800000Y-117550000D02*
X178450000Y-118200000D01*
X177537000Y-118775000D02*
X177875000Y-118775000D01*
X177875000Y-118775000D02*
X178450000Y-118200000D01*
X177537000Y-117550000D02*
X177800000Y-117550000D01*
D39*
G04 #@! TO.N,Net-(DBG1-Pad1)*
X168675000Y-154675000D02*
X176013000Y-154675000D01*
X174091680Y-142300000D02*
X176013000Y-142300000D01*
X175025000Y-129925000D02*
X176013000Y-129925000D01*
X176013000Y-117550000D02*
X174450000Y-117550000D01*
X174450000Y-117550000D02*
X173900000Y-117000000D01*
X168675000Y-154675000D02*
X168000000Y-154000000D01*
X174091680Y-142300000D02*
X173517681Y-141726001D01*
X173517681Y-141726001D02*
X172542319Y-141726001D01*
X172542319Y-141726001D02*
X171700000Y-140883682D01*
X171700000Y-140883682D02*
X171700000Y-139500000D01*
X175025000Y-129925000D02*
X173700000Y-128600000D01*
X112300000Y-122700000D02*
X110850396Y-122700000D01*
X110850396Y-122700000D02*
X110836777Y-122713619D01*
G04 #@! TO.N,/U3V1*
X131409680Y-114385600D02*
X131373360Y-114421920D01*
X131373360Y-114421920D02*
X130721100Y-114421920D01*
X130721100Y-114421920D02*
X130425400Y-114717620D01*
X130425400Y-114717620D02*
X130425400Y-115382200D01*
X158000000Y-130062500D02*
X159548300Y-130062500D01*
X159548300Y-130062500D02*
X159559200Y-130073400D01*
X159559200Y-130073400D02*
X164084000Y-130073400D01*
X164084000Y-130073400D02*
X164557400Y-129600000D01*
X164557400Y-129600000D02*
X166800000Y-129600000D01*
X151600000Y-115400000D02*
X136200000Y-115400000D01*
D40*
X177537000Y-131150000D02*
X177800000Y-131150000D01*
X177875000Y-129925000D02*
X178450000Y-130500000D01*
X177800000Y-131150000D02*
X178450000Y-130500000D01*
X177537000Y-129925000D02*
X177875000Y-129925000D01*
D39*
G04 #@! TO.N,/U3V2*
X130547710Y-123100000D02*
X131404600Y-122243110D01*
X141000000Y-118000000D02*
X149700000Y-118000000D01*
X149700000Y-118000000D02*
X151900000Y-120200000D01*
X131404600Y-122243110D02*
X131404600Y-120618760D01*
X158000000Y-131062500D02*
X159485100Y-131062500D01*
X159485100Y-131062500D02*
X159506920Y-131084320D01*
X159506920Y-131084320D02*
X161096960Y-131084320D01*
X161075140Y-131062500D02*
X161096960Y-131084320D01*
D40*
X177537000Y-143525000D02*
X177825000Y-143525000D01*
X177825000Y-143525000D02*
X178450000Y-142900000D01*
X177537000Y-142300000D02*
X177850000Y-142300000D01*
X177850000Y-142300000D02*
X178450000Y-142900000D01*
D39*
G04 #@! TO.N,/U3V4*
X154152600Y-131262120D02*
X152127904Y-133286816D01*
X152127904Y-133286816D02*
X152127904Y-137872076D01*
X156000000Y-131062500D02*
X154352220Y-131062500D01*
X154352220Y-131062500D02*
X154152600Y-131262120D01*
X131350000Y-127950000D02*
X130050000Y-127950000D01*
X130050000Y-127950000D02*
X130000000Y-128000000D01*
D40*
X177825000Y-154675000D02*
X178450000Y-155300000D01*
X177537000Y-154675000D02*
X177825000Y-154675000D01*
X177850000Y-155900000D02*
X178450000Y-155300000D01*
X177537000Y-155900000D02*
X177850000Y-155900000D01*
D39*
G04 #@! TO.N,Net-(DBY1-Pad1)*
X114198400Y-125603000D02*
X112087781Y-127713619D01*
X110836777Y-127713619D02*
X112087781Y-127713619D01*
X134500000Y-116800000D02*
X146200000Y-116800000D01*
X146200000Y-116800000D02*
X146300000Y-116700000D01*
X169456301Y-139843701D02*
X169875002Y-139425000D01*
X169456301Y-141179983D02*
X169456301Y-139843701D01*
X170510317Y-142233999D02*
X169456301Y-141179983D01*
X173517681Y-142233999D02*
X170510317Y-142233999D01*
X174808682Y-143525000D02*
X173517681Y-142233999D01*
X176013000Y-143525000D02*
X174808682Y-143525000D01*
X175061202Y-155900000D02*
X176013000Y-155900000D01*
X173933682Y-131150000D02*
X176013000Y-131150000D01*
X176013000Y-118775000D02*
X174425000Y-118775000D01*
X174425000Y-118775000D02*
X173900000Y-119300000D01*
X146400000Y-116800000D02*
X146300000Y-116700000D01*
X149596497Y-116800000D02*
X146400000Y-116800000D01*
X175061202Y-155900000D02*
X173961202Y-157000000D01*
X173961202Y-157000000D02*
X168000000Y-157000000D01*
X151157496Y-116800000D02*
X149596497Y-116800000D01*
X153700000Y-116800000D02*
X151157496Y-116800000D01*
X173933682Y-131150000D02*
X173283682Y-131800000D01*
X173283682Y-131800000D02*
X168000000Y-131800000D01*
G04 #@! TO.N,/EXT_U3CTRL1*
X147925000Y-122975000D02*
X147196800Y-122975000D01*
X147196800Y-122975000D02*
X143704580Y-126467220D01*
X143704580Y-126467220D02*
X143704580Y-131348520D01*
X147925000Y-122975000D02*
X148653200Y-122975000D01*
X148653200Y-122975000D02*
X150200000Y-124521800D01*
X150200000Y-124521800D02*
X150200000Y-126600000D01*
G04 #@! TO.N,/EXT_U2CTRL1*
X147925000Y-124275000D02*
X147196800Y-124275000D01*
X147196800Y-124275000D02*
X145000000Y-126471800D01*
X145000000Y-126471800D02*
X145000000Y-133000000D01*
X147925000Y-124275000D02*
X148653200Y-124275000D01*
X148653200Y-124275000D02*
X149000000Y-124621800D01*
X149000000Y-124621800D02*
X149000000Y-128000000D01*
G04 #@! TO.N,/EXT_U3CTRL0*
X147925000Y-122325000D02*
X147196800Y-122325000D01*
X147196800Y-122325000D02*
X143056870Y-126464930D01*
X143056870Y-126464930D02*
X143056870Y-130526887D01*
X147925000Y-122325000D02*
X148653200Y-122325000D01*
X148653200Y-122325000D02*
X150800000Y-124471800D01*
X150800000Y-124471800D02*
X150800000Y-125900000D01*
G04 #@! TO.N,/EXT_U2CTRL0*
X149600000Y-124571800D02*
X149600000Y-127300000D01*
X148653200Y-123625000D02*
X149600000Y-124571800D01*
X147925000Y-123625000D02*
X148653200Y-123625000D01*
X147925000Y-123625000D02*
X147196800Y-123625000D01*
X147196800Y-123625000D02*
X144352290Y-126469510D01*
X144352290Y-126469510D02*
X144352290Y-132184023D01*
G04 #@! TO.N,/EXT_U1CTRL*
X147925000Y-121675000D02*
X146625000Y-121675000D01*
X146625000Y-121675000D02*
X143600000Y-124700000D01*
X147925000Y-121675000D02*
X148653200Y-121675000D01*
X148653200Y-121675000D02*
X151400000Y-124421800D01*
X151400000Y-124421800D02*
X151400000Y-125200000D01*
G04 #@! TO.N,/SDA*
X125700000Y-159700000D02*
X121782000Y-159700000D01*
X121782000Y-159700000D02*
X120452000Y-161030000D01*
X134375000Y-136925000D02*
X134375000Y-138475000D01*
X134375000Y-138475000D02*
X134400000Y-138500000D01*
X140038000Y-168600000D02*
X140038000Y-166138000D01*
X140038000Y-166138000D02*
X140010000Y-166110000D01*
G04 #@! TO.N,/SCL*
X133725000Y-136925000D02*
X133725000Y-137975000D01*
X133725000Y-137975000D02*
X133300000Y-138400000D01*
X134762000Y-166100000D02*
X137460000Y-166100000D01*
X137460000Y-166100000D02*
X137470000Y-166110000D01*
G04 #@! TO.N,/A0*
X150170000Y-153410000D02*
X150170000Y-150392000D01*
X150170000Y-150392000D02*
X150200000Y-150362000D01*
X135025000Y-136925000D02*
X135025000Y-137625000D01*
X135025000Y-137625000D02*
X135500000Y-138100000D01*
G04 #@! TO.N,/A1*
X152710000Y-153410000D02*
X152710000Y-150372000D01*
X152710000Y-150372000D02*
X152700000Y-150362000D01*
X135675000Y-136925000D02*
X135675000Y-135725000D01*
X135675000Y-135725000D02*
X135700000Y-135700000D01*
G04 #@! TO.N,/A2*
X155250000Y-153410000D02*
X155250000Y-150412000D01*
X155250000Y-150412000D02*
X155200000Y-150362000D01*
X136325000Y-136925000D02*
X136325000Y-138575000D01*
X136325000Y-138575000D02*
X136300000Y-138600000D01*
G04 #@! TO.N,Net-(R1-Pad2)*
X113000000Y-127800000D02*
X112318800Y-128481200D01*
X112318800Y-128481200D02*
X112318800Y-129286000D01*
X112318800Y-129286000D02*
X110788396Y-129286000D01*
X110788396Y-129286000D02*
X110836777Y-129237619D01*
X116336777Y-128325619D02*
X115625619Y-128325619D01*
X115625619Y-128325619D02*
X115100000Y-127800000D01*
G04 #@! TO.N,Net-(R2-Pad2)*
X112496600Y-124206000D02*
X110515400Y-124206000D01*
X110515400Y-124206000D02*
X110490000Y-124231400D01*
X112496600Y-124206000D02*
X112496600Y-123494800D01*
X115904358Y-121005600D02*
X114985800Y-121005600D01*
X116192377Y-121293619D02*
X115904358Y-121005600D01*
X116192377Y-121293619D02*
X116192377Y-123181219D01*
X112496600Y-123494800D02*
X114985800Y-121005600D01*
X116192377Y-123181219D02*
X116336777Y-123325619D01*
X110860777Y-124213619D02*
X110836777Y-124237619D01*
X112463581Y-124213619D02*
X112836777Y-124213619D01*
G04 #@! TO.N,/!LED_EN*
X136975000Y-139263000D02*
X137784710Y-139263000D01*
X137784710Y-139263000D02*
X137800000Y-139247710D01*
X136975000Y-139263000D02*
X136975000Y-136925000D01*
X136500000Y-139738000D02*
X136975000Y-139263000D01*
X134500000Y-139738000D02*
X132500000Y-139738000D01*
X132500000Y-139738000D02*
X132262000Y-139500000D01*
X136500000Y-139738000D02*
X134500000Y-139738000D01*
G04 #@! TO.N,/!RESET*
X134375000Y-132559674D02*
X134375000Y-133833620D01*
X131216400Y-135148320D02*
X129981960Y-133913880D01*
X133060300Y-135148320D02*
X131216400Y-135148320D01*
X134375000Y-133833620D02*
X133060300Y-135148320D01*
X134375000Y-131075000D02*
X134375000Y-132559674D01*
G04 #@! TO.N,/!OE*
X142075000Y-124275000D02*
X141624900Y-124275000D01*
X141624900Y-124275000D02*
X139827000Y-126072900D01*
X139827000Y-126072900D02*
X139827000Y-128793240D01*
X139491720Y-129783840D02*
X139491720Y-129128520D01*
X139827000Y-128793240D02*
X139491720Y-129128520D01*
X135025000Y-131075000D02*
X135025000Y-130225000D01*
X135025000Y-130225000D02*
X134600000Y-129800000D01*
G04 #@! TO.N,/U2CTRL1*
X128483120Y-118603520D02*
X128483120Y-118851442D01*
X128483120Y-118851442D02*
X129103120Y-119471442D01*
X128650000Y-125418580D02*
X128650000Y-126050000D01*
X129103120Y-124965460D02*
X128650000Y-125418580D01*
X129103120Y-119471442D02*
X129103120Y-124965460D01*
X128605040Y-114324640D02*
X128605040Y-115132880D01*
X129108198Y-117978442D02*
X128483120Y-118603520D01*
X129108198Y-115636038D02*
X129108198Y-117978442D01*
X128605040Y-115132880D02*
X129108198Y-115636038D01*
X129336800Y-110896400D02*
X129336800Y-113436400D01*
X129336800Y-113436400D02*
X128605040Y-114168160D01*
X129336800Y-110896400D02*
X129768600Y-110464600D01*
X129768600Y-110464600D02*
X129768600Y-107063000D01*
X129768600Y-107063000D02*
X130008000Y-106823600D01*
X129336800Y-110896400D02*
X129336800Y-110845800D01*
X129336800Y-110845800D02*
X128700600Y-110209600D01*
X135675000Y-129575000D02*
X133700000Y-127600000D01*
X133300000Y-127200000D02*
X133700000Y-127600000D01*
X130213200Y-127200000D02*
X133300000Y-127200000D01*
X128650000Y-126050000D02*
X129063200Y-126050000D01*
X129063200Y-126050000D02*
X130213200Y-127200000D01*
X135675000Y-131075000D02*
X135675000Y-129575000D01*
X128700600Y-110209600D02*
X128500600Y-110209600D01*
X128650000Y-126050000D02*
X128650000Y-125950000D01*
X142075000Y-123625000D02*
X141075000Y-123625000D01*
X141075000Y-123625000D02*
X140600000Y-124100000D01*
X128650000Y-125960000D02*
X128650000Y-126050000D01*
G04 #@! TO.N,/U2CTRL0*
X136337040Y-132377908D02*
X136333610Y-132377908D01*
X127814001Y-133269921D02*
X127814001Y-131942523D01*
X128518920Y-133974840D02*
X127814001Y-133269921D01*
X128518920Y-133974840D02*
X128518920Y-133974840D01*
X130088478Y-135544398D02*
X128518920Y-133974840D01*
X133167120Y-135544398D02*
X130088478Y-135544398D01*
X136333610Y-132377908D02*
X133167120Y-135544398D01*
X126034800Y-129936240D02*
X126034800Y-130163322D01*
X126034800Y-130163322D02*
X127814001Y-131942523D01*
X127791200Y-126762000D02*
X127791200Y-127013960D01*
X127791200Y-127013960D02*
X128031240Y-127254000D01*
X128483120Y-120603520D02*
X128483120Y-121404140D01*
X128000000Y-125517400D02*
X128000000Y-126050000D01*
X128747518Y-124769882D02*
X128000000Y-125517400D01*
X128747518Y-121668538D02*
X128747518Y-124769882D01*
X128483120Y-121404140D02*
X128747518Y-121668538D01*
X128599200Y-120263400D02*
X128599200Y-120547400D01*
X128599200Y-120513400D02*
X128599200Y-120263400D01*
X128605040Y-112994680D02*
X128605040Y-112324640D01*
X128351280Y-113248440D02*
X128605040Y-112994680D01*
X125303280Y-113248440D02*
X128351280Y-113248440D01*
X124307600Y-114244120D02*
X125303280Y-113248440D01*
X128573800Y-112293400D02*
X128573800Y-111505000D01*
X127584200Y-110515400D02*
X128573800Y-111505000D01*
X128006600Y-109559600D02*
X128700600Y-109559600D01*
X128006600Y-109559600D02*
X127584200Y-109982000D01*
X127584200Y-109982000D02*
X127584200Y-110515400D01*
X128573800Y-112293400D02*
X128605040Y-112324640D01*
X126211201Y-124647701D02*
X126211201Y-126685799D01*
X124307600Y-114244120D02*
X124307600Y-122744100D01*
X124307600Y-122744100D02*
X126211201Y-124647701D01*
X126135000Y-126762000D02*
X125500000Y-126762000D01*
X126211201Y-126685799D02*
X126135000Y-126762000D01*
X142075000Y-122975000D02*
X140227908Y-122975000D01*
X138689001Y-131803201D02*
X138114294Y-132377908D01*
X140227908Y-122975000D02*
X138689001Y-124513907D01*
X138689001Y-124513907D02*
X138689001Y-131803201D01*
X138114294Y-132377908D02*
X136337040Y-132377908D01*
X136337040Y-132377908D02*
X136325000Y-132377908D01*
X136325000Y-131075000D02*
X136325000Y-132377908D01*
X125500000Y-126762000D02*
X127791200Y-126762000D01*
X127791200Y-126762000D02*
X128000000Y-126553200D01*
X128000000Y-126553200D02*
X128000000Y-126050000D01*
G04 #@! TO.N,/U3CTRL1*
X132709680Y-114385600D02*
X133447280Y-114385600D01*
X131704080Y-108813600D02*
X133565600Y-108813600D01*
X131704080Y-108813600D02*
X130743960Y-109773720D01*
X134010400Y-113822480D02*
X134010400Y-111810800D01*
X133447280Y-114385600D02*
X134010400Y-113822480D01*
X132709680Y-114777280D02*
X133553200Y-115620800D01*
X133553200Y-117457220D02*
X133553200Y-115620800D01*
X133553200Y-117457220D02*
X132704600Y-118305820D01*
X132709680Y-114777280D02*
X132709680Y-114385600D01*
X132704600Y-118618760D02*
X132704600Y-118305820D01*
X132704600Y-118785400D02*
X134541400Y-120622200D01*
X134541400Y-120622200D02*
X134541400Y-122200000D01*
X132704600Y-118785400D02*
X132704600Y-118618760D01*
X133579800Y-108827800D02*
X133565600Y-108813600D01*
X132802400Y-125897600D02*
X132802400Y-125491200D01*
X134541400Y-122200000D02*
X134541400Y-123752200D01*
X134541400Y-123752200D02*
X132802400Y-125491200D01*
X134541400Y-122200000D02*
X135200000Y-122200000D01*
X135200000Y-122200000D02*
X135600000Y-122600000D01*
X135600000Y-122600000D02*
X139900000Y-122600000D01*
X139900000Y-122600000D02*
X140175000Y-122325000D01*
X140175000Y-122325000D02*
X142075000Y-122325000D01*
X132802400Y-125897600D02*
X132650000Y-126050000D01*
X133579800Y-108827800D02*
X133579800Y-108812400D01*
X133579800Y-108812400D02*
X134135002Y-108257198D01*
X134135002Y-108257198D02*
X134135002Y-106823600D01*
X134135002Y-106823600D02*
X134008000Y-106823600D01*
X133108598Y-126050000D02*
X132650000Y-126050000D01*
X136975000Y-131075000D02*
X136975000Y-129916402D01*
X136975000Y-129916402D02*
X133108598Y-126050000D01*
X134008000Y-106823600D02*
X134008000Y-105661600D01*
X134008000Y-105661600D02*
X133970000Y-105623600D01*
X133491800Y-108739800D02*
X133579800Y-108827800D01*
G04 #@! TO.N,/U3CTRL0*
X132704600Y-120618760D02*
X133321300Y-120618760D01*
X133321300Y-120618760D02*
X133715760Y-121013220D01*
X132709680Y-112385600D02*
X132709680Y-113093740D01*
X130909060Y-113238280D02*
X129463800Y-114683540D01*
X132565140Y-113238280D02*
X130909060Y-113238280D01*
X132709680Y-113093740D02*
X132565140Y-113238280D01*
X132105400Y-111099600D02*
X132110480Y-111099600D01*
X132812800Y-109477800D02*
X132105400Y-110185200D01*
X132105400Y-110185200D02*
X132105400Y-111099600D01*
X133579800Y-109477800D02*
X132812800Y-109477800D01*
X132709680Y-111698800D02*
X132709680Y-112385600D01*
X132110480Y-111099600D02*
X132709680Y-111698800D01*
X129463800Y-121036613D02*
X130347187Y-121920000D01*
X129463800Y-114683540D02*
X129463800Y-121036613D01*
X129463800Y-114681000D02*
X129463800Y-114683540D01*
X130360309Y-121933122D02*
X129900000Y-122393431D01*
X129900000Y-122393431D02*
X129900000Y-125567202D01*
X129900000Y-125567202D02*
X131132798Y-126800000D01*
X131132798Y-126800000D02*
X131753200Y-126800000D01*
X131753200Y-126800000D02*
X132000000Y-126553200D01*
X132000000Y-126553200D02*
X132000000Y-126050000D01*
X139500000Y-120500000D02*
X139500000Y-121662000D01*
X137625000Y-131075000D02*
X137625000Y-128125000D01*
X137625000Y-128125000D02*
X134400000Y-124900000D01*
X139500000Y-121662000D02*
X139462000Y-121700000D01*
X142075000Y-121675000D02*
X139487000Y-121675000D01*
X139487000Y-121675000D02*
X139462000Y-121700000D01*
G04 #@! TO.N,/U1CTRL*
X119024381Y-136475619D02*
X119400000Y-136100000D01*
X119400000Y-136100000D02*
X119400000Y-135400000D01*
X118098777Y-136475619D02*
X119024381Y-136475619D01*
X118336777Y-134625619D02*
X118625619Y-134625619D01*
X118625619Y-134625619D02*
X119400000Y-135400000D01*
X142075000Y-121025000D02*
X143575000Y-121025000D01*
X143575000Y-121025000D02*
X143600000Y-121000000D01*
X138275000Y-131075000D02*
X138275000Y-127175000D01*
X138275000Y-127175000D02*
X137700000Y-126600000D01*
G04 #@! TO.N,/LED_EN2*
X128038000Y-135038000D02*
X128038000Y-134854318D01*
X128038000Y-134854318D02*
X125257681Y-132073999D01*
X125257681Y-132073999D02*
X121488357Y-132073999D01*
X128100000Y-135038000D02*
X128038000Y-135038000D01*
X137625000Y-136925000D02*
X137625000Y-136196800D01*
X128138000Y-135038000D02*
X128100000Y-135038000D01*
X137625000Y-136196800D02*
X136406200Y-134978000D01*
X136406200Y-134978000D02*
X134322000Y-134978000D01*
X134322000Y-134978000D02*
X133400000Y-135900000D01*
X133400000Y-135900000D02*
X129000000Y-135900000D01*
X129000000Y-135900000D02*
X128138000Y-135038000D01*
X118336777Y-129625619D02*
X119039977Y-129625619D01*
X119039977Y-129625619D02*
X121488357Y-132073999D01*
X117300000Y-126090596D02*
X117300000Y-129292042D01*
X117300000Y-129292042D02*
X117633577Y-129625619D01*
X117633577Y-129625619D02*
X118336777Y-129625619D01*
X118336777Y-124625619D02*
X118336777Y-125053819D01*
X118336777Y-125053819D02*
X117300000Y-126090596D01*
G04 #@! TO.N,/U1VC1*
X124404120Y-167830500D02*
X123990100Y-167830500D01*
X123990100Y-167830500D02*
X123596400Y-168224200D01*
X121700000Y-168500000D02*
X123320600Y-168500000D01*
X123320600Y-168500000D02*
X123596400Y-168224200D01*
X116336777Y-133198619D02*
X113435381Y-133198619D01*
X113435381Y-133198619D02*
X110871000Y-135763000D01*
X110871000Y-135763000D02*
X110871000Y-150749000D01*
X116336777Y-124625619D02*
X116128800Y-124833596D01*
X116128800Y-124833596D02*
X116128800Y-126517400D01*
X115392200Y-131470400D02*
X116336777Y-132414977D01*
X116336777Y-132414977D02*
X116336777Y-133198619D01*
G04 #@! TO.N,/U1VC2*
X116336777Y-134625619D02*
X116143501Y-134625619D01*
X116143501Y-134625619D02*
X112974120Y-137795000D01*
X112974120Y-137795000D02*
X112974120Y-152643840D01*
X116408200Y-168275000D02*
X115478560Y-168275000D01*
X115478560Y-168275000D02*
X115427760Y-168325800D01*
X118300000Y-168500000D02*
X116633200Y-168500000D01*
X116633200Y-168500000D02*
X116408200Y-168275000D01*
X117400000Y-131700000D02*
X116336777Y-130636777D01*
X116336777Y-130636777D02*
X116336777Y-129625619D01*
X117400000Y-134265596D02*
X117400000Y-131700000D01*
X116336777Y-134625619D02*
X117039977Y-134625619D01*
X117039977Y-134625619D02*
X117400000Y-134265596D01*
X116336777Y-134625619D02*
X116061777Y-134625619D01*
G04 #@! TD*
M02*
