G04 #@! TF.GenerationSoftware,KiCad,Pcbnew,6.0.10-86aedd382b~118~ubuntu22.04.1*
G04 #@! TF.CreationDate,2023-01-31T23:44:09-05:00*
G04 #@! TF.ProjectId,operacake,6f706572-6163-4616-9b65-2e6b69636164,rev?*
G04 #@! TF.SameCoordinates,Original*
G04 #@! TF.FileFunction,Paste,Top*
G04 #@! TF.FilePolarity,Positive*
%FSLAX46Y46*%
G04 Gerber Fmt 4.6, Leading zero omitted, Abs format (unit mm)*
G04 Created by KiCad (PCBNEW 6.0.10-86aedd382b~118~ubuntu22.04.1) date 2023-01-31 23:44:09*
%MOMM*%
%LPD*%
G01*
G04 APERTURE LIST*
%ADD10R,0.656336X0.656336*%
%ADD11R,0.386080X0.424688*%
%ADD12R,0.424688X0.386080*%
%ADD13O,0.912000X0.243200*%
%ADD14O,0.243200X0.912000*%
%ADD15R,0.380000X0.380000*%
%ADD16R,0.577600X1.824000*%
%ADD17R,0.608000X0.190000*%
%ADD18R,0.243200X0.798000*%
%ADD19R,0.798000X0.243200*%
%ADD20R,0.760000X0.342000*%
%ADD21R,0.456000X0.319200*%
%ADD22R,0.342000X0.760000*%
%ADD23R,0.319200X0.456000*%
G04 APERTURE END LIST*
D10*
G04 #@! TO.C,DBG1*
X177537000Y-154675000D03*
X176013000Y-154675000D03*
G04 #@! TD*
G04 #@! TO.C,DBY1*
X177537000Y-155900000D03*
X176013000Y-155900000D03*
G04 #@! TD*
G04 #@! TO.C,DBG4*
X177537000Y-117550000D03*
X176013000Y-117550000D03*
G04 #@! TD*
G04 #@! TO.C,DBY4*
X177537000Y-118775000D03*
X176013000Y-118775000D03*
G04 #@! TD*
G04 #@! TO.C,DBG3*
X177537000Y-129925000D03*
X176013000Y-129925000D03*
G04 #@! TD*
G04 #@! TO.C,DBY3*
X177537000Y-131150000D03*
X176013000Y-131150000D03*
G04 #@! TD*
G04 #@! TO.C,DAY4*
X62463000Y-118775000D03*
X63987000Y-118775000D03*
G04 #@! TD*
G04 #@! TO.C,DAG4*
X62463000Y-117550000D03*
X63987000Y-117550000D03*
G04 #@! TD*
D11*
G04 #@! TO.C,C1*
X66966600Y-136750000D03*
X68033400Y-136750000D03*
G04 #@! TD*
G04 #@! TO.C,C2*
X66966600Y-112000000D03*
X68033400Y-112000000D03*
G04 #@! TD*
G04 #@! TO.C,C3*
X168033400Y-136750000D03*
X166966600Y-136750000D03*
G04 #@! TD*
G04 #@! TO.C,C4*
X173033400Y-112000000D03*
X171966600Y-112000000D03*
G04 #@! TD*
G04 #@! TO.C,C5*
X66966600Y-149125000D03*
X68033400Y-149125000D03*
G04 #@! TD*
G04 #@! TO.C,C6*
X66966600Y-124375000D03*
X68033400Y-124375000D03*
G04 #@! TD*
G04 #@! TO.C,C7*
X168033400Y-149525000D03*
X166966600Y-149525000D03*
G04 #@! TD*
G04 #@! TO.C,C8*
X173033400Y-124375000D03*
X171966600Y-124375000D03*
G04 #@! TD*
G04 #@! TO.C,C9*
X114559080Y-165887400D03*
X115625880Y-165887400D03*
G04 #@! TD*
G04 #@! TO.C,C10*
X123337320Y-165364160D03*
X124404120Y-165364160D03*
G04 #@! TD*
G04 #@! TO.C,C11*
X66966600Y-161500000D03*
X68033400Y-161500000D03*
G04 #@! TD*
G04 #@! TO.C,C12*
X173008400Y-161500000D03*
X171941600Y-161500000D03*
G04 #@! TD*
D12*
G04 #@! TO.C,D1*
X69100000Y-135666600D03*
X69100000Y-136733400D03*
G04 #@! TD*
G04 #@! TO.C,D2*
X69100000Y-110966600D03*
X69100000Y-112033400D03*
G04 #@! TD*
G04 #@! TO.C,D3*
X165900000Y-135766600D03*
X165900000Y-136833400D03*
G04 #@! TD*
G04 #@! TO.C,D4*
X170900000Y-110966600D03*
X170900000Y-112033400D03*
G04 #@! TD*
G04 #@! TO.C,D5*
X69100000Y-148066600D03*
X69100000Y-149133400D03*
G04 #@! TD*
G04 #@! TO.C,D6*
X69100000Y-123366600D03*
X69100000Y-124433400D03*
G04 #@! TD*
G04 #@! TO.C,D7*
X165900000Y-148466600D03*
X165900000Y-149533400D03*
G04 #@! TD*
G04 #@! TO.C,D8*
X170900000Y-123366600D03*
X170900000Y-124433400D03*
G04 #@! TD*
G04 #@! TO.C,D9*
X69100000Y-160466600D03*
X69100000Y-161533400D03*
G04 #@! TD*
G04 #@! TO.C,D10*
X170900000Y-160466600D03*
X170900000Y-161533400D03*
G04 #@! TD*
D10*
G04 #@! TO.C,DA0*
X62463000Y-167050000D03*
X63987000Y-167050000D03*
G04 #@! TD*
G04 #@! TO.C,DAG1*
X62463000Y-154675000D03*
X63987000Y-154675000D03*
G04 #@! TD*
G04 #@! TO.C,DAG2*
X62463000Y-142300000D03*
X63987000Y-142300000D03*
G04 #@! TD*
G04 #@! TO.C,DAG3*
X62463000Y-129925000D03*
X63987000Y-129925000D03*
G04 #@! TD*
G04 #@! TO.C,DAY1*
X62463000Y-155900000D03*
X63987000Y-155900000D03*
G04 #@! TD*
G04 #@! TO.C,DAY2*
X62463000Y-143525000D03*
X63987000Y-143525000D03*
G04 #@! TD*
G04 #@! TO.C,DAY3*
X62463000Y-131150000D03*
X63987000Y-131150000D03*
G04 #@! TD*
G04 #@! TO.C,DB0*
X177537000Y-167050000D03*
X176013000Y-167050000D03*
G04 #@! TD*
G04 #@! TO.C,DBG2*
X177537000Y-142300000D03*
X176013000Y-142300000D03*
G04 #@! TD*
G04 #@! TO.C,DBY2*
X177537000Y-143525000D03*
X176013000Y-143525000D03*
G04 #@! TD*
G04 #@! TO.C,R1*
X112318800Y-129286000D03*
X112318800Y-130810000D03*
G04 #@! TD*
G04 #@! TO.C,R2*
X112496600Y-124206000D03*
X112496600Y-125730000D03*
G04 #@! TD*
G04 #@! TO.C,R3*
X110490000Y-124231400D03*
X110490000Y-122707400D03*
G04 #@! TD*
G04 #@! TO.C,R4*
X110464600Y-129336800D03*
X110464600Y-127812800D03*
G04 #@! TD*
G04 #@! TO.C,R5*
X134500000Y-139738000D03*
X134500000Y-141262000D03*
G04 #@! TD*
G04 #@! TO.C,R6*
X136500000Y-139738000D03*
X136500000Y-141262000D03*
G04 #@! TD*
G04 #@! TO.C,R7*
X134762000Y-166100000D03*
X133238000Y-166100000D03*
G04 #@! TD*
G04 #@! TO.C,R8*
X140038000Y-168600000D03*
X141562000Y-168600000D03*
G04 #@! TD*
G04 #@! TO.C,R9*
X132262000Y-139500000D03*
X130738000Y-139500000D03*
G04 #@! TD*
G04 #@! TO.C,R10*
X131505960Y-133913880D03*
X129981960Y-133913880D03*
G04 #@! TD*
G04 #@! TO.C,R11*
X141351000Y-128793240D03*
X139827000Y-128793240D03*
G04 #@! TD*
G04 #@! TO.C,R12*
X131532000Y-106823600D03*
X130008000Y-106823600D03*
G04 #@! TD*
G04 #@! TO.C,R13*
X125500000Y-125238000D03*
X125500000Y-126762000D03*
G04 #@! TD*
G04 #@! TO.C,R14*
X135532000Y-106823600D03*
X134008000Y-106823600D03*
G04 #@! TD*
G04 #@! TO.C,R15*
X137938000Y-121700000D03*
X139462000Y-121700000D03*
G04 #@! TD*
G04 #@! TO.C,R16*
X116574777Y-136475619D03*
X118098777Y-136475619D03*
G04 #@! TD*
G04 #@! TO.C,R17*
X150200000Y-148838000D03*
X150200000Y-150362000D03*
G04 #@! TD*
G04 #@! TO.C,R18*
X152700000Y-148838000D03*
X152700000Y-150362000D03*
G04 #@! TD*
G04 #@! TO.C,R19*
X155200000Y-148838000D03*
X155200000Y-150362000D03*
G04 #@! TD*
G04 #@! TO.C,R20*
X128100000Y-136562000D03*
X128100000Y-135038000D03*
G04 #@! TD*
D13*
G04 #@! TO.C,U1*
X121700000Y-169500000D03*
X121700000Y-169000000D03*
X121700000Y-168500000D03*
D14*
X120500000Y-167300000D03*
X120000000Y-167300000D03*
X119500000Y-167300000D03*
D13*
X118300000Y-168500000D03*
X118300000Y-169000000D03*
X118300000Y-169500000D03*
D14*
X119500000Y-170700000D03*
X120000000Y-170700000D03*
X120500000Y-170700000D03*
D15*
X120250000Y-169250000D03*
X119750000Y-169250000D03*
X120250000Y-168750000D03*
X119750000Y-168750000D03*
G04 #@! TD*
D16*
G04 #@! TO.C,U2*
X83000000Y-130562500D03*
D17*
X82000000Y-129562500D03*
X82000000Y-130062500D03*
X82000000Y-130562500D03*
X82000000Y-131062500D03*
X82000000Y-131562500D03*
X84000000Y-131562500D03*
X84000000Y-131062500D03*
X84000000Y-130562500D03*
X84000000Y-130062500D03*
X84000000Y-129562500D03*
G04 #@! TD*
D16*
G04 #@! TO.C,U3*
X157000000Y-130562500D03*
D17*
X158000000Y-131562500D03*
X158000000Y-131062500D03*
X158000000Y-130562500D03*
X158000000Y-130062500D03*
X158000000Y-129562500D03*
X156000000Y-129562500D03*
X156000000Y-130062500D03*
X156000000Y-130562500D03*
X156000000Y-131062500D03*
X156000000Y-131562500D03*
G04 #@! TD*
D18*
G04 #@! TO.C,U4*
X133725000Y-136925000D03*
X134375000Y-136925000D03*
X135025000Y-136925000D03*
X135675000Y-136925000D03*
X136325000Y-136925000D03*
X136975000Y-136925000D03*
X137625000Y-136925000D03*
X138275000Y-136925000D03*
X138275000Y-131075000D03*
X137625000Y-131075000D03*
X136975000Y-131075000D03*
X136325000Y-131075000D03*
X135675000Y-131075000D03*
X135025000Y-131075000D03*
X134375000Y-131075000D03*
X133725000Y-131075000D03*
G04 #@! TD*
D19*
G04 #@! TO.C,U5*
X147925000Y-124925000D03*
X147925000Y-124275000D03*
X147925000Y-123625000D03*
X147925000Y-122975000D03*
X147925000Y-122325000D03*
X147925000Y-121675000D03*
X147925000Y-121025000D03*
X147925000Y-120375000D03*
X147925000Y-119725000D03*
X147925000Y-119075000D03*
X142075000Y-119075000D03*
X142075000Y-119725000D03*
X142075000Y-120375000D03*
X142075000Y-121025000D03*
X142075000Y-121675000D03*
X142075000Y-122325000D03*
X142075000Y-122975000D03*
X142075000Y-123625000D03*
X142075000Y-124275000D03*
X142075000Y-124925000D03*
G04 #@! TD*
D20*
G04 #@! TO.C,U6*
X118336777Y-129625619D03*
X118336777Y-128975619D03*
X118336777Y-128325619D03*
X116336777Y-128325619D03*
X116336777Y-128975619D03*
X116336777Y-129625619D03*
G04 #@! TD*
G04 #@! TO.C,U7*
X118336777Y-124625619D03*
X118336777Y-123975619D03*
X118336777Y-123325619D03*
X116336777Y-123325619D03*
X116336777Y-123975619D03*
X116336777Y-124625619D03*
G04 #@! TD*
D21*
G04 #@! TO.C,U8*
X128700600Y-110209600D03*
X128700600Y-109559600D03*
X128700600Y-108909600D03*
X126800600Y-108909600D03*
X126800600Y-110209600D03*
G04 #@! TD*
G04 #@! TO.C,U9*
X133579800Y-108827800D03*
X133579800Y-109477800D03*
X133579800Y-110127800D03*
X135479800Y-110127800D03*
X135479800Y-108827800D03*
G04 #@! TD*
D22*
G04 #@! TO.C,U10*
X128605040Y-112324640D03*
X127955040Y-112324640D03*
X127305040Y-112324640D03*
X127305040Y-114324640D03*
X127955040Y-114324640D03*
X128605040Y-114324640D03*
G04 #@! TD*
G04 #@! TO.C,U11*
X132709680Y-112385600D03*
X132059680Y-112385600D03*
X131409680Y-112385600D03*
X131409680Y-114385600D03*
X132059680Y-114385600D03*
X132709680Y-114385600D03*
G04 #@! TD*
G04 #@! TO.C,U12*
X128483120Y-118603520D03*
X127833120Y-118603520D03*
X127183120Y-118603520D03*
X127183120Y-120603520D03*
X127833120Y-120603520D03*
X128483120Y-120603520D03*
G04 #@! TD*
G04 #@! TO.C,U13*
X132704600Y-118618760D03*
X132054600Y-118618760D03*
X131404600Y-118618760D03*
X131404600Y-120618760D03*
X132054600Y-120618760D03*
X132704600Y-120618760D03*
G04 #@! TD*
D23*
G04 #@! TO.C,U14*
X128650000Y-126050000D03*
X128000000Y-126050000D03*
X127350000Y-126050000D03*
X127350000Y-127950000D03*
X128650000Y-127950000D03*
G04 #@! TD*
G04 #@! TO.C,U15*
X132650000Y-126050000D03*
X132000000Y-126050000D03*
X131350000Y-126050000D03*
X131350000Y-127950000D03*
X132650000Y-127950000D03*
G04 #@! TD*
D20*
G04 #@! TO.C,U16*
X118336777Y-134625619D03*
X118336777Y-133975619D03*
X118336777Y-133325619D03*
X116336777Y-133325619D03*
X116336777Y-133975619D03*
X116336777Y-134625619D03*
G04 #@! TD*
D12*
G04 #@! TO.C,C13*
X85344000Y-133121400D03*
X85344000Y-132054600D03*
G04 #@! TD*
G04 #@! TO.C,C14*
X80111600Y-132257800D03*
X80111600Y-131191000D03*
G04 #@! TD*
G04 #@! TO.C,C15*
X80086200Y-129997200D03*
X80086200Y-128930400D03*
G04 #@! TD*
D11*
G04 #@! TO.C,C16*
X85064600Y-128955800D03*
X86131400Y-128955800D03*
G04 #@! TD*
D12*
G04 #@! TO.C,C17*
X116408200Y-168275000D03*
X116408200Y-167208200D03*
G04 #@! TD*
G04 #@! TO.C,C18*
X123596400Y-168224200D03*
X123596400Y-167157400D03*
G04 #@! TD*
G04 #@! TO.C,C19*
X154137360Y-128778000D03*
X154137360Y-129844800D03*
G04 #@! TD*
G04 #@! TO.C,C20*
X159613600Y-128930400D03*
X159613600Y-129997200D03*
G04 #@! TD*
G04 #@! TO.C,C21*
X159613600Y-131191000D03*
X159613600Y-132257800D03*
G04 #@! TD*
G04 #@! TO.C,C22*
X154152600Y-131262120D03*
X154152600Y-132328920D03*
G04 #@! TD*
G04 #@! TO.C,C23*
X113873280Y-128793240D03*
X113873280Y-129860040D03*
G04 #@! TD*
G04 #@! TO.C,C24*
X124411740Y-110208060D03*
X124411740Y-111274860D03*
G04 #@! TD*
D11*
G04 #@! TO.C,C25*
X127889000Y-116852700D03*
X126822200Y-116852700D03*
G04 #@! TD*
G04 #@! TO.C,C26*
X127833120Y-123184920D03*
X126766320Y-123184920D03*
G04 #@! TD*
G04 #@! TO.C,C27*
X128701800Y-130302000D03*
X127635000Y-130302000D03*
G04 #@! TD*
D12*
G04 #@! TO.C,C28*
X113957100Y-124259340D03*
X113957100Y-123192540D03*
G04 #@! TD*
G04 #@! TO.C,C29*
X137807700Y-108821220D03*
X137807700Y-107754420D03*
G04 #@! TD*
D11*
G04 #@! TO.C,C30*
X132298440Y-117302280D03*
X131231640Y-117302280D03*
G04 #@! TD*
G04 #@! TO.C,C31*
X131993640Y-123144280D03*
X133060440Y-123144280D03*
G04 #@! TD*
G04 #@! TO.C,C32*
X132557520Y-129981960D03*
X131490720Y-129981960D03*
G04 #@! TD*
D12*
G04 #@! TO.C,C33*
X113672620Y-134157720D03*
X113672620Y-135224520D03*
G04 #@! TD*
D11*
G04 #@! TO.C,C34*
X132572760Y-131389120D03*
X131505960Y-131389120D03*
G04 #@! TD*
G04 #@! TO.C,C35*
X141000480Y-126499620D03*
X142067280Y-126499620D03*
G04 #@! TD*
M02*
