M48
; DRILL file {KiCad 6.0.10-86aedd382b~118~ubuntu22.04.1} date Tue 31 Jan 2023 11:44:18 PM EST
; FORMAT={-:-/ absolute / inch / decimal}
; #@! TF.CreationDate,2023-01-31T23:44:18-05:00
; #@! TF.GenerationSoftware,Kicad,Pcbnew,6.0.10-86aedd382b~118~ubuntu22.04.1
; #@! TF.FileFunction,MixedPlating,1,4
FMAT,2
INCH
; #@! TA.AperFunction,Plated,PTH,ComponentDrill
T1C0.0100
; #@! TA.AperFunction,Plated,PTH,ViaDrill
T2C0.0130
; #@! TA.AperFunction,Plated,PTH,ComponentDrill
T3C0.0150
; #@! TA.AperFunction,Plated,PTH,ViaDrill
T4C0.0160
; #@! TA.AperFunction,Plated,PTH,ViaDrill
T5C0.0250
; #@! TA.AperFunction,Plated,PTH,ComponentDrill
T6C0.0400
; #@! TA.AperFunction,Plated,PTH,ComponentDrill
T7C0.1260
%
G90
G05
T1
X3.2677Y-5.1048
X3.2677Y-5.1284
X3.2677Y-5.1521
X3.2677Y-5.1757
X4.7146Y-6.6437
X4.7146Y-6.6634
X4.7343Y-6.6437
X4.7343Y-6.6634
X6.1811Y-5.1048
X6.1811Y-5.1284
X6.1811Y-5.1521
X6.1811Y-5.1757
T2
X2.4232Y-4.6516
X2.4232Y-5.1398
X2.4232Y-5.626
X2.4232Y-6.1142
X4.27Y-6.09
X4.365Y-5.935
X4.5444Y-6.627
X4.5906Y-5.4173
X4.7008Y-5.3307
X5.0433Y-5.4213
X5.8661Y-5.0394
X5.8898Y-5.0118
X5.9134Y-4.9843
X5.937Y-4.9567
X5.9606Y-4.9291
X5.9893Y-5.428
X6.3424Y-5.1608
X7.0256Y-4.6535
X7.0256Y-5.1378
X7.0256Y-5.626
X7.0256Y-6.1142
T3
X2.4331Y-4.0945
X2.4331Y-6.7323
X2.4587Y-4.0335
X2.4587Y-4.1555
X2.4587Y-6.6713
X2.4587Y-6.7933
X2.4614Y-4.2323
X2.4614Y-4.2717
X2.4614Y-4.311
X2.4614Y-4.5079
X2.4614Y-4.5472
X2.4614Y-4.5866
X2.4614Y-4.7195
X2.4614Y-4.7589
X2.4614Y-4.7982
X2.4614Y-4.9951
X2.4614Y-5.0344
X2.4614Y-5.0738
X2.4614Y-5.2067
X2.4614Y-5.2461
X2.4614Y-5.2854
X2.4614Y-5.4823
X2.4614Y-5.5217
X2.4614Y-5.561
X2.4614Y-5.6939
X2.4614Y-5.7333
X2.4614Y-5.7726
X2.4614Y-5.9695
X2.4614Y-6.0089
X2.4614Y-6.0482
X2.4614Y-6.1811
X2.4614Y-6.2205
X2.4614Y-6.2598
X2.4614Y-6.4567
X2.4614Y-6.4961
X2.4614Y-6.5354
X2.5008Y-4.2323
X2.5008Y-4.2717
X2.5008Y-4.311
X2.5008Y-4.5079
X2.5008Y-4.5472
X2.5008Y-4.5866
X2.5008Y-4.7195
X2.5008Y-4.7589
X2.5008Y-4.7982
X2.5008Y-4.9951
X2.5008Y-5.0344
X2.5008Y-5.0738
X2.5008Y-5.2067
X2.5008Y-5.2461
X2.5008Y-5.2854
X2.5008Y-5.4823
X2.5008Y-5.5217
X2.5008Y-5.561
X2.5008Y-5.6939
X2.5008Y-5.7333
X2.5008Y-5.7726
X2.5008Y-5.9695
X2.5008Y-6.0089
X2.5008Y-6.0482
X2.5008Y-6.1811
X2.5008Y-6.2205
X2.5008Y-6.2598
X2.5008Y-6.4567
X2.5008Y-6.4961
X2.5008Y-6.5354
X2.5197Y-4.0079
X2.5197Y-4.1811
X2.5197Y-6.6457
X2.5197Y-6.8189
X2.5402Y-4.2323
X2.5402Y-4.2717
X2.5402Y-4.311
X2.5402Y-4.5079
X2.5402Y-4.5472
X2.5402Y-4.5866
X2.5402Y-4.7195
X2.5402Y-4.7589
X2.5402Y-4.7982
X2.5402Y-4.9951
X2.5402Y-5.0344
X2.5402Y-5.0738
X2.5402Y-5.2067
X2.5402Y-5.2461
X2.5402Y-5.2854
X2.5402Y-5.4823
X2.5402Y-5.5217
X2.5402Y-5.561
X2.5402Y-5.6939
X2.5402Y-5.7333
X2.5402Y-5.7726
X2.5402Y-5.9695
X2.5402Y-6.0089
X2.5402Y-6.0482
X2.5402Y-6.1811
X2.5402Y-6.2205
X2.5402Y-6.2598
X2.5402Y-6.4567
X2.5402Y-6.4961
X2.5402Y-6.5354
X2.5807Y-4.0335
X2.5807Y-4.1555
X2.5807Y-6.6713
X2.5807Y-6.7933
X2.6063Y-4.0945
X2.6063Y-6.7323
X4.874Y-4.0945
X4.8996Y-4.0335
X4.8996Y-4.1555
X4.9606Y-4.0079
X4.9606Y-4.1811
X5.0217Y-4.0335
X5.0217Y-4.1555
X5.0472Y-4.0945
X5.0709Y-5.6693
X5.0965Y-5.6083
X5.0965Y-5.7303
X5.1575Y-5.5827
X5.1575Y-5.7559
X5.2185Y-5.6083
X5.2185Y-5.7303
X5.2441Y-5.6693
X6.8425Y-4.0945
X6.8425Y-6.7323
X6.8681Y-4.0335
X6.8681Y-4.1555
X6.8681Y-6.6713
X6.8681Y-6.7933
X6.9087Y-4.2323
X6.9087Y-4.2717
X6.9087Y-4.311
X6.9087Y-4.5079
X6.9087Y-4.5472
X6.9087Y-4.5866
X6.9087Y-4.7195
X6.9087Y-4.7589
X6.9087Y-4.7982
X6.9087Y-4.9951
X6.9087Y-5.0344
X6.9087Y-5.0738
X6.9087Y-5.2067
X6.9087Y-5.2461
X6.9087Y-5.2854
X6.9087Y-5.4823
X6.9087Y-5.5217
X6.9087Y-5.561
X6.9087Y-5.6939
X6.9087Y-5.7333
X6.9087Y-5.7726
X6.9087Y-5.9695
X6.9087Y-6.0089
X6.9087Y-6.0482
X6.9087Y-6.1811
X6.9087Y-6.2205
X6.9087Y-6.2598
X6.9087Y-6.4567
X6.9087Y-6.4961
X6.9087Y-6.5354
X6.9291Y-4.0079
X6.9291Y-4.1811
X6.9291Y-6.6457
X6.9291Y-6.8189
X6.948Y-4.2323
X6.948Y-4.2717
X6.948Y-4.311
X6.948Y-4.5079
X6.948Y-4.5472
X6.948Y-4.5866
X6.948Y-4.7195
X6.948Y-4.7589
X6.948Y-4.7982
X6.948Y-4.9951
X6.948Y-5.0344
X6.948Y-5.0738
X6.948Y-5.2067
X6.948Y-5.2461
X6.948Y-5.2854
X6.948Y-5.4823
X6.948Y-5.5217
X6.948Y-5.561
X6.948Y-5.6939
X6.948Y-5.7333
X6.948Y-5.7726
X6.948Y-5.9695
X6.948Y-6.0089
X6.948Y-6.0482
X6.948Y-6.1811
X6.948Y-6.2205
X6.948Y-6.2598
X6.948Y-6.4567
X6.948Y-6.4961
X6.948Y-6.5354
X6.9874Y-4.2323
X6.9874Y-4.2717
X6.9874Y-4.311
X6.9874Y-4.5079
X6.9874Y-4.5472
X6.9874Y-4.5866
X6.9874Y-4.7195
X6.9874Y-4.7589
X6.9874Y-4.7982
X6.9874Y-4.9951
X6.9874Y-5.0344
X6.9874Y-5.0738
X6.9874Y-5.2067
X6.9874Y-5.2461
X6.9874Y-5.2854
X6.9874Y-5.4823
X6.9874Y-5.5217
X6.9874Y-5.561
X6.9874Y-5.6939
X6.9874Y-5.7333
X6.9874Y-5.7726
X6.9874Y-5.9695
X6.9874Y-6.0089
X6.9874Y-6.0482
X6.9874Y-6.1811
X6.9874Y-6.2205
X6.9874Y-6.2598
X6.9874Y-6.4567
X6.9874Y-6.4961
X6.9874Y-6.5354
X6.9902Y-4.0335
X6.9902Y-4.1555
X6.9902Y-6.6713
X6.9902Y-6.7933
X7.0157Y-4.0945
X7.0157Y-6.7323
T4
X2.4213Y-6.6142
X2.565Y-6.5787
X2.6024Y-5.5866
X2.6024Y-5.6693
X2.6024Y-6.0709
X2.6024Y-6.1575
X2.6319Y-4.6102
X2.6319Y-4.6969
X2.6319Y-5.0984
X2.6319Y-5.1969
X3.0Y-5.2992
X3.1142Y-5.1181
X3.3465Y-4.9843
X3.3898Y-5.4803
X4.1732Y-5.3937
X4.1732Y-5.5118
X4.2047Y-5.4409
X4.2582Y-5.3087
X4.2992Y-5.1927
X4.2992Y-5.3858
X4.4213Y-4.8307
X4.4424Y-5.2186
X4.4478Y-6.0096
X4.4488Y-5.0315
X4.496Y-4.945
X4.5315Y-5.0315
X4.543Y-5.176
X4.572Y-4.981
X4.863Y-4.649
X4.863Y-4.784
X4.8898Y-5.0394
X4.8937Y-4.9291
X4.8978Y-6.6075
X4.9488Y-6.2874
X4.9568Y-4.7651
X4.962Y-5.1156
X4.9696Y-4.4984
X5.032Y-5.1946
X5.0406Y-5.01
X5.0984Y-5.4921
X5.1181Y-5.0394
X5.1323Y-4.8005
X5.1349Y-4.5426
X5.1397Y-4.8465
X5.1474Y-4.3218
X5.1799Y-4.1584
X5.1969Y-6.5394
X5.248Y-5.4488
X5.2638Y-5.0236
X5.2644Y-4.7643
X5.2744Y-4.1584
X5.276Y-4.402
X5.2904Y-5.2189
X5.2913Y-4.9173
X5.2913Y-5.4528
X5.2953Y-4.5984
X5.2992Y-5.1102
X5.3346Y-5.437
X5.3374Y-4.1584
X5.3425Y-5.3425
X5.3622Y-4.5433
X5.3661Y-5.4567
X5.374Y-5.6102
X5.3819Y-4.7913
X5.4213Y-4.9843
X5.4252Y-5.4822
X5.4918Y-5.1096
X5.4921Y-4.7441
X5.5354Y-4.8858
X5.5512Y-4.6457
X5.6181Y-6.6378
X5.6322Y-5.1389
X5.6535Y-4.7638
X5.6535Y-4.9094
X5.6577Y-5.1712
X5.6832Y-5.2041
X5.7087Y-5.2362
X5.7598Y-4.5945
X5.8661Y-5.8583
X5.8896Y-4.5984
X5.9511Y-4.5984
X5.9685Y-4.5433
X5.9803Y-4.7323
X6.0512Y-4.5984
X6.1457Y-4.6535
X6.5669Y-5.1024
X6.6142Y-5.189
X6.6142Y-6.063
X6.6142Y-6.1811
X6.688Y-5.4892
X6.7598Y-5.4921
X6.8386Y-5.063
X6.8465Y-4.6063
X6.8465Y-4.6969
X6.8839Y-6.5787
X7.0276Y-6.6142
T5
X2.7205Y-4.3268
X2.7205Y-4.815
X2.7205Y-5.2992
X2.7205Y-5.7874
X2.7205Y-6.2756
X3.122Y-5.239
X3.134Y-5.036
X3.358Y-5.283
X3.418Y-5.041
X4.4397Y-5.3604
X4.4834Y-5.156
X4.5248Y-5.2844
X4.5273Y-5.0766
X4.5285Y-4.8909
X4.5294Y-4.8186
X4.6063Y-6.6744
X4.6278Y-6.5724
X4.6589Y-4.8179
X4.6589Y-5.0148
X4.7062Y-4.8809
X4.7062Y-5.0778
X4.7062Y-5.2471
X4.7244Y-6.5354
X4.7244Y-6.7717
X4.82Y-6.5768
X4.8426Y-6.6742
X4.9428Y-4.3929
X4.9446Y-4.3392
X4.9478Y-4.8392
X4.9577Y-4.5657
X4.9646Y-4.6906
X5.0034Y-4.383
X5.0118Y-4.9252
X5.0135Y-5.0868
X5.0328Y-4.8036
X5.0373Y-4.5531
X5.061Y-4.253
X5.0658Y-5.0838
X5.129Y-4.6918
X5.1294Y-4.5903
X5.1394Y-4.3974
X5.1438Y-5.0832
X5.1593Y-5.2178
X5.1693Y-4.9252
X5.2041Y-4.5735
X5.2058Y-4.802
X5.2224Y-5.0778
X5.2245Y-5.2214
X5.233Y-4.361
X5.2654Y-4.8082
X5.3793Y-4.2843
X5.4261Y-4.1988
X5.4803Y-5.3898
X5.5512Y-5.0198
X5.5998Y-5.0261
X5.874Y-4.689
X6.0702Y-5.253
X6.1026Y-5.034
X6.2844Y-5.2512
X6.326Y-5.082
X6.5315Y-5.3031
X6.5315Y-5.8031
X6.7283Y-4.3268
X6.7283Y-4.815
X6.7283Y-6.2756
T6
X2.8422Y-4.5398
X2.8422Y-4.6398
X2.8422Y-6.3398
X2.8422Y-6.4398
X2.9422Y-4.5398
X2.9422Y-4.6398
X2.9422Y-6.3398
X2.9422Y-6.4398
X3.0422Y-4.5398
X3.0422Y-4.6398
X3.0422Y-6.3398
X3.0422Y-6.4398
X3.1422Y-4.5398
X3.1422Y-4.6398
X3.1422Y-6.3398
X3.1422Y-6.4398
X3.2422Y-4.5398
X3.2422Y-4.6398
X3.2422Y-6.3398
X3.2422Y-6.4398
X3.3422Y-4.5398
X3.3422Y-4.6398
X3.3422Y-6.3398
X3.3422Y-6.4398
X3.4422Y-4.5398
X3.4422Y-4.6398
X3.4422Y-6.3398
X3.4422Y-6.4398
X3.5122Y-5.0398
X3.5122Y-5.1398
X3.5422Y-4.5398
X3.5422Y-4.6398
X3.5422Y-6.3398
X3.5422Y-6.4398
X3.6122Y-5.0398
X3.6122Y-5.1398
X3.6422Y-4.5398
X3.6422Y-4.6398
X3.6422Y-6.3398
X3.6422Y-6.4398
X3.7122Y-5.0398
X3.7122Y-5.1398
X3.7422Y-4.5398
X3.7422Y-4.6398
X3.7422Y-6.3398
X3.7422Y-6.4398
X3.8122Y-5.0398
X3.8122Y-5.1398
X3.8422Y-4.5398
X3.8422Y-4.6398
X3.8422Y-6.3398
X3.8422Y-6.4398
X3.9122Y-5.0398
X3.9122Y-5.1398
X3.9422Y-4.5398
X3.9422Y-4.6398
X3.9422Y-6.3398
X3.9422Y-6.4398
X4.0122Y-5.0398
X4.0122Y-5.1398
X4.0422Y-4.5398
X4.0422Y-4.6398
X4.0422Y-6.3398
X4.0422Y-6.4398
X4.1122Y-5.0398
X4.1122Y-5.1398
X4.1422Y-4.5398
X4.1422Y-4.6398
X4.1422Y-6.3398
X4.1422Y-6.4398
X4.2122Y-5.0398
X4.2122Y-5.1398
X4.2422Y-4.5398
X4.2422Y-4.6398
X4.2422Y-6.3398
X4.2422Y-6.4398
X4.3422Y-4.5398
X4.3422Y-4.6398
X4.3422Y-6.3398
X4.3422Y-6.4398
X4.4422Y-4.5398
X4.4422Y-4.6398
X4.4422Y-6.3398
X4.4422Y-6.4398
X4.5422Y-4.5398
X4.5422Y-4.6398
X4.5422Y-6.3398
X4.5422Y-6.4398
X4.6422Y-4.5398
X4.6422Y-4.6398
X4.6422Y-6.3398
X4.6422Y-6.4398
X4.7422Y-4.5398
X4.7422Y-4.6398
X4.7422Y-6.3398
X4.7422Y-6.4398
X4.8122Y-5.1398
X4.8122Y-5.2398
X4.8122Y-5.3398
X4.8122Y-5.4398
X4.8122Y-5.5398
X4.8122Y-5.6398
X4.8122Y-5.7398
X4.8122Y-5.8398
X4.8122Y-5.9398
X4.8122Y-6.0398
X4.8122Y-6.1398
X4.9122Y-5.1398
X4.9122Y-5.2398
X4.9122Y-5.3398
X4.9122Y-5.4398
X4.9122Y-5.5398
X4.9122Y-5.6398
X4.9122Y-5.7398
X4.9122Y-5.8398
X4.9122Y-5.9398
X4.9122Y-6.0398
X4.9122Y-6.1398
X5.4122Y-6.4398
X5.4122Y-6.5398
X5.5122Y-6.4398
X5.5122Y-6.5398
X5.6122Y-6.4398
X5.6122Y-6.5398
X5.7122Y-6.4398
X5.7122Y-6.5398
X5.8122Y-6.4398
X5.8122Y-6.5398
X5.9122Y-6.0398
X5.9122Y-6.1398
X5.9122Y-6.4398
X5.9122Y-6.5398
X6.0122Y-6.0398
X6.0122Y-6.1398
X6.0122Y-6.4398
X6.0122Y-6.5398
X6.1122Y-6.0398
X6.1122Y-6.1398
X6.1122Y-6.4398
X6.1122Y-6.5398
X6.2122Y-6.4398
X6.2122Y-6.5398
X6.3122Y-6.4398
X6.3122Y-6.5398
X6.4122Y-6.4398
X6.4122Y-6.5398
X6.5122Y-6.4398
X6.5122Y-6.5398
X6.6122Y-6.4398
X6.6122Y-6.5398
X6.7122Y-5.1398
X6.7122Y-5.2398
X6.7122Y-5.3398
X6.7122Y-5.4398
X6.7122Y-5.5398
X6.7122Y-5.6398
X6.7122Y-5.7398
X6.7122Y-5.8398
X6.7122Y-5.9398
X6.7122Y-6.0398
X6.7122Y-6.1398
X6.8122Y-5.1398
X6.8122Y-5.2398
X6.8122Y-5.3398
X6.8122Y-5.4398
X6.8122Y-5.5398
X6.8122Y-5.6398
X6.8122Y-5.7398
X6.8122Y-5.8398
X6.8122Y-5.9398
X6.8122Y-6.0398
X6.8122Y-6.1398
T7
X2.5197Y-4.0945
X2.5197Y-6.7323
X4.9606Y-4.0945
X5.1575Y-5.6693
X6.9291Y-4.0945
X6.9291Y-6.7323
T0
M30
