G04 #@! TF.GenerationSoftware,KiCad,Pcbnew,6.0.10-86aedd382b~118~ubuntu22.04.1*
G04 #@! TF.CreationDate,2023-01-31T23:44:09-05:00*
G04 #@! TF.ProjectId,operacake,6f706572-6163-4616-9b65-2e6b69636164,rev?*
G04 #@! TF.SameCoordinates,Original*
G04 #@! TF.FileFunction,Legend,Top*
G04 #@! TF.FilePolarity,Positive*
%FSLAX46Y46*%
G04 Gerber Fmt 4.6, Leading zero omitted, Abs format (unit mm)*
G04 Created by KiCad (PCBNEW 6.0.10-86aedd382b~118~ubuntu22.04.1) date 2023-01-31 23:44:09*
%MOMM*%
%LPD*%
G01*
G04 APERTURE LIST*
%ADD10C,0.190500*%
%ADD11C,0.100000*%
%ADD12C,0.150000*%
%ADD13C,0.304800*%
%ADD14C,0.609600*%
%ADD15C,0.203200*%
%ADD16C,0.127000*%
%ADD17C,0.381000*%
%ADD18C,0.200000*%
%ADD19R,1.524000X1.524000*%
%ADD20C,1.524000*%
%ADD21C,0.457200*%
G04 APERTURE END LIST*
D10*
X157737571Y-155259619D02*
X157737571Y-154243619D01*
X158027857Y-154243619D01*
X158100428Y-154292000D01*
X158136714Y-154340380D01*
X158173000Y-154437142D01*
X158173000Y-154582285D01*
X158136714Y-154679047D01*
X158100428Y-154727428D01*
X158027857Y-154775809D01*
X157737571Y-154775809D01*
X158898714Y-155259619D02*
X158463285Y-155259619D01*
X158681000Y-155259619D02*
X158681000Y-154243619D01*
X158608428Y-154388761D01*
X158535857Y-154485523D01*
X158463285Y-154533904D01*
D11*
X154871428Y-158833333D02*
X155157142Y-158833333D01*
X154814285Y-159061904D02*
X155014285Y-158261904D01*
X155214285Y-159061904D01*
X155385714Y-158338095D02*
X155414285Y-158300000D01*
X155471428Y-158261904D01*
X155614285Y-158261904D01*
X155671428Y-158300000D01*
X155700000Y-158338095D01*
X155728571Y-158414285D01*
X155728571Y-158490476D01*
X155700000Y-158604761D01*
X155357142Y-159061904D01*
X155728571Y-159061904D01*
X152271428Y-158833333D02*
X152557142Y-158833333D01*
X152214285Y-159061904D02*
X152414285Y-158261904D01*
X152614285Y-159061904D01*
X153128571Y-159061904D02*
X152785714Y-159061904D01*
X152957142Y-159061904D02*
X152957142Y-158261904D01*
X152900000Y-158376190D01*
X152842857Y-158452380D01*
X152785714Y-158490476D01*
X149771428Y-158833333D02*
X150057142Y-158833333D01*
X149714285Y-159061904D02*
X149914285Y-158261904D01*
X150114285Y-159061904D01*
X150428571Y-158261904D02*
X150485714Y-158261904D01*
X150542857Y-158300000D01*
X150571428Y-158338095D01*
X150600000Y-158414285D01*
X150628571Y-158566666D01*
X150628571Y-158757142D01*
X150600000Y-158909523D01*
X150571428Y-158985714D01*
X150542857Y-159023809D01*
X150485714Y-159061904D01*
X150428571Y-159061904D01*
X150371428Y-159023809D01*
X150342857Y-158985714D01*
X150314285Y-158909523D01*
X150285714Y-158757142D01*
X150285714Y-158566666D01*
X150314285Y-158414285D01*
X150342857Y-158338095D01*
X150371428Y-158300000D01*
X150428571Y-158261904D01*
D10*
X172691571Y-113652428D02*
X172800428Y-113700809D01*
X172836714Y-113749190D01*
X172873000Y-113845952D01*
X172873000Y-113991095D01*
X172836714Y-114087857D01*
X172800428Y-114136238D01*
X172727857Y-114184619D01*
X172437571Y-114184619D01*
X172437571Y-113168619D01*
X172691571Y-113168619D01*
X172764142Y-113217000D01*
X172800428Y-113265380D01*
X172836714Y-113362142D01*
X172836714Y-113458904D01*
X172800428Y-113555666D01*
X172764142Y-113604047D01*
X172691571Y-113652428D01*
X172437571Y-113652428D01*
X173526142Y-113507285D02*
X173526142Y-114184619D01*
X173344714Y-113120238D02*
X173163285Y-113845952D01*
X173635000Y-113845952D01*
X172691571Y-126027428D02*
X172800428Y-126075809D01*
X172836714Y-126124190D01*
X172873000Y-126220952D01*
X172873000Y-126366095D01*
X172836714Y-126462857D01*
X172800428Y-126511238D01*
X172727857Y-126559619D01*
X172437571Y-126559619D01*
X172437571Y-125543619D01*
X172691571Y-125543619D01*
X172764142Y-125592000D01*
X172800428Y-125640380D01*
X172836714Y-125737142D01*
X172836714Y-125833904D01*
X172800428Y-125930666D01*
X172764142Y-125979047D01*
X172691571Y-126027428D01*
X172437571Y-126027428D01*
X173127000Y-125543619D02*
X173598714Y-125543619D01*
X173344714Y-125930666D01*
X173453571Y-125930666D01*
X173526142Y-125979047D01*
X173562428Y-126027428D01*
X173598714Y-126124190D01*
X173598714Y-126366095D01*
X173562428Y-126462857D01*
X173526142Y-126511238D01*
X173453571Y-126559619D01*
X173235857Y-126559619D01*
X173163285Y-126511238D01*
X173127000Y-126462857D01*
X167191571Y-138402428D02*
X167300428Y-138450809D01*
X167336714Y-138499190D01*
X167373000Y-138595952D01*
X167373000Y-138741095D01*
X167336714Y-138837857D01*
X167300428Y-138886238D01*
X167227857Y-138934619D01*
X166937571Y-138934619D01*
X166937571Y-137918619D01*
X167191571Y-137918619D01*
X167264142Y-137967000D01*
X167300428Y-138015380D01*
X167336714Y-138112142D01*
X167336714Y-138208904D01*
X167300428Y-138305666D01*
X167264142Y-138354047D01*
X167191571Y-138402428D01*
X166937571Y-138402428D01*
X167663285Y-138015380D02*
X167699571Y-137967000D01*
X167772142Y-137918619D01*
X167953571Y-137918619D01*
X168026142Y-137967000D01*
X168062428Y-138015380D01*
X168098714Y-138112142D01*
X168098714Y-138208904D01*
X168062428Y-138354047D01*
X167627000Y-138934619D01*
X168098714Y-138934619D01*
X167191571Y-150777428D02*
X167300428Y-150825809D01*
X167336714Y-150874190D01*
X167373000Y-150970952D01*
X167373000Y-151116095D01*
X167336714Y-151212857D01*
X167300428Y-151261238D01*
X167227857Y-151309619D01*
X166937571Y-151309619D01*
X166937571Y-150293619D01*
X167191571Y-150293619D01*
X167264142Y-150342000D01*
X167300428Y-150390380D01*
X167336714Y-150487142D01*
X167336714Y-150583904D01*
X167300428Y-150680666D01*
X167264142Y-150729047D01*
X167191571Y-150777428D01*
X166937571Y-150777428D01*
X168098714Y-151309619D02*
X167663285Y-151309619D01*
X167881000Y-151309619D02*
X167881000Y-150293619D01*
X167808428Y-150438761D01*
X167735857Y-150535523D01*
X167663285Y-150583904D01*
X172691571Y-163177428D02*
X172800428Y-163225809D01*
X172836714Y-163274190D01*
X172873000Y-163370952D01*
X172873000Y-163516095D01*
X172836714Y-163612857D01*
X172800428Y-163661238D01*
X172727857Y-163709619D01*
X172437571Y-163709619D01*
X172437571Y-162693619D01*
X172691571Y-162693619D01*
X172764142Y-162742000D01*
X172800428Y-162790380D01*
X172836714Y-162887142D01*
X172836714Y-162983904D01*
X172800428Y-163080666D01*
X172764142Y-163129047D01*
X172691571Y-163177428D01*
X172437571Y-163177428D01*
X173344714Y-162693619D02*
X173417285Y-162693619D01*
X173489857Y-162742000D01*
X173526142Y-162790380D01*
X173562428Y-162887142D01*
X173598714Y-163080666D01*
X173598714Y-163322571D01*
X173562428Y-163516095D01*
X173526142Y-163612857D01*
X173489857Y-163661238D01*
X173417285Y-163709619D01*
X173344714Y-163709619D01*
X173272142Y-163661238D01*
X173235857Y-163612857D01*
X173199571Y-163516095D01*
X173163285Y-163322571D01*
X173163285Y-163080666D01*
X173199571Y-162887142D01*
X173235857Y-162790380D01*
X173272142Y-162742000D01*
X173344714Y-162693619D01*
X66455714Y-113919333D02*
X66818571Y-113919333D01*
X66383142Y-114209619D02*
X66637142Y-113193619D01*
X66891142Y-114209619D01*
X67471714Y-113532285D02*
X67471714Y-114209619D01*
X67290285Y-113145238D02*
X67108857Y-113870952D01*
X67580571Y-113870952D01*
X66455714Y-126294333D02*
X66818571Y-126294333D01*
X66383142Y-126584619D02*
X66637142Y-125568619D01*
X66891142Y-126584619D01*
X67072571Y-125568619D02*
X67544285Y-125568619D01*
X67290285Y-125955666D01*
X67399142Y-125955666D01*
X67471714Y-126004047D01*
X67508000Y-126052428D01*
X67544285Y-126149190D01*
X67544285Y-126391095D01*
X67508000Y-126487857D01*
X67471714Y-126536238D01*
X67399142Y-126584619D01*
X67181428Y-126584619D01*
X67108857Y-126536238D01*
X67072571Y-126487857D01*
X66455714Y-138669333D02*
X66818571Y-138669333D01*
X66383142Y-138959619D02*
X66637142Y-137943619D01*
X66891142Y-138959619D01*
X67108857Y-138040380D02*
X67145142Y-137992000D01*
X67217714Y-137943619D01*
X67399142Y-137943619D01*
X67471714Y-137992000D01*
X67508000Y-138040380D01*
X67544285Y-138137142D01*
X67544285Y-138233904D01*
X67508000Y-138379047D01*
X67072571Y-138959619D01*
X67544285Y-138959619D01*
X66455714Y-151044333D02*
X66818571Y-151044333D01*
X66383142Y-151334619D02*
X66637142Y-150318619D01*
X66891142Y-151334619D01*
X67544285Y-151334619D02*
X67108857Y-151334619D01*
X67326571Y-151334619D02*
X67326571Y-150318619D01*
X67254000Y-150463761D01*
X67181428Y-150560523D01*
X67108857Y-150608904D01*
X66455714Y-163419333D02*
X66818571Y-163419333D01*
X66383142Y-163709619D02*
X66637142Y-162693619D01*
X66891142Y-163709619D01*
X67290285Y-162693619D02*
X67362857Y-162693619D01*
X67435428Y-162742000D01*
X67471714Y-162790380D01*
X67508000Y-162887142D01*
X67544285Y-163080666D01*
X67544285Y-163322571D01*
X67508000Y-163516095D01*
X67471714Y-163612857D01*
X67435428Y-163661238D01*
X67362857Y-163709619D01*
X67290285Y-163709619D01*
X67217714Y-163661238D01*
X67181428Y-163612857D01*
X67145142Y-163516095D01*
X67108857Y-163322571D01*
X67108857Y-163080666D01*
X67145142Y-162887142D01*
X67181428Y-162790380D01*
X67217714Y-162742000D01*
X67290285Y-162693619D01*
X95996000Y-166443619D02*
X95996000Y-167169333D01*
X95959714Y-167314476D01*
X95887142Y-167411238D01*
X95778285Y-167459619D01*
X95705714Y-167459619D01*
X96322571Y-166540380D02*
X96358857Y-166492000D01*
X96431428Y-166443619D01*
X96612857Y-166443619D01*
X96685428Y-166492000D01*
X96721714Y-166540380D01*
X96758000Y-166637142D01*
X96758000Y-166733904D01*
X96721714Y-166879047D01*
X96286285Y-167459619D01*
X96758000Y-167459619D01*
X95996000Y-119693619D02*
X95996000Y-120419333D01*
X95959714Y-120564476D01*
X95887142Y-120661238D01*
X95778285Y-120709619D01*
X95705714Y-120709619D01*
X96758000Y-120709619D02*
X96322571Y-120709619D01*
X96540285Y-120709619D02*
X96540285Y-119693619D01*
X96467714Y-119838761D01*
X96395142Y-119935523D01*
X96322571Y-119983904D01*
D11*
X78535714Y-158061904D02*
X78650000Y-158061904D01*
X78707142Y-158100000D01*
X78764285Y-158176190D01*
X78792857Y-158328571D01*
X78792857Y-158595238D01*
X78764285Y-158747619D01*
X78707142Y-158823809D01*
X78650000Y-158861904D01*
X78535714Y-158861904D01*
X78478571Y-158823809D01*
X78421428Y-158747619D01*
X78392857Y-158595238D01*
X78392857Y-158328571D01*
X78421428Y-158176190D01*
X78478571Y-158100000D01*
X78535714Y-158061904D01*
X79050000Y-158328571D02*
X79050000Y-159128571D01*
X79050000Y-158366666D02*
X79107142Y-158328571D01*
X79221428Y-158328571D01*
X79278571Y-158366666D01*
X79307142Y-158404761D01*
X79335714Y-158480952D01*
X79335714Y-158709523D01*
X79307142Y-158785714D01*
X79278571Y-158823809D01*
X79221428Y-158861904D01*
X79107142Y-158861904D01*
X79050000Y-158823809D01*
X79507142Y-158328571D02*
X79735714Y-158328571D01*
X79592857Y-158061904D02*
X79592857Y-158747619D01*
X79621428Y-158823809D01*
X79678571Y-158861904D01*
X79735714Y-158861904D01*
X79935714Y-158861904D02*
X79935714Y-158328571D01*
X79935714Y-158061904D02*
X79907142Y-158100000D01*
X79935714Y-158138095D01*
X79964285Y-158100000D01*
X79935714Y-158061904D01*
X79935714Y-158138095D01*
X80307142Y-158861904D02*
X80250000Y-158823809D01*
X80221428Y-158785714D01*
X80192857Y-158709523D01*
X80192857Y-158480952D01*
X80221428Y-158404761D01*
X80250000Y-158366666D01*
X80307142Y-158328571D01*
X80392857Y-158328571D01*
X80450000Y-158366666D01*
X80478571Y-158404761D01*
X80507142Y-158480952D01*
X80507142Y-158709523D01*
X80478571Y-158785714D01*
X80450000Y-158823809D01*
X80392857Y-158861904D01*
X80307142Y-158861904D01*
X80764285Y-158328571D02*
X80764285Y-158861904D01*
X80764285Y-158404761D02*
X80792857Y-158366666D01*
X80850000Y-158328571D01*
X80935714Y-158328571D01*
X80992857Y-158366666D01*
X81021428Y-158442857D01*
X81021428Y-158861904D01*
X81564285Y-158861904D02*
X81564285Y-158442857D01*
X81535714Y-158366666D01*
X81478571Y-158328571D01*
X81364285Y-158328571D01*
X81307142Y-158366666D01*
X81564285Y-158823809D02*
X81507142Y-158861904D01*
X81364285Y-158861904D01*
X81307142Y-158823809D01*
X81278571Y-158747619D01*
X81278571Y-158671428D01*
X81307142Y-158595238D01*
X81364285Y-158557142D01*
X81507142Y-158557142D01*
X81564285Y-158519047D01*
X81935714Y-158861904D02*
X81878571Y-158823809D01*
X81850000Y-158747619D01*
X81850000Y-158061904D01*
X82164285Y-158785714D02*
X82192857Y-158823809D01*
X82164285Y-158861904D01*
X82135714Y-158823809D01*
X82164285Y-158785714D01*
X82164285Y-158861904D01*
X82164285Y-158366666D02*
X82192857Y-158404761D01*
X82164285Y-158442857D01*
X82135714Y-158404761D01*
X82164285Y-158366666D01*
X82164285Y-158442857D01*
X82907142Y-158861904D02*
X82907142Y-158061904D01*
X83192857Y-158328571D02*
X83192857Y-158861904D01*
X83192857Y-158404761D02*
X83221428Y-158366666D01*
X83278571Y-158328571D01*
X83364285Y-158328571D01*
X83421428Y-158366666D01*
X83450000Y-158442857D01*
X83450000Y-158861904D01*
X83707142Y-158823809D02*
X83764285Y-158861904D01*
X83878571Y-158861904D01*
X83935714Y-158823809D01*
X83964285Y-158747619D01*
X83964285Y-158709523D01*
X83935714Y-158633333D01*
X83878571Y-158595238D01*
X83792857Y-158595238D01*
X83735714Y-158557142D01*
X83707142Y-158480952D01*
X83707142Y-158442857D01*
X83735714Y-158366666D01*
X83792857Y-158328571D01*
X83878571Y-158328571D01*
X83935714Y-158366666D01*
X84135714Y-158328571D02*
X84364285Y-158328571D01*
X84221428Y-158061904D02*
X84221428Y-158747619D01*
X84250000Y-158823809D01*
X84307142Y-158861904D01*
X84364285Y-158861904D01*
X84821428Y-158861904D02*
X84821428Y-158442857D01*
X84792857Y-158366666D01*
X84735714Y-158328571D01*
X84621428Y-158328571D01*
X84564285Y-158366666D01*
X84821428Y-158823809D02*
X84764285Y-158861904D01*
X84621428Y-158861904D01*
X84564285Y-158823809D01*
X84535714Y-158747619D01*
X84535714Y-158671428D01*
X84564285Y-158595238D01*
X84621428Y-158557142D01*
X84764285Y-158557142D01*
X84821428Y-158519047D01*
X85192857Y-158861904D02*
X85135714Y-158823809D01*
X85107142Y-158747619D01*
X85107142Y-158061904D01*
X85507142Y-158861904D02*
X85450000Y-158823809D01*
X85421428Y-158747619D01*
X85421428Y-158061904D01*
X86507142Y-158100000D02*
X86450000Y-158061904D01*
X86364285Y-158061904D01*
X86278571Y-158100000D01*
X86221428Y-158176190D01*
X86192857Y-158252380D01*
X86164285Y-158404761D01*
X86164285Y-158519047D01*
X86192857Y-158671428D01*
X86221428Y-158747619D01*
X86278571Y-158823809D01*
X86364285Y-158861904D01*
X86421428Y-158861904D01*
X86507142Y-158823809D01*
X86535714Y-158785714D01*
X86535714Y-158519047D01*
X86421428Y-158519047D01*
X86792857Y-158861904D02*
X86792857Y-158328571D01*
X86792857Y-158480952D02*
X86821428Y-158404761D01*
X86850000Y-158366666D01*
X86907142Y-158328571D01*
X86964285Y-158328571D01*
X87392857Y-158823809D02*
X87335714Y-158861904D01*
X87221428Y-158861904D01*
X87164285Y-158823809D01*
X87135714Y-158747619D01*
X87135714Y-158442857D01*
X87164285Y-158366666D01*
X87221428Y-158328571D01*
X87335714Y-158328571D01*
X87392857Y-158366666D01*
X87421428Y-158442857D01*
X87421428Y-158519047D01*
X87135714Y-158595238D01*
X87935714Y-158861904D02*
X87935714Y-158442857D01*
X87907142Y-158366666D01*
X87850000Y-158328571D01*
X87735714Y-158328571D01*
X87678571Y-158366666D01*
X87935714Y-158823809D02*
X87878571Y-158861904D01*
X87735714Y-158861904D01*
X87678571Y-158823809D01*
X87650000Y-158747619D01*
X87650000Y-158671428D01*
X87678571Y-158595238D01*
X87735714Y-158557142D01*
X87878571Y-158557142D01*
X87935714Y-158519047D01*
X88135714Y-158328571D02*
X88364285Y-158328571D01*
X88221428Y-158061904D02*
X88221428Y-158747619D01*
X88250000Y-158823809D01*
X88307142Y-158861904D01*
X88364285Y-158861904D01*
X88764285Y-158442857D02*
X88564285Y-158442857D01*
X88564285Y-158861904D02*
X88564285Y-158061904D01*
X88850000Y-158061904D01*
X89078571Y-158442857D02*
X89278571Y-158442857D01*
X89364285Y-158861904D02*
X89078571Y-158861904D01*
X89078571Y-158061904D01*
X89364285Y-158061904D01*
X89535714Y-158061904D02*
X89878571Y-158061904D01*
X89707142Y-158861904D02*
X89707142Y-158061904D01*
X90650000Y-158061904D02*
X90764285Y-158061904D01*
X90821428Y-158100000D01*
X90878571Y-158176190D01*
X90907142Y-158328571D01*
X90907142Y-158595238D01*
X90878571Y-158747619D01*
X90821428Y-158823809D01*
X90764285Y-158861904D01*
X90650000Y-158861904D01*
X90592857Y-158823809D01*
X90535714Y-158747619D01*
X90507142Y-158595238D01*
X90507142Y-158328571D01*
X90535714Y-158176190D01*
X90592857Y-158100000D01*
X90650000Y-158061904D01*
X91164285Y-158328571D02*
X91164285Y-158861904D01*
X91164285Y-158404761D02*
X91192857Y-158366666D01*
X91250000Y-158328571D01*
X91335714Y-158328571D01*
X91392857Y-158366666D01*
X91421428Y-158442857D01*
X91421428Y-158861904D01*
X91935714Y-158823809D02*
X91878571Y-158861904D01*
X91764285Y-158861904D01*
X91707142Y-158823809D01*
X91678571Y-158747619D01*
X91678571Y-158442857D01*
X91707142Y-158366666D01*
X91764285Y-158328571D01*
X91878571Y-158328571D01*
X91935714Y-158366666D01*
X91964285Y-158442857D01*
X91964285Y-158519047D01*
X91678571Y-158595238D01*
X92935714Y-158328571D02*
X92935714Y-158861904D01*
X92678571Y-158328571D02*
X92678571Y-158747619D01*
X92707142Y-158823809D01*
X92764285Y-158861904D01*
X92850000Y-158861904D01*
X92907142Y-158823809D01*
X92935714Y-158785714D01*
X93221428Y-158328571D02*
X93221428Y-159128571D01*
X93221428Y-158366666D02*
X93278571Y-158328571D01*
X93392857Y-158328571D01*
X93450000Y-158366666D01*
X93478571Y-158404761D01*
X93507142Y-158480952D01*
X93507142Y-158709523D01*
X93478571Y-158785714D01*
X93450000Y-158823809D01*
X93392857Y-158861904D01*
X93278571Y-158861904D01*
X93221428Y-158823809D01*
X93735714Y-158823809D02*
X93792857Y-158861904D01*
X93907142Y-158861904D01*
X93964285Y-158823809D01*
X93992857Y-158747619D01*
X93992857Y-158709523D01*
X93964285Y-158633333D01*
X93907142Y-158595238D01*
X93821428Y-158595238D01*
X93764285Y-158557142D01*
X93735714Y-158480952D01*
X93735714Y-158442857D01*
X93764285Y-158366666D01*
X93821428Y-158328571D01*
X93907142Y-158328571D01*
X93964285Y-158366666D01*
X94250000Y-158861904D02*
X94250000Y-158328571D01*
X94250000Y-158061904D02*
X94221428Y-158100000D01*
X94250000Y-158138095D01*
X94278571Y-158100000D01*
X94250000Y-158061904D01*
X94250000Y-158138095D01*
X94792857Y-158861904D02*
X94792857Y-158061904D01*
X94792857Y-158823809D02*
X94735714Y-158861904D01*
X94621428Y-158861904D01*
X94564285Y-158823809D01*
X94535714Y-158785714D01*
X94507142Y-158709523D01*
X94507142Y-158480952D01*
X94535714Y-158404761D01*
X94564285Y-158366666D01*
X94621428Y-158328571D01*
X94735714Y-158328571D01*
X94792857Y-158366666D01*
X95307142Y-158823809D02*
X95250000Y-158861904D01*
X95135714Y-158861904D01*
X95078571Y-158823809D01*
X95050000Y-158747619D01*
X95050000Y-158442857D01*
X95078571Y-158366666D01*
X95135714Y-158328571D01*
X95250000Y-158328571D01*
X95307142Y-158366666D01*
X95335714Y-158442857D01*
X95335714Y-158519047D01*
X95050000Y-158595238D01*
X95592857Y-158557142D02*
X96050000Y-158557142D01*
X96592857Y-158861904D02*
X96592857Y-158061904D01*
X96592857Y-158823809D02*
X96535714Y-158861904D01*
X96421428Y-158861904D01*
X96364285Y-158823809D01*
X96335714Y-158785714D01*
X96307142Y-158709523D01*
X96307142Y-158480952D01*
X96335714Y-158404761D01*
X96364285Y-158366666D01*
X96421428Y-158328571D01*
X96535714Y-158328571D01*
X96592857Y-158366666D01*
X96964285Y-158861904D02*
X96907142Y-158823809D01*
X96878571Y-158785714D01*
X96850000Y-158709523D01*
X96850000Y-158480952D01*
X96878571Y-158404761D01*
X96907142Y-158366666D01*
X96964285Y-158328571D01*
X97050000Y-158328571D01*
X97107142Y-158366666D01*
X97135714Y-158404761D01*
X97164285Y-158480952D01*
X97164285Y-158709523D01*
X97135714Y-158785714D01*
X97107142Y-158823809D01*
X97050000Y-158861904D01*
X96964285Y-158861904D01*
X97364285Y-158328571D02*
X97478571Y-158861904D01*
X97592857Y-158480952D01*
X97707142Y-158861904D01*
X97821428Y-158328571D01*
X98050000Y-158328571D02*
X98050000Y-158861904D01*
X98050000Y-158404761D02*
X98078571Y-158366666D01*
X98135714Y-158328571D01*
X98221428Y-158328571D01*
X98278571Y-158366666D01*
X98307142Y-158442857D01*
X98307142Y-158861904D01*
X99050000Y-158861904D02*
X99050000Y-158328571D01*
X99050000Y-158061904D02*
X99021428Y-158100000D01*
X99050000Y-158138095D01*
X99078571Y-158100000D01*
X99050000Y-158061904D01*
X99050000Y-158138095D01*
X99335714Y-158328571D02*
X99335714Y-158861904D01*
X99335714Y-158404761D02*
X99364285Y-158366666D01*
X99421428Y-158328571D01*
X99507142Y-158328571D01*
X99564285Y-158366666D01*
X99592857Y-158442857D01*
X99592857Y-158861904D01*
X99850000Y-158823809D02*
X99907142Y-158861904D01*
X100021428Y-158861904D01*
X100078571Y-158823809D01*
X100107142Y-158747619D01*
X100107142Y-158709523D01*
X100078571Y-158633333D01*
X100021428Y-158595238D01*
X99935714Y-158595238D01*
X99878571Y-158557142D01*
X99850000Y-158480952D01*
X99850000Y-158442857D01*
X99878571Y-158366666D01*
X99935714Y-158328571D01*
X100021428Y-158328571D01*
X100078571Y-158366666D01*
X100278571Y-158328571D02*
X100507142Y-158328571D01*
X100364285Y-158061904D02*
X100364285Y-158747619D01*
X100392857Y-158823809D01*
X100450000Y-158861904D01*
X100507142Y-158861904D01*
X100935714Y-158823809D02*
X100878571Y-158861904D01*
X100764285Y-158861904D01*
X100707142Y-158823809D01*
X100678571Y-158747619D01*
X100678571Y-158442857D01*
X100707142Y-158366666D01*
X100764285Y-158328571D01*
X100878571Y-158328571D01*
X100935714Y-158366666D01*
X100964285Y-158442857D01*
X100964285Y-158519047D01*
X100678571Y-158595238D01*
X101478571Y-158861904D02*
X101478571Y-158442857D01*
X101450000Y-158366666D01*
X101392857Y-158328571D01*
X101278571Y-158328571D01*
X101221428Y-158366666D01*
X101478571Y-158823809D02*
X101421428Y-158861904D01*
X101278571Y-158861904D01*
X101221428Y-158823809D01*
X101192857Y-158747619D01*
X101192857Y-158671428D01*
X101221428Y-158595238D01*
X101278571Y-158557142D01*
X101421428Y-158557142D01*
X101478571Y-158519047D01*
X102021428Y-158861904D02*
X102021428Y-158061904D01*
X102021428Y-158823809D02*
X101964285Y-158861904D01*
X101850000Y-158861904D01*
X101792857Y-158823809D01*
X101764285Y-158785714D01*
X101735714Y-158709523D01*
X101735714Y-158480952D01*
X101764285Y-158404761D01*
X101792857Y-158366666D01*
X101850000Y-158328571D01*
X101964285Y-158328571D01*
X102021428Y-158366666D01*
X102850000Y-158861904D02*
X102792857Y-158823809D01*
X102764285Y-158785714D01*
X102735714Y-158709523D01*
X102735714Y-158480952D01*
X102764285Y-158404761D01*
X102792857Y-158366666D01*
X102850000Y-158328571D01*
X102935714Y-158328571D01*
X102992857Y-158366666D01*
X103021428Y-158404761D01*
X103050000Y-158480952D01*
X103050000Y-158709523D01*
X103021428Y-158785714D01*
X102992857Y-158823809D01*
X102935714Y-158861904D01*
X102850000Y-158861904D01*
X103221428Y-158328571D02*
X103450000Y-158328571D01*
X103307142Y-158861904D02*
X103307142Y-158176190D01*
X103335714Y-158100000D01*
X103392857Y-158061904D01*
X103450000Y-158061904D01*
X104364285Y-158823809D02*
X104307142Y-158861904D01*
X104192857Y-158861904D01*
X104135714Y-158823809D01*
X104107142Y-158785714D01*
X104078571Y-158709523D01*
X104078571Y-158480952D01*
X104107142Y-158404761D01*
X104135714Y-158366666D01*
X104192857Y-158328571D01*
X104307142Y-158328571D01*
X104364285Y-158366666D01*
X104707142Y-158861904D02*
X104650000Y-158823809D01*
X104621428Y-158785714D01*
X104592857Y-158709523D01*
X104592857Y-158480952D01*
X104621428Y-158404761D01*
X104650000Y-158366666D01*
X104707142Y-158328571D01*
X104792857Y-158328571D01*
X104850000Y-158366666D01*
X104878571Y-158404761D01*
X104907142Y-158480952D01*
X104907142Y-158709523D01*
X104878571Y-158785714D01*
X104850000Y-158823809D01*
X104792857Y-158861904D01*
X104707142Y-158861904D01*
X105164285Y-158328571D02*
X105164285Y-158861904D01*
X105164285Y-158404761D02*
X105192857Y-158366666D01*
X105250000Y-158328571D01*
X105335714Y-158328571D01*
X105392857Y-158366666D01*
X105421428Y-158442857D01*
X105421428Y-158861904D01*
X105707142Y-158328571D02*
X105707142Y-158861904D01*
X105707142Y-158404761D02*
X105735714Y-158366666D01*
X105792857Y-158328571D01*
X105878571Y-158328571D01*
X105935714Y-158366666D01*
X105964285Y-158442857D01*
X105964285Y-158861904D01*
X106478571Y-158823809D02*
X106421428Y-158861904D01*
X106307142Y-158861904D01*
X106250000Y-158823809D01*
X106221428Y-158747619D01*
X106221428Y-158442857D01*
X106250000Y-158366666D01*
X106307142Y-158328571D01*
X106421428Y-158328571D01*
X106478571Y-158366666D01*
X106507142Y-158442857D01*
X106507142Y-158519047D01*
X106221428Y-158595238D01*
X107021428Y-158823809D02*
X106964285Y-158861904D01*
X106850000Y-158861904D01*
X106792857Y-158823809D01*
X106764285Y-158785714D01*
X106735714Y-158709523D01*
X106735714Y-158480952D01*
X106764285Y-158404761D01*
X106792857Y-158366666D01*
X106850000Y-158328571D01*
X106964285Y-158328571D01*
X107021428Y-158366666D01*
X107192857Y-158328571D02*
X107421428Y-158328571D01*
X107278571Y-158061904D02*
X107278571Y-158747619D01*
X107307142Y-158823809D01*
X107364285Y-158861904D01*
X107421428Y-158861904D01*
X107621428Y-158861904D02*
X107621428Y-158328571D01*
X107621428Y-158061904D02*
X107592857Y-158100000D01*
X107621428Y-158138095D01*
X107650000Y-158100000D01*
X107621428Y-158061904D01*
X107621428Y-158138095D01*
X107907142Y-158328571D02*
X107907142Y-158861904D01*
X107907142Y-158404761D02*
X107935714Y-158366666D01*
X107992857Y-158328571D01*
X108078571Y-158328571D01*
X108135714Y-158366666D01*
X108164285Y-158442857D01*
X108164285Y-158861904D01*
X108707142Y-158328571D02*
X108707142Y-158976190D01*
X108678571Y-159052380D01*
X108650000Y-159090476D01*
X108592857Y-159128571D01*
X108507142Y-159128571D01*
X108450000Y-159090476D01*
X108707142Y-158823809D02*
X108650000Y-158861904D01*
X108535714Y-158861904D01*
X108478571Y-158823809D01*
X108450000Y-158785714D01*
X108421428Y-158709523D01*
X108421428Y-158480952D01*
X108450000Y-158404761D01*
X108478571Y-158366666D01*
X108535714Y-158328571D01*
X108650000Y-158328571D01*
X108707142Y-158366666D01*
X109364285Y-158328571D02*
X109592857Y-158328571D01*
X109450000Y-158061904D02*
X109450000Y-158747619D01*
X109478571Y-158823809D01*
X109535714Y-158861904D01*
X109592857Y-158861904D01*
X109878571Y-158861904D02*
X109821428Y-158823809D01*
X109792857Y-158785714D01*
X109764285Y-158709523D01*
X109764285Y-158480952D01*
X109792857Y-158404761D01*
X109821428Y-158366666D01*
X109878571Y-158328571D01*
X109964285Y-158328571D01*
X110021428Y-158366666D01*
X110050000Y-158404761D01*
X110078571Y-158480952D01*
X110078571Y-158709523D01*
X110050000Y-158785714D01*
X110021428Y-158823809D01*
X109964285Y-158861904D01*
X109878571Y-158861904D01*
X110792857Y-158861904D02*
X110792857Y-158061904D01*
X110792857Y-158442857D02*
X111135714Y-158442857D01*
X111135714Y-158861904D02*
X111135714Y-158061904D01*
X111678571Y-158861904D02*
X111678571Y-158442857D01*
X111650000Y-158366666D01*
X111592857Y-158328571D01*
X111478571Y-158328571D01*
X111421428Y-158366666D01*
X111678571Y-158823809D02*
X111621428Y-158861904D01*
X111478571Y-158861904D01*
X111421428Y-158823809D01*
X111392857Y-158747619D01*
X111392857Y-158671428D01*
X111421428Y-158595238D01*
X111478571Y-158557142D01*
X111621428Y-158557142D01*
X111678571Y-158519047D01*
X112221428Y-158823809D02*
X112164285Y-158861904D01*
X112050000Y-158861904D01*
X111992857Y-158823809D01*
X111964285Y-158785714D01*
X111935714Y-158709523D01*
X111935714Y-158480952D01*
X111964285Y-158404761D01*
X111992857Y-158366666D01*
X112050000Y-158328571D01*
X112164285Y-158328571D01*
X112221428Y-158366666D01*
X112478571Y-158861904D02*
X112478571Y-158061904D01*
X112535714Y-158557142D02*
X112707142Y-158861904D01*
X112707142Y-158328571D02*
X112478571Y-158633333D01*
X113307142Y-158861904D02*
X113107142Y-158480952D01*
X112964285Y-158861904D02*
X112964285Y-158061904D01*
X113192857Y-158061904D01*
X113249999Y-158100000D01*
X113278571Y-158138095D01*
X113307142Y-158214285D01*
X113307142Y-158328571D01*
X113278571Y-158404761D01*
X113249999Y-158442857D01*
X113192857Y-158480952D01*
X112964285Y-158480952D01*
X113764285Y-158442857D02*
X113564285Y-158442857D01*
X113564285Y-158861904D02*
X113564285Y-158061904D01*
X113849999Y-158061904D01*
X114078571Y-158785714D02*
X114107142Y-158823809D01*
X114078571Y-158861904D01*
X114050000Y-158823809D01*
X114078571Y-158785714D01*
X114078571Y-158861904D01*
D12*
X130533800Y-117225800D02*
X130610000Y-116489200D01*
X61420400Y-157078400D02*
X61064800Y-154894000D01*
X61801400Y-159135800D02*
X61420400Y-157078400D01*
X62360200Y-161752000D02*
X61801400Y-159135800D01*
X62614200Y-162793400D02*
X62360200Y-161752000D01*
X62715800Y-163174400D02*
X62614200Y-162793400D01*
X62817400Y-163555400D02*
X62715800Y-163174400D01*
X62969800Y-163911000D02*
X62817400Y-163555400D01*
X63147600Y-164241200D02*
X62969800Y-163911000D01*
X63300000Y-164469800D02*
X63147600Y-164241200D01*
X63528600Y-164774600D02*
X63300000Y-164469800D01*
X63757200Y-165003200D02*
X63528600Y-164774600D01*
X64011200Y-165231800D02*
X63757200Y-165003200D01*
X64366800Y-165485800D02*
X64011200Y-165231800D01*
X64646200Y-165638200D02*
X64366800Y-165485800D01*
X65027200Y-165816000D02*
X64646200Y-165638200D01*
X65509800Y-165968400D02*
X65027200Y-165816000D01*
X65916200Y-166044600D02*
X65509800Y-165968400D01*
X66398800Y-166070000D02*
X65916200Y-166044600D01*
X61750600Y-119994400D02*
X61318800Y-122280400D01*
X62284000Y-117479800D02*
X61750600Y-119994400D01*
X62588800Y-116108200D02*
X62284000Y-117479800D01*
X62665000Y-115828800D02*
X62588800Y-116108200D01*
X62741200Y-115524000D02*
X62665000Y-115828800D01*
X62817400Y-115244600D02*
X62741200Y-115524000D01*
X62919000Y-114990600D02*
X62817400Y-115244600D01*
X63096800Y-114635000D02*
X62919000Y-114990600D01*
X63274600Y-114355600D02*
X63096800Y-114635000D01*
X63452400Y-114127000D02*
X63274600Y-114355600D01*
X63655600Y-113898400D02*
X63452400Y-114127000D01*
X63960400Y-113619000D02*
X63655600Y-113898400D01*
X64290600Y-113365000D02*
X63960400Y-113619000D01*
X64646200Y-113161800D02*
X64290600Y-113365000D01*
X65103400Y-112958600D02*
X64646200Y-113161800D01*
X65509800Y-112831600D02*
X65103400Y-112958600D01*
X65967000Y-112755400D02*
X65509800Y-112831600D01*
X66398800Y-112730000D02*
X65967000Y-112755400D01*
X130559200Y-161650400D02*
X130610000Y-162260000D01*
X130406800Y-160939200D02*
X130559200Y-161650400D01*
X130152800Y-159618400D02*
X130406800Y-160939200D01*
X129822600Y-157865800D02*
X130152800Y-159618400D01*
X129492400Y-156037000D02*
X129822600Y-157865800D01*
X129162200Y-153954200D02*
X129492400Y-156037000D01*
X128908200Y-152074600D02*
X129162200Y-153954200D01*
X128679600Y-150144200D02*
X128908200Y-152074600D01*
X128501800Y-148264600D02*
X128679600Y-150144200D01*
X128349400Y-146258000D02*
X128501800Y-148264600D01*
X128222400Y-144149800D02*
X128349400Y-146258000D01*
X130406800Y-117911600D02*
X130533800Y-117225800D01*
X130076600Y-119562600D02*
X130406800Y-117937000D01*
X129771800Y-121213600D02*
X130076600Y-119588000D01*
X129467000Y-122966200D02*
X129771800Y-121213600D01*
X129187600Y-124718800D02*
X129467000Y-122966200D01*
X128933600Y-126598400D02*
X129187600Y-124718800D01*
X128730400Y-128376400D02*
X128933600Y-126598400D01*
X128527200Y-130383000D02*
X128730400Y-128376400D01*
X128349400Y-132618200D02*
X128527200Y-130383000D01*
X128222400Y-134650200D02*
X128349400Y-132618200D01*
X128222400Y-134650200D02*
X128222400Y-144149800D01*
X126800000Y-166070000D02*
G75*
G03*
X130610000Y-162260000I0J3810000D01*
G01*
X130610000Y-116540000D02*
G75*
G03*
X126800000Y-112730000I-3810000J0D01*
G01*
X126800000Y-166070000D02*
X66398800Y-166070000D01*
X66398800Y-112730000D02*
X126800000Y-112730000D01*
D13*
X105506428Y-110196333D02*
X106292619Y-110196333D01*
X105869285Y-110873666D01*
X106050714Y-110873666D01*
X106171666Y-110958333D01*
X106232142Y-111043000D01*
X106292619Y-111212333D01*
X106292619Y-111635666D01*
X106232142Y-111805000D01*
X106171666Y-111889666D01*
X106050714Y-111974333D01*
X105687857Y-111974333D01*
X105566904Y-111889666D01*
X105506428Y-111805000D01*
X107078809Y-110196333D02*
X107199761Y-110196333D01*
X107320714Y-110281000D01*
X107381190Y-110365666D01*
X107441666Y-110535000D01*
X107502142Y-110873666D01*
X107502142Y-111297000D01*
X107441666Y-111635666D01*
X107381190Y-111805000D01*
X107320714Y-111889666D01*
X107199761Y-111974333D01*
X107078809Y-111974333D01*
X106957857Y-111889666D01*
X106897380Y-111805000D01*
X106836904Y-111635666D01*
X106776428Y-111297000D01*
X106776428Y-110873666D01*
X106836904Y-110535000D01*
X106897380Y-110365666D01*
X106957857Y-110281000D01*
X107078809Y-110196333D01*
X109255952Y-110196333D02*
X109497857Y-110196333D01*
X109618809Y-110281000D01*
X109739761Y-110450333D01*
X109800238Y-110789000D01*
X109800238Y-111381666D01*
X109739761Y-111720333D01*
X109618809Y-111889666D01*
X109497857Y-111974333D01*
X109255952Y-111974333D01*
X109135000Y-111889666D01*
X109014047Y-111720333D01*
X108953571Y-111381666D01*
X108953571Y-110789000D01*
X109014047Y-110450333D01*
X109135000Y-110281000D01*
X109255952Y-110196333D01*
X110888809Y-111889666D02*
X110767857Y-111974333D01*
X110525952Y-111974333D01*
X110405000Y-111889666D01*
X110344523Y-111805000D01*
X110284047Y-111635666D01*
X110284047Y-111127666D01*
X110344523Y-110958333D01*
X110405000Y-110873666D01*
X110525952Y-110789000D01*
X110767857Y-110789000D01*
X110888809Y-110873666D01*
X111251666Y-110789000D02*
X111735476Y-110789000D01*
X111433095Y-110196333D02*
X111433095Y-111720333D01*
X111493571Y-111889666D01*
X111614523Y-111974333D01*
X111735476Y-111974333D01*
X112340238Y-111974333D02*
X112219285Y-111889666D01*
X112158809Y-111805000D01*
X112098333Y-111635666D01*
X112098333Y-111127666D01*
X112158809Y-110958333D01*
X112219285Y-110873666D01*
X112340238Y-110789000D01*
X112521666Y-110789000D01*
X112642619Y-110873666D01*
X112703095Y-110958333D01*
X112763571Y-111127666D01*
X112763571Y-111635666D01*
X112703095Y-111805000D01*
X112642619Y-111889666D01*
X112521666Y-111974333D01*
X112340238Y-111974333D01*
X113307857Y-111974333D02*
X113307857Y-110196333D01*
X113307857Y-110873666D02*
X113428809Y-110789000D01*
X113670714Y-110789000D01*
X113791666Y-110873666D01*
X113852142Y-110958333D01*
X113912619Y-111127666D01*
X113912619Y-111635666D01*
X113852142Y-111805000D01*
X113791666Y-111889666D01*
X113670714Y-111974333D01*
X113428809Y-111974333D01*
X113307857Y-111889666D01*
X114940714Y-111889666D02*
X114819761Y-111974333D01*
X114577857Y-111974333D01*
X114456904Y-111889666D01*
X114396428Y-111720333D01*
X114396428Y-111043000D01*
X114456904Y-110873666D01*
X114577857Y-110789000D01*
X114819761Y-110789000D01*
X114940714Y-110873666D01*
X115001190Y-111043000D01*
X115001190Y-111212333D01*
X114396428Y-111381666D01*
X115545476Y-111974333D02*
X115545476Y-110789000D01*
X115545476Y-111127666D02*
X115605952Y-110958333D01*
X115666428Y-110873666D01*
X115787380Y-110789000D01*
X115908333Y-110789000D01*
X117238809Y-110365666D02*
X117299285Y-110281000D01*
X117420238Y-110196333D01*
X117722619Y-110196333D01*
X117843571Y-110281000D01*
X117904047Y-110365666D01*
X117964523Y-110535000D01*
X117964523Y-110704333D01*
X117904047Y-110958333D01*
X117178333Y-111974333D01*
X117964523Y-111974333D01*
X118750714Y-110196333D02*
X118871666Y-110196333D01*
X118992619Y-110281000D01*
X119053095Y-110365666D01*
X119113571Y-110535000D01*
X119174047Y-110873666D01*
X119174047Y-111297000D01*
X119113571Y-111635666D01*
X119053095Y-111805000D01*
X118992619Y-111889666D01*
X118871666Y-111974333D01*
X118750714Y-111974333D01*
X118629761Y-111889666D01*
X118569285Y-111805000D01*
X118508809Y-111635666D01*
X118448333Y-111297000D01*
X118448333Y-110873666D01*
X118508809Y-110535000D01*
X118569285Y-110365666D01*
X118629761Y-110281000D01*
X118750714Y-110196333D01*
X120383571Y-111974333D02*
X119657857Y-111974333D01*
X120020714Y-111974333D02*
X120020714Y-110196333D01*
X119899761Y-110450333D01*
X119778809Y-110619666D01*
X119657857Y-110704333D01*
X121109285Y-110958333D02*
X120988333Y-110873666D01*
X120927857Y-110789000D01*
X120867380Y-110619666D01*
X120867380Y-110535000D01*
X120927857Y-110365666D01*
X120988333Y-110281000D01*
X121109285Y-110196333D01*
X121351190Y-110196333D01*
X121472142Y-110281000D01*
X121532619Y-110365666D01*
X121593095Y-110535000D01*
X121593095Y-110619666D01*
X121532619Y-110789000D01*
X121472142Y-110873666D01*
X121351190Y-110958333D01*
X121109285Y-110958333D01*
X120988333Y-111043000D01*
X120927857Y-111127666D01*
X120867380Y-111297000D01*
X120867380Y-111635666D01*
X120927857Y-111805000D01*
X120988333Y-111889666D01*
X121109285Y-111974333D01*
X121351190Y-111974333D01*
X121472142Y-111889666D01*
X121532619Y-111805000D01*
X121593095Y-111635666D01*
X121593095Y-111297000D01*
X121532619Y-111127666D01*
X121472142Y-111043000D01*
X121351190Y-110958333D01*
D10*
X97537571Y-125929619D02*
X97537571Y-124913619D01*
X97827857Y-124913619D01*
X97900428Y-124962000D01*
X97936714Y-125010380D01*
X97973000Y-125107142D01*
X97973000Y-125252285D01*
X97936714Y-125349047D01*
X97900428Y-125397428D01*
X97827857Y-125445809D01*
X97537571Y-125445809D01*
X98335857Y-125929619D02*
X98481000Y-125929619D01*
X98553571Y-125881238D01*
X98589857Y-125832857D01*
X98662428Y-125687714D01*
X98698714Y-125494190D01*
X98698714Y-125107142D01*
X98662428Y-125010380D01*
X98626142Y-124962000D01*
X98553571Y-124913619D01*
X98408428Y-124913619D01*
X98335857Y-124962000D01*
X98299571Y-125010380D01*
X98263285Y-125107142D01*
X98263285Y-125349047D01*
X98299571Y-125445809D01*
X98335857Y-125494190D01*
X98408428Y-125542571D01*
X98553571Y-125542571D01*
X98626142Y-125494190D01*
X98662428Y-125445809D01*
X98698714Y-125349047D01*
D14*
X77298285Y-105374476D02*
X77878857Y-105374476D01*
X78169142Y-105568000D01*
X78459428Y-105955047D01*
X78604571Y-106729142D01*
X78604571Y-108083809D01*
X78459428Y-108857904D01*
X78169142Y-109244952D01*
X77878857Y-109438476D01*
X77298285Y-109438476D01*
X77008000Y-109244952D01*
X76717714Y-108857904D01*
X76572571Y-108083809D01*
X76572571Y-106729142D01*
X76717714Y-105955047D01*
X77008000Y-105568000D01*
X77298285Y-105374476D01*
X79910857Y-106729142D02*
X79910857Y-110793142D01*
X79910857Y-106922666D02*
X80201142Y-106729142D01*
X80781714Y-106729142D01*
X81072000Y-106922666D01*
X81217142Y-107116190D01*
X81362285Y-107503238D01*
X81362285Y-108664380D01*
X81217142Y-109051428D01*
X81072000Y-109244952D01*
X80781714Y-109438476D01*
X80201142Y-109438476D01*
X79910857Y-109244952D01*
X83829714Y-109244952D02*
X83539428Y-109438476D01*
X82958857Y-109438476D01*
X82668571Y-109244952D01*
X82523428Y-108857904D01*
X82523428Y-107309714D01*
X82668571Y-106922666D01*
X82958857Y-106729142D01*
X83539428Y-106729142D01*
X83829714Y-106922666D01*
X83974857Y-107309714D01*
X83974857Y-107696761D01*
X82523428Y-108083809D01*
X85281142Y-109438476D02*
X85281142Y-106729142D01*
X85281142Y-107503238D02*
X85426285Y-107116190D01*
X85571428Y-106922666D01*
X85861714Y-106729142D01*
X86152000Y-106729142D01*
X88474285Y-109438476D02*
X88474285Y-107309714D01*
X88329142Y-106922666D01*
X88038857Y-106729142D01*
X87458285Y-106729142D01*
X87168000Y-106922666D01*
X88474285Y-109244952D02*
X88184000Y-109438476D01*
X87458285Y-109438476D01*
X87168000Y-109244952D01*
X87022857Y-108857904D01*
X87022857Y-108470857D01*
X87168000Y-108083809D01*
X87458285Y-107890285D01*
X88184000Y-107890285D01*
X88474285Y-107696761D01*
X93989714Y-109051428D02*
X93844571Y-109244952D01*
X93409142Y-109438476D01*
X93118857Y-109438476D01*
X92683428Y-109244952D01*
X92393142Y-108857904D01*
X92248000Y-108470857D01*
X92102857Y-107696761D01*
X92102857Y-107116190D01*
X92248000Y-106342095D01*
X92393142Y-105955047D01*
X92683428Y-105568000D01*
X93118857Y-105374476D01*
X93409142Y-105374476D01*
X93844571Y-105568000D01*
X93989714Y-105761523D01*
X96602285Y-109438476D02*
X96602285Y-107309714D01*
X96457142Y-106922666D01*
X96166857Y-106729142D01*
X95586285Y-106729142D01*
X95296000Y-106922666D01*
X96602285Y-109244952D02*
X96312000Y-109438476D01*
X95586285Y-109438476D01*
X95296000Y-109244952D01*
X95150857Y-108857904D01*
X95150857Y-108470857D01*
X95296000Y-108083809D01*
X95586285Y-107890285D01*
X96312000Y-107890285D01*
X96602285Y-107696761D01*
X98053714Y-109438476D02*
X98053714Y-105374476D01*
X98344000Y-107890285D02*
X99214857Y-109438476D01*
X99214857Y-106729142D02*
X98053714Y-108277333D01*
X101682285Y-109244952D02*
X101392000Y-109438476D01*
X100811428Y-109438476D01*
X100521142Y-109244952D01*
X100376000Y-108857904D01*
X100376000Y-107309714D01*
X100521142Y-106922666D01*
X100811428Y-106729142D01*
X101392000Y-106729142D01*
X101682285Y-106922666D01*
X101827428Y-107309714D01*
X101827428Y-107696761D01*
X100376000Y-108083809D01*
D10*
X168259619Y-144175285D02*
X167243619Y-144175285D01*
X167243619Y-143885000D01*
X167292000Y-143812428D01*
X167340380Y-143776142D01*
X167437142Y-143739857D01*
X167582285Y-143739857D01*
X167679047Y-143776142D01*
X167727428Y-143812428D01*
X167775809Y-143885000D01*
X167775809Y-144175285D01*
X167340380Y-143449571D02*
X167292000Y-143413285D01*
X167243619Y-143340714D01*
X167243619Y-143159285D01*
X167292000Y-143086714D01*
X167340380Y-143050428D01*
X167437142Y-143014142D01*
X167533904Y-143014142D01*
X167679047Y-143050428D01*
X168259619Y-143485857D01*
X168259619Y-143014142D01*
X167243619Y-142542428D02*
X167243619Y-142469857D01*
X167292000Y-142397285D01*
X167340380Y-142361000D01*
X167437142Y-142324714D01*
X167630666Y-142288428D01*
X167872571Y-142288428D01*
X168066095Y-142324714D01*
X168162857Y-142361000D01*
X168211238Y-142397285D01*
X168259619Y-142469857D01*
X168259619Y-142542428D01*
X168211238Y-142615000D01*
X168162857Y-142651285D01*
X168066095Y-142687571D01*
X167872571Y-142723857D01*
X167630666Y-142723857D01*
X167437142Y-142687571D01*
X167340380Y-142651285D01*
X167292000Y-142615000D01*
X167243619Y-142542428D01*
X151835514Y-169211219D02*
X151835514Y-168195219D01*
X152125800Y-168195219D01*
X152198371Y-168243600D01*
X152234657Y-168291980D01*
X152270942Y-168388742D01*
X152270942Y-168533885D01*
X152234657Y-168630647D01*
X152198371Y-168679028D01*
X152125800Y-168727409D01*
X151835514Y-168727409D01*
X152561228Y-168291980D02*
X152597514Y-168243600D01*
X152670085Y-168195219D01*
X152851514Y-168195219D01*
X152924085Y-168243600D01*
X152960371Y-168291980D01*
X152996657Y-168388742D01*
X152996657Y-168485504D01*
X152960371Y-168630647D01*
X152524942Y-169211219D01*
X152996657Y-169211219D01*
X153286942Y-168291980D02*
X153323228Y-168243600D01*
X153395800Y-168195219D01*
X153577228Y-168195219D01*
X153649800Y-168243600D01*
X153686085Y-168291980D01*
X153722371Y-168388742D01*
X153722371Y-168485504D01*
X153686085Y-168630647D01*
X153250657Y-169211219D01*
X153722371Y-169211219D01*
X119959619Y-144175285D02*
X118943619Y-144175285D01*
X118943619Y-143885000D01*
X118992000Y-143812428D01*
X119040380Y-143776142D01*
X119137142Y-143739857D01*
X119282285Y-143739857D01*
X119379047Y-143776142D01*
X119427428Y-143812428D01*
X119475809Y-143885000D01*
X119475809Y-144175285D01*
X119040380Y-143449571D02*
X118992000Y-143413285D01*
X118943619Y-143340714D01*
X118943619Y-143159285D01*
X118992000Y-143086714D01*
X119040380Y-143050428D01*
X119137142Y-143014142D01*
X119233904Y-143014142D01*
X119379047Y-143050428D01*
X119959619Y-143485857D01*
X119959619Y-143014142D01*
X119379047Y-142578714D02*
X119330666Y-142651285D01*
X119282285Y-142687571D01*
X119185523Y-142723857D01*
X119137142Y-142723857D01*
X119040380Y-142687571D01*
X118992000Y-142651285D01*
X118943619Y-142578714D01*
X118943619Y-142433571D01*
X118992000Y-142361000D01*
X119040380Y-142324714D01*
X119137142Y-142288428D01*
X119185523Y-142288428D01*
X119282285Y-142324714D01*
X119330666Y-142361000D01*
X119379047Y-142433571D01*
X119379047Y-142578714D01*
X119427428Y-142651285D01*
X119475809Y-142687571D01*
X119572571Y-142723857D01*
X119766095Y-142723857D01*
X119862857Y-142687571D01*
X119911238Y-142651285D01*
X119959619Y-142578714D01*
X119959619Y-142433571D01*
X119911238Y-142361000D01*
X119862857Y-142324714D01*
X119766095Y-142288428D01*
X119572571Y-142288428D01*
X119475809Y-142324714D01*
X119427428Y-142361000D01*
X119379047Y-142433571D01*
D13*
X134079704Y-172019733D02*
X134079704Y-170241733D01*
X134623990Y-172019733D02*
X134623990Y-171088400D01*
X134563514Y-170919066D01*
X134442561Y-170834400D01*
X134261133Y-170834400D01*
X134140180Y-170919066D01*
X134079704Y-171003733D01*
X135047323Y-170834400D02*
X135531133Y-170834400D01*
X135228752Y-170241733D02*
X135228752Y-171765733D01*
X135289228Y-171935066D01*
X135410180Y-172019733D01*
X135531133Y-172019733D01*
X135773038Y-170834400D02*
X136256847Y-170834400D01*
X135954466Y-170241733D02*
X135954466Y-171765733D01*
X136014942Y-171935066D01*
X136135895Y-172019733D01*
X136256847Y-172019733D01*
X136680180Y-170834400D02*
X136680180Y-172612400D01*
X136680180Y-170919066D02*
X136801133Y-170834400D01*
X137043038Y-170834400D01*
X137163990Y-170919066D01*
X137224466Y-171003733D01*
X137284942Y-171173066D01*
X137284942Y-171681066D01*
X137224466Y-171850400D01*
X137163990Y-171935066D01*
X137043038Y-172019733D01*
X136801133Y-172019733D01*
X136680180Y-171935066D01*
X137768752Y-171935066D02*
X137889704Y-172019733D01*
X138131609Y-172019733D01*
X138252561Y-171935066D01*
X138313038Y-171765733D01*
X138313038Y-171681066D01*
X138252561Y-171511733D01*
X138131609Y-171427066D01*
X137950180Y-171427066D01*
X137829228Y-171342400D01*
X137768752Y-171173066D01*
X137768752Y-171088400D01*
X137829228Y-170919066D01*
X137950180Y-170834400D01*
X138131609Y-170834400D01*
X138252561Y-170919066D01*
X138857323Y-171850400D02*
X138917800Y-171935066D01*
X138857323Y-172019733D01*
X138796847Y-171935066D01*
X138857323Y-171850400D01*
X138857323Y-172019733D01*
X138857323Y-170919066D02*
X138917800Y-171003733D01*
X138857323Y-171088400D01*
X138796847Y-171003733D01*
X138857323Y-170919066D01*
X138857323Y-171088400D01*
X140369228Y-170157066D02*
X139280657Y-172443066D01*
X141699704Y-170157066D02*
X140611133Y-172443066D01*
X142667323Y-170834400D02*
X142667323Y-172273733D01*
X142606847Y-172443066D01*
X142546371Y-172527733D01*
X142425419Y-172612400D01*
X142243990Y-172612400D01*
X142123038Y-172527733D01*
X142667323Y-171935066D02*
X142546371Y-172019733D01*
X142304466Y-172019733D01*
X142183514Y-171935066D01*
X142123038Y-171850400D01*
X142062561Y-171681066D01*
X142062561Y-171173066D01*
X142123038Y-171003733D01*
X142183514Y-170919066D01*
X142304466Y-170834400D01*
X142546371Y-170834400D01*
X142667323Y-170919066D01*
X143272085Y-172019733D02*
X143272085Y-170834400D01*
X143272085Y-171173066D02*
X143332561Y-171003733D01*
X143393038Y-170919066D01*
X143513990Y-170834400D01*
X143634942Y-170834400D01*
X144542085Y-171935066D02*
X144421133Y-172019733D01*
X144179228Y-172019733D01*
X144058276Y-171935066D01*
X143997800Y-171765733D01*
X143997800Y-171088400D01*
X144058276Y-170919066D01*
X144179228Y-170834400D01*
X144421133Y-170834400D01*
X144542085Y-170919066D01*
X144602561Y-171088400D01*
X144602561Y-171257733D01*
X143997800Y-171427066D01*
X145691133Y-172019733D02*
X145691133Y-171088400D01*
X145630657Y-170919066D01*
X145509704Y-170834400D01*
X145267800Y-170834400D01*
X145146847Y-170919066D01*
X145691133Y-171935066D02*
X145570180Y-172019733D01*
X145267800Y-172019733D01*
X145146847Y-171935066D01*
X145086371Y-171765733D01*
X145086371Y-171596400D01*
X145146847Y-171427066D01*
X145267800Y-171342400D01*
X145570180Y-171342400D01*
X145691133Y-171257733D01*
X146114466Y-170834400D02*
X146598276Y-170834400D01*
X146295895Y-170241733D02*
X146295895Y-171765733D01*
X146356371Y-171935066D01*
X146477323Y-172019733D01*
X146598276Y-172019733D01*
X146961133Y-171935066D02*
X147082085Y-172019733D01*
X147323990Y-172019733D01*
X147444942Y-171935066D01*
X147505419Y-171765733D01*
X147505419Y-171681066D01*
X147444942Y-171511733D01*
X147323990Y-171427066D01*
X147142561Y-171427066D01*
X147021609Y-171342400D01*
X146961133Y-171173066D01*
X146961133Y-171088400D01*
X147021609Y-170919066D01*
X147142561Y-170834400D01*
X147323990Y-170834400D01*
X147444942Y-170919066D01*
X148593990Y-171935066D02*
X148473038Y-172019733D01*
X148231133Y-172019733D01*
X148110180Y-171935066D01*
X148049704Y-171850400D01*
X147989228Y-171681066D01*
X147989228Y-171173066D01*
X148049704Y-171003733D01*
X148110180Y-170919066D01*
X148231133Y-170834400D01*
X148473038Y-170834400D01*
X148593990Y-170919066D01*
X149319704Y-172019733D02*
X149198752Y-171935066D01*
X149138276Y-171850400D01*
X149077800Y-171681066D01*
X149077800Y-171173066D01*
X149138276Y-171003733D01*
X149198752Y-170919066D01*
X149319704Y-170834400D01*
X149501133Y-170834400D01*
X149622085Y-170919066D01*
X149682561Y-171003733D01*
X149743038Y-171173066D01*
X149743038Y-171681066D01*
X149682561Y-171850400D01*
X149622085Y-171935066D01*
X149501133Y-172019733D01*
X149319704Y-172019733D01*
X150105895Y-170834400D02*
X150589704Y-170834400D01*
X150287323Y-170241733D02*
X150287323Y-171765733D01*
X150347800Y-171935066D01*
X150468752Y-172019733D01*
X150589704Y-172019733D01*
X150831609Y-170834400D02*
X151315419Y-170834400D01*
X151013038Y-170241733D02*
X151013038Y-171765733D01*
X151073514Y-171935066D01*
X151194466Y-172019733D01*
X151315419Y-172019733D01*
X152283038Y-170834400D02*
X152283038Y-172273733D01*
X152222561Y-172443066D01*
X152162085Y-172527733D01*
X152041133Y-172612400D01*
X151859704Y-172612400D01*
X151738752Y-172527733D01*
X152283038Y-171935066D02*
X152162085Y-172019733D01*
X151920180Y-172019733D01*
X151799228Y-171935066D01*
X151738752Y-171850400D01*
X151678276Y-171681066D01*
X151678276Y-171173066D01*
X151738752Y-171003733D01*
X151799228Y-170919066D01*
X151920180Y-170834400D01*
X152162085Y-170834400D01*
X152283038Y-170919066D01*
X153432085Y-172019733D02*
X153432085Y-171088400D01*
X153371609Y-170919066D01*
X153250657Y-170834400D01*
X153008752Y-170834400D01*
X152887800Y-170919066D01*
X153432085Y-171935066D02*
X153311133Y-172019733D01*
X153008752Y-172019733D01*
X152887800Y-171935066D01*
X152827323Y-171765733D01*
X152827323Y-171596400D01*
X152887800Y-171427066D01*
X153008752Y-171342400D01*
X153311133Y-171342400D01*
X153432085Y-171257733D01*
X154581133Y-172019733D02*
X154581133Y-170241733D01*
X154581133Y-171935066D02*
X154460180Y-172019733D01*
X154218276Y-172019733D01*
X154097323Y-171935066D01*
X154036847Y-171850400D01*
X153976371Y-171681066D01*
X153976371Y-171173066D01*
X154036847Y-171003733D01*
X154097323Y-170919066D01*
X154218276Y-170834400D01*
X154460180Y-170834400D01*
X154581133Y-170919066D01*
X155730180Y-170834400D02*
X155730180Y-172273733D01*
X155669704Y-172443066D01*
X155609228Y-172527733D01*
X155488276Y-172612400D01*
X155306847Y-172612400D01*
X155185895Y-172527733D01*
X155730180Y-171935066D02*
X155609228Y-172019733D01*
X155367323Y-172019733D01*
X155246371Y-171935066D01*
X155185895Y-171850400D01*
X155125419Y-171681066D01*
X155125419Y-171173066D01*
X155185895Y-171003733D01*
X155246371Y-170919066D01*
X155367323Y-170834400D01*
X155609228Y-170834400D01*
X155730180Y-170919066D01*
X156818752Y-171935066D02*
X156697800Y-172019733D01*
X156455895Y-172019733D01*
X156334942Y-171935066D01*
X156274466Y-171765733D01*
X156274466Y-171088400D01*
X156334942Y-170919066D01*
X156455895Y-170834400D01*
X156697800Y-170834400D01*
X156818752Y-170919066D01*
X156879228Y-171088400D01*
X156879228Y-171257733D01*
X156274466Y-171427066D01*
X157242085Y-170834400D02*
X157725895Y-170834400D01*
X157423514Y-170241733D02*
X157423514Y-171765733D01*
X157483990Y-171935066D01*
X157604942Y-172019733D01*
X157725895Y-172019733D01*
X158088752Y-171935066D02*
X158209704Y-172019733D01*
X158451609Y-172019733D01*
X158572561Y-171935066D01*
X158633038Y-171765733D01*
X158633038Y-171681066D01*
X158572561Y-171511733D01*
X158451609Y-171427066D01*
X158270180Y-171427066D01*
X158149228Y-171342400D01*
X158088752Y-171173066D01*
X158088752Y-171088400D01*
X158149228Y-170919066D01*
X158270180Y-170834400D01*
X158451609Y-170834400D01*
X158572561Y-170919066D01*
X159177323Y-171850400D02*
X159237800Y-171935066D01*
X159177323Y-172019733D01*
X159116847Y-171935066D01*
X159177323Y-171850400D01*
X159177323Y-172019733D01*
X160326371Y-171935066D02*
X160205419Y-172019733D01*
X159963514Y-172019733D01*
X159842561Y-171935066D01*
X159782085Y-171850400D01*
X159721609Y-171681066D01*
X159721609Y-171173066D01*
X159782085Y-171003733D01*
X159842561Y-170919066D01*
X159963514Y-170834400D01*
X160205419Y-170834400D01*
X160326371Y-170919066D01*
X161052085Y-172019733D02*
X160931133Y-171935066D01*
X160870657Y-171850400D01*
X160810180Y-171681066D01*
X160810180Y-171173066D01*
X160870657Y-171003733D01*
X160931133Y-170919066D01*
X161052085Y-170834400D01*
X161233514Y-170834400D01*
X161354466Y-170919066D01*
X161414942Y-171003733D01*
X161475419Y-171173066D01*
X161475419Y-171681066D01*
X161414942Y-171850400D01*
X161354466Y-171935066D01*
X161233514Y-172019733D01*
X161052085Y-172019733D01*
X162019704Y-172019733D02*
X162019704Y-170834400D01*
X162019704Y-171003733D02*
X162080180Y-170919066D01*
X162201133Y-170834400D01*
X162382561Y-170834400D01*
X162503514Y-170919066D01*
X162563990Y-171088400D01*
X162563990Y-172019733D01*
X162563990Y-171088400D02*
X162624466Y-170919066D01*
X162745419Y-170834400D01*
X162926847Y-170834400D01*
X163047800Y-170919066D01*
X163108276Y-171088400D01*
X163108276Y-172019733D01*
X164620180Y-170157066D02*
X163531609Y-172443066D01*
X165043514Y-172019733D02*
X165043514Y-170241733D01*
X165587800Y-172019733D02*
X165587800Y-171088400D01*
X165527323Y-170919066D01*
X165406371Y-170834400D01*
X165224942Y-170834400D01*
X165103990Y-170919066D01*
X165043514Y-171003733D01*
X166736847Y-172019733D02*
X166736847Y-171088400D01*
X166676371Y-170919066D01*
X166555419Y-170834400D01*
X166313514Y-170834400D01*
X166192561Y-170919066D01*
X166736847Y-171935066D02*
X166615895Y-172019733D01*
X166313514Y-172019733D01*
X166192561Y-171935066D01*
X166132085Y-171765733D01*
X166132085Y-171596400D01*
X166192561Y-171427066D01*
X166313514Y-171342400D01*
X166615895Y-171342400D01*
X166736847Y-171257733D01*
X167885895Y-171935066D02*
X167764942Y-172019733D01*
X167523038Y-172019733D01*
X167402085Y-171935066D01*
X167341609Y-171850400D01*
X167281133Y-171681066D01*
X167281133Y-171173066D01*
X167341609Y-171003733D01*
X167402085Y-170919066D01*
X167523038Y-170834400D01*
X167764942Y-170834400D01*
X167885895Y-170919066D01*
X168430180Y-172019733D02*
X168430180Y-170241733D01*
X168551133Y-171342400D02*
X168913990Y-172019733D01*
X168913990Y-170834400D02*
X168430180Y-171511733D01*
X169458276Y-172019733D02*
X169458276Y-170834400D01*
X169458276Y-171173066D02*
X169518752Y-171003733D01*
X169579228Y-170919066D01*
X169700180Y-170834400D01*
X169821133Y-170834400D01*
X170063038Y-170834400D02*
X170546847Y-170834400D01*
X170244466Y-172019733D02*
X170244466Y-170495733D01*
X170304942Y-170326400D01*
X170425895Y-170241733D01*
X170546847Y-170241733D01*
X171877323Y-170157066D02*
X170788752Y-172443066D01*
D15*
G04 #@! TO.C,DBG1*
X176775000Y-154675000D02*
X176845000Y-154675000D01*
D16*
X176625000Y-154675000D02*
X176925000Y-154475000D01*
X176925000Y-154475000D02*
X176925000Y-154875000D01*
X176925000Y-154875000D02*
X176625000Y-154675000D01*
D15*
X178146600Y-154065400D02*
X175403400Y-154065400D01*
X175403400Y-154065400D02*
X175403400Y-155284600D01*
X175403400Y-155284600D02*
X178146600Y-155284600D01*
X178146600Y-155284600D02*
X178146600Y-154065400D01*
G04 #@! TO.C,DBY1*
X176775000Y-155900000D02*
X176845000Y-155900000D01*
D16*
X176625000Y-155900000D02*
X176925000Y-155700000D01*
X176925000Y-155700000D02*
X176925000Y-156100000D01*
X176925000Y-156100000D02*
X176625000Y-155900000D01*
D15*
X178146600Y-155290400D02*
X175403400Y-155290400D01*
X175403400Y-155290400D02*
X175403400Y-156509600D01*
X175403400Y-156509600D02*
X178146600Y-156509600D01*
X178146600Y-156509600D02*
X178146600Y-155290400D01*
G04 #@! TO.C,DBG4*
X176775000Y-117550000D02*
X176845000Y-117550000D01*
D16*
X176625000Y-117550000D02*
X176925000Y-117350000D01*
X176925000Y-117350000D02*
X176925000Y-117750000D01*
X176925000Y-117750000D02*
X176625000Y-117550000D01*
D15*
X178146600Y-116940400D02*
X175403400Y-116940400D01*
X175403400Y-116940400D02*
X175403400Y-118159600D01*
X175403400Y-118159600D02*
X178146600Y-118159600D01*
X178146600Y-118159600D02*
X178146600Y-116940400D01*
G04 #@! TO.C,DBY4*
X176775000Y-118775000D02*
X176845000Y-118775000D01*
D16*
X176625000Y-118775000D02*
X176925000Y-118575000D01*
X176925000Y-118575000D02*
X176925000Y-118975000D01*
X176925000Y-118975000D02*
X176625000Y-118775000D01*
D15*
X178146600Y-118165400D02*
X175403400Y-118165400D01*
X175403400Y-118165400D02*
X175403400Y-119384600D01*
X175403400Y-119384600D02*
X178146600Y-119384600D01*
X178146600Y-119384600D02*
X178146600Y-118165400D01*
G04 #@! TO.C,DBG3*
X176775000Y-129925000D02*
X176845000Y-129925000D01*
D16*
X176625000Y-129925000D02*
X176925000Y-129725000D01*
X176925000Y-129725000D02*
X176925000Y-130125000D01*
X176925000Y-130125000D02*
X176625000Y-129925000D01*
D15*
X178146600Y-129315400D02*
X175403400Y-129315400D01*
X175403400Y-129315400D02*
X175403400Y-130534600D01*
X175403400Y-130534600D02*
X178146600Y-130534600D01*
X178146600Y-130534600D02*
X178146600Y-129315400D01*
G04 #@! TO.C,DBY3*
X176775000Y-131150000D02*
X176845000Y-131150000D01*
D16*
X176625000Y-131150000D02*
X176925000Y-130950000D01*
X176925000Y-130950000D02*
X176925000Y-131350000D01*
X176925000Y-131350000D02*
X176625000Y-131150000D01*
D15*
X178146600Y-130540400D02*
X175403400Y-130540400D01*
X175403400Y-130540400D02*
X175403400Y-131759600D01*
X175403400Y-131759600D02*
X178146600Y-131759600D01*
X178146600Y-131759600D02*
X178146600Y-130540400D01*
G04 #@! TO.C,DAY4*
X63225000Y-118775000D02*
X63155000Y-118775000D01*
D16*
X63375000Y-118775000D02*
X63075000Y-118975000D01*
X63075000Y-118975000D02*
X63075000Y-118575000D01*
X63075000Y-118575000D02*
X63375000Y-118775000D01*
D15*
X61853400Y-119384600D02*
X64596600Y-119384600D01*
X64596600Y-119384600D02*
X64596600Y-118165400D01*
X64596600Y-118165400D02*
X61853400Y-118165400D01*
X61853400Y-118165400D02*
X61853400Y-119384600D01*
G04 #@! TO.C,DAG4*
X63225000Y-117550000D02*
X63155000Y-117550000D01*
D16*
X63375000Y-117550000D02*
X63075000Y-117750000D01*
X63075000Y-117750000D02*
X63075000Y-117350000D01*
X63075000Y-117350000D02*
X63375000Y-117550000D01*
D15*
X61853400Y-118159600D02*
X64596600Y-118159600D01*
X64596600Y-118159600D02*
X64596600Y-116940400D01*
X64596600Y-116940400D02*
X61853400Y-116940400D01*
X61853400Y-116940400D02*
X61853400Y-118159600D01*
G04 #@! TO.C,C1*
X66611000Y-137131000D02*
X66611000Y-136369000D01*
X66611000Y-136369000D02*
X68389000Y-136369000D01*
X68389000Y-136369000D02*
X68389000Y-137131000D01*
X68389000Y-137131000D02*
X66611000Y-137131000D01*
G04 #@! TO.C,C2*
X66611000Y-112381000D02*
X66611000Y-111619000D01*
X66611000Y-111619000D02*
X68389000Y-111619000D01*
X68389000Y-111619000D02*
X68389000Y-112381000D01*
X68389000Y-112381000D02*
X66611000Y-112381000D01*
G04 #@! TO.C,C3*
X168389000Y-136369000D02*
X168389000Y-137131000D01*
X168389000Y-137131000D02*
X166611000Y-137131000D01*
X166611000Y-137131000D02*
X166611000Y-136369000D01*
X166611000Y-136369000D02*
X168389000Y-136369000D01*
G04 #@! TO.C,C4*
X173389000Y-111619000D02*
X173389000Y-112381000D01*
X173389000Y-112381000D02*
X171611000Y-112381000D01*
X171611000Y-112381000D02*
X171611000Y-111619000D01*
X171611000Y-111619000D02*
X173389000Y-111619000D01*
G04 #@! TO.C,C5*
X66611000Y-149506000D02*
X66611000Y-148744000D01*
X66611000Y-148744000D02*
X68389000Y-148744000D01*
X68389000Y-148744000D02*
X68389000Y-149506000D01*
X68389000Y-149506000D02*
X66611000Y-149506000D01*
G04 #@! TO.C,C6*
X66611000Y-124756000D02*
X66611000Y-123994000D01*
X66611000Y-123994000D02*
X68389000Y-123994000D01*
X68389000Y-123994000D02*
X68389000Y-124756000D01*
X68389000Y-124756000D02*
X66611000Y-124756000D01*
G04 #@! TO.C,C7*
X168389000Y-149144000D02*
X168389000Y-149906000D01*
X168389000Y-149906000D02*
X166611000Y-149906000D01*
X166611000Y-149906000D02*
X166611000Y-149144000D01*
X166611000Y-149144000D02*
X168389000Y-149144000D01*
G04 #@! TO.C,C8*
X173389000Y-123994000D02*
X173389000Y-124756000D01*
X173389000Y-124756000D02*
X171611000Y-124756000D01*
X171611000Y-124756000D02*
X171611000Y-123994000D01*
X171611000Y-123994000D02*
X173389000Y-123994000D01*
G04 #@! TO.C,C9*
X114203480Y-166268400D02*
X114203480Y-165506400D01*
X114203480Y-165506400D02*
X115981480Y-165506400D01*
X115981480Y-165506400D02*
X115981480Y-166268400D01*
X115981480Y-166268400D02*
X114203480Y-166268400D01*
G04 #@! TO.C,C10*
X122981720Y-165745160D02*
X122981720Y-164983160D01*
X122981720Y-164983160D02*
X124759720Y-164983160D01*
X124759720Y-164983160D02*
X124759720Y-165745160D01*
X124759720Y-165745160D02*
X122981720Y-165745160D01*
G04 #@! TO.C,C11*
X66611000Y-161881000D02*
X66611000Y-161119000D01*
X66611000Y-161119000D02*
X68389000Y-161119000D01*
X68389000Y-161119000D02*
X68389000Y-161881000D01*
X68389000Y-161881000D02*
X66611000Y-161881000D01*
G04 #@! TO.C,C12*
X173364000Y-161119000D02*
X173364000Y-161881000D01*
X173364000Y-161881000D02*
X171586000Y-161881000D01*
X171586000Y-161881000D02*
X171586000Y-161119000D01*
X171586000Y-161119000D02*
X173364000Y-161119000D01*
G04 #@! TO.C,D1*
X68719000Y-135311000D02*
X69481000Y-135311000D01*
X69481000Y-135311000D02*
X69481000Y-137089000D01*
X69481000Y-137089000D02*
X68719000Y-137089000D01*
X68719000Y-137089000D02*
X68719000Y-135311000D01*
G04 #@! TO.C,D2*
X68719000Y-110611000D02*
X69481000Y-110611000D01*
X69481000Y-110611000D02*
X69481000Y-112389000D01*
X69481000Y-112389000D02*
X68719000Y-112389000D01*
X68719000Y-112389000D02*
X68719000Y-110611000D01*
G04 #@! TO.C,D3*
X165519000Y-135411000D02*
X166281000Y-135411000D01*
X166281000Y-135411000D02*
X166281000Y-137189000D01*
X166281000Y-137189000D02*
X165519000Y-137189000D01*
X165519000Y-137189000D02*
X165519000Y-135411000D01*
G04 #@! TO.C,D4*
X170519000Y-110611000D02*
X171281000Y-110611000D01*
X171281000Y-110611000D02*
X171281000Y-112389000D01*
X171281000Y-112389000D02*
X170519000Y-112389000D01*
X170519000Y-112389000D02*
X170519000Y-110611000D01*
G04 #@! TO.C,D5*
X68719000Y-147711000D02*
X69481000Y-147711000D01*
X69481000Y-147711000D02*
X69481000Y-149489000D01*
X69481000Y-149489000D02*
X68719000Y-149489000D01*
X68719000Y-149489000D02*
X68719000Y-147711000D01*
G04 #@! TO.C,D6*
X68719000Y-123011000D02*
X69481000Y-123011000D01*
X69481000Y-123011000D02*
X69481000Y-124789000D01*
X69481000Y-124789000D02*
X68719000Y-124789000D01*
X68719000Y-124789000D02*
X68719000Y-123011000D01*
G04 #@! TO.C,D7*
X165519000Y-148111000D02*
X166281000Y-148111000D01*
X166281000Y-148111000D02*
X166281000Y-149889000D01*
X166281000Y-149889000D02*
X165519000Y-149889000D01*
X165519000Y-149889000D02*
X165519000Y-148111000D01*
G04 #@! TO.C,D8*
X170519000Y-123011000D02*
X171281000Y-123011000D01*
X171281000Y-123011000D02*
X171281000Y-124789000D01*
X171281000Y-124789000D02*
X170519000Y-124789000D01*
X170519000Y-124789000D02*
X170519000Y-123011000D01*
G04 #@! TO.C,D9*
X68719000Y-160111000D02*
X69481000Y-160111000D01*
X69481000Y-160111000D02*
X69481000Y-161889000D01*
X69481000Y-161889000D02*
X68719000Y-161889000D01*
X68719000Y-161889000D02*
X68719000Y-160111000D01*
G04 #@! TO.C,D10*
X170519000Y-160111000D02*
X171281000Y-160111000D01*
X171281000Y-160111000D02*
X171281000Y-161889000D01*
X171281000Y-161889000D02*
X170519000Y-161889000D01*
X170519000Y-161889000D02*
X170519000Y-160111000D01*
G04 #@! TO.C,DA0*
X63225000Y-167050000D02*
X63155000Y-167050000D01*
D16*
X63375000Y-167050000D02*
X63075000Y-167250000D01*
X63075000Y-167250000D02*
X63075000Y-166850000D01*
X63075000Y-166850000D02*
X63375000Y-167050000D01*
D15*
X61853400Y-167659600D02*
X64596600Y-167659600D01*
X64596600Y-167659600D02*
X64596600Y-166440400D01*
X64596600Y-166440400D02*
X61853400Y-166440400D01*
X61853400Y-166440400D02*
X61853400Y-167659600D01*
G04 #@! TO.C,DAG1*
X63225000Y-154675000D02*
X63155000Y-154675000D01*
D16*
X63375000Y-154675000D02*
X63075000Y-154875000D01*
X63075000Y-154875000D02*
X63075000Y-154475000D01*
X63075000Y-154475000D02*
X63375000Y-154675000D01*
D15*
X61853400Y-155284600D02*
X64596600Y-155284600D01*
X64596600Y-155284600D02*
X64596600Y-154065400D01*
X64596600Y-154065400D02*
X61853400Y-154065400D01*
X61853400Y-154065400D02*
X61853400Y-155284600D01*
G04 #@! TO.C,DAG2*
X63225000Y-142300000D02*
X63155000Y-142300000D01*
D16*
X63375000Y-142300000D02*
X63075000Y-142500000D01*
X63075000Y-142500000D02*
X63075000Y-142100000D01*
X63075000Y-142100000D02*
X63375000Y-142300000D01*
D15*
X61853400Y-142909600D02*
X64596600Y-142909600D01*
X64596600Y-142909600D02*
X64596600Y-141690400D01*
X64596600Y-141690400D02*
X61853400Y-141690400D01*
X61853400Y-141690400D02*
X61853400Y-142909600D01*
G04 #@! TO.C,DAG3*
X63225000Y-129925000D02*
X63155000Y-129925000D01*
D16*
X63375000Y-129925000D02*
X63075000Y-130125000D01*
X63075000Y-130125000D02*
X63075000Y-129725000D01*
X63075000Y-129725000D02*
X63375000Y-129925000D01*
D15*
X61853400Y-130534600D02*
X64596600Y-130534600D01*
X64596600Y-130534600D02*
X64596600Y-129315400D01*
X64596600Y-129315400D02*
X61853400Y-129315400D01*
X61853400Y-129315400D02*
X61853400Y-130534600D01*
G04 #@! TO.C,DAY1*
X63225000Y-155900000D02*
X63155000Y-155900000D01*
D16*
X63375000Y-155900000D02*
X63075000Y-156100000D01*
X63075000Y-156100000D02*
X63075000Y-155700000D01*
X63075000Y-155700000D02*
X63375000Y-155900000D01*
D15*
X61853400Y-156509600D02*
X64596600Y-156509600D01*
X64596600Y-156509600D02*
X64596600Y-155290400D01*
X64596600Y-155290400D02*
X61853400Y-155290400D01*
X61853400Y-155290400D02*
X61853400Y-156509600D01*
G04 #@! TO.C,DAY2*
X63225000Y-143525000D02*
X63155000Y-143525000D01*
D16*
X63375000Y-143525000D02*
X63075000Y-143725000D01*
X63075000Y-143725000D02*
X63075000Y-143325000D01*
X63075000Y-143325000D02*
X63375000Y-143525000D01*
D15*
X61853400Y-144134600D02*
X64596600Y-144134600D01*
X64596600Y-144134600D02*
X64596600Y-142915400D01*
X64596600Y-142915400D02*
X61853400Y-142915400D01*
X61853400Y-142915400D02*
X61853400Y-144134600D01*
G04 #@! TO.C,DAY3*
X63225000Y-131150000D02*
X63155000Y-131150000D01*
D16*
X63375000Y-131150000D02*
X63075000Y-131350000D01*
X63075000Y-131350000D02*
X63075000Y-130950000D01*
X63075000Y-130950000D02*
X63375000Y-131150000D01*
D15*
X61853400Y-131759600D02*
X64596600Y-131759600D01*
X64596600Y-131759600D02*
X64596600Y-130540400D01*
X64596600Y-130540400D02*
X61853400Y-130540400D01*
X61853400Y-130540400D02*
X61853400Y-131759600D01*
G04 #@! TO.C,DB0*
X176775000Y-167050000D02*
X176845000Y-167050000D01*
D16*
X176625000Y-167050000D02*
X176925000Y-166850000D01*
X176925000Y-166850000D02*
X176925000Y-167250000D01*
X176925000Y-167250000D02*
X176625000Y-167050000D01*
D15*
X178146600Y-166440400D02*
X175403400Y-166440400D01*
X175403400Y-166440400D02*
X175403400Y-167659600D01*
X175403400Y-167659600D02*
X178146600Y-167659600D01*
X178146600Y-167659600D02*
X178146600Y-166440400D01*
G04 #@! TO.C,DBG2*
X176775000Y-142300000D02*
X176845000Y-142300000D01*
D16*
X176625000Y-142300000D02*
X176925000Y-142100000D01*
X176925000Y-142100000D02*
X176925000Y-142500000D01*
X176925000Y-142500000D02*
X176625000Y-142300000D01*
D15*
X178146600Y-141690400D02*
X175403400Y-141690400D01*
X175403400Y-141690400D02*
X175403400Y-142909600D01*
X175403400Y-142909600D02*
X178146600Y-142909600D01*
X178146600Y-142909600D02*
X178146600Y-141690400D01*
G04 #@! TO.C,DBY2*
X176775000Y-143525000D02*
X176845000Y-143525000D01*
D16*
X176625000Y-143525000D02*
X176925000Y-143325000D01*
X176925000Y-143325000D02*
X176925000Y-143725000D01*
X176925000Y-143725000D02*
X176625000Y-143525000D01*
D15*
X178146600Y-142915400D02*
X175403400Y-142915400D01*
X175403400Y-142915400D02*
X175403400Y-144134600D01*
X175403400Y-144134600D02*
X178146600Y-144134600D01*
X178146600Y-144134600D02*
X178146600Y-142915400D01*
D17*
G04 #@! TO.C,P1*
X151440000Y-154680000D02*
X148265000Y-154680000D01*
X148265000Y-154680000D02*
X148265000Y-157855000D01*
X148265000Y-157855000D02*
X151440000Y-157855000D01*
X151440000Y-157855000D02*
X151440000Y-154680000D01*
X148900000Y-152140000D02*
X156520000Y-152140000D01*
X156520000Y-152140000D02*
X156520000Y-157220000D01*
X156520000Y-157220000D02*
X148900000Y-157220000D01*
X148900000Y-157220000D02*
X148900000Y-152140000D01*
G04 #@! TO.C,P9*
X108260000Y-131820000D02*
X87940000Y-131820000D01*
X87940000Y-131820000D02*
X87940000Y-126740000D01*
X87940000Y-126740000D02*
X108260000Y-126740000D01*
X105720000Y-129280000D02*
X108895000Y-129280000D01*
X108895000Y-129280000D02*
X108895000Y-126105000D01*
X108895000Y-126105000D02*
X105720000Y-126105000D01*
X105720000Y-126105000D02*
X105720000Y-129280000D01*
X108260000Y-126740000D02*
X108260000Y-131820000D01*
G04 #@! TO.C,P20*
X169220000Y-157220000D02*
X169220000Y-129280000D01*
X169220000Y-129280000D02*
X174300000Y-129280000D01*
X174300000Y-129280000D02*
X174300000Y-157220000D01*
X171760000Y-154680000D02*
X171760000Y-157855000D01*
X171760000Y-157855000D02*
X174935000Y-157855000D01*
X174935000Y-157855000D02*
X174935000Y-154680000D01*
X174935000Y-154680000D02*
X171760000Y-154680000D01*
X174300000Y-157220000D02*
X169220000Y-157220000D01*
G04 #@! TO.C,P22*
X136200000Y-162300000D02*
X169220000Y-162300000D01*
X169220000Y-167380000D02*
X136200000Y-167380000D01*
X136200000Y-167380000D02*
X136200000Y-162300000D01*
X166680000Y-164840000D02*
X169855000Y-164840000D01*
X169855000Y-164840000D02*
X169855000Y-161665000D01*
X169855000Y-161665000D02*
X166680000Y-161665000D01*
X166680000Y-161665000D02*
X166680000Y-164840000D01*
X169220000Y-162300000D02*
X169220000Y-167380000D01*
G04 #@! TO.C,P28*
X120960000Y-157220000D02*
X120960000Y-129280000D01*
X120960000Y-129280000D02*
X126040000Y-129280000D01*
X126040000Y-129280000D02*
X126040000Y-157220000D01*
X123500000Y-154680000D02*
X123500000Y-157855000D01*
X123500000Y-157855000D02*
X126675000Y-157855000D01*
X126675000Y-157855000D02*
X126675000Y-154680000D01*
X126675000Y-154680000D02*
X123500000Y-154680000D01*
X126040000Y-157220000D02*
X120960000Y-157220000D01*
D15*
G04 #@! TO.C,R1*
X111709200Y-128676400D02*
X111709200Y-131419600D01*
X111709200Y-131419600D02*
X112928400Y-131419600D01*
X112928400Y-131419600D02*
X112928400Y-128676400D01*
X112928400Y-128676400D02*
X111709200Y-128676400D01*
G04 #@! TO.C,R2*
X111887000Y-123596400D02*
X111887000Y-126339600D01*
X111887000Y-126339600D02*
X113106200Y-126339600D01*
X113106200Y-126339600D02*
X113106200Y-123596400D01*
X113106200Y-123596400D02*
X111887000Y-123596400D01*
G04 #@! TO.C,R3*
X111099600Y-124841000D02*
X111099600Y-122097800D01*
X111099600Y-122097800D02*
X109880400Y-122097800D01*
X109880400Y-122097800D02*
X109880400Y-124841000D01*
X109880400Y-124841000D02*
X111099600Y-124841000D01*
G04 #@! TO.C,R4*
X111074200Y-129946400D02*
X111074200Y-127203200D01*
X111074200Y-127203200D02*
X109855000Y-127203200D01*
X109855000Y-127203200D02*
X109855000Y-129946400D01*
X109855000Y-129946400D02*
X111074200Y-129946400D01*
G04 #@! TO.C,R5*
X133890400Y-139128400D02*
X133890400Y-141871600D01*
X133890400Y-141871600D02*
X135109600Y-141871600D01*
X135109600Y-141871600D02*
X135109600Y-139128400D01*
X135109600Y-139128400D02*
X133890400Y-139128400D01*
G04 #@! TO.C,R6*
X135890400Y-139128400D02*
X135890400Y-141871600D01*
X135890400Y-141871600D02*
X137109600Y-141871600D01*
X137109600Y-141871600D02*
X137109600Y-139128400D01*
X137109600Y-139128400D02*
X135890400Y-139128400D01*
G04 #@! TO.C,R7*
X135371600Y-165490400D02*
X132628400Y-165490400D01*
X132628400Y-165490400D02*
X132628400Y-166709600D01*
X132628400Y-166709600D02*
X135371600Y-166709600D01*
X135371600Y-166709600D02*
X135371600Y-165490400D01*
G04 #@! TO.C,R8*
X139428400Y-169209600D02*
X142171600Y-169209600D01*
X142171600Y-169209600D02*
X142171600Y-167990400D01*
X142171600Y-167990400D02*
X139428400Y-167990400D01*
X139428400Y-167990400D02*
X139428400Y-169209600D01*
G04 #@! TO.C,R9*
X132871600Y-138890400D02*
X130128400Y-138890400D01*
X130128400Y-138890400D02*
X130128400Y-140109600D01*
X130128400Y-140109600D02*
X132871600Y-140109600D01*
X132871600Y-140109600D02*
X132871600Y-138890400D01*
G04 #@! TO.C,R10*
X132115560Y-133304280D02*
X129372360Y-133304280D01*
X129372360Y-133304280D02*
X129372360Y-134523480D01*
X129372360Y-134523480D02*
X132115560Y-134523480D01*
X132115560Y-134523480D02*
X132115560Y-133304280D01*
G04 #@! TO.C,R11*
X141960600Y-128183640D02*
X139217400Y-128183640D01*
X139217400Y-128183640D02*
X139217400Y-129402840D01*
X139217400Y-129402840D02*
X141960600Y-129402840D01*
X141960600Y-129402840D02*
X141960600Y-128183640D01*
G04 #@! TO.C,R12*
X132141600Y-106214000D02*
X129398400Y-106214000D01*
X129398400Y-106214000D02*
X129398400Y-107433200D01*
X129398400Y-107433200D02*
X132141600Y-107433200D01*
X132141600Y-107433200D02*
X132141600Y-106214000D01*
G04 #@! TO.C,R13*
X124890400Y-124628400D02*
X124890400Y-127371600D01*
X124890400Y-127371600D02*
X126109600Y-127371600D01*
X126109600Y-127371600D02*
X126109600Y-124628400D01*
X126109600Y-124628400D02*
X124890400Y-124628400D01*
G04 #@! TO.C,R14*
X136141600Y-106214000D02*
X133398400Y-106214000D01*
X133398400Y-106214000D02*
X133398400Y-107433200D01*
X133398400Y-107433200D02*
X136141600Y-107433200D01*
X136141600Y-107433200D02*
X136141600Y-106214000D01*
G04 #@! TO.C,R15*
X137328400Y-122309600D02*
X140071600Y-122309600D01*
X140071600Y-122309600D02*
X140071600Y-121090400D01*
X140071600Y-121090400D02*
X137328400Y-121090400D01*
X137328400Y-121090400D02*
X137328400Y-122309600D01*
G04 #@! TO.C,R16*
X115965177Y-137085219D02*
X118708377Y-137085219D01*
X118708377Y-137085219D02*
X118708377Y-135866019D01*
X118708377Y-135866019D02*
X115965177Y-135866019D01*
X115965177Y-135866019D02*
X115965177Y-137085219D01*
G04 #@! TO.C,R17*
X149590400Y-148228400D02*
X149590400Y-150971600D01*
X149590400Y-150971600D02*
X150809600Y-150971600D01*
X150809600Y-150971600D02*
X150809600Y-148228400D01*
X150809600Y-148228400D02*
X149590400Y-148228400D01*
G04 #@! TO.C,R18*
X152090400Y-148228400D02*
X152090400Y-150971600D01*
X152090400Y-150971600D02*
X153309600Y-150971600D01*
X153309600Y-150971600D02*
X153309600Y-148228400D01*
X153309600Y-148228400D02*
X152090400Y-148228400D01*
G04 #@! TO.C,R19*
X154590400Y-148228400D02*
X154590400Y-150971600D01*
X154590400Y-150971600D02*
X155809600Y-150971600D01*
X155809600Y-150971600D02*
X155809600Y-148228400D01*
X155809600Y-148228400D02*
X154590400Y-148228400D01*
G04 #@! TO.C,R20*
X128709600Y-137171600D02*
X128709600Y-134428400D01*
X128709600Y-134428400D02*
X127490400Y-134428400D01*
X127490400Y-134428400D02*
X127490400Y-137171600D01*
X127490400Y-137171600D02*
X128709600Y-137171600D01*
D12*
G04 #@! TO.C,U1*
X122000000Y-170800000D02*
G75*
G03*
X122000000Y-170800000I-200000J0D01*
G01*
X121500000Y-170500000D02*
X118500000Y-170500000D01*
X118500000Y-170500000D02*
X118500000Y-167500000D01*
X118500000Y-167500000D02*
X121500000Y-167500000D01*
X121500000Y-167500000D02*
X121500000Y-170500000D01*
G04 #@! TO.C,U2*
X82100000Y-128762500D02*
G75*
G03*
X82100000Y-128762500I-100000J0D01*
G01*
X82000000Y-129062500D02*
X84000000Y-129062500D01*
X84000000Y-129062500D02*
X84000000Y-132062500D01*
X84000000Y-132062500D02*
X82000000Y-132062500D01*
X82000000Y-132062500D02*
X82000000Y-129062500D01*
G04 #@! TO.C,U3*
X158100000Y-132362500D02*
G75*
G03*
X158100000Y-132362500I-100000J0D01*
G01*
X158000000Y-132062500D02*
X156000000Y-132062500D01*
X156000000Y-132062500D02*
X156000000Y-129062500D01*
X156000000Y-129062500D02*
X158000000Y-129062500D01*
X158000000Y-129062500D02*
X158000000Y-132062500D01*
G04 #@! TO.C,U4*
X134200000Y-135700000D02*
G75*
G03*
X134200000Y-135700000I-200000J0D01*
G01*
X133500000Y-136200000D02*
X133500000Y-131800000D01*
X133500000Y-131800000D02*
X138500000Y-131800000D01*
X138500000Y-131800000D02*
X138500000Y-136200000D01*
X138500000Y-136200000D02*
X133500000Y-136200000D01*
G04 #@! TO.C,U5*
X146800000Y-124800000D02*
G75*
G03*
X146800000Y-124800000I-200000J0D01*
G01*
X147200000Y-125400000D02*
X142800000Y-125400000D01*
X142800000Y-125400000D02*
X142800000Y-118600000D01*
X142800000Y-118600000D02*
X147200000Y-118600000D01*
X147200000Y-118600000D02*
X147200000Y-125400000D01*
D18*
G04 #@! TO.C,U6*
X116711777Y-129975619D02*
X116711777Y-127975619D01*
X116711777Y-127975619D02*
X117961777Y-127975619D01*
X117961777Y-127975619D02*
X117961777Y-129975619D01*
X117961777Y-129975619D02*
X116711777Y-129975619D01*
X117736777Y-129475619D02*
G75*
G03*
X117736777Y-129475619I-100000J0D01*
G01*
G04 #@! TO.C,U7*
X116711777Y-124975619D02*
X116711777Y-122975619D01*
X116711777Y-122975619D02*
X117961777Y-122975619D01*
X117961777Y-122975619D02*
X117961777Y-124975619D01*
X117961777Y-124975619D02*
X116711777Y-124975619D01*
X117736777Y-124475619D02*
G75*
G03*
X117736777Y-124475619I-100000J0D01*
G01*
G04 #@! TO.C,U8*
X127125600Y-110559600D02*
X127125600Y-108559600D01*
X127125600Y-108559600D02*
X128375600Y-108559600D01*
X128375600Y-108559600D02*
X128375600Y-110559600D01*
X128375600Y-110559600D02*
X127125600Y-110559600D01*
X128150600Y-110059600D02*
G75*
G03*
X128150600Y-110059600I-100000J0D01*
G01*
G04 #@! TO.C,U9*
X135154800Y-108477800D02*
X135154800Y-110477800D01*
X135154800Y-110477800D02*
X133904800Y-110477800D01*
X133904800Y-110477800D02*
X133904800Y-108477800D01*
X133904800Y-108477800D02*
X135154800Y-108477800D01*
X134329800Y-108977800D02*
G75*
G03*
X134329800Y-108977800I-100000J0D01*
G01*
G04 #@! TO.C,U10*
X128955040Y-113949640D02*
X126955040Y-113949640D01*
X126955040Y-113949640D02*
X126955040Y-112699640D01*
X126955040Y-112699640D02*
X128955040Y-112699640D01*
X128955040Y-112699640D02*
X128955040Y-113949640D01*
X128555040Y-113024640D02*
G75*
G03*
X128555040Y-113024640I-100000J0D01*
G01*
G04 #@! TO.C,U11*
X133059680Y-114010600D02*
X131059680Y-114010600D01*
X131059680Y-114010600D02*
X131059680Y-112760600D01*
X131059680Y-112760600D02*
X133059680Y-112760600D01*
X133059680Y-112760600D02*
X133059680Y-114010600D01*
X132659680Y-113085600D02*
G75*
G03*
X132659680Y-113085600I-100000J0D01*
G01*
G04 #@! TO.C,U12*
X128833120Y-120228520D02*
X126833120Y-120228520D01*
X126833120Y-120228520D02*
X126833120Y-118978520D01*
X126833120Y-118978520D02*
X128833120Y-118978520D01*
X128833120Y-118978520D02*
X128833120Y-120228520D01*
X128433120Y-119303520D02*
G75*
G03*
X128433120Y-119303520I-100000J0D01*
G01*
G04 #@! TO.C,U13*
X133054600Y-120243760D02*
X131054600Y-120243760D01*
X131054600Y-120243760D02*
X131054600Y-118993760D01*
X131054600Y-118993760D02*
X133054600Y-118993760D01*
X133054600Y-118993760D02*
X133054600Y-120243760D01*
X132654600Y-119318760D02*
G75*
G03*
X132654600Y-119318760I-100000J0D01*
G01*
G04 #@! TO.C,U14*
X129000000Y-127625000D02*
X127000000Y-127625000D01*
X127000000Y-127625000D02*
X127000000Y-126375000D01*
X127000000Y-126375000D02*
X129000000Y-126375000D01*
X129000000Y-126375000D02*
X129000000Y-127625000D01*
X128600000Y-126700000D02*
G75*
G03*
X128600000Y-126700000I-100000J0D01*
G01*
G04 #@! TO.C,U15*
X133000000Y-127625000D02*
X131000000Y-127625000D01*
X131000000Y-127625000D02*
X131000000Y-126375000D01*
X131000000Y-126375000D02*
X133000000Y-126375000D01*
X133000000Y-126375000D02*
X133000000Y-127625000D01*
X132600000Y-126700000D02*
G75*
G03*
X132600000Y-126700000I-100000J0D01*
G01*
G04 #@! TO.C,U16*
X116711777Y-134975619D02*
X116711777Y-132975619D01*
X116711777Y-132975619D02*
X117961777Y-132975619D01*
X117961777Y-132975619D02*
X117961777Y-134975619D01*
X117961777Y-134975619D02*
X116711777Y-134975619D01*
X117736777Y-134475619D02*
G75*
G03*
X117736777Y-134475619I-100000J0D01*
G01*
D17*
G04 #@! TO.C,J1*
X73462000Y-113405000D02*
X73462000Y-116580000D01*
X70287000Y-113405000D02*
X73462000Y-113405000D01*
X70287000Y-116580000D02*
X70287000Y-113405000D01*
X70922000Y-114040000D02*
X121722000Y-114040000D01*
X121722000Y-114040000D02*
X121722000Y-119120000D01*
X121722000Y-119120000D02*
X70922000Y-119120000D01*
X73462000Y-116580000D02*
X70287000Y-116580000D01*
X70922000Y-119120000D02*
X70922000Y-114040000D01*
G04 #@! TO.C,J2*
X73462000Y-159125000D02*
X73462000Y-162300000D01*
X70287000Y-159125000D02*
X73462000Y-159125000D01*
X70287000Y-162300000D02*
X70287000Y-159125000D01*
X70922000Y-159760000D02*
X121722000Y-159760000D01*
X121722000Y-159760000D02*
X121722000Y-164840000D01*
X121722000Y-164840000D02*
X70922000Y-164840000D01*
X73462000Y-162300000D02*
X70287000Y-162300000D01*
X70922000Y-164840000D02*
X70922000Y-159760000D01*
D15*
G04 #@! TO.C,C13*
X85725000Y-133477000D02*
X84963000Y-133477000D01*
X84963000Y-133477000D02*
X84963000Y-131699000D01*
X84963000Y-131699000D02*
X85725000Y-131699000D01*
X85725000Y-131699000D02*
X85725000Y-133477000D01*
G04 #@! TO.C,C14*
X80492600Y-132613400D02*
X79730600Y-132613400D01*
X79730600Y-132613400D02*
X79730600Y-130835400D01*
X79730600Y-130835400D02*
X80492600Y-130835400D01*
X80492600Y-130835400D02*
X80492600Y-132613400D01*
G04 #@! TO.C,C15*
X80467200Y-130352800D02*
X79705200Y-130352800D01*
X79705200Y-130352800D02*
X79705200Y-128574800D01*
X79705200Y-128574800D02*
X80467200Y-128574800D01*
X80467200Y-128574800D02*
X80467200Y-130352800D01*
G04 #@! TO.C,C16*
X84709000Y-129336800D02*
X84709000Y-128574800D01*
X84709000Y-128574800D02*
X86487000Y-128574800D01*
X86487000Y-128574800D02*
X86487000Y-129336800D01*
X86487000Y-129336800D02*
X84709000Y-129336800D01*
G04 #@! TO.C,C17*
X116789200Y-168630600D02*
X116027200Y-168630600D01*
X116027200Y-168630600D02*
X116027200Y-166852600D01*
X116027200Y-166852600D02*
X116789200Y-166852600D01*
X116789200Y-166852600D02*
X116789200Y-168630600D01*
G04 #@! TO.C,C18*
X123977400Y-168579800D02*
X123215400Y-168579800D01*
X123215400Y-168579800D02*
X123215400Y-166801800D01*
X123215400Y-166801800D02*
X123977400Y-166801800D01*
X123977400Y-166801800D02*
X123977400Y-168579800D01*
G04 #@! TO.C,C19*
X153756360Y-128422400D02*
X154518360Y-128422400D01*
X154518360Y-128422400D02*
X154518360Y-130200400D01*
X154518360Y-130200400D02*
X153756360Y-130200400D01*
X153756360Y-130200400D02*
X153756360Y-128422400D01*
G04 #@! TO.C,C20*
X159232600Y-128574800D02*
X159994600Y-128574800D01*
X159994600Y-128574800D02*
X159994600Y-130352800D01*
X159994600Y-130352800D02*
X159232600Y-130352800D01*
X159232600Y-130352800D02*
X159232600Y-128574800D01*
G04 #@! TO.C,C21*
X159232600Y-130835400D02*
X159994600Y-130835400D01*
X159994600Y-130835400D02*
X159994600Y-132613400D01*
X159994600Y-132613400D02*
X159232600Y-132613400D01*
X159232600Y-132613400D02*
X159232600Y-130835400D01*
G04 #@! TO.C,C22*
X153771600Y-130906520D02*
X154533600Y-130906520D01*
X154533600Y-130906520D02*
X154533600Y-132684520D01*
X154533600Y-132684520D02*
X153771600Y-132684520D01*
X153771600Y-132684520D02*
X153771600Y-130906520D01*
G04 #@! TO.C,C23*
X113492280Y-128437640D02*
X114254280Y-128437640D01*
X114254280Y-128437640D02*
X114254280Y-130215640D01*
X114254280Y-130215640D02*
X113492280Y-130215640D01*
X113492280Y-130215640D02*
X113492280Y-128437640D01*
G04 #@! TO.C,C24*
X124030740Y-109852460D02*
X124792740Y-109852460D01*
X124792740Y-109852460D02*
X124792740Y-111630460D01*
X124792740Y-111630460D02*
X124030740Y-111630460D01*
X124030740Y-111630460D02*
X124030740Y-109852460D01*
G04 #@! TO.C,C25*
X128244600Y-116471700D02*
X128244600Y-117233700D01*
X128244600Y-117233700D02*
X126466600Y-117233700D01*
X126466600Y-117233700D02*
X126466600Y-116471700D01*
X126466600Y-116471700D02*
X128244600Y-116471700D01*
G04 #@! TO.C,C26*
X128188720Y-122803920D02*
X128188720Y-123565920D01*
X128188720Y-123565920D02*
X126410720Y-123565920D01*
X126410720Y-123565920D02*
X126410720Y-122803920D01*
X126410720Y-122803920D02*
X128188720Y-122803920D01*
G04 #@! TO.C,C27*
X129057400Y-129921000D02*
X129057400Y-130683000D01*
X129057400Y-130683000D02*
X127279400Y-130683000D01*
X127279400Y-130683000D02*
X127279400Y-129921000D01*
X127279400Y-129921000D02*
X129057400Y-129921000D01*
G04 #@! TO.C,C28*
X114338100Y-124614940D02*
X113576100Y-124614940D01*
X113576100Y-124614940D02*
X113576100Y-122836940D01*
X113576100Y-122836940D02*
X114338100Y-122836940D01*
X114338100Y-122836940D02*
X114338100Y-124614940D01*
G04 #@! TO.C,C29*
X138188700Y-109176820D02*
X137426700Y-109176820D01*
X137426700Y-109176820D02*
X137426700Y-107398820D01*
X137426700Y-107398820D02*
X138188700Y-107398820D01*
X138188700Y-107398820D02*
X138188700Y-109176820D01*
G04 #@! TO.C,C30*
X132654040Y-116921280D02*
X132654040Y-117683280D01*
X132654040Y-117683280D02*
X130876040Y-117683280D01*
X130876040Y-117683280D02*
X130876040Y-116921280D01*
X130876040Y-116921280D02*
X132654040Y-116921280D01*
G04 #@! TO.C,C31*
X131638040Y-123525280D02*
X131638040Y-122763280D01*
X131638040Y-122763280D02*
X133416040Y-122763280D01*
X133416040Y-122763280D02*
X133416040Y-123525280D01*
X133416040Y-123525280D02*
X131638040Y-123525280D01*
G04 #@! TO.C,C32*
X132913120Y-129600960D02*
X132913120Y-130362960D01*
X132913120Y-130362960D02*
X131135120Y-130362960D01*
X131135120Y-130362960D02*
X131135120Y-129600960D01*
X131135120Y-129600960D02*
X132913120Y-129600960D01*
G04 #@! TO.C,C33*
X113291620Y-133802120D02*
X114053620Y-133802120D01*
X114053620Y-133802120D02*
X114053620Y-135580120D01*
X114053620Y-135580120D02*
X113291620Y-135580120D01*
X113291620Y-135580120D02*
X113291620Y-133802120D01*
G04 #@! TO.C,C34*
X132928360Y-131008120D02*
X132928360Y-131770120D01*
X132928360Y-131770120D02*
X131150360Y-131770120D01*
X131150360Y-131770120D02*
X131150360Y-131008120D01*
X131150360Y-131008120D02*
X132928360Y-131008120D01*
G04 #@! TO.C,C35*
X140644880Y-126880620D02*
X140644880Y-126118620D01*
X140644880Y-126118620D02*
X142422880Y-126118620D01*
X142422880Y-126118620D02*
X142422880Y-126880620D01*
X142422880Y-126880620D02*
X140644880Y-126880620D01*
G04 #@! TD*
D19*
G04 #@! TO.C,P1*
X150170000Y-155950000D03*
D20*
X150170000Y-153410000D03*
X152710000Y-155950000D03*
X152710000Y-153410000D03*
X155250000Y-155950000D03*
X155250000Y-153410000D03*
G04 #@! TD*
D19*
G04 #@! TO.C,P9*
X106990000Y-128010000D03*
D20*
X106990000Y-130550000D03*
X104450000Y-128010000D03*
X104450000Y-130550000D03*
X101910000Y-128010000D03*
X101910000Y-130550000D03*
X99370000Y-128010000D03*
X99370000Y-130550000D03*
X96830000Y-128010000D03*
X96830000Y-130550000D03*
X94290000Y-128010000D03*
X94290000Y-130550000D03*
X91750000Y-128010000D03*
X91750000Y-130550000D03*
X89210000Y-128010000D03*
X89210000Y-130550000D03*
G04 #@! TD*
D19*
G04 #@! TO.C,P20*
X173030000Y-155950000D03*
D20*
X170490000Y-155950000D03*
X173030000Y-153410000D03*
X170490000Y-153410000D03*
X173030000Y-150870000D03*
X170490000Y-150870000D03*
X173030000Y-148330000D03*
X170490000Y-148330000D03*
X173030000Y-145790000D03*
X170490000Y-145790000D03*
X173030000Y-143250000D03*
X170490000Y-143250000D03*
X173030000Y-140710000D03*
X170490000Y-140710000D03*
X173030000Y-138170000D03*
X170490000Y-138170000D03*
X173030000Y-135630000D03*
X170490000Y-135630000D03*
X173030000Y-133090000D03*
X170490000Y-133090000D03*
X173030000Y-130550000D03*
X170490000Y-130550000D03*
G04 #@! TD*
D19*
G04 #@! TO.C,P22*
X167950000Y-163570000D03*
D20*
X167950000Y-166110000D03*
X165410000Y-163570000D03*
X165410000Y-166110000D03*
X162870000Y-163570000D03*
X162870000Y-166110000D03*
X160330000Y-163570000D03*
X160330000Y-166110000D03*
X157790000Y-163570000D03*
X157790000Y-166110000D03*
X155250000Y-163570000D03*
X155250000Y-166110000D03*
X152710000Y-163570000D03*
X152710000Y-166110000D03*
X150170000Y-163570000D03*
X150170000Y-166110000D03*
X147630000Y-163570000D03*
X147630000Y-166110000D03*
X145090000Y-163570000D03*
X145090000Y-166110000D03*
X142550000Y-163570000D03*
X142550000Y-166110000D03*
X140010000Y-163570000D03*
X140010000Y-166110000D03*
X137470000Y-163570000D03*
X137470000Y-166110000D03*
G04 #@! TD*
D19*
G04 #@! TO.C,P28*
X124770000Y-155950000D03*
D20*
X122230000Y-155950000D03*
X124770000Y-153410000D03*
X122230000Y-153410000D03*
X124770000Y-150870000D03*
X122230000Y-150870000D03*
X124770000Y-148330000D03*
X122230000Y-148330000D03*
X124770000Y-145790000D03*
X122230000Y-145790000D03*
X124770000Y-143250000D03*
X122230000Y-143250000D03*
X124770000Y-140710000D03*
X122230000Y-140710000D03*
X124770000Y-138170000D03*
X122230000Y-138170000D03*
X124770000Y-135630000D03*
X122230000Y-135630000D03*
X124770000Y-133090000D03*
X122230000Y-133090000D03*
X124770000Y-130550000D03*
X122230000Y-130550000D03*
G04 #@! TD*
D21*
G04 #@! TO.C,U2*
X83000000Y-130262500D03*
X83000000Y-129662500D03*
X83000000Y-130862500D03*
X83000000Y-131462500D03*
G04 #@! TD*
G04 #@! TO.C,U3*
X157000000Y-130862500D03*
X157000000Y-131462500D03*
X157000000Y-130262500D03*
X157000000Y-129662500D03*
G04 #@! TD*
D19*
G04 #@! TO.C,J1*
X72192000Y-115310000D03*
D20*
X72192000Y-117850000D03*
X74732000Y-115310000D03*
X74732000Y-117850000D03*
X77272000Y-115310000D03*
X77272000Y-117850000D03*
X79812000Y-115310000D03*
X79812000Y-117850000D03*
X82352000Y-115310000D03*
X82352000Y-117850000D03*
X84892000Y-115310000D03*
X84892000Y-117850000D03*
X87432000Y-115310000D03*
X87432000Y-117850000D03*
X89972000Y-115310000D03*
X89972000Y-117850000D03*
X92512000Y-115310000D03*
X92512000Y-117850000D03*
X95052000Y-115310000D03*
X95052000Y-117850000D03*
X97592000Y-115310000D03*
X97592000Y-117850000D03*
X100132000Y-115310000D03*
X100132000Y-117850000D03*
X102672000Y-115310000D03*
X102672000Y-117850000D03*
X105212000Y-115310000D03*
X105212000Y-117850000D03*
X107752000Y-115310000D03*
X107752000Y-117850000D03*
X110292000Y-115310000D03*
X110292000Y-117850000D03*
X112832000Y-115310000D03*
X112832000Y-117850000D03*
X115372000Y-115310000D03*
X115372000Y-117850000D03*
X117912000Y-115310000D03*
X117912000Y-117850000D03*
X120452000Y-115310000D03*
X120452000Y-117850000D03*
G04 #@! TD*
D19*
G04 #@! TO.C,J2*
X72192000Y-161030000D03*
D20*
X72192000Y-163570000D03*
X74732000Y-161030000D03*
X74732000Y-163570000D03*
X77272000Y-161030000D03*
X77272000Y-163570000D03*
X79812000Y-161030000D03*
X79812000Y-163570000D03*
X82352000Y-161030000D03*
X82352000Y-163570000D03*
X84892000Y-161030000D03*
X84892000Y-163570000D03*
X87432000Y-161030000D03*
X87432000Y-163570000D03*
X89972000Y-161030000D03*
X89972000Y-163570000D03*
X92512000Y-161030000D03*
X92512000Y-163570000D03*
X95052000Y-161030000D03*
X95052000Y-163570000D03*
X97592000Y-161030000D03*
X97592000Y-163570000D03*
X100132000Y-161030000D03*
X100132000Y-163570000D03*
X102672000Y-161030000D03*
X102672000Y-163570000D03*
X105212000Y-161030000D03*
X105212000Y-163570000D03*
X107752000Y-161030000D03*
X107752000Y-163570000D03*
X110292000Y-161030000D03*
X110292000Y-163570000D03*
X112832000Y-161030000D03*
X112832000Y-163570000D03*
X115372000Y-161030000D03*
X115372000Y-163570000D03*
X117912000Y-161030000D03*
X117912000Y-163570000D03*
X120452000Y-161030000D03*
X120452000Y-163570000D03*
G04 #@! TD*
M02*
