G04 #@! TF.GenerationSoftware,KiCad,Pcbnew,6.0.10-86aedd382b~118~ubuntu22.04.1*
G04 #@! TF.CreationDate,2023-01-31T23:44:10-05:00*
G04 #@! TF.ProjectId,operacake,6f706572-6163-4616-9b65-2e6b69636164,rev?*
G04 #@! TF.SameCoordinates,Original*
G04 #@! TF.FileFunction,Profile,NP*
%FSLAX46Y46*%
G04 Gerber Fmt 4.6, Leading zero omitted, Abs format (unit mm)*
G04 Created by KiCad (PCBNEW 6.0.10-86aedd382b~118~ubuntu22.04.1) date 2023-01-31 23:44:10*
%MOMM*%
%LPD*%
G01*
G04 APERTURE LIST*
G04 #@! TA.AperFunction,Profile*
%ADD10C,0.381000*%
G04 #@! TD*
G04 APERTURE END LIST*
D10*
X60000000Y-104000000D02*
X60000000Y-105000000D01*
X60000000Y-105000000D02*
X61020000Y-108750000D01*
X61020000Y-108750000D02*
X61020000Y-115250000D01*
X61020000Y-115250000D02*
X60750000Y-116250000D01*
X60750000Y-116250000D02*
X60750000Y-120125000D01*
X60750000Y-120125000D02*
X61020000Y-121125000D01*
X61020000Y-121125000D02*
X61020000Y-127625000D01*
X61020000Y-127625000D02*
X60750000Y-128625000D01*
X60750000Y-128625000D02*
X60750000Y-132500000D01*
X60750000Y-132500000D02*
X61020000Y-133500000D01*
X61020000Y-133500000D02*
X61020000Y-140000000D01*
X61020000Y-140000000D02*
X60750000Y-141000000D01*
X60750000Y-141000000D02*
X60750000Y-144875000D01*
X60750000Y-144875000D02*
X61020000Y-145875000D01*
X61020000Y-145875000D02*
X61020000Y-152375000D01*
X61020000Y-152375000D02*
X60750000Y-153375000D01*
X60750000Y-153375000D02*
X60750000Y-157250000D01*
X60750000Y-157250000D02*
X61020000Y-158250000D01*
X61020000Y-158250000D02*
X61020000Y-164750000D01*
X61020000Y-164750000D02*
X60000000Y-168500000D01*
X60000000Y-168500000D02*
X60000000Y-171000000D01*
X180000000Y-104000000D02*
X180000000Y-105000000D01*
X180000000Y-105000000D02*
X178980000Y-108750000D01*
X178980000Y-108750000D02*
X178980000Y-115250000D01*
X178980000Y-115250000D02*
X179250000Y-116250000D01*
X179250000Y-116250000D02*
X179250000Y-120125000D01*
X179250000Y-120125000D02*
X178980000Y-121125000D01*
X178980000Y-121125000D02*
X178980000Y-127625000D01*
X178980000Y-127625000D02*
X179250000Y-128625000D01*
X179250000Y-128625000D02*
X179250000Y-132500000D01*
X179250000Y-132500000D02*
X178980000Y-133500000D01*
X178980000Y-133500000D02*
X178980000Y-140000000D01*
X178980000Y-140000000D02*
X179250000Y-141000000D01*
X179250000Y-141000000D02*
X179250000Y-144875000D01*
X179250000Y-144875000D02*
X178980000Y-145875000D01*
X178980000Y-145875000D02*
X178980000Y-152375000D01*
X178980000Y-152375000D02*
X179250000Y-153375000D01*
X179250000Y-153375000D02*
X179250000Y-157250000D01*
X179250000Y-157250000D02*
X178980000Y-158250000D01*
X178980000Y-158250000D02*
X178980000Y-164750000D01*
X178980000Y-164750000D02*
X180000000Y-168500000D01*
X180000000Y-168500000D02*
X180000000Y-171000000D01*
X176000000Y-100000000D02*
X64000000Y-100000000D01*
X64000000Y-175000000D02*
X176000000Y-175000000D01*
X176000000Y-175000000D02*
G75*
G03*
X180000000Y-171000000I0J4000000D01*
G01*
X180000000Y-104000000D02*
G75*
G03*
X176000000Y-100000000I-4000000J0D01*
G01*
X60000000Y-171000000D02*
G75*
G03*
X64000000Y-175000000I4000000J0D01*
G01*
X64000000Y-100000000D02*
G75*
G03*
X60000000Y-104000000I0J-4000000D01*
G01*
M02*
