G04 #@! TF.GenerationSoftware,KiCad,Pcbnew,6.0.10-86aedd382b~118~ubuntu22.04.1*
G04 #@! TF.CreationDate,2023-01-31T23:44:09-05:00*
G04 #@! TF.ProjectId,operacake,6f706572-6163-4616-9b65-2e6b69636164,rev?*
G04 #@! TF.SameCoordinates,Original*
G04 #@! TF.FileFunction,Copper,L4,Bot*
G04 #@! TF.FilePolarity,Positive*
%FSLAX46Y46*%
G04 Gerber Fmt 4.6, Leading zero omitted, Abs format (unit mm)*
G04 Created by KiCad (PCBNEW 6.0.10-86aedd382b~118~ubuntu22.04.1) date 2023-01-31 23:44:09*
%MOMM*%
%LPD*%
G01*
G04 APERTURE LIST*
%ADD10C,0.177800*%
G04 #@! TA.AperFunction,NonConductor*
%ADD11C,0.177800*%
G04 #@! TD*
G04 #@! TA.AperFunction,ComponentPad*
%ADD12C,5.600000*%
G04 #@! TD*
G04 #@! TA.AperFunction,ComponentPad*
%ADD13C,0.600000*%
G04 #@! TD*
G04 #@! TA.AperFunction,ComponentPad*
%ADD14R,1.524000X1.524000*%
G04 #@! TD*
G04 #@! TA.AperFunction,ComponentPad*
%ADD15C,1.524000*%
G04 #@! TD*
G04 #@! TA.AperFunction,SMDPad,CuDef*
%ADD16R,4.190000X2.665000*%
G04 #@! TD*
G04 #@! TA.AperFunction,SMDPad,CuDef*
%ADD17C,1.270000*%
G04 #@! TD*
G04 #@! TA.AperFunction,ComponentPad*
%ADD18C,0.457200*%
G04 #@! TD*
G04 #@! TA.AperFunction,ViaPad*
%ADD19C,1.066800*%
G04 #@! TD*
G04 #@! TA.AperFunction,ViaPad*
%ADD20C,0.685800*%
G04 #@! TD*
G04 #@! TA.AperFunction,ViaPad*
%ADD21C,0.787400*%
G04 #@! TD*
G04 #@! TA.AperFunction,Conductor*
%ADD22C,0.279400*%
G04 #@! TD*
G04 #@! TA.AperFunction,Conductor*
%ADD23C,0.203200*%
G04 #@! TD*
G04 APERTURE END LIST*
D10*
D11*
X167893523Y-101082285D02*
X167893523Y-101759619D01*
X167651619Y-100695238D02*
X167409714Y-101420952D01*
X168038666Y-101420952D01*
D12*
G04 #@! TO.P,MH1,1*
G04 #@! TO.N,GND*
X64000000Y-104000000D03*
D13*
X64000000Y-101800000D03*
X61800000Y-104000000D03*
X64000000Y-106200000D03*
X66200000Y-104000000D03*
X65550000Y-102450000D03*
X62450000Y-102450000D03*
X62450000Y-105550000D03*
X65550000Y-105550000D03*
G04 #@! TD*
D12*
G04 #@! TO.P,MH2,1*
G04 #@! TO.N,GND*
X64000000Y-171000000D03*
D13*
X64000000Y-168800000D03*
X61800000Y-171000000D03*
X64000000Y-173200000D03*
X66200000Y-171000000D03*
X65550000Y-169450000D03*
X62450000Y-169450000D03*
X62450000Y-172550000D03*
X65550000Y-172550000D03*
G04 #@! TD*
D12*
G04 #@! TO.P,MH3,1*
G04 #@! TO.N,GND*
X176000000Y-171000000D03*
D13*
X176000000Y-168800000D03*
X173800000Y-171000000D03*
X176000000Y-173200000D03*
X178200000Y-171000000D03*
X177550000Y-169450000D03*
X174450000Y-169450000D03*
X174450000Y-172550000D03*
X177550000Y-172550000D03*
G04 #@! TD*
D12*
G04 #@! TO.P,MH4,1*
G04 #@! TO.N,GND*
X176000000Y-104000000D03*
D13*
X176000000Y-101800000D03*
X173800000Y-104000000D03*
X176000000Y-106200000D03*
X178200000Y-104000000D03*
X177550000Y-102450000D03*
X174450000Y-102450000D03*
X174450000Y-105550000D03*
X177550000Y-105550000D03*
G04 #@! TD*
D12*
G04 #@! TO.P,MH5,1*
G04 #@! TO.N,GND*
X126000000Y-104000000D03*
D13*
X126000000Y-101800000D03*
X123800000Y-104000000D03*
X126000000Y-106200000D03*
X128200000Y-104000000D03*
X127550000Y-102450000D03*
X124450000Y-102450000D03*
X124450000Y-105550000D03*
X127550000Y-105550000D03*
G04 #@! TD*
D12*
G04 #@! TO.P,MH6,1*
G04 #@! TO.N,GND*
X131000000Y-144000000D03*
D13*
X131000000Y-141800000D03*
X128800000Y-144000000D03*
X131000000Y-146200000D03*
X133200000Y-144000000D03*
X132550000Y-142450000D03*
X129450000Y-142450000D03*
X129450000Y-145550000D03*
X132550000Y-145550000D03*
G04 #@! TD*
D14*
G04 #@! TO.P,P1,1*
G04 #@! TO.N,VCC*
X150170000Y-155950000D03*
D15*
G04 #@! TO.P,P1,2*
G04 #@! TO.N,/A0*
X150170000Y-153410000D03*
G04 #@! TO.P,P1,3*
G04 #@! TO.N,VCC*
X152710000Y-155950000D03*
G04 #@! TO.P,P1,4*
G04 #@! TO.N,/A1*
X152710000Y-153410000D03*
G04 #@! TO.P,P1,5*
G04 #@! TO.N,VCC*
X155250000Y-155950000D03*
G04 #@! TO.P,P1,6*
G04 #@! TO.N,/A2*
X155250000Y-153410000D03*
G04 #@! TD*
D14*
G04 #@! TO.P,P9,1*
G04 #@! TO.N,GND*
X106990000Y-128010000D03*
D15*
G04 #@! TO.P,P9,2*
X106990000Y-130550000D03*
G04 #@! TO.P,P9,3*
X104450000Y-128010000D03*
G04 #@! TO.P,P9,4*
G04 #@! TO.N,Net-(P9-Pad4)*
X104450000Y-130550000D03*
G04 #@! TO.P,P9,5*
G04 #@! TO.N,Net-(P9-Pad5)*
X101910000Y-128010000D03*
G04 #@! TO.P,P9,6*
G04 #@! TO.N,Net-(P9-Pad6)*
X101910000Y-130550000D03*
G04 #@! TO.P,P9,7*
G04 #@! TO.N,Net-(P9-Pad7)*
X99370000Y-128010000D03*
G04 #@! TO.P,P9,8*
G04 #@! TO.N,GND*
X99370000Y-130550000D03*
G04 #@! TO.P,P9,9*
X96830000Y-128010000D03*
G04 #@! TO.P,P9,10*
G04 #@! TO.N,Net-(P9-Pad10)*
X96830000Y-130550000D03*
G04 #@! TO.P,P9,11*
G04 #@! TO.N,Net-(P9-Pad11)*
X94290000Y-128010000D03*
G04 #@! TO.P,P9,12*
G04 #@! TO.N,Net-(P9-Pad12)*
X94290000Y-130550000D03*
G04 #@! TO.P,P9,13*
G04 #@! TO.N,Net-(P9-Pad13)*
X91750000Y-128010000D03*
G04 #@! TO.P,P9,14*
G04 #@! TO.N,GND*
X91750000Y-130550000D03*
G04 #@! TO.P,P9,15*
X89210000Y-128010000D03*
G04 #@! TO.P,P9,16*
X89210000Y-130550000D03*
G04 #@! TD*
D14*
G04 #@! TO.P,P20,1*
G04 #@! TO.N,Net-(P20-Pad1)*
X173030000Y-155950000D03*
D15*
G04 #@! TO.P,P20,2*
G04 #@! TO.N,Net-(P20-Pad2)*
X170490000Y-155950000D03*
G04 #@! TO.P,P20,3*
G04 #@! TO.N,VCC*
X173030000Y-153410000D03*
G04 #@! TO.P,P20,4*
G04 #@! TO.N,Net-(P20-Pad4)*
X170490000Y-153410000D03*
G04 #@! TO.P,P20,5*
G04 #@! TO.N,/EXT_U1CTRL*
X173030000Y-150870000D03*
G04 #@! TO.P,P20,6*
G04 #@! TO.N,Net-(P20-Pad6)*
X170490000Y-150870000D03*
G04 #@! TO.P,P20,7*
G04 #@! TO.N,Net-(P20-Pad7)*
X173030000Y-148330000D03*
G04 #@! TO.P,P20,8*
G04 #@! TO.N,Net-(P20-Pad8)*
X170490000Y-148330000D03*
G04 #@! TO.P,P20,9*
G04 #@! TO.N,/EXT_U2CTRL0*
X173030000Y-145790000D03*
G04 #@! TO.P,P20,10*
G04 #@! TO.N,/EXT_U2CTRL1*
X170490000Y-145790000D03*
G04 #@! TO.P,P20,11*
G04 #@! TO.N,/EXT_U3CTRL0*
X173030000Y-143250000D03*
G04 #@! TO.P,P20,12*
G04 #@! TO.N,/EXT_U3CTRL1*
X170490000Y-143250000D03*
G04 #@! TO.P,P20,13*
G04 #@! TO.N,Net-(P20-Pad13)*
X173030000Y-140710000D03*
G04 #@! TO.P,P20,14*
G04 #@! TO.N,Net-(P20-Pad14)*
X170490000Y-140710000D03*
G04 #@! TO.P,P20,15*
G04 #@! TO.N,GND*
X173030000Y-138170000D03*
G04 #@! TO.P,P20,16*
G04 #@! TO.N,Net-(P20-Pad16)*
X170490000Y-138170000D03*
G04 #@! TO.P,P20,17*
G04 #@! TO.N,Net-(P20-Pad17)*
X173030000Y-135630000D03*
G04 #@! TO.P,P20,18*
G04 #@! TO.N,Net-(P20-Pad18)*
X170490000Y-135630000D03*
G04 #@! TO.P,P20,19*
G04 #@! TO.N,GND*
X173030000Y-133090000D03*
G04 #@! TO.P,P20,20*
G04 #@! TO.N,Net-(P20-Pad20)*
X170490000Y-133090000D03*
G04 #@! TO.P,P20,21*
G04 #@! TO.N,Net-(P20-Pad21)*
X173030000Y-130550000D03*
G04 #@! TO.P,P20,22*
G04 #@! TO.N,Net-(P20-Pad22)*
X170490000Y-130550000D03*
G04 #@! TD*
D14*
G04 #@! TO.P,P22,1*
G04 #@! TO.N,Net-(P22-Pad1)*
X167950000Y-163570000D03*
D15*
G04 #@! TO.P,P22,2*
G04 #@! TO.N,Net-(P22-Pad2)*
X167950000Y-166110000D03*
G04 #@! TO.P,P22,3*
G04 #@! TO.N,Net-(P22-Pad3)*
X165410000Y-163570000D03*
G04 #@! TO.P,P22,4*
G04 #@! TO.N,GND*
X165410000Y-166110000D03*
G04 #@! TO.P,P22,5*
G04 #@! TO.N,Net-(P22-Pad5)*
X162870000Y-163570000D03*
G04 #@! TO.P,P22,6*
G04 #@! TO.N,Net-(P22-Pad6)*
X162870000Y-166110000D03*
G04 #@! TO.P,P22,7*
G04 #@! TO.N,Net-(P22-Pad7)*
X160330000Y-163570000D03*
G04 #@! TO.P,P22,8*
G04 #@! TO.N,Net-(P22-Pad8)*
X160330000Y-166110000D03*
G04 #@! TO.P,P22,9*
G04 #@! TO.N,Net-(P22-Pad9)*
X157790000Y-163570000D03*
G04 #@! TO.P,P22,10*
G04 #@! TO.N,GND*
X157790000Y-166110000D03*
G04 #@! TO.P,P22,11*
G04 #@! TO.N,VCC*
X155250000Y-163570000D03*
G04 #@! TO.P,P22,12*
G04 #@! TO.N,Net-(P22-Pad12)*
X155250000Y-166110000D03*
G04 #@! TO.P,P22,13*
G04 #@! TO.N,Net-(P22-Pad13)*
X152710000Y-163570000D03*
G04 #@! TO.P,P22,14*
G04 #@! TO.N,Net-(P22-Pad14)*
X152710000Y-166110000D03*
G04 #@! TO.P,P22,15*
G04 #@! TO.N,Net-(P22-Pad15)*
X150170000Y-163570000D03*
G04 #@! TO.P,P22,16*
G04 #@! TO.N,Net-(P22-Pad16)*
X150170000Y-166110000D03*
G04 #@! TO.P,P22,17*
G04 #@! TO.N,Net-(P22-Pad17)*
X147630000Y-163570000D03*
G04 #@! TO.P,P22,18*
G04 #@! TO.N,GND*
X147630000Y-166110000D03*
G04 #@! TO.P,P22,19*
G04 #@! TO.N,Net-(P22-Pad19)*
X145090000Y-163570000D03*
G04 #@! TO.P,P22,20*
G04 #@! TO.N,Net-(P22-Pad20)*
X145090000Y-166110000D03*
G04 #@! TO.P,P22,21*
G04 #@! TO.N,Net-(P22-Pad21)*
X142550000Y-163570000D03*
G04 #@! TO.P,P22,22*
G04 #@! TO.N,Net-(P22-Pad22)*
X142550000Y-166110000D03*
G04 #@! TO.P,P22,23*
G04 #@! TO.N,Net-(P22-Pad23)*
X140010000Y-163570000D03*
G04 #@! TO.P,P22,24*
G04 #@! TO.N,/SDA*
X140010000Y-166110000D03*
G04 #@! TO.P,P22,25*
G04 #@! TO.N,Net-(P22-Pad25)*
X137470000Y-163570000D03*
G04 #@! TO.P,P22,26*
G04 #@! TO.N,/SCL*
X137470000Y-166110000D03*
G04 #@! TD*
D14*
G04 #@! TO.P,P28,1*
G04 #@! TO.N,VCC*
X124770000Y-155950000D03*
D15*
G04 #@! TO.P,P28,2*
G04 #@! TO.N,GND*
X122230000Y-155950000D03*
G04 #@! TO.P,P28,3*
G04 #@! TO.N,Net-(P28-Pad3)*
X124770000Y-153410000D03*
G04 #@! TO.P,P28,4*
G04 #@! TO.N,Net-(P28-Pad4)*
X122230000Y-153410000D03*
G04 #@! TO.P,P28,5*
G04 #@! TO.N,Net-(P28-Pad5)*
X124770000Y-150870000D03*
G04 #@! TO.P,P28,6*
G04 #@! TO.N,Net-(P28-Pad6)*
X122230000Y-150870000D03*
G04 #@! TO.P,P28,7*
G04 #@! TO.N,Net-(P28-Pad7)*
X124770000Y-148330000D03*
G04 #@! TO.P,P28,8*
G04 #@! TO.N,Net-(P28-Pad8)*
X122230000Y-148330000D03*
G04 #@! TO.P,P28,9*
G04 #@! TO.N,Net-(P28-Pad9)*
X124770000Y-145790000D03*
G04 #@! TO.P,P28,10*
G04 #@! TO.N,Net-(P28-Pad10)*
X122230000Y-145790000D03*
G04 #@! TO.P,P28,11*
G04 #@! TO.N,Net-(P28-Pad11)*
X124770000Y-143250000D03*
G04 #@! TO.P,P28,12*
G04 #@! TO.N,GND*
X122230000Y-143250000D03*
G04 #@! TO.P,P28,13*
G04 #@! TO.N,Net-(P28-Pad13)*
X124770000Y-140710000D03*
G04 #@! TO.P,P28,14*
G04 #@! TO.N,Net-(P28-Pad14)*
X122230000Y-140710000D03*
G04 #@! TO.P,P28,15*
G04 #@! TO.N,Net-(P28-Pad15)*
X124770000Y-138170000D03*
G04 #@! TO.P,P28,16*
G04 #@! TO.N,Net-(P28-Pad16)*
X122230000Y-138170000D03*
G04 #@! TO.P,P28,17*
G04 #@! TO.N,Net-(P28-Pad17)*
X124770000Y-135630000D03*
G04 #@! TO.P,P28,18*
G04 #@! TO.N,Net-(P28-Pad18)*
X122230000Y-135630000D03*
G04 #@! TO.P,P28,19*
G04 #@! TO.N,Net-(P28-Pad19)*
X124770000Y-133090000D03*
G04 #@! TO.P,P28,20*
G04 #@! TO.N,Net-(P28-Pad20)*
X122230000Y-133090000D03*
G04 #@! TO.P,P28,21*
G04 #@! TO.N,Net-(P28-Pad21)*
X124770000Y-130550000D03*
G04 #@! TO.P,P28,22*
G04 #@! TO.N,Net-(P28-Pad22)*
X122230000Y-130550000D03*
G04 #@! TD*
D16*
G04 #@! TO.P,PA0,2*
G04 #@! TO.N,GND*
X63115000Y-158007500D03*
X63115000Y-164992500D03*
D13*
X64520000Y-164000000D03*
X64520000Y-165000000D03*
X64520000Y-166000000D03*
X63520000Y-164000000D03*
X63520000Y-165000000D03*
X63520000Y-166000000D03*
X62520000Y-164000000D03*
X62520000Y-165000000D03*
X62520000Y-166000000D03*
X64520000Y-159000000D03*
X64520000Y-158000000D03*
X64520000Y-157000000D03*
X63520000Y-159000000D03*
X63520000Y-158000000D03*
X63520000Y-157000000D03*
X62520000Y-159000000D03*
X62520000Y-158000000D03*
X62520000Y-157000000D03*
G04 #@! TD*
D16*
G04 #@! TO.P,PA1,2*
G04 #@! TO.N,GND*
X63115000Y-145632500D03*
X63115000Y-152617500D03*
D13*
X64520000Y-151625000D03*
X64520000Y-152625000D03*
X64520000Y-153625000D03*
X63520000Y-151625000D03*
X63520000Y-152625000D03*
X63520000Y-153625000D03*
X62520000Y-151625000D03*
X62520000Y-152625000D03*
X62520000Y-153625000D03*
X64520000Y-146625000D03*
X64520000Y-145625000D03*
X64520000Y-144625000D03*
X63520000Y-146625000D03*
X63520000Y-145625000D03*
X63520000Y-144625000D03*
X62520000Y-146625000D03*
X62520000Y-145625000D03*
X62520000Y-144625000D03*
G04 #@! TD*
D16*
G04 #@! TO.P,PA2,2*
G04 #@! TO.N,GND*
X63115000Y-133257500D03*
X63115000Y-140242500D03*
D13*
X64520000Y-139250000D03*
X64520000Y-140250000D03*
X64520000Y-141250000D03*
X63520000Y-139250000D03*
X63520000Y-140250000D03*
X63520000Y-141250000D03*
X62520000Y-139250000D03*
X62520000Y-140250000D03*
X62520000Y-141250000D03*
X64520000Y-134250000D03*
X64520000Y-133250000D03*
X64520000Y-132250000D03*
X63520000Y-134250000D03*
X63520000Y-133250000D03*
X63520000Y-132250000D03*
X62520000Y-134250000D03*
X62520000Y-133250000D03*
X62520000Y-132250000D03*
G04 #@! TD*
D16*
G04 #@! TO.P,PA3,2*
G04 #@! TO.N,GND*
X63115000Y-120882500D03*
X63115000Y-127867500D03*
D13*
X64520000Y-126875000D03*
X64520000Y-127875000D03*
X64520000Y-128875000D03*
X63520000Y-126875000D03*
X63520000Y-127875000D03*
X63520000Y-128875000D03*
X62520000Y-126875000D03*
X62520000Y-127875000D03*
X62520000Y-128875000D03*
X64520000Y-121875000D03*
X64520000Y-120875000D03*
X64520000Y-119875000D03*
X63520000Y-121875000D03*
X63520000Y-120875000D03*
X63520000Y-119875000D03*
X62520000Y-121875000D03*
X62520000Y-120875000D03*
X62520000Y-119875000D03*
G04 #@! TD*
D16*
G04 #@! TO.P,PA4,2*
G04 #@! TO.N,GND*
X63115000Y-108507500D03*
X63115000Y-115492500D03*
D13*
X64520000Y-114500000D03*
X64520000Y-115500000D03*
X64520000Y-116500000D03*
X63520000Y-114500000D03*
X63520000Y-115500000D03*
X63520000Y-116500000D03*
X62520000Y-114500000D03*
X62520000Y-115500000D03*
X62520000Y-116500000D03*
X64520000Y-109500000D03*
X64520000Y-108500000D03*
X64520000Y-107500000D03*
X63520000Y-109500000D03*
X63520000Y-108500000D03*
X63520000Y-107500000D03*
X62520000Y-109500000D03*
X62520000Y-108500000D03*
X62520000Y-107500000D03*
G04 #@! TD*
D16*
G04 #@! TO.P,PB0,2*
G04 #@! TO.N,GND*
X176885000Y-164992500D03*
X176885000Y-158007500D03*
D13*
X175480000Y-159000000D03*
X175480000Y-158000000D03*
X175480000Y-157000000D03*
X176480000Y-159000000D03*
X176480000Y-158000000D03*
X176480000Y-157000000D03*
X177480000Y-159000000D03*
X177480000Y-158000000D03*
X177480000Y-157000000D03*
X175480000Y-164000000D03*
X175480000Y-165000000D03*
X175480000Y-166000000D03*
X176480000Y-164000000D03*
X176480000Y-165000000D03*
X176480000Y-166000000D03*
X177480000Y-164000000D03*
X177480000Y-165000000D03*
X177480000Y-166000000D03*
G04 #@! TD*
D16*
G04 #@! TO.P,PB1,2*
G04 #@! TO.N,GND*
X176885000Y-152617500D03*
X176885000Y-145632500D03*
D13*
X175480000Y-146625000D03*
X175480000Y-145625000D03*
X175480000Y-144625000D03*
X176480000Y-146625000D03*
X176480000Y-145625000D03*
X176480000Y-144625000D03*
X177480000Y-146625000D03*
X177480000Y-145625000D03*
X177480000Y-144625000D03*
X175480000Y-151625000D03*
X175480000Y-152625000D03*
X175480000Y-153625000D03*
X176480000Y-151625000D03*
X176480000Y-152625000D03*
X176480000Y-153625000D03*
X177480000Y-151625000D03*
X177480000Y-152625000D03*
X177480000Y-153625000D03*
G04 #@! TD*
D16*
G04 #@! TO.P,PB2,2*
G04 #@! TO.N,GND*
X176885000Y-140242500D03*
X176885000Y-133257500D03*
D13*
X175480000Y-134250000D03*
X175480000Y-133250000D03*
X175480000Y-132250000D03*
X176480000Y-134250000D03*
X176480000Y-133250000D03*
X176480000Y-132250000D03*
X177480000Y-134250000D03*
X177480000Y-133250000D03*
X177480000Y-132250000D03*
X175480000Y-139250000D03*
X175480000Y-140250000D03*
X175480000Y-141250000D03*
X176480000Y-139250000D03*
X176480000Y-140250000D03*
X176480000Y-141250000D03*
X177480000Y-139250000D03*
X177480000Y-140250000D03*
X177480000Y-141250000D03*
G04 #@! TD*
D16*
G04 #@! TO.P,PB3,2*
G04 #@! TO.N,GND*
X176885000Y-127867500D03*
X176885000Y-120882500D03*
D13*
X175480000Y-121875000D03*
X175480000Y-120875000D03*
X175480000Y-119875000D03*
X176480000Y-121875000D03*
X176480000Y-120875000D03*
X176480000Y-119875000D03*
X177480000Y-121875000D03*
X177480000Y-120875000D03*
X177480000Y-119875000D03*
X175480000Y-126875000D03*
X175480000Y-127875000D03*
X175480000Y-128875000D03*
X176480000Y-126875000D03*
X176480000Y-127875000D03*
X176480000Y-128875000D03*
X177480000Y-126875000D03*
X177480000Y-127875000D03*
X177480000Y-128875000D03*
G04 #@! TD*
D16*
G04 #@! TO.P,PB4,2*
G04 #@! TO.N,GND*
X176885000Y-115492500D03*
X176885000Y-108507500D03*
D13*
X175480000Y-109500000D03*
X175480000Y-108500000D03*
X175480000Y-107500000D03*
X176480000Y-109500000D03*
X176480000Y-108500000D03*
X176480000Y-107500000D03*
X177480000Y-109500000D03*
X177480000Y-108500000D03*
X177480000Y-107500000D03*
X175480000Y-114500000D03*
X175480000Y-115500000D03*
X175480000Y-116500000D03*
X176480000Y-114500000D03*
X176480000Y-115500000D03*
X176480000Y-116500000D03*
X177480000Y-114500000D03*
X177480000Y-115500000D03*
X177480000Y-116500000D03*
G04 #@! TD*
D17*
G04 #@! TO.P,TP1,1*
G04 #@! TO.N,/EXT_U2CTRL1*
X149000000Y-129800000D03*
G04 #@! TD*
G04 #@! TO.P,TP2,1*
G04 #@! TO.N,/EXT_U2CTRL0*
X163113720Y-144198340D03*
G04 #@! TD*
G04 #@! TO.P,TP3,1*
G04 #@! TO.N,/EXT_U3CTRL1*
X151200000Y-128300000D03*
G04 #@! TD*
G04 #@! TO.P,TP4,1*
G04 #@! TO.N,/EXT_U3CTRL0*
X153500000Y-127000000D03*
G04 #@! TD*
G04 #@! TO.P,TP5,1*
G04 #@! TO.N,/EXT_U1CTRL*
X163500000Y-148000000D03*
G04 #@! TD*
G04 #@! TO.P,TP6,1*
G04 #@! TO.N,/!LED_EN*
X139400000Y-141100000D03*
G04 #@! TD*
G04 #@! TO.P,TP7,1*
G04 #@! TO.N,/!RESET*
X134400000Y-131300000D03*
G04 #@! TD*
G04 #@! TO.P,TP8,1*
G04 #@! TO.N,/!OE*
X140500000Y-130500000D03*
G04 #@! TD*
G04 #@! TO.P,TP9,1*
G04 #@! TO.N,/U1CTRL*
X118200000Y-136500000D03*
G04 #@! TD*
G04 #@! TO.P,TP10,1*
G04 #@! TO.N,/U2CTRL0*
X129600000Y-131900000D03*
G04 #@! TD*
G04 #@! TO.P,TP11,1*
G04 #@! TO.N,/U2CTRL1*
X138600000Y-124100000D03*
G04 #@! TD*
G04 #@! TO.P,TP12,1*
G04 #@! TO.N,/U3CTRL0*
X138200000Y-120500000D03*
G04 #@! TD*
G04 #@! TO.P,TP13,1*
G04 #@! TO.N,/U3CTRL1*
X133770000Y-104323600D03*
G04 #@! TD*
G04 #@! TO.P,TP14,1*
G04 #@! TO.N,GND*
X111000000Y-128000000D03*
G04 #@! TD*
G04 #@! TO.P,TP15,1*
G04 #@! TO.N,VCC*
X122300000Y-125200000D03*
G04 #@! TD*
G04 #@! TO.P,TP16,1*
G04 #@! TO.N,/U1VC1*
X115800000Y-151000000D03*
G04 #@! TD*
G04 #@! TO.P,TP17,1*
G04 #@! TO.N,/U1VC2*
X113106200Y-156286200D03*
G04 #@! TD*
G04 #@! TO.P,TP18,1*
G04 #@! TO.N,/U2V1*
X67900000Y-142900000D03*
G04 #@! TD*
G04 #@! TO.P,TP19,1*
G04 #@! TO.N,/U2V2*
X73500000Y-130500000D03*
G04 #@! TD*
G04 #@! TO.P,TP20,1*
G04 #@! TO.N,/U2V3*
X85300000Y-140700000D03*
G04 #@! TD*
G04 #@! TO.P,TP21,1*
G04 #@! TO.N,/U2V4*
X82400000Y-124000000D03*
G04 #@! TD*
G04 #@! TO.P,TP22,1*
G04 #@! TO.N,/U3V1*
X168200000Y-129600000D03*
G04 #@! TD*
G04 #@! TO.P,TP23,1*
G04 #@! TO.N,/U3V2*
X162031680Y-133725920D03*
G04 #@! TD*
G04 #@! TO.P,TP24,1*
G04 #@! TO.N,/U3V3*
X162000000Y-118200000D03*
G04 #@! TD*
G04 #@! TO.P,TP25,1*
G04 #@! TO.N,/U3V4*
X153000000Y-140667998D03*
G04 #@! TD*
G04 #@! TO.P,TP26,1*
G04 #@! TO.N,/SDA*
X133500000Y-162000000D03*
G04 #@! TD*
G04 #@! TO.P,TP27,1*
G04 #@! TO.N,/SCL*
X131000000Y-164000000D03*
G04 #@! TD*
G04 #@! TO.P,TP28,1*
G04 #@! TO.N,/A0*
X146700000Y-155100000D03*
G04 #@! TD*
G04 #@! TO.P,TP29,1*
G04 #@! TO.N,/A1*
X140600000Y-135700000D03*
G04 #@! TD*
G04 #@! TO.P,TP30,1*
G04 #@! TO.N,/A2*
X140440000Y-138600000D03*
G04 #@! TD*
D18*
G04 #@! TO.P,U1,0*
G04 #@! TO.N,GND*
X120250000Y-169250000D03*
X119750000Y-169250000D03*
X119750000Y-168750000D03*
X120250000Y-168750000D03*
G04 #@! TD*
G04 #@! TO.P,U2,0*
G04 #@! TO.N,GND*
X83000000Y-130262500D03*
X83000000Y-129662500D03*
X83000000Y-130862500D03*
X83000000Y-131462500D03*
G04 #@! TD*
G04 #@! TO.P,U3,0*
G04 #@! TO.N,GND*
X157000000Y-130862500D03*
X157000000Y-131462500D03*
X157000000Y-130262500D03*
X157000000Y-129662500D03*
G04 #@! TD*
D14*
G04 #@! TO.P,J1,1*
G04 #@! TO.N,GND*
X72192000Y-115310000D03*
D15*
G04 #@! TO.P,J1,2*
G04 #@! TO.N,VCC*
X72192000Y-117850000D03*
G04 #@! TO.P,J1,3*
G04 #@! TO.N,Net-(J1-Pad3)*
X74732000Y-115310000D03*
G04 #@! TO.P,J1,4*
G04 #@! TO.N,Net-(J1-Pad4)*
X74732000Y-117850000D03*
G04 #@! TO.P,J1,5*
G04 #@! TO.N,Net-(J1-Pad5)*
X77272000Y-115310000D03*
G04 #@! TO.P,J1,6*
G04 #@! TO.N,Net-(J1-Pad6)*
X77272000Y-117850000D03*
G04 #@! TO.P,J1,7*
G04 #@! TO.N,Net-(J1-Pad7)*
X79812000Y-115310000D03*
G04 #@! TO.P,J1,8*
G04 #@! TO.N,Net-(J1-Pad8)*
X79812000Y-117850000D03*
G04 #@! TO.P,J1,9*
G04 #@! TO.N,Net-(J1-Pad9)*
X82352000Y-115310000D03*
G04 #@! TO.P,J1,10*
G04 #@! TO.N,Net-(J1-Pad10)*
X82352000Y-117850000D03*
G04 #@! TO.P,J1,11*
G04 #@! TO.N,Net-(J1-Pad11)*
X84892000Y-115310000D03*
G04 #@! TO.P,J1,12*
G04 #@! TO.N,Net-(J1-Pad12)*
X84892000Y-117850000D03*
G04 #@! TO.P,J1,13*
G04 #@! TO.N,Net-(J1-Pad13)*
X87432000Y-115310000D03*
G04 #@! TO.P,J1,14*
G04 #@! TO.N,Net-(J1-Pad14)*
X87432000Y-117850000D03*
G04 #@! TO.P,J1,15*
G04 #@! TO.N,Net-(J1-Pad15)*
X89972000Y-115310000D03*
G04 #@! TO.P,J1,16*
G04 #@! TO.N,Net-(J1-Pad16)*
X89972000Y-117850000D03*
G04 #@! TO.P,J1,17*
G04 #@! TO.N,Net-(J1-Pad17)*
X92512000Y-115310000D03*
G04 #@! TO.P,J1,18*
G04 #@! TO.N,Net-(J1-Pad18)*
X92512000Y-117850000D03*
G04 #@! TO.P,J1,19*
G04 #@! TO.N,Net-(J1-Pad19)*
X95052000Y-115310000D03*
G04 #@! TO.P,J1,20*
G04 #@! TO.N,Net-(J1-Pad20)*
X95052000Y-117850000D03*
G04 #@! TO.P,J1,21*
G04 #@! TO.N,Net-(J1-Pad21)*
X97592000Y-115310000D03*
G04 #@! TO.P,J1,22*
G04 #@! TO.N,Net-(J1-Pad22)*
X97592000Y-117850000D03*
G04 #@! TO.P,J1,23*
G04 #@! TO.N,Net-(J1-Pad23)*
X100132000Y-115310000D03*
G04 #@! TO.P,J1,24*
G04 #@! TO.N,Net-(J1-Pad24)*
X100132000Y-117850000D03*
G04 #@! TO.P,J1,25*
G04 #@! TO.N,Net-(J1-Pad25)*
X102672000Y-115310000D03*
G04 #@! TO.P,J1,26*
G04 #@! TO.N,Net-(J1-Pad26)*
X102672000Y-117850000D03*
G04 #@! TO.P,J1,27*
G04 #@! TO.N,Net-(J1-Pad27)*
X105212000Y-115310000D03*
G04 #@! TO.P,J1,28*
G04 #@! TO.N,Net-(J1-Pad28)*
X105212000Y-117850000D03*
G04 #@! TO.P,J1,29*
G04 #@! TO.N,Net-(J1-Pad29)*
X107752000Y-115310000D03*
G04 #@! TO.P,J1,30*
G04 #@! TO.N,Net-(J1-Pad30)*
X107752000Y-117850000D03*
G04 #@! TO.P,J1,31*
G04 #@! TO.N,Net-(J1-Pad31)*
X110292000Y-115310000D03*
G04 #@! TO.P,J1,32*
G04 #@! TO.N,Net-(J1-Pad32)*
X110292000Y-117850000D03*
G04 #@! TO.P,J1,33*
G04 #@! TO.N,Net-(J1-Pad33)*
X112832000Y-115310000D03*
G04 #@! TO.P,J1,34*
G04 #@! TO.N,Net-(J1-Pad34)*
X112832000Y-117850000D03*
G04 #@! TO.P,J1,35*
G04 #@! TO.N,Net-(J1-Pad35)*
X115372000Y-115310000D03*
G04 #@! TO.P,J1,36*
G04 #@! TO.N,Net-(J1-Pad36)*
X115372000Y-117850000D03*
G04 #@! TO.P,J1,37*
G04 #@! TO.N,Net-(J1-Pad37)*
X117912000Y-115310000D03*
G04 #@! TO.P,J1,38*
G04 #@! TO.N,Net-(J1-Pad38)*
X117912000Y-117850000D03*
G04 #@! TO.P,J1,39*
G04 #@! TO.N,Net-(J1-Pad39)*
X120452000Y-115310000D03*
G04 #@! TO.P,J1,40*
G04 #@! TO.N,Net-(J1-Pad40)*
X120452000Y-117850000D03*
G04 #@! TD*
D14*
G04 #@! TO.P,J2,1*
G04 #@! TO.N,GND*
X72192000Y-161030000D03*
D15*
G04 #@! TO.P,J2,2*
G04 #@! TO.N,Net-(J2-Pad2)*
X72192000Y-163570000D03*
G04 #@! TO.P,J2,3*
G04 #@! TO.N,Net-(J2-Pad3)*
X74732000Y-161030000D03*
G04 #@! TO.P,J2,4*
G04 #@! TO.N,Net-(J2-Pad4)*
X74732000Y-163570000D03*
G04 #@! TO.P,J2,5*
G04 #@! TO.N,Net-(J2-Pad5)*
X77272000Y-161030000D03*
G04 #@! TO.P,J2,6*
G04 #@! TO.N,/EXT_U1CTRL*
X77272000Y-163570000D03*
G04 #@! TO.P,J2,7*
G04 #@! TO.N,/EXT_U3CTRL0*
X79812000Y-161030000D03*
G04 #@! TO.P,J2,8*
G04 #@! TO.N,/EXT_U3CTRL1*
X79812000Y-163570000D03*
G04 #@! TO.P,J2,9*
G04 #@! TO.N,/EXT_U2CTRL0*
X82352000Y-161030000D03*
G04 #@! TO.P,J2,10*
G04 #@! TO.N,/EXT_U2CTRL1*
X82352000Y-163570000D03*
G04 #@! TO.P,J2,11*
G04 #@! TO.N,Net-(J2-Pad11)*
X84892000Y-161030000D03*
G04 #@! TO.P,J2,12*
G04 #@! TO.N,Net-(J2-Pad12)*
X84892000Y-163570000D03*
G04 #@! TO.P,J2,13*
G04 #@! TO.N,Net-(J2-Pad13)*
X87432000Y-161030000D03*
G04 #@! TO.P,J2,14*
G04 #@! TO.N,Net-(J2-Pad14)*
X87432000Y-163570000D03*
G04 #@! TO.P,J2,15*
G04 #@! TO.N,Net-(J2-Pad15)*
X89972000Y-161030000D03*
G04 #@! TO.P,J2,16*
G04 #@! TO.N,Net-(J2-Pad16)*
X89972000Y-163570000D03*
G04 #@! TO.P,J2,17*
G04 #@! TO.N,Net-(J2-Pad17)*
X92512000Y-161030000D03*
G04 #@! TO.P,J2,18*
G04 #@! TO.N,Net-(J2-Pad18)*
X92512000Y-163570000D03*
G04 #@! TO.P,J2,19*
G04 #@! TO.N,Net-(J2-Pad19)*
X95052000Y-161030000D03*
G04 #@! TO.P,J2,20*
G04 #@! TO.N,Net-(J2-Pad20)*
X95052000Y-163570000D03*
G04 #@! TO.P,J2,21*
G04 #@! TO.N,Net-(J2-Pad21)*
X97592000Y-161030000D03*
G04 #@! TO.P,J2,22*
G04 #@! TO.N,Net-(J2-Pad22)*
X97592000Y-163570000D03*
G04 #@! TO.P,J2,23*
G04 #@! TO.N,Net-(J2-Pad23)*
X100132000Y-161030000D03*
G04 #@! TO.P,J2,24*
G04 #@! TO.N,Net-(J2-Pad24)*
X100132000Y-163570000D03*
G04 #@! TO.P,J2,25*
G04 #@! TO.N,Net-(J2-Pad25)*
X102672000Y-161030000D03*
G04 #@! TO.P,J2,26*
G04 #@! TO.N,Net-(J2-Pad26)*
X102672000Y-163570000D03*
G04 #@! TO.P,J2,27*
G04 #@! TO.N,Net-(J2-Pad27)*
X105212000Y-161030000D03*
G04 #@! TO.P,J2,28*
G04 #@! TO.N,Net-(J2-Pad28)*
X105212000Y-163570000D03*
G04 #@! TO.P,J2,29*
G04 #@! TO.N,Net-(J2-Pad29)*
X107752000Y-161030000D03*
G04 #@! TO.P,J2,30*
G04 #@! TO.N,Net-(J2-Pad30)*
X107752000Y-163570000D03*
G04 #@! TO.P,J2,31*
G04 #@! TO.N,Net-(J2-Pad31)*
X110292000Y-161030000D03*
G04 #@! TO.P,J2,32*
G04 #@! TO.N,Net-(J2-Pad32)*
X110292000Y-163570000D03*
G04 #@! TO.P,J2,33*
G04 #@! TO.N,Net-(J2-Pad33)*
X112832000Y-161030000D03*
G04 #@! TO.P,J2,34*
G04 #@! TO.N,Net-(J2-Pad34)*
X112832000Y-163570000D03*
G04 #@! TO.P,J2,35*
G04 #@! TO.N,Net-(J2-Pad35)*
X115372000Y-161030000D03*
G04 #@! TO.P,J2,36*
G04 #@! TO.N,Net-(J2-Pad36)*
X115372000Y-163570000D03*
G04 #@! TO.P,J2,37*
G04 #@! TO.N,Net-(J2-Pad37)*
X117912000Y-161030000D03*
G04 #@! TO.P,J2,38*
G04 #@! TO.N,Net-(J2-Pad38)*
X117912000Y-163570000D03*
G04 #@! TO.P,J2,39*
G04 #@! TO.N,/SDA*
X120452000Y-161030000D03*
G04 #@! TO.P,J2,40*
G04 #@! TO.N,/SCL*
X120452000Y-163570000D03*
G04 #@! TD*
D19*
G04 #@! TO.N,GND*
X130652520Y-129113280D03*
X159623760Y-133380480D03*
X155006040Y-127863600D03*
X154183080Y-133426200D03*
X122428000Y-167050720D03*
X117546120Y-166938960D03*
X112768380Y-136154160D03*
X113878360Y-130962400D03*
X115046760Y-122392440D03*
X127342900Y-129204720D03*
X125674120Y-122915680D03*
X133741160Y-122128280D03*
X130286760Y-116593620D03*
X130276600Y-119171720D03*
X125547120Y-111579660D03*
X137822940Y-106649520D03*
X125925580Y-115968780D03*
X126100840Y-119141240D03*
X160680400Y-129082800D03*
X142234920Y-127662940D03*
X130540760Y-111693960D03*
X127086360Y-111328200D03*
X132918200Y-110769400D03*
X128549400Y-108026200D03*
X86817200Y-128041400D03*
X79603600Y-127914400D03*
X79298800Y-133070600D03*
X85293200Y-134188200D03*
X123002359Y-169523597D03*
X120000000Y-166000000D03*
X120000000Y-172000000D03*
X117000000Y-169528703D03*
X149200000Y-119100000D03*
D20*
X128100000Y-137700000D03*
D19*
X119536777Y-123975619D03*
X127300000Y-125100000D03*
X119536777Y-128975619D03*
X119536777Y-133275619D03*
X131300000Y-125100000D03*
X139200000Y-136900000D03*
D21*
X149000000Y-148800000D03*
D19*
X69100000Y-109900000D03*
X69100000Y-122300000D03*
X69100000Y-134600000D03*
X69100000Y-147000000D03*
X69100000Y-159400000D03*
X170900000Y-159400000D03*
X165900000Y-147400000D03*
X165900000Y-134700000D03*
X170900000Y-122300000D03*
X170900000Y-109900000D03*
X131046220Y-132532120D03*
G04 #@! TO.N,VCC*
X114929920Y-134223760D03*
X114993420Y-128945640D03*
X115023900Y-124228860D03*
X128671320Y-129128520D03*
X127833120Y-122011440D03*
X132227320Y-121970800D03*
X132184140Y-116166900D03*
X125592840Y-110215680D03*
X136634220Y-108821220D03*
X127947420Y-115648740D03*
X132648960Y-128976120D03*
X132702300Y-132623560D03*
X141000480Y-127502920D03*
D21*
X61500000Y-168000000D03*
X178500000Y-168000000D03*
D20*
X116600000Y-137600000D03*
D21*
X136700000Y-121700000D03*
X124300000Y-125200000D03*
X131570000Y-105623600D03*
X135570000Y-105623600D03*
D19*
X118336777Y-122375619D03*
X118336777Y-127375619D03*
D21*
X129500000Y-139500000D03*
X132000000Y-166100000D03*
X142700000Y-168600000D03*
D20*
G04 #@! TO.N,Net-(DA0-Pad1)*
X108458000Y-154686000D03*
D21*
X65150000Y-167100000D03*
G04 #@! TO.N,/U2V3*
X86100004Y-139200000D03*
D20*
X61550000Y-155300000D03*
D21*
X124200000Y-128000000D03*
G04 #@! TO.N,Net-(DAG1-Pad1)*
X66100000Y-141900000D03*
X109200000Y-136800000D03*
X66850000Y-117100000D03*
X112836777Y-132552290D03*
X66850000Y-129500000D03*
X106800000Y-138200000D03*
X66100000Y-154200000D03*
G04 #@! TO.N,/U2V1*
X125902720Y-121033540D03*
X76200000Y-134599996D03*
D20*
X61550000Y-142900000D03*
D21*
G04 #@! TO.N,/U2V2*
X126227840Y-114259360D03*
X123520200Y-121513600D03*
X123520200Y-118084600D03*
X79100000Y-130000000D03*
D20*
X61550000Y-130550000D03*
G04 #@! TO.N,/U2V4*
X61550000Y-118150000D03*
D21*
X85000000Y-126599986D03*
G04 #@! TO.N,Net-(DAY1-Pad1)*
X66850000Y-132000000D03*
X108158000Y-134842000D03*
X66850000Y-119300000D03*
X109200000Y-131893440D03*
X106000000Y-137000000D03*
X66100000Y-144000000D03*
X106000000Y-140000000D03*
X66100000Y-156400000D03*
G04 #@! TO.N,Net-(DB0-Pad1)*
X136500000Y-142500000D03*
X174850000Y-167100000D03*
D20*
G04 #@! TO.N,/U3V3*
X178450000Y-118200000D03*
D21*
X156100000Y-118200000D03*
G04 #@! TO.N,Net-(DBG1-Pad1)*
X168000000Y-154000000D03*
X171700000Y-139500000D03*
X173700000Y-128600000D03*
X112300000Y-122700000D03*
X173900000Y-117000000D03*
G04 #@! TO.N,/U3V1*
X151600000Y-115400000D03*
X136200000Y-115400000D03*
X130425400Y-115382200D03*
D20*
X178450000Y-130500000D03*
D21*
X166800000Y-129600000D03*
G04 #@! TO.N,/U3V2*
X151900000Y-120200000D03*
X141000000Y-118000000D03*
X130547710Y-123100000D03*
D20*
X161096960Y-131084320D03*
X178450000Y-142900000D03*
G04 #@! TO.N,/U3V4*
X152127904Y-137872076D03*
D21*
X130000000Y-128000000D03*
D20*
X178450000Y-155300000D03*
D21*
G04 #@! TO.N,Net-(DBY1-Pad1)*
X134500000Y-116800000D03*
X114198400Y-125603000D03*
X169875002Y-139425000D03*
X146300000Y-116700000D03*
X168000000Y-157000000D03*
X149596497Y-116800000D03*
X151157496Y-116800000D03*
X168000000Y-131800000D03*
X153700000Y-116800000D03*
X173900000Y-119300000D03*
G04 #@! TO.N,/EXT_U3CTRL1*
X143704580Y-131348520D03*
D20*
X150200000Y-126600000D03*
D21*
G04 #@! TO.N,/EXT_U2CTRL1*
X145000000Y-133000000D03*
D20*
X149000000Y-128000000D03*
D21*
G04 #@! TO.N,/EXT_U3CTRL0*
X143056870Y-130526887D03*
D20*
X150800000Y-125900000D03*
G04 #@! TO.N,/EXT_U2CTRL0*
X149600000Y-127300000D03*
D21*
X144352290Y-132184023D03*
G04 #@! TO.N,/EXT_U1CTRL*
X143600000Y-124700000D03*
D20*
X151400000Y-125200000D03*
D21*
G04 #@! TO.N,/SDA*
X125700000Y-159700000D03*
X134400000Y-138500000D03*
G04 #@! TO.N,/SCL*
X133300000Y-138400000D03*
G04 #@! TO.N,/A0*
X135500000Y-138100000D03*
G04 #@! TO.N,/A1*
X135700000Y-135700000D03*
G04 #@! TO.N,/A2*
X136300000Y-138600000D03*
G04 #@! TO.N,Net-(R1-Pad2)*
X113000000Y-127800000D03*
X115100000Y-127800000D03*
G04 #@! TO.N,/!LED_EN*
X137800000Y-139247710D03*
G04 #@! TO.N,/!RESET*
X134375000Y-132559674D03*
G04 #@! TO.N,/!OE*
X139491720Y-129783840D03*
X134600000Y-129800000D03*
G04 #@! TO.N,/U2CTRL1*
X133700000Y-127600000D03*
X140600000Y-124100000D03*
G04 #@! TO.N,/U2CTRL0*
X126034800Y-129936240D03*
X128031240Y-127254000D03*
X127814001Y-131942523D03*
G04 #@! TO.N,/U3CTRL1*
X134010400Y-111810800D03*
X130743960Y-109773720D03*
X133970000Y-105623600D03*
G04 #@! TO.N,/U3CTRL0*
X133715760Y-121013220D03*
X139500000Y-120500000D03*
X134400000Y-124900000D03*
X130360309Y-121933122D03*
D20*
G04 #@! TO.N,/U1CTRL*
X119400000Y-135400000D03*
D21*
X143600000Y-121000000D03*
X137700000Y-126600000D03*
G04 #@! TO.N,/U1VC1*
X124404120Y-167830500D03*
D20*
X110871000Y-150749000D03*
D21*
X116128800Y-126517400D03*
X115392200Y-131470400D03*
G04 #@! TO.N,/U1VC2*
X112974120Y-152643840D03*
D20*
X115427760Y-168325800D03*
G04 #@! TD*
D22*
G04 #@! TO.N,GND*
X79298800Y-133070600D02*
X79273400Y-133070600D01*
D23*
X111000000Y-128000000D02*
X107000000Y-128000000D01*
X107000000Y-128000000D02*
X106990000Y-128010000D01*
D22*
X131046220Y-132532120D02*
X131046220Y-132519420D01*
D23*
G04 #@! TO.N,VCC*
X124300000Y-125200000D02*
X122300000Y-125200000D01*
G04 #@! TO.N,Net-(DA0-Pad1)*
X108458000Y-154686000D02*
X100965000Y-154686000D01*
X100965000Y-154686000D02*
X96393000Y-159258000D01*
X96393000Y-159258000D02*
X96393000Y-164338000D01*
X96393000Y-164338000D02*
X93631000Y-167100000D01*
X93631000Y-167100000D02*
X65150000Y-167100000D01*
G04 #@! TO.N,/U2V3*
X112076318Y-139200000D02*
X123276318Y-128000000D01*
X86100004Y-139899996D02*
X86100004Y-139200000D01*
X85300000Y-140700000D02*
X86100004Y-139899996D01*
X70700000Y-155300000D02*
X61550000Y-155300000D01*
X85300000Y-140700000D02*
X70700000Y-155300000D01*
X123276318Y-128000000D02*
X124200000Y-128000000D01*
X86100004Y-139200000D02*
X112076318Y-139200000D01*
G04 #@! TO.N,Net-(DAG1-Pad1)*
X109200000Y-136800000D02*
X108391598Y-135991598D01*
X66100000Y-141900000D02*
X74047705Y-133952295D01*
X76472095Y-133952295D02*
X74047705Y-133952295D01*
X78511398Y-135991598D02*
X76472095Y-133952295D01*
X108391598Y-135991598D02*
X78511398Y-135991598D01*
X66850000Y-129500000D02*
X67243699Y-129106301D01*
X67243699Y-129106301D02*
X79164899Y-129106301D01*
X68902908Y-117100000D02*
X66850000Y-117100000D01*
X107415722Y-123100000D02*
X74902908Y-123100000D01*
X112836777Y-132552290D02*
X112836777Y-129236777D01*
X111889001Y-127573279D02*
X107415722Y-123100000D01*
X111889001Y-128289001D02*
X111889001Y-127573279D01*
X112836777Y-129236777D02*
X111889001Y-128289001D01*
X74902908Y-123100000D02*
X68902908Y-117100000D01*
X112836777Y-132552290D02*
X82610888Y-132552290D01*
X82610888Y-132552290D02*
X79164899Y-129106301D01*
X85000000Y-138200000D02*
X106800000Y-138200000D01*
X69000000Y-154200000D02*
X85000000Y-138200000D01*
X66100000Y-154200000D02*
X69000000Y-154200000D01*
G04 #@! TO.N,/U2V1*
X125935740Y-121566940D02*
X126923800Y-122555000D01*
X125935740Y-121066560D02*
X125935740Y-121566940D01*
X125902720Y-121033540D02*
X125935740Y-121066560D01*
X108889103Y-137447701D02*
X107788602Y-136347200D01*
X107788602Y-136347200D02*
X77947204Y-136347200D01*
X77947204Y-136347200D02*
X76200000Y-134599996D01*
X113263074Y-137447701D02*
X126923800Y-123786975D01*
X108889103Y-137447701D02*
X113263074Y-137447701D01*
X126923800Y-122555000D02*
X126923800Y-123786975D01*
X76200000Y-134600000D02*
X76200000Y-134599996D01*
X67900000Y-142900000D02*
X76200000Y-134600000D01*
X67900000Y-142900000D02*
X61550000Y-142900000D01*
G04 #@! TO.N,/U2V2*
X126227840Y-114259360D02*
X125821440Y-114259360D01*
X125821440Y-114259360D02*
X123520200Y-116560600D01*
X123520200Y-116560600D02*
X123520200Y-118084600D01*
X79100000Y-130000000D02*
X82300000Y-133200000D01*
X116477750Y-133200000D02*
X121200000Y-128477750D01*
X82300000Y-133200000D02*
X116477750Y-133200000D01*
X121200000Y-128477750D02*
X121200000Y-123200000D01*
X122886400Y-121513600D02*
X121200000Y-123200000D01*
X123520200Y-121513600D02*
X122886400Y-121513600D01*
X73500000Y-130500000D02*
X61600000Y-130500000D01*
X61600000Y-130500000D02*
X61550000Y-130550000D01*
X73450000Y-130550000D02*
X73500000Y-130500000D01*
X73500000Y-130500000D02*
X78600000Y-130500000D01*
X78600000Y-130500000D02*
X79100000Y-130000000D01*
G04 #@! TO.N,/U2V4*
X69450000Y-118150000D02*
X61550000Y-118150000D01*
X82400000Y-124000000D02*
X84999986Y-126599986D01*
X84999986Y-126599986D02*
X85000000Y-126599986D01*
X69450000Y-118150000D02*
X75300000Y-124000000D01*
X75300000Y-124000000D02*
X82400000Y-124000000D01*
G04 #@! TO.N,Net-(DAY1-Pad1)*
X108158000Y-134842000D02*
X107364004Y-135635996D01*
X75022698Y-132000000D02*
X66850000Y-132000000D01*
X78658694Y-135635996D02*
X75022698Y-132000000D01*
X107364004Y-135635996D02*
X78658694Y-135635996D01*
X69861506Y-119300000D02*
X66850000Y-119300000D01*
X69861506Y-119300000D02*
X82506607Y-131945101D01*
X82506607Y-131945101D02*
X109148339Y-131945101D01*
X109148339Y-131945101D02*
X109200000Y-131893440D01*
X106000000Y-137000000D02*
X105155610Y-137844390D01*
X105155610Y-137844390D02*
X74271332Y-137844390D01*
X74271332Y-137844390D02*
X68115722Y-144000000D01*
X68115722Y-144000000D02*
X66100000Y-144000000D01*
X74600000Y-156400000D02*
X91000000Y-140000000D01*
X91000000Y-140000000D02*
X106000000Y-140000000D01*
X66100000Y-156400000D02*
X74600000Y-156400000D01*
G04 #@! TO.N,Net-(DB0-Pad1)*
X174850000Y-167100000D02*
X174293225Y-167100000D01*
X146926001Y-167126001D02*
X146106001Y-166306001D01*
X174293225Y-167100000D02*
X174267224Y-167126001D01*
X174267224Y-167126001D02*
X146926001Y-167126001D01*
X146106001Y-158506001D02*
X136500000Y-148900000D01*
X136500000Y-148900000D02*
X136500000Y-142500000D01*
X146106001Y-166306001D02*
X146106001Y-158506001D01*
G04 #@! TO.N,/U3V3*
X162000000Y-118200000D02*
X178450000Y-118200000D01*
X156100000Y-118200000D02*
X162000000Y-118200000D01*
G04 #@! TO.N,Net-(DBG1-Pad1)*
X147398326Y-112500000D02*
X125041402Y-112500000D01*
X125041402Y-112500000D02*
X122500000Y-115041402D01*
X119800000Y-120400000D02*
X114600000Y-120400000D01*
X122500000Y-115041402D02*
X122500000Y-117700000D01*
X122500000Y-117700000D02*
X119800000Y-120400000D01*
X114600000Y-120400000D02*
X112300000Y-122700000D01*
X150309161Y-112500000D02*
X147398326Y-112500000D01*
X147400000Y-132300000D02*
X147400000Y-118200000D01*
X147400000Y-118200000D02*
X147398326Y-118198326D01*
X147398326Y-118198326D02*
X147398326Y-112500000D01*
X168000000Y-154000000D02*
X153596901Y-139596901D01*
X153596901Y-139596901D02*
X153596901Y-138496901D01*
X153596901Y-138496901D02*
X147400000Y-132300000D01*
X169400000Y-112500000D02*
X152909744Y-112500000D01*
X152909744Y-112500000D02*
X150309161Y-112500000D01*
X152900000Y-116958598D02*
X152900000Y-112509744D01*
X152900000Y-112509744D02*
X152909744Y-112500000D01*
X173700000Y-128600000D02*
X164541402Y-128600000D01*
X164541402Y-128600000D02*
X152900000Y-116958598D01*
X150309161Y-116952843D02*
X150309161Y-112500000D01*
X171700000Y-139500000D02*
X171700000Y-137876318D01*
X171700000Y-137876318D02*
X170469683Y-136646001D01*
X170002319Y-136646001D02*
X150309161Y-116952843D01*
X170469683Y-136646001D02*
X170002319Y-136646001D01*
X173900000Y-117000000D02*
X169400000Y-112500000D01*
G04 #@! TO.N,/U3V1*
X136073000Y-115349200D02*
X130458400Y-115349200D01*
X151600000Y-116161506D02*
X151600000Y-115400000D01*
X165038494Y-129600000D02*
X151600000Y-116161506D01*
X166800000Y-129600000D02*
X165038494Y-129600000D01*
X174600000Y-130500000D02*
X178450000Y-130500000D01*
X168200000Y-129600000D02*
X166800000Y-129600000D01*
X174600000Y-130500000D02*
X173065001Y-128965001D01*
X173065001Y-128965001D02*
X168834999Y-128965001D01*
X168834999Y-128965001D02*
X168200000Y-129600000D01*
G04 #@! TO.N,/U3V2*
X161096960Y-130799840D02*
X159735520Y-129438400D01*
X159735520Y-129438400D02*
X158109920Y-129438400D01*
X158109920Y-129438400D02*
X156728160Y-128056640D01*
X156728160Y-128056640D02*
X156728160Y-125028160D01*
X156728160Y-125028160D02*
X151900000Y-120200000D01*
X130154011Y-123493699D02*
X130547710Y-123100000D01*
X130154011Y-123493699D02*
X130154011Y-125119365D01*
X130154011Y-125119365D02*
X130922047Y-125887401D01*
X130922047Y-125887401D02*
X134449403Y-125887401D01*
X134449403Y-125887401D02*
X139189103Y-121147701D01*
X139189103Y-121147701D02*
X139810897Y-121147701D01*
X139810897Y-121147701D02*
X141000000Y-119958598D01*
X141000000Y-119958598D02*
X141000000Y-118000000D01*
X161096960Y-131084320D02*
X161096960Y-130799840D01*
X161991040Y-131978400D02*
X161991040Y-133685280D01*
X161096960Y-131084320D02*
X161991040Y-131978400D01*
X161991040Y-133685280D02*
X162031680Y-133725920D01*
X174400000Y-142900000D02*
X178450000Y-142900000D01*
X174400000Y-142900000D02*
X173300000Y-141800000D01*
X173300000Y-141800000D02*
X170100000Y-141800000D01*
X170100000Y-141800000D02*
X162034999Y-133734999D01*
G04 #@! TO.N,/U3V4*
X146610897Y-116052299D02*
X146947701Y-116389103D01*
X129606301Y-121728532D02*
X130692871Y-120641962D01*
X146947701Y-116389103D02*
X146947701Y-132691873D01*
X132119544Y-120641962D02*
X136709207Y-116052299D01*
X136709207Y-116052299D02*
X146610897Y-116052299D01*
X130000000Y-128000000D02*
X129606301Y-127606301D01*
X129606301Y-127606301D02*
X129606301Y-121728532D01*
X130692871Y-120641962D02*
X132119544Y-120641962D01*
X146947701Y-132691873D02*
X152127904Y-137872076D01*
X174900000Y-155300000D02*
X178450000Y-155300000D01*
X153000000Y-138744172D02*
X152127904Y-137872076D01*
X153000000Y-140667998D02*
X153000000Y-138744172D01*
X167266001Y-154933999D02*
X153000000Y-140667998D01*
X174900000Y-155300000D02*
X174533999Y-154933999D01*
X174533999Y-154933999D02*
X167266001Y-154933999D01*
G04 #@! TO.N,Net-(DBY1-Pad1)*
X134500000Y-116800000D02*
X132961400Y-118338600D01*
X132961400Y-118338600D02*
X124866400Y-118338600D01*
X124866400Y-118338600D02*
X120751600Y-122453400D01*
X120472200Y-125603000D02*
X114198400Y-125603000D01*
X120751600Y-125323600D02*
X120472200Y-125603000D01*
X120751600Y-122453400D02*
X120751600Y-125323600D01*
X169450002Y-139000000D02*
X169875002Y-139425000D01*
X149596497Y-116800000D02*
X169450002Y-136653505D01*
X169450002Y-136653505D02*
X169450002Y-139000000D01*
X146300000Y-135300000D02*
X146300000Y-116700000D01*
X168000000Y-157000000D02*
X146300000Y-135300000D01*
X168000000Y-131800000D02*
X166157496Y-131800000D01*
X166157496Y-131800000D02*
X151157496Y-116800000D01*
X173900000Y-119300000D02*
X171687401Y-121512599D01*
X171687401Y-121512599D02*
X158412599Y-121512599D01*
X158412599Y-121512599D02*
X153700000Y-116800000D01*
G04 #@! TO.N,/EXT_U3CTRL1*
X126163013Y-141878389D02*
X99999929Y-141878389D01*
X99999929Y-141878389D02*
X80828001Y-161050317D01*
X80828001Y-161050317D02*
X80828001Y-162553999D01*
X80828001Y-162553999D02*
X79812000Y-163570000D01*
X151200000Y-128300000D02*
X166150000Y-143250000D01*
X166150000Y-143250000D02*
X170490000Y-143250000D01*
X150200000Y-126600000D02*
X150200000Y-127300000D01*
X150200000Y-127300000D02*
X151200000Y-128300000D01*
X141064320Y-133988780D02*
X134052622Y-133988780D01*
X134052622Y-133988780D02*
X126163013Y-141878389D01*
X143704580Y-131348520D02*
X141064320Y-133988780D01*
G04 #@! TO.N,/EXT_U2CTRL1*
X170490000Y-145790000D02*
X162945160Y-145790000D01*
X149004020Y-131848860D02*
X149004020Y-129804020D01*
X162945160Y-145790000D02*
X149004020Y-131848860D01*
X149004020Y-129804020D02*
X149000000Y-129800000D01*
X125880078Y-144600000D02*
X99818318Y-144600000D01*
X83368001Y-162553999D02*
X82352000Y-163570000D01*
X99818318Y-144600000D02*
X83368001Y-161050317D01*
X83368001Y-161050317D02*
X83368001Y-162553999D01*
X170480000Y-145800000D02*
X170490000Y-145790000D01*
X149000000Y-128000000D02*
X149000000Y-129800000D01*
X135700000Y-134700000D02*
X135700000Y-134780078D01*
X135700000Y-134780078D02*
X125880078Y-144600000D01*
X145000000Y-133000000D02*
X143300000Y-134700000D01*
X143300000Y-134700000D02*
X135700000Y-134700000D01*
G04 #@! TO.N,/EXT_U3CTRL0*
X119000000Y-141500000D02*
X99342000Y-141500000D01*
X99342000Y-141500000D02*
X79812000Y-161030000D01*
X153500000Y-127000000D02*
X151900000Y-127000000D01*
X151900000Y-127000000D02*
X150800000Y-125900000D01*
X173030000Y-143250000D02*
X171935610Y-142155610D01*
X171935610Y-142155610D02*
X166978860Y-142155610D01*
X166978860Y-142155610D02*
X153500000Y-128676750D01*
X153500000Y-128676750D02*
X153500000Y-127000000D01*
X120806001Y-139693999D02*
X119000000Y-141500000D01*
X133905323Y-133633171D02*
X127844495Y-139693999D01*
X127844495Y-139693999D02*
X120806001Y-139693999D01*
X139950587Y-133633170D02*
X133905323Y-133633171D01*
X143056870Y-130526887D02*
X139950587Y-133633170D01*
G04 #@! TO.N,/EXT_U2CTRL0*
X163113720Y-144198340D02*
X162694620Y-144198340D01*
X162694620Y-144198340D02*
X150373080Y-131876800D01*
X149600000Y-128337660D02*
X149600000Y-127300000D01*
X150373080Y-129110740D02*
X149600000Y-128337660D01*
X150373080Y-131876800D02*
X150373080Y-129110740D01*
X173030000Y-145790000D02*
X173030000Y-145788500D01*
X173030000Y-145788500D02*
X171858940Y-144617440D01*
X171858940Y-144617440D02*
X163532820Y-144617440D01*
X163532820Y-144617440D02*
X163113720Y-144198340D01*
X127724599Y-142233999D02*
X101148001Y-142233999D01*
X101148001Y-142233999D02*
X82352000Y-161030000D01*
X142191923Y-134344390D02*
X135552702Y-134344390D01*
X135552702Y-134344390D02*
X130147701Y-139749391D01*
X130147701Y-139749391D02*
X130147701Y-139810897D01*
X130147701Y-139810897D02*
X127724599Y-142233999D01*
X144352290Y-132184023D02*
X142191923Y-134344390D01*
G04 #@! TO.N,/EXT_U1CTRL*
X118852702Y-141144390D02*
X97685930Y-141144390D01*
X97685930Y-141144390D02*
X78288001Y-160542319D01*
X78288001Y-160542319D02*
X78288001Y-162553999D01*
X78288001Y-162553999D02*
X77272000Y-163570000D01*
X163500000Y-148000000D02*
X165353999Y-149853999D01*
X165353999Y-149853999D02*
X172013999Y-149853999D01*
X172013999Y-149853999D02*
X173030000Y-150870000D01*
X151400000Y-125200000D02*
X150200000Y-125200000D01*
X148110999Y-127289001D02*
X148110999Y-131712974D01*
X150200000Y-125200000D02*
X148110999Y-127289001D01*
X148110999Y-131712974D02*
X163500000Y-147101975D01*
X163500000Y-147101975D02*
X163500000Y-148000000D01*
X143600000Y-124700000D02*
X143206301Y-125093699D01*
X139108347Y-133207375D02*
X133828211Y-133207375D01*
X143206301Y-125093699D02*
X143206301Y-129109421D01*
X143206301Y-129109421D02*
X139108347Y-133207375D01*
X133828211Y-133207375D02*
X127697197Y-139338389D01*
X127697197Y-139338389D02*
X120658702Y-139338390D01*
X120658702Y-139338390D02*
X118852702Y-141144390D01*
G04 #@! TO.N,/SDA*
X140010000Y-166110000D02*
X138993999Y-165093999D01*
X138993999Y-165093999D02*
X138993999Y-163590317D01*
X138993999Y-163590317D02*
X137403682Y-162000000D01*
X137403682Y-162000000D02*
X133500000Y-162000000D01*
X125700000Y-159700000D02*
X128000000Y-162000000D01*
X128000000Y-162000000D02*
X133500000Y-162000000D01*
X134793699Y-150606301D02*
X125700000Y-159700000D01*
X134793699Y-138893699D02*
X134793699Y-150606301D01*
X134400000Y-138500000D02*
X134793699Y-138893699D01*
G04 #@! TO.N,/SCL*
X125000000Y-161800000D02*
X122222000Y-161800000D01*
X122222000Y-161800000D02*
X120452000Y-163570000D01*
X125000000Y-161800000D02*
X127200000Y-164000000D01*
X127200000Y-164000000D02*
X131000000Y-164000000D01*
X125000000Y-159300000D02*
X125000000Y-161800000D01*
X134054001Y-150245999D02*
X125000000Y-159300000D01*
X137470000Y-166110000D02*
X133110000Y-166110000D01*
X133110000Y-166110000D02*
X131000000Y-164000000D01*
X133300000Y-138400000D02*
X133300000Y-141780078D01*
X133300000Y-141780078D02*
X134054001Y-142534079D01*
X134054001Y-142534079D02*
X134054001Y-150245999D01*
G04 #@! TO.N,/A0*
X150170000Y-153410000D02*
X148390000Y-153410000D01*
X148390000Y-153410000D02*
X146700000Y-155100000D01*
X150170000Y-153410000D02*
X135500000Y-138740000D01*
X135500000Y-138740000D02*
X135500000Y-138100000D01*
G04 #@! TO.N,/A1*
X140600000Y-135700000D02*
X156266001Y-151366001D01*
X156266001Y-151366001D02*
X156266001Y-153897681D01*
X156266001Y-153897681D02*
X155737681Y-154426001D01*
X155737681Y-154426001D02*
X153726001Y-154426001D01*
X153726001Y-154426001D02*
X152710000Y-153410000D01*
X135700000Y-135700000D02*
X140600000Y-135700000D01*
G04 #@! TO.N,/A2*
X140440000Y-138600000D02*
X155250000Y-153410000D01*
X136300000Y-138600000D02*
X140440000Y-138600000D01*
G04 #@! TO.N,Net-(R1-Pad2)*
X115100000Y-127800000D02*
X113000000Y-127800000D01*
G04 #@! TO.N,/!LED_EN*
X137800000Y-139247710D02*
X139400000Y-140847710D01*
X139400000Y-140847710D02*
X139400000Y-141100000D01*
G04 #@! TO.N,/!RESET*
X134400000Y-131300000D02*
X134400000Y-132534674D01*
X134400000Y-132534674D02*
X134375000Y-132559674D01*
G04 #@! TO.N,/!OE*
X140207880Y-130500000D02*
X139491720Y-129783840D01*
X140207880Y-130500000D02*
X140500000Y-130500000D01*
X140207880Y-130500000D02*
X140500000Y-130500000D01*
X140207880Y-130500000D02*
X140500000Y-130500000D01*
X134600000Y-129800000D02*
X135300000Y-130500000D01*
X135300000Y-130500000D02*
X140500000Y-130500000D01*
G04 #@! TO.N,/U2CTRL1*
X137200000Y-124100000D02*
X133700000Y-127600000D01*
X138600000Y-124100000D02*
X137200000Y-124100000D01*
X140600000Y-124100000D02*
X138600000Y-124100000D01*
G04 #@! TO.N,/U2CTRL0*
X128031240Y-127254000D02*
X128031240Y-127360680D01*
X128031240Y-127360680D02*
X126034800Y-129357120D01*
X126034800Y-129357120D02*
X126034800Y-129936240D01*
X127814001Y-131942523D02*
X129557477Y-131942523D01*
X129557477Y-131942523D02*
X129600000Y-131900000D01*
G04 #@! TO.N,/U3CTRL1*
X133771640Y-111572040D02*
X134010400Y-111810800D01*
X131551680Y-111572040D02*
X133771640Y-111572040D01*
X130743960Y-110764320D02*
X131551680Y-111572040D01*
X130743960Y-109773720D02*
X130743960Y-110764320D01*
X133970000Y-105623600D02*
X133970000Y-104523600D01*
X133970000Y-104523600D02*
X133770000Y-104323600D01*
G04 #@! TO.N,/U3CTRL0*
X133723380Y-121005600D02*
X133723380Y-121000000D01*
X133715760Y-121013220D02*
X133723380Y-121005600D01*
X138200000Y-120500000D02*
X137700000Y-121000000D01*
X131293431Y-121000000D02*
X130360309Y-121933122D01*
X137700000Y-121000000D02*
X133723380Y-121000000D01*
X133723380Y-121000000D02*
X131293431Y-121000000D01*
X138200000Y-120500000D02*
X139500000Y-120500000D01*
X134400000Y-124900000D02*
X132600000Y-123100000D01*
X132600000Y-123100000D02*
X131527187Y-123100000D01*
X131527187Y-123100000D02*
X130360309Y-121933122D01*
X130360309Y-121933122D02*
X130366878Y-121933122D01*
X130366878Y-121933122D02*
X130400000Y-121900000D01*
X130400000Y-121900000D02*
X130360309Y-121933122D01*
G04 #@! TO.N,/U1CTRL*
X118200000Y-136500000D02*
X118300000Y-136500000D01*
X118300000Y-136500000D02*
X119400000Y-135400000D01*
X120900000Y-132916318D02*
X120900000Y-133900000D01*
X120900000Y-133900000D02*
X119400000Y-135400000D01*
X132639320Y-130817880D02*
X126005802Y-130817880D01*
X126005802Y-130817880D02*
X124749683Y-132073999D01*
X124749683Y-132073999D02*
X121742319Y-132073999D01*
X121742319Y-132073999D02*
X120900000Y-132916318D01*
X136857200Y-126600000D02*
X132639320Y-130817880D01*
X137700000Y-126600000D02*
X136857200Y-126600000D01*
X143600000Y-122058598D02*
X143600000Y-121000000D01*
X139058598Y-126600000D02*
X143600000Y-122058598D01*
X137700000Y-126600000D02*
X139058598Y-126600000D01*
G04 #@! TO.N,/U1VC1*
X124404120Y-167830500D02*
X122252740Y-165679120D01*
X122252740Y-165679120D02*
X120879120Y-165679120D01*
X120879120Y-165679120D02*
X119200000Y-164000000D01*
X115800000Y-151000000D02*
X119200000Y-154400000D01*
X119200000Y-154400000D02*
X119200000Y-164000000D01*
X111122000Y-151000000D02*
X115800000Y-151000000D01*
X110871000Y-150749000D02*
X111122000Y-151000000D01*
X116128800Y-126517400D02*
X116128800Y-130733800D01*
X116128800Y-130733800D02*
X115392200Y-131470400D01*
G04 #@! TO.N,/U1VC2*
X113106200Y-152775920D02*
X113106200Y-156286200D01*
X112974120Y-152643840D02*
X113106200Y-152775920D01*
X114106960Y-157286960D02*
X113106200Y-156286200D01*
X114106960Y-167005000D02*
X114106960Y-157286960D01*
X115427760Y-168325800D02*
X114106960Y-167005000D01*
G04 #@! TD*
M02*
